<svg id="Layer_1" data-name="Layer 1" xmlns="http://www.w3.org/2000/svg" viewBox="0 0 657.21 1475.59"><title>mod3</title><path id="svg" fill="none" stroke="#000000" stroke-width="5" d="M134.33,220.62c-12.54-6-12.22-21.27-12-33.21q0.14-8.84.29-17.68c0.08-4.7.84-10.14-.88-14.64-3.18-8.29-13.55-6.66-20.46-5.12-6.43,1.43-20.12,4.88-19.48,13.6,0.14,1.91,3.14,1.93,3,0-0.44-6,9.67-8.6,13.92-9.84,4.63-1.36,10.68-3,15.47-1.69,6.7,1.85,5.56,9.56,5.47,14.9l-0.23,14c-0.23,14.5-2.33,34.74,13.41,42.32C134.55,224,136.07,221.46,134.33,220.62Z" transform="translate(-81.75 -148.71)"/><path d="M178.16,221.74a50,50,0,0,1,13-4.55c2.93-.56,5.86-1.38,8.47.95a21,21,0,0,1,3.21,4.72c4,7,5.66,15,6.58,22.93,1.67,14.4,1.06,29.11,6.78,42.73,0.74,1.75,3.64,1,2.89-.8-7.42-17.66-4-37.25-9.18-55.43-1.61-5.67-4.6-15-10.24-18-3-1.57-7.08-.5-10.17.16a54.07,54.07,0,0,0-12.89,4.67c-1.73.86-.21,3.45,1.51,2.59h0Z" transform="translate(-81.75 -148.71)"/><path d="M356.62,371.06c-2.38-6.76,1.51-14.35,9.16-14.7,6.53-.3,10.44,5.27,12.6,10.68,4.25,10.61,6.93,22.06,10.26,33,5.73,18.75,10.4,39,23.67,54.14,1.28,1.45,3.39-.68,2.12-2.12-9-10.21-13.67-22.95-17.68-35.74-4.55-14.53-8.89-29.13-13.36-43.68-2.56-8.34-6.47-19.1-16.91-19.25-9.83-.14-15.93,9.5-12.77,18.48,0.64,1.81,3.54,1,2.89-.8h0Z" transform="translate(-81.75 -148.71)"/><path d="M195.36,661c4.1-36.23-5-73,2-109,3.52-18.27,12.1-34.28,23.09-49.12,9.89-13.37,20.64-27.19,33.7-37.63,6.64-5.31,14.18-9.66,22.47-11.78,3.33-.85,5.5-1.33,8.6.38s3.51,3.16,4.47,6.26c1.39,4.46,2.44,9.07,3.42,13.64,3.89,18,5.5,36.35,6.3,54.69,1.53,35.16,0,70.56,5.06,105.49,2.39,16.53,6.22,33.18,12.84,48.57,2.53,5.87,5.8,11.74,10.9,15.75,5.94,4.67,13.31,5.38,20.6,4.54,29.73-3.44,57.4-20.2,77.75-41.58,22.77-23.93,37-54.71,44.42-86.66,7-30.33,9.74-63.28,3.14-93.93-3-14-8.27-27.75-16.6-39.51-3.83-5.4-8.38-11.26-13.84-15.1-5.07-3.56-10.41-2.11-14.83,1.78-5.64,5-10.24,12-14.24,18.27A115.84,115.84,0,0,0,404,467a89,89,0,0,0-5.24,44.73c2.21,14.62,8.47,28.78,18.81,39.49C429,563,444.46,569.77,459.68,575.08c16.4,5.73,34,9.7,51.46,7.15,13.93-2,26.7-8.35,37.61-17.12,24-19.25,39.77-48.24,52.88-75.48,7.64-15.87,14-32.54,16.76-50,0.88-5.66,2.46-12.86-1.45-17.78-3.14-4-8.8-4.73-13.45-3.51-13.89,3.65-16.31,23.56-19.5,35-5.24,18.77-10.09,37.71-12.75,57-4.54,33-2.49,68.79,14.8,98.09,7.07,12,17.64,23.07,31.92,25.49,14,2.37,28.35-3.23,38.39-12.91,10.81-10.43,17.61-25.52,19.78-40.28,1.86-12.61-1.4-27.25-14.69-32-14.34-5.17-21.79,8-26.32,19.31a249.85,249.85,0,0,0-14.37,53.92c-2.53,15.94-5,32.76-3.56,48.93,1.19,13.18,6,26.32,17.67,33.62,12.1,7.54,27.37,7.05,41,6.16,1.92-.13,1.93-3.13,0-3-13.8.9-29.6,1.56-41.37-7-12.15-8.81-14.76-24.69-14.71-38.72,0.06-16.15,2.4-32.58,5.41-48.41,3.17-16.74,7.68-33.53,14.61-49.13,3-6.84,7.6-14.2,16.1-13.82,8.18,0.37,14.55,7.17,16.68,14.64,4.11,14.39-2.8,32.54-10.76,44.48-8.61,12.92-23,22.43-38.94,21.77s-27.61-12.67-35.08-25.84c-16.29-28.71-18.11-63.37-13.6-95.4,2.41-17.1,6.53-33.9,11.08-50.54,2.15-7.84,4.15-15.79,6.71-23.51,2.39-7.21,6.81-15.39,15.51-15.39,11.42,0,8.79,13.28,7.48,20.67a150.37,150.37,0,0,1-6.15,23.14C603.48,480.15,596,494.91,588,509.29c-13,23.5-29,48-52.95,61.53-29.29,16.49-64.73,7.77-93.28-6.27-13.92-6.85-25.7-16.66-32.85-30.63a76.94,76.94,0,0,1-7.69-42.56c1.59-15.65,7.54-30.6,15.93-43.82,4-6.33,8.67-14,14.83-18.47,5-3.6,9-1.78,13.08,2.12a79.91,79.91,0,0,1,7,7.62c17.69,22,22.78,51.61,22.65,79.13-0.3,59.77-21.47,124.45-72.14,160a128,128,0,0,1-38.07,18.46c-7.2,2.07-15,4-22.55,3.65-8.84-.42-15-5.79-19.2-13.25-7.45-13.29-11.13-29.41-13.86-44.27-2.93-16-4.2-32.21-4.87-48.43-1.31-31.89-.22-63.93-3.9-95.69-0.86-7.41-2-14.79-3.43-22.1-1.37-6.83-2.57-14.43-5.47-20.8-5.47-12-22.66-3.32-30.64,1.49-11.91,7.18-21.43,17.7-30.19,28.34-9.65,11.71-19.18,23.79-26.15,37.34-14.56,28.29-12.92,60-11.43,90.82,0.76,15.83,1.32,31.68-.46,47.46-0.22,1.92,2.79,1.9,3,0h0Z" transform="translate(-81.75 -148.71)"/><path d="M431.43,1194.23c-36.83-30.89-59.62-74-81.16-116.07-12.36-24.16-24.86-48.36-34.47-73.78-9.27-24.51-15.35-50.07-19.22-76-4.52-30.2-6.1-60.75-6.94-91.24l-1.1,1.45c9.41-3.73,19.43,4.92,26.76,10a249,249,0,0,1,20.13,15.69,295.06,295.06,0,0,1,34.39,35.36c21.58,26.1,39.13,55.34,54.39,85.51,8.66,17.13,16.59,34.62,24.12,52.27,0.51,1.19,2.49.83,2.74-.36,10.41-48.21,21.5-96.54,39.4-142.62,8.41-21.65,17.94-43.5,31.25-62.65a117,117,0,0,1,22.35-24.52c2.78-2.24,8.35-7.74,12.24-3.34,1.86,2.11,2.45,6.14,3.09,8.74a96,96,0,0,1,2.45,20c1.44,49.23-12.95,98.84-30.38,144.38-17.73,46.33-40.29,90.56-60.55,135.79-21.93,49-41.25,99.57-48.41,153-0.26,1.91,2.75,1.89,3,0,13.9-103.91,72.9-193.37,109.5-289.76,9.12-24,17-48.59,22.32-73.75,5.19-24.38,9.07-50.34,7.23-75.31a90.09,90.09,0,0,0-2.74-16.94c-1-3.78-2.32-9-6.29-10.74-3.46-1.56-6.73.69-9.46,2.66a99.36,99.36,0,0,0-12.43,10.66c-15.93,16-26.68,36.39-35.92,56.78-24,53.07-37.31,110.11-49.55,166.83l2.74-.36c-27.42-64.23-61-129.37-115.15-175.28a255.28,255.28,0,0,0-22.86-17.31c-7.26-4.87-16.08-11.27-25.16-7.66a1.55,1.55,0,0,0-1.1,1.45c1.49,54,5.44,108.77,23.39,160.1,8.8,25.15,20.66,49.07,32.73,72.76,11.25,22.08,22.43,44.25,35.54,65.31,14.08,22.61,30.53,43.83,51,61,1.47,1.23,3.6-.88,2.12-2.12h0Z" transform="translate(-81.75 -148.71)"/><path d="M409.43,1581.52c0-2.35-.82-5.82,1.07-7.16,2.62-1.85,6.61,1.29,8.53,3.1,4,3.79,6.53,9.08,8.91,14a119.91,119.91,0,0,1,10.13,31.8l2.89-.8q-17.65-56.15-30.84-113.55l-2.51,1.46a155.45,155.45,0,0,1,23.72,38c0.64,1.45,2.75.6,2.8-.76a461.16,461.16,0,0,0-1.67-56.3l-2.56,1.06c9.92,10.06,17.57,21.86,24.94,33.84q11.57,18.81,23.06,37.66a1.52,1.52,0,0,0,2.05.54c7.36-4.53,7.35-14.66,8.27-22.31,1.56-13,2.56-26,3.06-39.12a1.51,1.51,0,0,0-2.95-.4,69.73,69.73,0,0,0,.9,34.84,1.52,1.52,0,0,0,2.89,0,76.37,76.37,0,0,0,5.93-30.71l-2.95.4c1.06,5.73,3.55,14,10.66,14.36,8.39,0.38,13.19-10.94,16.41-16.89,9.81-18.11,17.38-39,19.12-59.67,0.57-6.81.06-14.76-4.15-20.45-3.32-4.5-11.53-8.69-15.64-2.81-2,2.87-1.88,7-1.85,10.3a77.82,77.82,0,0,0,1.55,14.53,79.85,79.85,0,0,0,10.68,26.65,77.93,77.93,0,0,0,9.44,12.15c2.8,2.94,6,6.53,10.34,7,8.28,0.91,13.06-8.68,15.45-15.08h-2.89c1.38,7.23,4.33,17.42,13,18.55s16.92-8,18.69-15.84c1.83-8.12-3.2-18-12.15-18.79a11.79,11.79,0,0,0-12.52,13.5,1.45,1.45,0,0,0,1,1,87.87,87.87,0,0,0,44.15-2.75c1.83-.6,1-3.5-0.8-2.89a84.72,84.72,0,0,1-28.41,4.32c-2.44-.06-4.88-0.22-7.3-0.49-3.32-.38-7.47-0.5-5-5,2.87-5.23,9.36-6,13.81-2.41,9,7.32,3.3,21.36-6,25.4-10.29,4.46-14.13-7.77-15.59-15.43-0.3-1.59-2.43-1.25-2.89,0-1.41,3.77-3.28,7.81-6.32,10.56-5.17,4.67-9.9.89-13.91-3.24a76.4,76.4,0,0,1-21.24-48.62c-0.26-4.88-.79-16.58,8.31-12.15,3.46,1.69,5.39,5.61,6.36,9.14,2.17,7.91.64,16.33-.94,24.19a168.8,168.8,0,0,1-7.85,27.1,163.58,163.58,0,0,1-13,26.57c-2.45,4-6.73,11-12.41,7.63-3.56-2.1-4.55-7.57-5.23-11.27-0.31-1.68-3-1.27-2.95.4a74.26,74.26,0,0,1-5.82,29.91h2.89a66.46,66.46,0,0,1-.9-33.25l-2.95-.4c-0.4,10.46-1.11,20.91-2.19,31.32-0.57,5.49-1.09,11-2,16.47-0.72,4.25-1.72,8.64-5.65,11.05l2.05,0.54c-8-13.06-15.95-26.15-24-39.18-7.21-11.68-14.8-23.13-24.48-32.94a1.52,1.52,0,0,0-2.56,1.06,461.16,461.16,0,0,1,1.67,56.3l2.8-.76a158.06,158.06,0,0,0-24.19-38.58c-1-1.21-2.82.11-2.51,1.46q13.18,57.36,30.84,113.55a1.5,1.5,0,0,0,2.89-.8,122.08,122.08,0,0,0-12.82-37.15c-3.95-7.29-11.44-18-21-13.25a1.48,1.48,0,0,0-.74,1.3l0,8.18a1.5,1.5,0,0,0,3,0h0Z" transform="translate(-81.75 -148.71)"/><path d="M631,1462.92c-1.42-3.64.64-6.66,3.69-8.46,0.95-.56,4.24-2.43,5.34-2.16,1.83,0.44,1.63,7.8,2.49,9.91,1.78,4.36,6.13,6.89,10.7,7.34,10.3,1,23.76-10.21,24-20.69a1.52,1.52,0,0,0-2.26-1.3c-7.74,3.76-2.67,13.81,4.18,14.89,11.78,1.86,23.1-9.39,30.91-16.59,1.42-1.31-.7-3.43-2.12-2.12-5.12,4.72-10.33,9.53-16.54,12.8-3.22,1.7-7.1,3.32-10.84,3.06-4.2-.3-10-6.56-4.07-9.45l-2.26-1.3c-0.18,8.25-11.43,17.74-19.43,17.78-4.42,0-8.66-2.34-9.85-6.78-0.72-2.68.07-6.78-1.57-9.24-2.21-3.31-7.65-.21-10.18,1.26-4.23,2.45-7,7-5.07,11.85,0.7,1.78,3.6,1,2.89-.8h0Z" transform="translate(-81.75 -148.71)"/><path d="M710.49,1444.23c2-3.84-2.57-7-5.94-4.64-2.73,1.93-4,6.22-5,9.24-1.21,3.57-2.64,8.07-2.08,11.92,1.05,7.18,9.9,9.68,15.93,10.69a42.54,42.54,0,0,0,24.8-3.38c1.76-.79.23-3.38-1.51-2.59a38.67,38.67,0,0,1-28.16,1.68c-2.61-.89-6-2.13-7.41-4.75-1.17-2.16-.62-5-0.18-7.25a43.93,43.93,0,0,1,1.77-6.31,42.31,42.31,0,0,1,1.74-4.18q0.66-2.34,3.47-2c-0.9,1.71,1.69,3.23,2.59,1.51h0Z" transform="translate(-81.75 -148.71)"/><path d="M673,1429.19l-1.55-3c-0.74-1.42-2.69-.62-2.8.76a43.73,43.73,0,0,0,1.36,14.71c0.47,1.76,2.75,1.18,2.95-.4l1.78-14.46-2.8.76a9.65,9.65,0,0,1,.82,6c-0.33,1.89,2.56,2.7,2.89.8a13.13,13.13,0,0,0-1.12-8.31c-0.71-1.5-2.64-.54-2.8.76L670,1441.27l2.95-.4a41.24,41.24,0,0,1-1.26-13.91l-2.8.76,1.55,3c0.89,1.71,3.48.2,2.59-1.51h0Z" transform="translate(-81.75 -148.71)"/></svg>
