<svg id="Background" xmlns="http://www.w3.org/2000/svg" xmlns:xlink="http://www.w3.org/1999/xlink" viewBox="0 0 1536 700"><defs><style>.cls-1{fill:#bebebe;}.cls-2{fill:#0a0e60;}.cls-3{fill:#193441;}.cls-4{fill:#98c12a;}.cls-5{fill:#ffec69;}</style></defs><title>glum3</title><image id="Background-2" data-name="Background" width="1" height="1" transform="scale(1536 700)" /><path class="cls-1" d="M785.79,110.57c-4.6.24-9.18,0.7-13.74,1.32a118.63,118.63,0,0,0-12.45,2.46,91.31,91.31,0,0,0-12.63,4.1,87.89,87.89,0,0,0-10.65,5.23c-3.5,2-6.81,4.31-10.1,6.65s-6.86,4.81-10.14,7.43a90.52,90.52,0,0,0-9.53,8.87A144.74,144.74,0,0,0,695.7,160c-1.73,2.36-3.5,4.71-5.17,7.11q-5.68,8.16-11.3,16.35a123.09,123.09,0,0,0-9.66,15.95c-0.87,1.82-1.62,3.71-2.33,5.59a29.39,29.39,0,0,0-.9,3,25.45,25.45,0,0,0-.46,3,19.22,19.22,0,0,0,0,3.11l0,0.49c1.52-.19,3.05-0.29,4.55-0.45a15.87,15.87,0,0,1,1.61-.08c0.43,0,.88,0,1.34,0a24.24,24.24,0,0,1,.06-3.37,36.31,36.31,0,0,1,2-6.07c2.77-6.31,6.63-12.05,10.52-17.72,2-2.85,3.89-5.71,5.87-8.55,4.2-6,8.38-12.07,12.85-17.9,2.51-3.22,5.12-6.35,7.91-9.34a89.9,89.9,0,0,1,10-9.06c2.17-1.63,4.41-3.18,6.63-4.75s4.39-3.13,6.64-4.61a87.32,87.32,0,0,1,13.34-7.17,107,107,0,0,1,25.38-6.55c3.38-.42,6.77-0.7,10.17-0.92,1.79-.12,3.58-0.19,5.37-0.2a46.59,46.59,0,0,1,5.61.4c1.17,0.18,2.33.41,3.49,0.67a31,31,0,0,1,4.27,1.41,57.9,57.9,0,0,1,7.94,4.22c1.9,1.21,3.76,2.52,5.55,3.89l6,4.61a94,94,0,0,1,13.92,13.75,60.53,60.53,0,0,1,3.92,5.89,61.44,61.44,0,0,1,3.1,6.29c1.39,3.41,2.63,6.86,3.79,10.35a51.91,51.91,0,0,1,1.92,7.66c0.13,1.23.23,2.46,0.41,3.68a8.28,8.28,0,0,0,.89,3.07,6.27,6.27,0,0,0,.86,1.21l0.6,0.52a3.85,3.85,0,0,0,1.47.91,3.49,3.49,0,0,0,1.73.5l1,0.14a8,8,0,0,0,1.79-.14,19.91,19.91,0,0,0,4.52-1.17,35.43,35.43,0,0,0,4.33-2.07c1.41-.77,2.82-1.56,4.22-2.37,2.84-1.64,5.55-3.49,8.34-5.2,3-1.85,6-3.73,9-5.53a155.58,155.58,0,0,1,17.66-8.85c6.34-2.64,12.82-4.94,19.36-7a160.41,160.41,0,0,1,21.41-5l12.82-1.65c3.66-.47,7.36-0.71,11-0.91,3.22-.18,6.46-0.23,9.69-0.25a72.28,72.28,0,0,1,9.05.52,95.05,95.05,0,0,1,10.32,2.18,91.22,91.22,0,0,1,11.4,4,123.67,123.67,0,0,1,17.44,9.46c2.79,1.8,5.55,3.63,8.34,5.43s5.64,3.77,8.34,5.82a96.37,96.37,0,0,1,9,8,126.42,126.42,0,0,1,8.78,10c1.54,2,3,4.14,4.3,6.33A53,53,0,0,1,1071,205a71.19,71.19,0,0,1,4.29,16.24c0.24,1.89.44,3.77,0.54,5.68a35.48,35.48,0,0,1-.21,5.61,30.82,30.82,0,0,1-1.15,4.75c-0.52,1.59-1.16,3.16-1.8,4.71q-1.75,4-3.62,7.93c-0.54,1.13-1.1,2.25-1.75,3.32-0.24.53-.46,1.05-0.68,1.59a5.63,5.63,0,0,0-.06,2.6,4.76,4.76,0,0,0,.51,1.45,5.18,5.18,0,0,0,1.73,1.72,12.58,12.58,0,0,0,3.66,1.28c1.59,0.29,3.25.41,4.86,0.55s3.48,0.19,5.21.24c3.9,0.13,7.84.14,11.73,0.54a56.7,56.7,0,0,1,12.2,3.5,77.27,77.27,0,0,1,9.86,5.15c3.38,2.09,6.64,4.39,9.79,6.8,1.78,1.41,3.53,2.83,5.21,4.34a48.67,48.67,0,0,1,5.18,5.44,42.84,42.84,0,0,1,4.52,7.8,55.59,55.59,0,0,1,2.07,6.21,64.55,64.55,0,0,1,1.42,7.41,43.43,43.43,0,0,1,.16,9.07,36.51,36.51,0,0,1-2.16,7.4,77,77,0,0,1-5.58,9.86c-1.62,2.52-3.37,5-5.18,7.38l-5.67,7.49c-3.57,4.46-7.25,8.79-11.24,12.88a136.88,136.88,0,0,1-13.19,12c-2.35,1.79-4.74,3.51-7.24,5.08a66.61,66.61,0,0,1-9.06,4.71,102.47,102.47,0,0,1-24.07,6c-8.69,1.1-17.43,1.28-26.18,1.55q-6.4.2-12.8,0.21a181.69,181.69,0,0,1-23.12-1.53c-5.71-.8-11.36-1.9-17-3.2a119.16,119.16,0,0,1-16.35-5.11l-6.17-2.71c-1.9-.84-3.75-1.81-5.61-2.72s-3.7-2-5.5-3c-0.52-.3-1-0.59-1.47-0.95a7.36,7.36,0,0,0-1.35-.9,10.15,10.15,0,0,0-2-.8,4.52,4.52,0,0,0-3.37.38,6.41,6.41,0,0,0-2.52,3,13.86,13.86,0,0,0-1,3.38c-0.13.73-.23,1.46-0.36,2.19l-0.73,4.13c-0.38,2.16-.84,4.3-1.27,6.45s-0.93,4-1.43,6a90.16,90.16,0,0,1-3.32,11.32A74.27,74.27,0,0,1,921.26,424a84.16,84.16,0,0,1-6.69,7.32A87.2,87.2,0,0,1,907,438a114.58,114.58,0,0,1-23.75,13.63,162.23,162.23,0,0,1-16.56,5.77c-2.74.8-5.52,1.46-8.3,2.07-2.49.55-5,1.11-7.55,1.47l-12.19,1.71c-4.87.37-9.73,0.82-14.61,1-2.58.1-5.16,0.24-7.74,0.29l-9.27.16c-2.61,0-5.23,0-7.85-.07-2.41,0-4.8-.23-7.2-0.39-5.56-.39-11.11-0.88-16.64-1.59-1.8-.25-3.59-0.53-5.37-0.87-2.22-.43-4.4-1-6.57-1.63-1.93-.54-3.83-1.22-5.74-1.85-2.87-.95-5.67-2.07-8.49-3.18-2.45-1.09-4.86-2.25-7.2-3.57a65.24,65.24,0,0,1-7.25-4.84,73.46,73.46,0,0,1-11.8-11.8,58.85,58.85,0,0,1-6.63-11.5A107,107,0,0,1,712.58,412c-0.48-1.7-1-3.39-1.45-5.1s-0.8-3.18-1.14-4.79-0.64-3.21-.93-4.83c-0.14-1.27-.26-2.54-0.35-3.81l-0.89.12-6.59.43a62.53,62.53,0,0,0,.83,6.54c0.52,2.83,1.18,5.62,1.86,8.41,0.38,1.57.89,3.11,1.33,4.66,0.93,3.24,2,6.44,3.19,9.59a67.81,67.81,0,0,0,5.27,10.83,64.66,64.66,0,0,0,8.13,10.41,73.73,73.73,0,0,0,19.78,14.74c3.79,1.9,7.76,3.36,11.7,4.9,1.25,0.49,2.58.85,3.86,1.27,2,0.67,4,1.31,6.1,1.87a106.91,106.91,0,0,0,17.18,2.83c2.83,0.29,5.66.61,8.51,0.8l6.15,0.42c1,0.07,2,.16,3,0.17,3,0,6.08.13,9.12,0.07s6.26,0,9.38-.16l10.17-.38c0.92,0,1.83-.14,2.75-0.21l6.64-.5c1.21-.09,2.42-0.17,3.63-0.34l4.21-.59c3.34-.47,6.7-0.86,10-1.45q6.38-1.14,12.65-2.77c4.41-1.16,8.75-2.61,13-4.16a128.81,128.81,0,0,0,23-11,104.12,104.12,0,0,0,9.88-6.91,94.87,94.87,0,0,0,9.27-8.45,72.64,72.64,0,0,0,13.5-19.37c0.86-1.78,1.61-3.61,2.31-5.46A59.55,59.55,0,0,0,939.4,404c0.47-1.79.92-3.59,1.37-5.38,0.28-1.11.59-2.2,0.81-3.32l1.2-5.94c0.24-1.2.44-2.42,0.65-3.63l0.43-2.43c0.12-.67.21-1.33,0.34-2l0.23,0.14,2.14,1.26c1.21,0.71,2.49,1.38,3.76,2l4.75,2.33c1.28,0.63,2.62,1.16,3.92,1.73,1.53,0.67,3,1.39,4.59,2a123.59,123.59,0,0,0,12.55,4.2c4,1.11,8.15,2,12.26,2.76,4.4,0.86,8.83,1.51,13.28,2s8.65,0.82,13,1c4.75,0.24,9.51.2,14.27,0.13,3.68-.05,7.35-0.19,11-0.3,4.26-.13,8.51-0.29,12.77-0.57a138.26,138.26,0,0,0,25.39-4.05,73.54,73.54,0,0,0,22.55-10.11,127.29,127.29,0,0,0,18.82-15.95,148.71,148.71,0,0,0,13.42-15.51c2.15-2.84,4.36-5.65,6.44-8.54,2.38-3.3,4.62-6.65,6.71-10.13a50.85,50.85,0,0,0,5.17-11.54,34.93,34.93,0,0,0,1.08-11.67,56.47,56.47,0,0,0-.71-5.95,67.11,67.11,0,0,0-1.5-7.14,48.14,48.14,0,0,0-4.7-11.2,44.26,44.26,0,0,0-8-9.87,94,94,0,0,0-9.4-7.65,101.57,101.57,0,0,0-11.43-7.44,74.52,74.52,0,0,0-12.37-5.37,54.88,54.88,0,0,0-6.55-1.7,50.11,50.11,0,0,0-8-.77c-4.86-.18-9.74-0.21-14.58-0.72,0.24-.48.47-1,0.7-1.45,0.7-1.46,1.38-2.94,2.05-4.42,1.43-3.13,2.75-6.3,3.91-9.54a27.5,27.5,0,0,0,1.25-5.43,41.08,41.08,0,0,0,.38-6.93,63.43,63.43,0,0,0-.62-6.32q-0.39-3-1-6a64.93,64.93,0,0,0-3.93-12.59,62.06,62.06,0,0,0-5.8-10.65,118.07,118.07,0,0,0-17.25-19.22,111.51,111.51,0,0,0-10.32-7.89c-3.28-2.23-6.65-4.33-10-6.51-3.64-2.39-7.34-4.63-11.17-6.7a102,102,0,0,0-24.05-9.34,83.34,83.34,0,0,0-12-2,109.73,109.73,0,0,0-14-.08c-4.29.15-8.61,0.43-12.87,1l-8.52,1.09c-2.12.27-4.28,0.47-6.39,0.83a169.45,169.45,0,0,0-18.56,4.12c-6.09,1.75-12.08,3.88-18,6.15a174.4,174.4,0,0,0-16.7,7.48q-4.12,2.1-8.1,4.45c-2.74,1.62-5.42,3.33-8.13,5-2.52,1.54-5,3.16-7.5,4.7-1.38.84-2.81,1.61-4.22,2.4-1.21.68-2.41,1.32-3.66,1.89a23.64,23.64,0,0,1-3.2.91l-0.06-.31c-0.15-1.45-.27-2.89-0.51-4.34s-0.63-3.1-1-4.64c-0.73-2.78-1.71-5.52-2.71-8.21q-1.32-3.56-2.8-7a57.76,57.76,0,0,0-6.12-10.88,72.6,72.6,0,0,0-7.64-8.92,88.76,88.76,0,0,0-9.16-8.13L820,121.51c-1.55-1.18-3.21-2.27-4.84-3.34a52,52,0,0,0-5.05-2.88c-1.71-.88-3.49-1.63-5.28-2.34a33.16,33.16,0,0,0-6.62-1.77,51.82,51.82,0,0,0-8.82-.71c-1.21,0-2.41,0-3.62.1h0Zm-81.24,50.07-0.3.39,0.3-.39h0Zm153.84,18.84a7.36,7.36,0,0,1-.92.13l0.92-.12h0Zm212.77,25.8,0.21,0.49-0.21-.49h0Z"/><path class="cls-2" d="M902.65,233.24c4.72,6.49,9.65,13.26,16.6,17.51a30.43,30.43,0,0,0,12.32,3.93c4.18,0.52,8.49-.58,12.4-2,9.55-3.36,17.15-10.9,22.31-19.45,0,0,0,0,0,0a92.58,92.58,0,0,1-13.51,7.47,60.56,60.56,0,0,1-14,3.67,43.55,43.55,0,0,1-9.87,0,42,42,0,0,1-9.09-2.52c-5.84-2.64-11.38-5.91-17.16-8.69h0s0,0,0,0h0Z"/><path class="cls-2" d="M828.84,246.41q-0.34.52-.7,1a39.83,39.83,0,0,1-4,4.4c-2.17,2.06-4.29,4.19-6.61,6.07a42.19,42.19,0,0,1-6.56,4.05,23.25,23.25,0,0,1-4.21,1.07,32.13,32.13,0,0,1-5.54,0,38.28,38.28,0,0,1-7.5-2.38c-1.75-.79-3.44-1.69-5.12-2.61-2.13-1.16-4.31-2.23-6.47-3.33A75.73,75.73,0,0,0,769,249.48a51.54,51.54,0,0,0-13.24-2,77.35,77.35,0,0,0-12.7,1.09s0,0,0,0c2.3,0.76,4.61,1.46,6.91,2.2,2.14,0.68,4.24,1.54,6.32,2.39a93.67,93.67,0,0,1,10.74,5.6c3.94,2.34,7.66,5,11.54,7.4,1.79,1.11,3.61,2.18,5.45,3.21a37.39,37.39,0,0,0,7.22,3,38.89,38.89,0,0,0,6.79,1.31,27,27,0,0,0,13-2.44,23.37,23.37,0,0,0,5-3.19,28.88,28.88,0,0,0,4.16-4.47,37.43,37.43,0,0,0,3.75-5.7c2-3.62,4.05-7.38,4.89-11.45a0,0,0,0,0,0,0h0Z"/><path class="cls-2" d="M876.84,338.42c-3,.16-6,0.43-9,0.73-2.71.28-5.41,0.8-8.09,1.27q-5.07.89-10.11,2c-2,.42-4,1.08-6,1.66-3,.89-6.09,1.74-9.06,2.81q-5.06,1.83-10.08,3.8C818.25,353.14,812.08,356,806,359a0,0,0,0,0,0,0c11.39-.71,22.75-1.67,34.12-2.69q5.1-.46,10.18-1.08c2-.25,4.05-0.31,6.07-0.48q5.27-.44,10.51-1.07c1.75-.21,3.51-0.3,5.26-0.46,5.22-.47,10.42-1.18,15.6-2,2.37-.31,4.74-0.64,7.11-1a91.28,91.28,0,0,1,22.13-.47,41.47,41.47,0,0,1,8,2.1c2.61,1,5.17,2.1,7.74,3.16s5.34,2.4,7.95,3.72c0,0,0,0,0,0a150.68,150.68,0,0,0-13-11,44.73,44.73,0,0,0-4.32-2.87,38.86,38.86,0,0,0-4.81-2.23,60.2,60.2,0,0,0-11.44-3.18A94.35,94.35,0,0,0,889,338c-4.06,0-8.13.17-12.16,0.39h0Z"/><path class="cls-3" d="M709.48,473.08a10.87,10.87,0,0,0-3.23,1.84,40.81,40.81,0,0,0-6.61,6.21,26.3,26.3,0,0,0-3,4l-0.61,1.39q-0.28,1.17.89,0.89a10.87,10.87,0,0,0,3.23-1.84,40.81,40.81,0,0,0,6.61-6.21,26.3,26.3,0,0,0,3-4l0.61-1.39q0.22-.95-0.5-0.95a1.75,1.75,0,0,0-.39.05h0Z"/><path class="cls-3" d="M741.69,572.8a10.87,10.87,0,0,0-3.23,1.84,40.81,40.81,0,0,0-6.61,6.21,26.3,26.3,0,0,0-3,4l-0.61,1.39q-0.28,1.17.89,0.89a10.87,10.87,0,0,0,3.23-1.84,40.81,40.81,0,0,0,6.61-6.21,26.3,26.3,0,0,0,3-4l0.61-1.39q0.22-.95-0.5-0.95a1.75,1.75,0,0,0-.39.05h0Z"/><path class="cls-3" d="M807.66,511.43a10.87,10.87,0,0,0-3.23,1.84,40.81,40.81,0,0,0-6.61,6.21,26.3,26.3,0,0,0-3,4l-0.61,1.39q-0.28,1.17.89,0.89a10.87,10.87,0,0,0,3.23-1.84A40.81,40.81,0,0,0,805,517.7a26.3,26.3,0,0,0,3-4l0.61-1.39q0.22-.95-0.5-0.95a1.75,1.75,0,0,0-.39.05h0Z"/><path class="cls-3" d="M999.44,437.79a10.87,10.87,0,0,0-3.23,1.84,40.81,40.81,0,0,0-6.61,6.21,26.3,26.3,0,0,0-3,4L986,451.21q-0.28,1.17.89,0.89a10.87,10.87,0,0,0,3.23-1.84,40.81,40.81,0,0,0,6.61-6.21,26.3,26.3,0,0,0,3-4l0.61-1.39q0.22-.95-0.5-0.95a1.75,1.75,0,0,0-.39.05h0Z"/><path class="cls-3" d="M910.45,494.56a10.87,10.87,0,0,0-3.23,1.84,40.81,40.81,0,0,0-6.61,6.21,26.3,26.3,0,0,0-3,4L897,508q-0.28,1.17.89,0.89a10.87,10.87,0,0,0,3.23-1.84,40.81,40.81,0,0,0,6.61-6.21,26.3,26.3,0,0,0,3-4l0.61-1.39q0.22-.95-0.5-0.95a1.75,1.75,0,0,0-.39.05h0Z"/><path class="cls-3" d="M907.39,592.75a10.87,10.87,0,0,0-3.23,1.84,40.81,40.81,0,0,0-6.61,6.21,26.3,26.3,0,0,0-3,4L894,606.16q-0.28,1.17.89,0.89a10.87,10.87,0,0,0,3.23-1.84A40.81,40.81,0,0,0,904.7,599a26.3,26.3,0,0,0,3-4l0.61-1.39q0.22-.95-0.5-0.95a1.75,1.75,0,0,0-.39.05h0Z"/><path class="cls-3" d="M987.16,523.71a10.87,10.87,0,0,0-3.23,1.84,40.81,40.81,0,0,0-6.61,6.21,26.3,26.3,0,0,0-3,4l-0.61,1.39q-0.28,1.17.89,0.89a10.87,10.87,0,0,0,3.23-1.84,40.81,40.81,0,0,0,6.61-6.21,26.3,26.3,0,0,0,3-4l0.61-1.39q0.22-.95-0.5-0.95a1.75,1.75,0,0,0-.39.05h0Z"/><path class="cls-3" d="M1079.21,428.59a10.87,10.87,0,0,0-3.23,1.84,40.81,40.81,0,0,0-6.61,6.21,26.3,26.3,0,0,0-3,4L1065.8,442q-0.28,1.17.89,0.89a10.87,10.87,0,0,0,3.23-1.84,40.81,40.81,0,0,0,6.61-6.21,26.3,26.3,0,0,0,3-4l0.61-1.39q0.22-.95-0.5-0.95a1.75,1.75,0,0,0-.39.05h0Z"/><path class="cls-3" d="M1073.08,545.19a10.87,10.87,0,0,0-3.23,1.84,40.81,40.81,0,0,0-6.61,6.21,26.3,26.3,0,0,0-3,4l-0.61,1.39q-0.28,1.17.89,0.89a10.87,10.87,0,0,0,3.23-1.84,40.81,40.81,0,0,0,6.61-6.21,26.3,26.3,0,0,0,3-4l0.61-1.39q0.22-.95-0.5-0.95a1.75,1.75,0,0,0-.39.05h0Z"/><path class="cls-3" d="M1001,652.58a10.86,10.86,0,0,0-3.23,1.84,40.81,40.81,0,0,0-6.61,6.21,26.3,26.3,0,0,0-3,4L987.55,666q-0.28,1.17.89,0.89a10.87,10.87,0,0,0,3.23-1.84,40.81,40.81,0,0,0,6.61-6.21,26.3,26.3,0,0,0,3-4l0.61-1.39q0.22-.95-0.5-0.95a1.75,1.75,0,0,0-.39.05h0Z"/><path class="cls-3" d="M809.2,649.51a10.87,10.87,0,0,0-3.23,1.84,40.81,40.81,0,0,0-6.61,6.21,26.3,26.3,0,0,0-3,4l-0.61,1.39q-0.28,1.17.89,0.89A10.87,10.87,0,0,0,799.9,662a40.81,40.81,0,0,0,6.61-6.21,26.3,26.3,0,0,0,3-4l0.61-1.39q0.22-.95-0.5-0.95a1.75,1.75,0,0,0-.39.05h0Z"/><path class="cls-3" d="M872.1,562.06a10.87,10.87,0,0,0-3.23,1.84,40.81,40.81,0,0,0-6.61,6.21,26.3,26.3,0,0,0-3,4l-0.61,1.39q-0.28,1.17.89,0.89a10.87,10.87,0,0,0,3.23-1.84,40.81,40.81,0,0,0,6.61-6.21,26.3,26.3,0,0,0,3-4L873,563q0.22-.95-0.5-0.95a1.75,1.75,0,0,0-.39.05h0Z"/><path class="cls-3" d="M709.48,654.11a10.87,10.87,0,0,0-3.23,1.84,40.81,40.81,0,0,0-6.61,6.21,26.3,26.3,0,0,0-3,4l-0.61,1.39q-0.28,1.17.89,0.89a10.87,10.87,0,0,0,3.23-1.84,40.81,40.81,0,0,0,6.61-6.21,26.3,26.3,0,0,0,3-4l0.61-1.39q0.22-.95-0.5-0.95a1.75,1.75,0,0,0-.39.05h0Z"/><path class="cls-3" d="M692.6,528.31a10.87,10.87,0,0,0-3.23,1.84,40.81,40.81,0,0,0-6.61,6.21,26.3,26.3,0,0,0-3,4l-0.61,1.39q-0.28,1.17.89,0.89a10.87,10.87,0,0,0,3.23-1.84,40.81,40.81,0,0,0,6.61-6.21,26.3,26.3,0,0,0,3-4l0.61-1.39q0.22-.95-0.5-0.95a1.75,1.75,0,0,0-.39.05h0Z"/><path class="cls-3" d="M821.47,578.94a10.87,10.87,0,0,0-3.23,1.84,40.81,40.81,0,0,0-6.61,6.21,26.3,26.3,0,0,0-3,4l-0.61,1.39q-0.28,1.17.89,0.89a10.87,10.87,0,0,0,3.23-1.84,40.81,40.81,0,0,0,6.61-6.21,26.3,26.3,0,0,0,3-4l0.61-1.39q0.22-.95-0.5-0.95a1.75,1.75,0,0,0-.39.05h0Z"/><path class="cls-3" d="M899.71,660.25a10.87,10.87,0,0,0-3.23,1.84,40.81,40.81,0,0,0-6.61,6.21,26.3,26.3,0,0,0-3,4l-0.61,1.39q-0.28,1.17.89,0.89a10.87,10.87,0,0,0,3.23-1.84,40.81,40.81,0,0,0,6.61-6.21,26.3,26.3,0,0,0,3-4l0.61-1.39q0.22-.95-0.5-0.95a1.75,1.75,0,0,0-.39.05h0Z"/><path class="cls-3" d="M984.09,582a10.87,10.87,0,0,0-3.23,1.84,40.81,40.81,0,0,0-6.61,6.21,26.3,26.3,0,0,0-3,4l-0.61,1.39q-0.28,1.17.89,0.89a10.87,10.87,0,0,0,3.23-1.84,40.81,40.81,0,0,0,6.61-6.21,26.3,26.3,0,0,0,3-4L985,582.9q0.22-.95-0.5-0.95a1.75,1.75,0,0,0-.39.05h0Z"/><path class="cls-3" d="M689.53,597.35a10.87,10.87,0,0,0-3.23,1.84,40.81,40.81,0,0,0-6.61,6.21,26.3,26.3,0,0,0-3,4l-0.61,1.39q-0.28,1.17.89,0.89a10.87,10.87,0,0,0,3.23-1.84,40.81,40.81,0,0,0,6.61-6.21,26.3,26.3,0,0,0,3-4l0.61-1.39q0.22-.95-0.5-0.95a1.75,1.75,0,0,0-.39.05h0Z"/><path class="cls-3" d="M657.31,447a10.87,10.87,0,0,0-3.23,1.84,40.81,40.81,0,0,0-6.61,6.21,26.3,26.3,0,0,0-3,4l-0.61,1.39q-0.28,1.17.89,0.89a10.87,10.87,0,0,0,3.23-1.84,40.81,40.81,0,0,0,6.61-6.21,26.3,26.3,0,0,0,3-4l0.61-1.39q0.22-.95-0.5-0.95a1.75,1.75,0,0,0-.39.05h0Z"/><path class="cls-3" d="M632.77,632.63a10.87,10.87,0,0,0-3.23,1.84,40.81,40.81,0,0,0-6.61,6.21,26.3,26.3,0,0,0-3,4l-0.61,1.39q-0.28,1.17.89,0.89a10.87,10.87,0,0,0,3.23-1.84,40.81,40.81,0,0,0,6.61-6.21,26.3,26.3,0,0,0,3-4l0.61-1.39q0.22-.95-0.5-0.95a1.75,1.75,0,0,0-.39.05h0Z"/><path class="cls-3" d="M1074.61,605a10.87,10.87,0,0,0-3.23,1.84,40.81,40.81,0,0,0-6.61,6.21,26.3,26.3,0,0,0-3,4l-0.61,1.39q-0.28,1.17.89,0.89a10.87,10.87,0,0,0,3.23-1.84,40.81,40.81,0,0,0,6.61-6.21,26.3,26.3,0,0,0,3-4l0.61-1.39q0.22-.95-0.5-0.95a1.75,1.75,0,0,0-.39.05h0Z"/><path class="cls-1" d="M629.41,196.49A78.57,78.57,0,0,0,613.3,203a97.3,97.3,0,0,0-14.59,9.55c-4.67,3.64-9.14,7.57-13.48,11.6a118.44,118.44,0,0,0-12,13,159.77,159.77,0,0,0-15,22.23L554,267c-0.59,1.07-1.24,2.14-1.76,3.25l-6.42,13.88c-0.52,1.13-1,2.26-1.42,3.41l-2.87,7.61-2.62,6.94c-1.45,3.86-2.64,7.83-3.8,11.78A207.19,207.19,0,0,0,528,349.4a160.33,160.33,0,0,0-1.11,18.46A98,98,0,0,0,528.44,386a68.23,68.23,0,0,0,2,8A53.31,53.31,0,0,0,534,402.2a41.68,41.68,0,0,0,4.44,6.81,31.87,31.87,0,0,0,2.55,2.83,38.6,38.6,0,0,0,3.61,3,46.6,46.6,0,0,0,6.46,4,62.54,62.54,0,0,0,8.09,3.58,74.85,74.85,0,0,0,7.89,2.29q4.44,1.07,9,1.72A177.74,177.74,0,0,0,594.23,428a132.29,132.29,0,0,0,18.11-.57,111.32,111.32,0,0,0,17.94-3.23,105.88,105.88,0,0,0,16.82-6.13A179.09,179.09,0,0,0,677.35,400c4.51-3.28,8.9-6.75,13.3-10.18,2.65-1.94,5.29-3.89,8-5.81l4.23-3a29.11,29.11,0,0,1,5.43-3.32,3.58,3.58,0,0,0,1.72-2.24,3.75,3.75,0,0,0-2.62-4.61l-1-.13a3.71,3.71,0,0,0-1.89.51,23.5,23.5,0,0,0-4.36,2.56l-3,2.14q-3.42,2.46-6.82,4.95c-4.3,3.15-8.49,6.44-12.69,9.71-2.88,2.14-5.76,4.26-8.7,6.3s-6.27,4.16-9.48,6.11a153,153,0,0,1-18.71,9.79,104.3,104.3,0,0,1-24.92,6.77,131.94,131.94,0,0,1-19.36,1c-3.14-.06-6.27-0.25-9.4-0.46s-6.16-.49-9.23-0.88-6.29-1.1-9.4-1.85a68.64,68.64,0,0,1-9.46-3,53.57,53.57,0,0,1-10.54-6,31,31,0,0,1-4.43-4.4,46.75,46.75,0,0,1-5.18-9.08,62.63,62.63,0,0,1-3.69-14.36,114.55,114.55,0,0,1-.63-17.12c0.17-5.93.74-11.86,1.5-17.74a208.12,208.12,0,0,1,4.31-22.14c0.93-3.74,2-7.45,3.13-11.13,0.82-2.64,1.63-5.32,2.61-7.91l6-16,4.12-8.91c1.08-2.33,2.07-4.73,3.32-7l6-10.86c1.26-2.28,2.66-4.48,4-6.68q3.65-5.76,7.81-11.17a122.26,122.26,0,0,1,12.15-13.53c2.23-2.13,4.55-4.18,6.88-6.21s4.8-4.14,7.3-6.09a94,94,0,0,1,19.27-11.46,67.26,67.26,0,0,1,15.64-4.41,60,60,0,0,1,14.13.06,36.86,36.86,0,0,1,8,2.07,59.9,59.9,0,0,1,6.71,3.55c0.91,0.55,1.8,1.15,2.69,1.73q4.08,2.67,8.15,5.38a3.75,3.75,0,0,0,5.51-4.23,3.92,3.92,0,0,0-1.73-2.24q-3.91-2.61-7.85-5.18l-2.4-1.57a51.7,51.7,0,0,0-7.18-3.85,42.28,42.28,0,0,0-4.12-1.61,33.25,33.25,0,0,0-4.09-1,61.73,61.73,0,0,0-9.36-1q-0.94,0-1.89,0a61.52,61.52,0,0,0-15.81,2.17h0Zm-6.74,10.25-0.36.15,0.36-.15h0ZM536,345.09l-0.05.42,0.05-.42h0Zm-0.09.68,0,0.32,0-.32h0Zm104.46,67.11-0.29.12,0.29-.12h0Zm-25,6.69-0.4.06,0.4-.06h0Z"/><path class="cls-4" d="M206.27,38.9a3.78,3.78,0,0,0-3.75,3.75v169.8a3.78,3.78,0,0,0,3.75,3.75h130.8a3.78,3.78,0,0,0,3.75-3.75V42.65a3.78,3.78,0,0,0-3.75-3.75H206.27Zm127,7.5V208.7H210V46.4h123.3Z"/><path class="cls-5" d="M112.53,79.54a78.73,78.73,0,0,0-12,2.23,62.92,62.92,0,0,0-11.67,2.15,47.54,47.54,0,0,0-8.43,1.13,33.77,33.77,0,0,0-5.19,1.55,60.94,60.94,0,0,0-7.7,3.46,52.33,52.33,0,0,0-7.39,5.34c-3.48,2.8-6.25,6.57-8.72,10.24a36.72,36.72,0,0,0-1.92,3.2,52.77,52.77,0,0,0-4.91,4.64,55.92,55.92,0,0,0-8.31,11.44q-1,1.83-1.8,3.74a54.32,54.32,0,0,0-4.6,7.58,70.2,70.2,0,0,0-6,18.22A86.09,86.09,0,0,0,21,162.63a88.42,88.42,0,0,0-2.67,15.26c-0.22,1.89-.4,3.77-0.43,5.67a57.23,57.23,0,0,0,.93,8.53,25.78,25.78,0,0,0,1.21,5,31.43,31.43,0,0,0,4,8.09,58.39,58.39,0,0,0,21.39,18.06,74.2,74.2,0,0,0,11.36,4.61l0.54,0.49c4.54,4.07,9.62,6.55,15.3,8.65a26.74,26.74,0,0,0,5.2,1.29,50.06,50.06,0,0,0,8.46.79c6-.11,11.32-2.11,16.52-4.89a38.78,38.78,0,0,0,4-2.5,86.73,86.73,0,0,0,14-1.33,30.12,30.12,0,0,0,5.07-1.41,66.85,66.85,0,0,0,8.43-3.71A52.66,52.66,0,0,0,152,209.42c1.24-1.22,2.43-2.49,3.58-3.79a68.62,68.62,0,0,0,7.9-10.91,99.1,99.1,0,0,0,6-13.31A126.11,126.11,0,0,0,175.64,159a113.09,113.09,0,0,0,2.23-26.83A95.78,95.78,0,0,0,176,118.22,49.11,49.11,0,0,0,171,104.87a48.15,48.15,0,0,0-7.85-10.48,52.69,52.69,0,0,0-6.28-5.19,37.15,37.15,0,0,0-5-3.17c-8.61-4.58-18.5-6.38-28.15-6.89q-1.6-.09-3.21-0.08a67.75,67.75,0,0,0-8,.49h0Z"/><path class="cls-5" d="M37.79,255.66a5.49,5.49,0,0,0-3.14,2.41,97.56,97.56,0,0,0-6.49,10.51,57.26,57.26,0,0,0-2.52,6A42.27,42.27,0,0,0,24,281.13c-0.57,3-.82,6.1-1.17,9.15a38.76,38.76,0,0,0-.25,4.81,5.25,5.25,0,0,0,10.5,0,68.69,68.69,0,0,1,.81-9.74,45.13,45.13,0,0,1,2.55-9.77,86.17,86.17,0,0,1,7.28-12.21c1.6-2.38.47-5.8-1.88-7.18a5.3,5.3,0,0,0-2.66-.71,5.2,5.2,0,0,0-1.39.19h0Z"/><path class="cls-5" d="M54.9,7.24c-0.61,2-1.18,4-1.74,6C52.08,17.13,51,21,50.27,24.94A69.48,69.48,0,0,0,49,42.22c0.19,2.8.57,5.58,0.88,8.37s0.69,5.69,1.05,8.54l0.19,1.39a5.21,5.21,0,0,0,1.35,2.32,5.25,5.25,0,0,0,7.43,0,5,5,0,0,0,1.54-3.71c-0.6-4.7-1.18-9.4-1.68-14.12a67.65,67.65,0,0,1-.41-7.44,52.33,52.33,0,0,1,.49-6.46A149.79,149.79,0,0,1,65,10a5.29,5.29,0,0,0-3.66-6.46A5.18,5.18,0,0,0,60,3.38,5.37,5.37,0,0,0,54.9,7.24h0Z"/><path class="cls-5" d="M161.37,25.48q-11,17.48-22,34.92a5.25,5.25,0,0,0,9.07,5.3q11-17.44,22-34.92a5.29,5.29,0,0,0-1.88-7.18,5.1,5.1,0,0,0-2.59-.71,5.47,5.47,0,0,0-4.59,2.59h0Z"/><path class="cls-5" d="M170.31,233.45a5.27,5.27,0,0,0,0,7.42c7,6.27,13.79,12.73,20.54,19.25a5.25,5.25,0,1,0,7.43-7.43c-6.75-6.52-13.56-13-20.54-19.25a5.43,5.43,0,0,0-3.71-1.54,5.28,5.28,0,0,0-3.71,1.54h0Z"/><path class="cls-5" d="M113.77,270.59a5.3,5.3,0,0,0-1.88,7.18l15.5,25.82a5.25,5.25,0,0,0,9.07-5.3L121,272.47a5.36,5.36,0,0,0-4.58-2.59,5.14,5.14,0,0,0-2.6.7h0Z"/><path class="cls-2" d="M87.78,175.07a26.49,26.49,0,0,0-5.52,2.41,53.4,53.4,0,0,0-5.08,3.31c-1.8,1.27-3.55,2.61-5.27,4,0,0,0,0,0,0a101.28,101.28,0,0,0,11.24-3,68.36,68.36,0,0,1,10.42-2.91,14.52,14.52,0,0,1,2.73,0c3.19,0.55,6.31,1.53,9.43,2.4,0,0,0,0,0,0-1.16-1-2.36-2-3.61-3a31.21,31.21,0,0,0-3.23-2.21,18.85,18.85,0,0,0-2.59-1.18,11.09,11.09,0,0,0-2.84-.53,9.61,9.61,0,0,0-1.08-.06,18,18,0,0,0-4.62.74h0Z"/><path class="cls-2" d="M127.57,129.81a3.25,3.25,0,1,0,3.25-3.25,3.28,3.28,0,0,0-3.25,3.25h0Z"/><path class="cls-2" d="M76.52,133.74a3.25,3.25,0,1,0,3.25-3.25,3.28,3.28,0,0,0-3.25,3.25h0Z"/><path class="cls-2" d="M295.14,98.4a3.25,3.25,0,1,0,3.25-3.25,3.28,3.28,0,0,0-3.25,3.25h0Z"/><path class="cls-2" d="M241.46,101a3.25,3.25,0,1,0,3.25-3.25,3.28,3.28,0,0,0-3.25,3.25h0Z"/><path class="cls-2" d="M268.39,161.84a26.78,26.78,0,0,0-9.24,3.13c-5.36,3-8.7,8.22-11.83,13.27a0,0,0,0,0,0,0c3.91-2.44,7.63-5.18,11.84-7.09a41.9,41.9,0,0,1,9.52-2.48,30.17,30.17,0,0,1,5.93,0,21.33,21.33,0,0,1,4,1.13,40.51,40.51,0,0,1,5.24,2.74c1.07,0.67,2.14,1.34,3.22,2,1.81,1.1,3.63,2.16,5.34,3.42l0.73,0.62s0,0,0,0a34,34,0,0,0-4.66-6.6,44.7,44.7,0,0,0-4.43-4.87,22.69,22.69,0,0,0-7.39-4.53,18.8,18.8,0,0,0-4.08-.8,12.26,12.26,0,0,0-1.62-.1,18.71,18.71,0,0,0-2.59.2h0Zm24,16.06,0,0,0,0h0Z"/><path class="cls-2" d="M256.82,148.12a36.47,36.47,0,0,0-3.91,4.23c-1.17,1.42-2.33,2.85-3.45,4.31l0.47-.62a41.21,41.21,0,0,1-5.25,5.72,25.78,25.78,0,0,1-4.92,2.79,41.49,41.49,0,0,1-8.34,2.42,4.33,4.33,0,0,1-.89,0l-0.46-.13,0.12,0.05a2.94,2.94,0,0,1-.86-0.47l0.07,0.05a4.86,4.86,0,0,1-.82-0.83h0l-0.32-.45s0,0,0,0a3.73,3.73,0,0,0,2,2.88,14.42,14.42,0,0,0,4.7.53,37,37,0,0,0,4.75-.29,22.47,22.47,0,0,0,7.9-2.41,19.71,19.71,0,0,0,3.39-2.43,22.94,22.94,0,0,0,3.26-3.23c0.92-1.13,1.81-2.29,2.68-3.46,0.72-1,1.39-2,2.05-3,0.56-.84,1.19-1.64,1.78-2.46a22.5,22.5,0,0,1,3.46-3.56,8.54,8.54,0,0,1,1.06-.66,6,6,0,0,1,.86-0.25,10.3,10.3,0,0,1,1.8,0,10.05,10.05,0,0,1,1.74.43l-0.18-.08a4.71,4.71,0,0,1,1.31.74l-0.09-.07c0.5,0.42,1,.85,1.48,1.28,0,0,0,0,0,0a8.85,8.85,0,0,0-1.22-2.49,8.53,8.53,0,0,0-3.61-2.44,6.11,6.11,0,0,0-2.17-.39c-3.15,0-6.21,2.3-8.45,4.27h0Zm8.44-.95-0.33.14,0.33-.14h0Zm-36.65,18.52h0Z"/><path class="cls-2" d="M284.78,144.75a9.42,9.42,0,0,0-2.9,2.36l-1.29,1.47s0,0,0,0c0.87-.35,1.73-0.72,2.58-1.11a10.63,10.63,0,0,1,2.23-.6,3.87,3.87,0,0,1,1.15.07H286.5l0.09,0-0.09,0-0.3,0,0.58,0.17a5,5,0,0,1,.72.43,9,9,0,0,1,1,1,49,49,0,0,1,3.25,5.1,24.45,24.45,0,0,0,6.35,7.9,12.47,12.47,0,0,0,5.14,2.41,12.33,12.33,0,0,0,5.79-.36c2.91-.86,4.84-3.32,6.12-5.93,0,0,0,0,0,0-0.59.51-1.18,1-1.79,1.5l0.09-.07a15,15,0,0,1-2.14,1.27,13.22,13.22,0,0,1-2.15.62,13,13,0,0,1-2.25,0,15.83,15.83,0,0,1-3-.81,16.21,16.21,0,0,1-1.63-1,26.32,26.32,0,0,1-3.64-3.93c-1.08-1.44-2-3-3.1-4.41a39.6,39.6,0,0,0-3.5-4.08,7.76,7.76,0,0,0-5.18-2.47,4.5,4.5,0,0,0-2.09.5h0Zm2.78,2.8,0.23,0.18-0.23-.18h0ZM286.5,147h0Z"/><path class="cls-3" d="M614.07,542.48a10.87,10.87,0,0,0-3.23,1.84,40.81,40.81,0,0,0-6.61,6.21,26.3,26.3,0,0,0-3,4l-0.61,1.39q-0.28,1.17.89,0.89a10.87,10.87,0,0,0,3.23-1.84,40.81,40.81,0,0,0,6.61-6.21,26.3,26.3,0,0,0,3-4l0.61-1.39q0.22-.95-0.5-0.95a1.75,1.75,0,0,0-.39.05h0Z"/><path class="cls-3" d="M1058.09,487.9a10.87,10.87,0,0,0-3.23,1.84,40.81,40.81,0,0,0-6.61,6.21,26.3,26.3,0,0,0-3,4l-0.61,1.39q-0.28,1.17.89,0.89a10.87,10.87,0,0,0,3.23-1.84,40.81,40.81,0,0,0,6.61-6.21,26.3,26.3,0,0,0,3-4l0.61-1.39q0.22-.95-0.5-0.95a1.75,1.75,0,0,0-.39.05h0Z"/></svg>