<svg id="Background" xmlns="http://www.w3.org/2000/svg" xmlns:xlink="http://www.w3.org/1999/xlink" viewBox="0 0 1536 700"><defs><style>.cls-1{fill:#bebebe;}.cls-2{fill:#0a0e60;}.cls-3{fill:#ea2e49;}</style></defs><title>glum5</title><image id="Background-2" data-name="Background" width="1" height="1" transform="scale(1536 700)" /><path class="cls-1" d="M698.14,262.53c-4.78.05-9.56,0.36-14.34,0.62-2.68.15-5.36,0.23-8,.53l-12.67,1.4a177.86,177.86,0,0,0-21.48,3.75,168.71,168.71,0,0,0-27,9,120.92,120.92,0,0,0-24.29,14.45c-3.71,2.75-7.3,5.67-10.8,8.69s-6.89,6.41-10.18,9.76c-2.87,2.93-5.59,6-8.34,9-1.85,2-3.8,4-5.51,6.17l-7.36,9.23c-0.67.84-1.39,1.67-2,2.56l-2.95,4.33c-1.6,2.36-3.24,4.68-4.71,7.11l-3.14,5.19c-0.45.73-.86,1.49-1.26,2.25l-0.2-.36c-0.75-1.37-1.55-2.73-2.36-4.06q-2.71-4.39-5.47-8.74-2-3.1-4-6.14a95.11,95.11,0,0,0-8.94-11.11,89.43,89.43,0,0,0-21.63-17.33,63,63,0,0,0-12.13-5.09,60,60,0,0,0-14.23-2.12,122.7,122.7,0,0,0-14.18.43,146.1,146.1,0,0,0-15,1.7,74.05,74.05,0,0,0-12.58,3.32,118.2,118.2,0,0,0-13.5,5.73,112.11,112.11,0,0,0-23.27,15.87,89.36,89.36,0,0,0-16.59,19,59.3,59.3,0,0,0-5.66,11.83,50.51,50.51,0,0,0-2.5,13.19,57.35,57.35,0,0,0,.55,11.86,55,55,0,0,0,3,12.61,46.32,46.32,0,0,0,2.82,6,42.49,42.49,0,0,0,3.78,5.45,28.55,28.55,0,0,0,3.34,3.47l-1.28.91a201.38,201.38,0,0,0-21.92,18.07q-4.72,4.51-9.12,9.34a107.76,107.76,0,0,0-8.8,11.21,109.61,109.61,0,0,0-12.55,24.62A88.92,88.92,0,0,0,318,489.44a98.18,98.18,0,0,0-1.62,15,131.72,131.72,0,0,0,.27,13.66q0.45,7.62,1.65,15.16a94.21,94.21,0,0,0,8.12,26.47,59.59,59.59,0,0,0,7.19,11.19,58.2,58.2,0,0,0,10.09,9.86,93.92,93.92,0,0,0,11,7.17,83.76,83.76,0,0,0,12.74,5.7,100.92,100.92,0,0,0,12.5,3.66,94.53,94.53,0,0,0,14.25,1.81,134.19,134.19,0,0,0,18.12-.34c3.36-.24,6.7-0.41,10-0.87L434,596.26c3.54-.48,7.07-1.3,10.55-2.1,4.81-1.11,9.54-2.54,14.21-4.11,1.2-.4,2.38-0.9,3.57-1.35l6.75-2.55a143.71,143.71,0,0,0,15.27-6.82,131.64,131.64,0,0,0,37.39-30.16c0.51-.59,1-1.2,1.5-1.8,0.21,3.82.49,7.63,1,11.43,0.3,2.21.61,4.43,1,6.63a63.55,63.55,0,0,0,1.54,6.26,54.23,54.23,0,0,0,5.63,12.86,46.44,46.44,0,0,0,8.23,9.84,63.17,63.17,0,0,0,5.14,4.15c2,1.51,4.05,2.95,6.1,4.38a115.31,115.31,0,0,0,11.41,7,92.28,92.28,0,0,0,13.52,5.81,62.25,62.25,0,0,0,13.4,2.79,130.42,130.42,0,0,0,15.13.74c4.56,0,9.13-.06,13.69-0.1,2.93,0,5.86,0,8.79-.08,9-.21,17.94-0.32,26.89-1a159,159,0,0,0,27-4.32c8.93-2.25,17.37-6,25.66-10a76.07,76.07,0,0,0,21.14-14.62,66,66,0,0,0,8-10,58.92,58.92,0,0,0,5.95-11.89c2.26-5.93,3.06-12.22,4.1-18.44q0.4-2.38.8-4.77c0.38-2.27.79-4.53,1.28-6.77,0.31-1.45.63-2.92,1.07-4.34,1.4,0.33,2.78.75,4.17,1.07l4.76,1.13c2,0.47,3.95,1,5.93,1.4a123.88,123.88,0,0,0,14.77,2.27c1.64,0.16,3.28.19,4.92,0.27l6.38,0.29c0.91,0,1.82,0,2.73,0l7.25-.09h1.13c0.75,0,1.52,0,2.27,0l4.68-.31c4.23-.28,8.46-0.51,12.68-1a196.3,196.3,0,0,0,27.85-5.11,139.35,139.35,0,0,0,26.79-10.3c4-2,7.88-4.28,11.7-6.64a125.24,125.24,0,0,0,11.73-8.11,84,84,0,0,0,18-19.9,61.51,61.51,0,0,0,6-11.86,58.12,58.12,0,0,0,3-13.66,60.13,60.13,0,0,0-.26-13.51,95.25,95.25,0,0,0-2.7-14.39,78.75,78.75,0,0,0-4.69-12.7,75.21,75.21,0,0,0-7.21-12.19A98.42,98.42,0,0,0,903.4,399a77.58,77.58,0,0,0-10.82-9.25,100.58,100.58,0,0,0-37.62-16,107.39,107.39,0,0,0-15.13-1.54c-8.22-.41-16.44,0-24.65.34l-7.93.36c-2,.09-3.94.32-5.91,0.52-3.38.34-6.76,0.79-10.11,1.34-8.16,1.37-16,4-23.84,6.62l-2.33.78,1.08-2.16a91.08,91.08,0,0,0,4.17-9.93,57.6,57.6,0,0,0,1.82-5.91,65.12,65.12,0,0,0,1.25-7.66,107.31,107.31,0,0,0,.7-13.54,123.09,123.09,0,0,0-1-15.21,102.38,102.38,0,0,0-2.64-13.54,76,76,0,0,0-5.11-13.3,67.36,67.36,0,0,0-16-21,69.16,69.16,0,0,0-23.64-13.65,67.9,67.9,0,0,0-13.16-2.82,104.36,104.36,0,0,0-13.2-.83h-1.23ZM535.79,370.22a8.49,8.49,0,0,0,3.43-2.34c2-2,3.07-4.53,4.43-6.93s2.77-4.57,4.15-6.86c1-1.62,2.07-3.18,3.14-4.75l4.23-6.21,6.16-7.72c0.75-.94,1.46-1.95,2.27-2.84l2.94-3.24,8-8.78c1.22-1.34,2.54-2.61,3.81-3.9q2.67-2.71,5.44-5.31c3.34-3.13,6.87-6.06,10.47-8.88q6.15-4.67,12.72-8.74a103.22,103.22,0,0,1,13.25-6.89,170.32,170.32,0,0,1,20.9-7,188.22,188.22,0,0,1,21.17-4.12l9.09-1c2.47-.27,4.94-0.61,7.42-0.74l11.88-.65a122.1,122.1,0,0,1,21.18.49,66.11,66.11,0,0,1,14.64,3.85,67.73,67.73,0,0,1,13.23,7.79,65.8,65.8,0,0,1,10.11,10.14,71.16,71.16,0,0,1,7.91,13.77,83.67,83.67,0,0,1,4.94,19,119.8,119.8,0,0,1,.16,28.58,54,54,0,0,1-1.34,6.43,70.63,70.63,0,0,1-2.66,7.53c-0.9,2.07-1.88,4.09-2.91,6.11a47.42,47.42,0,0,1-3.82,6.4,52.51,52.51,0,0,1-3.92,4.16,5.29,5.29,0,0,0,0,7.43,12,12,0,0,0,1.95,1.52,6.52,6.52,0,0,0,3.43.74,8.7,8.7,0,0,0,3.06-.66c0.79-.29,1.57-0.64,2.33-1,4.23-1.65,8.51-3.16,12.82-4.58l7-2.31c3.2-1.05,6.51-1.86,9.78-2.66,2.93-.71,5.89-1.23,8.88-1.65,3.79-.47,7.59-0.86,11.39-1l10.3-.47a187.26,187.26,0,0,1,30.48.59,92.12,92.12,0,0,1,21.21,6.07,89.27,89.27,0,0,1,17.75,10.25c2,1.62,4,3.32,5.9,5.13a56.69,56.69,0,0,1,5.24,5.88c2.1,2.79,4.13,5.63,6,8.56a68,68,0,0,1,4.87,9.23,83.9,83.9,0,0,1,5.18,19.55,65.1,65.1,0,0,1,.29,14.64A54.68,54.68,0,0,1,913,474.44a68.26,68.26,0,0,1-7.73,12.8A80.35,80.35,0,0,1,892.52,500a152,152,0,0,1-13.74,9,135.12,135.12,0,0,1-15.53,7.9,140.7,140.7,0,0,1-18.85,6.24A181.11,181.11,0,0,1,824.82,527c-2.57.34-5.14,0.67-7.73,0.84l-7.13.47-5.57.37c-1.21.08-2.43,0-3.64,0.06l-7.25.09c-1.11,0-2.21,0-3.33,0l-7.39-.34c-2.59-.11-5.15-0.36-7.72-0.68-5.21-.78-10.29-2.05-15.41-3.26q-2.78-.66-5.56-1.34c-0.43-.1-0.84-0.21-1.26-0.34a21,21,0,0,0-3.73-.62,9.36,9.36,0,0,0-2.88.34,8.76,8.76,0,0,0-3.73,2.41L741.67,526a5.75,5.75,0,0,0-1,1.5,16.17,16.17,0,0,0-1.14,3c-0.27.91-.44,1.86-0.66,2.78-0.36,1.49-.67,3-0.95,4.49-0.46,2.52-.88,5.05-1.3,7.58-0.33,2-.66,3.94-1,5.91-0.46,2.65-.87,5.3-1.54,7.91a53.88,53.88,0,0,1-2.23,6.66,59.32,59.32,0,0,1-6.48,11,61.3,61.3,0,0,1-9.38,9.45,80.33,80.33,0,0,1-10.89,6.88c-4.11,2.16-8.38,4.05-12.64,5.88A106.39,106.39,0,0,1,679,603.61a133.1,133.1,0,0,1-15.1,3,219.38,219.38,0,0,1-22.64,1.64l-13.81.33c-4.43.1-8.86,0.07-13.29,0.11l-7.59.05a137.64,137.64,0,0,1-17.62-.9,57.79,57.79,0,0,1-7.21-1.59,71.84,71.84,0,0,1-7.51-2.73,118.18,118.18,0,0,1-23.41-14.26A50.9,50.9,0,0,1,543.4,582a46.85,46.85,0,0,1-4.82-8.4,69.9,69.9,0,0,1-2.48-7.87,67.8,67.8,0,0,1-1.41-7.66c-0.62-4.93-.87-9.87-1.12-14.84a72.71,72.71,0,0,1,.07-10.8,22.82,22.82,0,0,1,.58-2.21,5.24,5.24,0,0,0-10-3.23c-1,1.86-2.11,3.61-3.21,5.4-1.39,2.29-2.87,4.5-4.48,6.63a125.34,125.34,0,0,1-20.75,20.5,129.79,129.79,0,0,1-12.89,8.63,126.92,126.92,0,0,1-14.55,7.12l-8.79,3.32-3.54,1.34c-1.77.67-3.62,1.19-5.43,1.74-2.17.66-4.36,1.26-6.55,1.82a138.81,138.81,0,0,1-15.77,3.05l-8.6,1.19-11.09.78a111.22,111.22,0,0,1-21.27-.54,91.92,91.92,0,0,1-21.22-6,85,85,0,0,1-16.4-9.68,57.69,57.69,0,0,1-8.42-8.41A64.26,64.26,0,0,1,334,551.33a100.62,100.62,0,0,1-6-23.44,135,135,0,0,1-.5-32.11,90.88,90.88,0,0,1,6-21.06A108.5,108.5,0,0,1,346.12,453a145.33,145.33,0,0,1,12.61-13.67,181.06,181.06,0,0,1,15-13.06q3.91-3,7.93-5.81c0.49-4.92,1.16-9.84,2.09-14.7a46.68,46.68,0,0,1-4.43-4.58,40.27,40.27,0,0,1-3.74-6.5,50.92,50.92,0,0,1-2.82-10.87c-0.27-2.24-.48-4.48-0.56-6.74a45.94,45.94,0,0,1,.36-7c0.24-1.57.55-3.11,0.92-4.66a39.17,39.17,0,0,1,1.79-5.3,65.71,65.71,0,0,1,3.21-6.21,56.54,56.54,0,0,1,3.75-5.48,98.43,98.43,0,0,1,16.22-16,97,97,0,0,1,32.78-16.87,75,75,0,0,1,10.91-2.18c4.86-.61,9.73-0.87,14.62-1.12,2.38-.12,4.75-0.2,7.13-0.16a65.08,65.08,0,0,1,6.75.51,51.37,51.37,0,0,1,5.88,1.29,46.23,46.23,0,0,1,5,1.8,67.51,67.51,0,0,1,13.06,7.76,101,101,0,0,1,16.14,16.14c3.77,5,7.05,10.38,10.33,15.7,1.26,2,2.46,4.11,3.67,6.18,0.56,1,1.07,1.95,1.61,2.92a26.09,26.09,0,0,0,1.36,2.41,11.93,11.93,0,0,0,1.29,1.58,7,7,0,0,0,2.86,1.81,5.58,5.58,0,0,0,1.92.34,6.47,6.47,0,0,0,2-.33h0ZM373.47,426.53l-0.51.39,0.51-.39h0ZM750.73,531.35l-0.51.66a6.35,6.35,0,0,1,.51-0.66h0Z"/><path class="cls-2" d="M663.51,372.35a28.94,28.94,0,0,0-6.3,1.4,25.3,25.3,0,0,0-6.38,3.36,31.74,31.74,0,0,0-9.59,11.42,28.36,28.36,0,0,0-3.2,14.14c0.2,4.68,2.19,9.07,4,13.33a0,0,0,0,0,0,0c0.1-3.23.08-6.45,0.45-9.66a29.89,29.89,0,0,1,1.84-6.69,39.3,39.3,0,0,1,4-6.47,39.81,39.81,0,0,1,6-6,31,31,0,0,1,4.91-2.91,40,40,0,0,1,8.28-2.09,33.5,33.5,0,0,1,6.87-.05,42.24,42.24,0,0,1,8.89,2.61,19.12,19.12,0,0,1,3,1.81,23.17,23.17,0,0,1,3,3A98.64,98.64,0,0,1,695.68,400s0,0,0,0c-0.3-2.34-.69-4.68-1.18-7-0.89-4.16-2.2-8.13-5-11.43-3-3.58-7.41-5.94-11.68-7.71a25.76,25.76,0,0,0-9.89-1.81,36.62,36.62,0,0,0-4.46.28h0Z"/><path class="cls-2" d="M481.52,404.72a65.39,65.39,0,0,0-8.9.77,39.76,39.76,0,0,0-7.5,1.73C454.24,411,446.44,420,441.21,429.88c-2.44,4.64-4.33,10-3.87,15.29a16.48,16.48,0,0,0,.61,3.23,8.77,8.77,0,0,0,1.84,3.17,7,7,0,0,0,2.89,1.76,9,9,0,0,0,1.29.13,8.36,8.36,0,0,0,1.89-.3c3.87-.47,7.75-0.81,11.63-1.15,0,0,0,0,0,0-2.14-.64-4.3-1.32-6.47-1.84l-2.89-.69c-1.18-.27-2.46-0.34-3.62-0.67l-0.16-.16a4.48,4.48,0,0,1-.23-0.39l-0.12-.46a13.17,13.17,0,0,1,0-2.07,20.48,20.48,0,0,1,1.06-3.66,45.33,45.33,0,0,1,5.09-8.14A69.41,69.41,0,0,1,461,422.72a46.39,46.39,0,0,1,8-4.68,67.63,67.63,0,0,1,14.92-3.65,48.64,48.64,0,0,1,11-.23,51.94,51.94,0,0,1,10.32,3.07l-0.61-.26,3.34,1.4a49.67,49.67,0,0,0,6.67,2.81,51.81,51.81,0,0,0,6.75,1.61s0,0,0,0a73.72,73.72,0,0,1-7.67-5c-1.78-1.42-3.48-2.92-5.3-4.28A49.21,49.21,0,0,0,497.23,407c-4.89-2-10.42-2.31-15.62-2.31h-0.09Zm32,12.86,0.2,0.16-0.2-.16h0Zm-69.65,30L444,448v0q-0.09-.2-0.16-0.4h0ZM444,448l0,0.11,0-.09v0h0Zm0.06,0.27,0.14,0.19-0.14-.19h0Z"/><path class="cls-2" d="M697.85,476.31c-2.32,1.4-4.55,2.95-6.76,4.52s-4.61,3.14-7,4.66-4.82,2.77-7.26,4.13c-2.11,1.17-4.26,2.23-6.42,3.31s-4.39,2.33-6.64,3.36q-4.78,2.19-9.51,4.48c-5,2.41-10,4.64-14.94,7.17-2.81,1.45-5.74,2.67-8.59,4s-5.61,2.72-8.45,4q-3.37,1.54-6.7,3.15c-1,.48-2,1-3,1.43-3.85,1.67-7.63,3.53-11.49,5.2-1.44.6-2.88,1.21-4.29,1.86a29.38,29.38,0,0,0-4,2.38,2,2,0,0,0-.4,3.14,11.55,11.55,0,0,0,1.67,1.39,23.59,23.59,0,0,0,2.12,1.09c0.64,0.3,1.27.63,1.9,0.95q2.43,1.23,4.87,2.44s0,0,0,0q-1.51-1.64-3-3.27c-0.9-1-1.87-1.88-2.78-2.83,0.56-.14,1.13-0.26,1.71-0.36,1.78-.32,3.57-0.51,5.36-0.79,1.32-.21,2.62-0.52,3.93-0.79q2.82-.6,5.63-1.25c1-.23,2.05-0.43,3-0.71,4.87-1.43,9.8-2.82,14.52-4.7A143.39,143.39,0,0,0,647.66,517c3-1.66,6-3.39,9-5.16,2-1.16,3.83-2.46,5.72-3.71,3.16-2.09,6.28-4.2,9.29-6.5,3.42-2.61,6.82-5.22,10-8.06a86.45,86.45,0,0,0,8.18-7.91c2.71-3.09,5.31-6.28,8-9.39a0,0,0,0,0,0,0h0Z"/><path class="cls-3" d="M978.19,368.93a46.28,46.28,0,0,0-10.94,4.81c-1.62.95-3.16,2-4.71,3.07s-3.23,2.23-4.76,3.47a66,66,0,0,0-8,7.84c-3,3.39-5.58,7-8.22,10.69-1.59,2.2-3.07,4.45-4.55,6.72s-2.86,4.7-4.22,7.1-2.45,4.71-3.61,7.12-2.14,4.56-3.15,6.88c-1.15,2.63-2.35,5.23-3.32,7.93q-2.84,7.86-5.51,15.79c-1.82,5.46-3.77,10.88-5.6,16.34-0.78,2.32-1.48,4.66-2.25,7q-0.27.83-.56,1.65c-0.45-.94-0.9-1.89-1.37-2.82-1.61-3.15-3.2-6.3-4.88-9.41a93.27,93.27,0,0,0-5.84-9.51,124.33,124.33,0,0,0-7.81-9.87c-2.38-2.75-4.85-5.44-7.29-8.14-3.29-3.65-6.45-7.42-9.57-11.21-2.51-3.05-5-6.09-7.7-9a83.07,83.07,0,0,0-8-7.34,106.77,106.77,0,0,0-10.07-7.32,78.68,78.68,0,0,0-21.15-9.16,61.28,61.28,0,0,0-7.72-1.64c-1.75-.25-3.52-0.59-5.27-0.74l-4.37-.38a38.94,38.94,0,0,0-10.9.5,25.11,25.11,0,0,0-5.21,1.91,24,24,0,0,0-4.54,2.77,30.7,30.7,0,0,0-4.27,3.82,45.55,45.55,0,0,0-4,5.1,51.59,51.59,0,0,0-5,9.86,54.15,54.15,0,0,0-3.09,11.3,97.83,97.83,0,0,0-1.26,11.24,59,59,0,0,0,.61,12.17c2.31,15.48,11.07,28.88,20.55,40.95a117.23,117.23,0,0,0,14,14.5q5.33,4.79,11.09,9l7.78,5.76c1.59,1.18,3.3,2.2,5,3.27l13.54,8.7c3.68,2.37,7.18,5,10.73,7.57l6.76,5.46c2,1.59,3.78,3.36,5.63,5.1s3.75,3.55,5.58,5.4a129.45,129.45,0,0,1,9.33,10.1,90.5,90.5,0,0,1,10,17.64c2.86,7,4.64,14.44,6.49,21.78,1.25,4.93,1.92,10,3.11,14.93a5.25,5.25,0,1,0,10.13-2.79c-0.51-2.15-.9-4.33-1.3-6.51a5.18,5.18,0,0,0,.59.2,5.52,5.52,0,0,0,4-.53c3.32-1.65,6.63-3.32,9.9-5.05a94.19,94.19,0,0,0,10.16-6.37,176.61,176.61,0,0,0,13.94-11.12l8.12-7.07c1.64-1.43,3.2-2.94,4.79-4.43l6.48-6.06c0.63-.59,1.21-1.23,1.81-1.84l4.21-4.28c1.55-1.58,3.19-3.1,4.65-4.76l6.88-7.82c3.62-4.11,7.09-8.35,10.61-12.55,1.62-1.94,3.13-4,4.66-6q3.73-4.91,7-10.12c2.41-3.8,4.61-7.69,6.74-11.64,1.19-2.2,2.48-4.37,3.54-6.63l4.07-8.66a149.73,149.73,0,0,0,9.83-25.77c1.69-6.49,3-13.08,4.2-19.67,0.56-3,.87-6.13,1.25-9.2,0.34-2.71.44-5.45,0.62-8.17,0.36-5.47.37-11,.39-16.45,0-2.34-.12-4.68-0.32-7a50.07,50.07,0,0,0-2.15-11.74,44.52,44.52,0,0,0-4.88-9.7,39.85,39.85,0,0,0-7.28-8.62,33.75,33.75,0,0,0-9.63-6,43.65,43.65,0,0,0-10.74-2.72,105.69,105.69,0,0,0-13.32-1h-0.44a38.29,38.29,0,0,0-10.08,1.33h0Zm15.64,9.39c2.07,0.16,4.12.31,6.18,0.55a43.71,43.71,0,0,1,9.19,2.3,31.43,31.43,0,0,1,5,2.95,35.48,35.48,0,0,1,4.78,4.75,48,48,0,0,1,5,8.36,36,36,0,0,1,1.92,7.21,75.8,75.8,0,0,1,.64,9.07l0,5.89c0,3-.16,6.07-0.26,9.1s-0.35,5.79-.54,8.68c-0.15,2.29-.5,4.58-0.81,6.86-0.71,3.81-1.4,7.6-2.23,11.39-0.57,2.62-1.13,5.23-1.77,7.84-0.68,2.75-1.43,5.48-2.3,8.18s-2,5.54-3.06,8.26q-4,9-8.22,17.9c-0.56,1.2-1.26,2.34-1.89,3.5l-3.15,5.84a150.55,150.55,0,0,1-12.8,19.53c-2.06,2.64-4.21,5.2-6.36,7.77-1.5,1.8-3,3.63-4.53,5.39l-6.88,7.82c-1.25,1.42-2.49,2.81-3.82,4.16l-7.71,7.83c-1.4,1.43-2.87,2.77-4.34,4.14l-7.11,6.65c-2,1.89-4.18,3.64-6.26,5.45-3.59,3.12-7.18,6.24-10.91,9.18a117,117,0,0,1-10.68,7.31c-4.2,2.52-8.66,4.63-13,6.81a4.26,4.26,0,0,0-1.16.85l-0.07-.28q-1.08-4.27-2.22-8.52c-0.44-1.67-.91-3.33-1.41-5a97.83,97.83,0,0,0-4.27-11.39,87.48,87.48,0,0,0-11.8-19.54,124.3,124.3,0,0,0-8.71-9.32c-1.71-1.73-3.46-3.39-5.23-5.06s-3.53-3.46-5.45-5l-7-5.66c-1.68-1.36-3.43-2.6-5.18-3.85L849,521.68c-0.75-.54-1.56-1-2.34-1.5l-4.34-2.79-12.27-7.89c-1.68-1.08-3.24-2.37-4.84-3.55l-5.58-4.13c-8.05-6.48-15.76-13.49-22.17-21.63-5.21-6.88-10.09-14.15-13.58-22.07a60.5,60.5,0,0,1-3.59-13,56.59,56.59,0,0,1-.38-8c0.07-2.71.3-5.4,0.63-8.09,0.32-2.17.7-4.32,1.19-6.45a49.23,49.23,0,0,1,2.38-7.34,45.83,45.83,0,0,1,4.83-8.46,31.08,31.08,0,0,1,4-4.11,27,27,0,0,1,4.12-2.41,22.45,22.45,0,0,1,3.18-.92,64.35,64.35,0,0,1,11.76.36c1.57,0.22,3.15.43,4.7,0.72A78.38,78.38,0,0,1,831.93,405a79.35,79.35,0,0,1,15.51,9.35,91.91,91.91,0,0,1,9.44,8.5c1.65,1.72,3.21,3.5,4.72,5.34,2.14,2.59,4.26,5.2,6.44,7.75s4.21,5,6.39,7.38c3.71,4.11,7.48,8.17,10.92,12.52a97.8,97.8,0,0,1,5.82,8.5c1.44,2.39,2.76,4.87,4,7.36s2.64,5.09,3.88,7.67l1.92,4c0.36,0.75.71,1.51,1.08,2.26a14.45,14.45,0,0,0,1.69,2.46,7.2,7.2,0,0,0,5.45,3.1,7,7,0,0,0,5.25-2.4,8.17,8.17,0,0,0,1.3-2c0.36-.8.7-1.62,1-2.44,0.5-1.4,1-2.8,1.5-4.21,1.83-5.17,3.42-10.43,5.17-15.62,0.78-2.31,1.66-4.58,2.43-6.89s1.63-4.9,2.46-7.34q2.46-7.2,5.06-14.35c1.15-2.66,2.25-5.34,3.51-8,1.61-3.34,3.13-6.7,5-9.93l2.84-5c0.34-.59.76-1.15,1.13-1.72l2.33-3.55c1.84-2.81,3.87-5.48,5.84-8.2a75,75,0,0,1,10.94-11.53c1.95-1.45,4-2.79,6-4.12a48.53,48.53,0,0,1,6.53-3.54,35.76,35.76,0,0,1,6.84-2,55.52,55.52,0,0,1,9.51,0h0ZM906.38,482.14q-0.09.24-.2,0.47l0.19-.46h0Z"/><path class="cls-3" d="M969.75,483.5a5.25,5.25,0,1,0,5.25-5.25,5.3,5.3,0,0,0-5.25,5.25h0Z"/><path class="cls-3" d="M992.25,402.5a5.25,5.25,0,1,0,5.25-5.25,5.3,5.3,0,0,0-5.25,5.25h0Z"/><path class="cls-3" d="M980.91,448.47q-2.31,1.27-4.55,2.67a39.05,39.05,0,0,0-4.57,3.42,25.26,25.26,0,0,0-3.45,4.07c-1,1.36-1.91,2.86-2.86,4.28-0.63.94-1.3,1.84-2,2.76-2.63,3.34-5.32,6.65-8.12,9.84-1.58,1.81-3.14,3.64-4.76,5.41s-3.31,3.78-5.09,5.54-3.63,3.54-5.42,5.33-3.59,3.51-5.3,5.34q-5.85,6.26-11.54,12.66a5.46,5.46,0,0,0-1.54,3.71,5.25,5.25,0,0,0,9,3.71q3.42-3.86,6.88-7.68c1.61-1.78,3.24-3.57,4.93-5.27,1.87-1.88,3.73-3.79,5.63-5.65s4-3.74,5.8-5.75c3.9-4.29,7.75-8.59,11.48-13a149.65,149.65,0,0,0,10.16-13.21c0.59-.89,1.17-1.79,1.79-2.66a21.07,21.07,0,0,1,2.5-2.53,65,65,0,0,1,6.31-3.9,5.29,5.29,0,0,0,1.89-7.18,5.21,5.21,0,0,0-4.53-2.56,5.51,5.51,0,0,0-2.65.68h0Z"/><path class="cls-3" d="M868,436.68l-5,.67-0.46.19a17,17,0,0,0-7.5,4.38,18,18,0,0,0-5,8.35,33.61,33.61,0,0,0-.69,7.58A44.91,44.91,0,0,0,851.93,470a143,143,0,0,0,6.59,16c1.86,3.82,6.18,6.72,10.16,7.81a17,17,0,0,0,5.85.55,61.57,61.57,0,0,0,6,7,28.79,28.79,0,0,0,7.33,5.63,32.37,32.37,0,0,0,6.24,2.39,44.71,44.71,0,0,0,6.86.93c2.19,0.21,4.37.47,6.55,0.71l4.52-.61a17,17,0,0,0,7.5-28.41l-3.44-2.66A16.94,16.94,0,0,0,907.5,477l-3.57-.38c-0.68-.71-1.34-1.45-2-2.21-3.17-4.55-5.58-9.53-8.35-14.33q-3-5.2-6.28-10.24c-0.49-.76-1-1.49-1.58-2.21-1.36-1.78-2.8-4.07-4.65-5.5a23.45,23.45,0,0,0-4-3,20.23,20.23,0,0,0-8.41-2.52,5.38,5.38,0,0,0-.71,0h0Z"/><path class="cls-3" d="M954.28,436.87c-0.52.87-1.08,1.7-1.66,2.51-3.18,4-6.41,7.91-9.88,11.59-3.83,4.07-7.82,8-11.3,12.4a69.11,69.11,0,0,0-8.82,13.34,136.26,136.26,0,0,0-6,15.77,16.73,16.73,0,0,0,1.71,13.1,17,17,0,0,0,23.26,6.1,17.66,17.66,0,0,0,7.81-10.16c0.84-2.55,1.66-5.13,2.61-7.65a53.1,53.1,0,0,1,4.47-7.65c2.79-3.34,5.84-6.44,8.82-9.61,2-2.17,4-4.4,5.92-6.66,1.66-1.95,3.29-3.92,4.93-5.89a83.59,83.59,0,0,0,7.5-10c4.8-7.93,1.8-18.64-6.1-23.26a16.61,16.61,0,0,0-8.42-2.28,17.42,17.42,0,0,0-14.84,8.38h0Z"/><path class="cls-3" d="M993.17,384.32a79.56,79.56,0,0,0-11.41,1.75,54.61,54.61,0,0,0-8.82,3.08c-1.33.1-2.68,0.3-4.06,0.5a23.6,23.6,0,0,0-5.18,1.44,55.24,55.24,0,0,0-11.44,5.64,49.16,49.16,0,0,0-5.89,4.72,52.81,52.81,0,0,0-5.43,6.59c-2.69,3.51-4.29,7.46-6,11.52a58.07,58.07,0,0,0-2.72,10.22c-0.22,1-.41,2.07-0.6,3.11l-0.12.29a20,20,0,0,0-1.51,8.29,17.69,17.69,0,0,0,.12,2c-0.84,1.66-1.68,3.32-2.62,4.94-1.23,2.14-2.55,4.21-3.89,6.29-3.09,4.81-6.3,9.55-9.21,14.47a93,93,0,0,0-4.73,9.72,134.71,134.71,0,0,0-5.61,13.82c-2,6.21-2.52,12.8-3.08,19.27-0.38,4.29,2,9.07,5,12a17,17,0,0,0,24,0l2.66-3.44A17,17,0,0,0,935,512c0.12-1.41.25-2.81,0.4-4.22a55.47,55.47,0,0,1,3.11-10.57c0.79-1.84,1.6-3.68,2.48-5.47,1.38-2.78,2.82-5.44,4.4-8.11,2.61-4.42,5.62-8.62,8.37-12.95,1.52-2.39,3-4.81,4.38-7.27,0.67-1.17,1.21-2.43,1.81-3.64a75.8,75.8,0,0,1,4-7.21c3.28-5.12,6.43-10.32,9.84-15.36,0.49-.73,1-1.46,1.52-2.18,2.75-3.34,5.48-6.69,8-10.19,1.15-1.58,2.29-3.16,3.46-4.73a51.25,51.25,0,0,1,6.71-1.82l4.19-.56a17,17,0,0,0,7.5-28.41c-2.72-2.72-7.06-5-11.09-5q-0.47,0-.93,0h0Z"/><path class="cls-3" d="M976.8,377.22a5.64,5.64,0,0,0-1.09.39,27.64,27.64,0,0,0-4.9,2.22c-3.62,2.41-4.87,4-7.48,7.51a6.62,6.62,0,0,0-.55,1,44.34,44.34,0,0,0-2.2,5.26,28,28,0,0,0-.8,2.86A96.79,96.79,0,0,0,958,408.5q0.3,2.26.61,4.52a17,17,0,0,0,21.66,11.64c-0.37,1.25-.73,2.49-1.08,3.73-1.29,4.52-2.55,9-4.21,13.43-2.28,4.9-5,9.64-7.74,14.31-2.2,3.79-4.34,7.63-6.63,11.37-2.5,4.08-5,8.18-7.68,12.12-2,2.91-4.08,5.74-6.2,8.55l-2.72,2c-5.94,4.23-12.18,7.85-17.72,12.67a60,60,0,0,0-8.65,10.13,26.32,26.32,0,0,0-1.52,2.37q-2.09-2.36-4.16-4.75c-3.52-4.05-7.11-8-10.89-11.84a63.68,63.68,0,0,0-5.74-4.74q-4.81-3.82-9.87-7.31c-2-1.38-4-2.72-6-4.09q-0.13-.69-0.31-1.38c-0.77-4.68-3.82-9.18-6.11-13.36-1.13-2.07-2.28-4.17-3.59-6.12-3.84-5.72-7.81-11.3-12.15-16.66-3.57-4.41-7.3-8.66-11-13-1.11-1.29-2.24-2.57-3.37-3.85a73.09,73.09,0,0,0-10.89-10,24.9,24.9,0,0,0-7.31-3.51,33.14,33.14,0,0,0-5.78-.86h-0.24l-0.09,0c-1.83-.82-3.45-1.5-5.26-2.14a22.14,22.14,0,0,0-12.48-.54,7.12,7.12,0,0,0-1.71.39,26.33,26.33,0,0,0-9.68,5.55c-3.77,3.08-5.81,7.43-7.58,11.81A40.74,40.74,0,0,0,779.5,440a22.78,22.78,0,0,0,0,4.13,40,40,0,0,0,1.29,7.87,33.84,33.84,0,0,0,5.07,10.42,42.88,42.88,0,0,0,7.51,8.31,61.82,61.82,0,0,0,9,6.25c1.33,0.73,2.68,1.42,4.06,2.06,1.59,2.79,3.14,5.61,4.73,8.41,4.87,8.55,10.12,17.31,17.63,23.8a59.69,59.69,0,0,0,7,5.24,46.84,46.84,0,0,0,7.91,3.67c4.61,1.8,9.38,2.4,14.26,3l2.33,0.29c1.39,1.46,2.71,3,4,4.51,4.46,6.26,8.25,13,12.59,19.33,2.71,4,5.5,7.86,8.45,11.65a42.07,42.07,0,0,0,6.16,6.54c1.27,1.05,2.51,2.18,3.84,3.14a24.82,24.82,0,0,0,8.91,8.19c3.66,1.88,5.38,2.18,9.45,2.6a22,22,0,0,0,6.32-.56,19.2,19.2,0,0,0,3.76-1.19,75.92,75.92,0,0,0,10.55-4.91c4.92-2.93,9.89-6,13.76-10.29,3.47-3.85,6.66-7.92,10-11.89,2.18-2.6,4.52-5.05,6.9-7.47,2.92-2.3,5.78-4.67,8.54-7.16a76.8,76.8,0,0,0,10.66-12.56,60.86,60.86,0,0,0,3.8-6.07,190.41,190.41,0,0,0,12.73-18.75c4.17-7.11,8.36-14.23,12.21-21.52,1.51-2.86,3-5.69,4.3-8.66a91,91,0,0,0,4.2-11.17,55.35,55.35,0,0,0,1.44-6.83l0.05-.19a16.91,16.91,0,0,0,.6-4.48v0c0.39-2.93.82-5.84,1-8.79a69.58,69.58,0,0,0-.1-9.2c-0.18-2.64-.38-5.1-0.82-7.77a19.35,19.35,0,0,0-2.78-6.94,18.54,18.54,0,0,0-4.48-5c-0.13-1-.27-1.92-0.41-2.9a29.58,29.58,0,0,0-1.15-5.66c-1.76-5.06-4.14-9.78-8.23-13.35a47.82,47.82,0,0,0-6.13-4.59,41.43,41.43,0,0,0-8.05-3.52,21.64,21.64,0,0,0-3.32-.84,49,49,0,0,0-6.36-.78h-0.49a29.12,29.12,0,0,0-5.39.8h0Z"/><path class="cls-3" d="M982.32,380.95a26.86,26.86,0,0,0-5.72,2.15,21.88,21.88,0,0,0-9,8.17,19.68,19.68,0,0,0-2.92,11.56c0.21,2.39.61,4.77,1,7.14,0.77,4.94,1.75,9.86,2.6,14.79,0.11,1.18.2,2.37,0.24,3.57a17.36,17.36,0,0,0,5,12,17,17,0,0,0,29-12v-5.21a16.87,16.87,0,0,0,4.23-1.75,17.12,17.12,0,0,0,7.81-10.16c1.27-4.59.41-8.95-1.71-13.1a54.46,54.46,0,0,0-6-8.93,27.55,27.55,0,0,0-6.27-5.34,29.41,29.41,0,0,0-5.46-2.43,37,37,0,0,0-6.68-1.11,6.11,6.11,0,0,0-.79,0,31.79,31.79,0,0,0-5.31.69h0Z"/><path class="cls-3" d="M969,378.48l-2.66,3.44A16.9,16.9,0,0,0,964,390.5a45.48,45.48,0,0,1,.4,7.1,60.67,60.67,0,0,1-3.13,9.6c-0.91,2-1.89,4-2.85,6.07s-2.14,3.82-3.17,5.73c-2.17,4-4.27,8.17-6.82,12a17,17,0,0,0,10,32.47,28.61,28.61,0,0,0,8.45-3.84,45.13,45.13,0,0,0,5.25-4.22,41.84,41.84,0,0,0,4.2-5.21,55.38,55.38,0,0,0,3.7-5.75c1.74-3.07,3.39-6.18,5.11-9.26,0.87-1.57,1.86-3.11,2.62-4.73l2.73-5.8a122.63,122.63,0,0,0,6-15.29,56.68,56.68,0,0,0,1.84-10.48,35.85,35.85,0,0,0-.34-8.36L997.39,386a17,17,0,0,0-28.41-7.5h0Z"/><path class="cls-3" d="M996.44,378a21.64,21.64,0,0,0-5.1,2.27,20.49,20.49,0,0,0-4.09,3.41,29.35,29.35,0,0,0-4.95,3.84c-1.66,1.49-3.28,3-4.92,4.54a21.6,21.6,0,0,0-7.82,4.69,3.43,3.43,0,0,0-.75.76,16.93,16.93,0,0,0-4.37,7.5,16,16,0,0,0-.16,9.43,22.56,22.56,0,0,0,2.21,5l-0.09.21a48.33,48.33,0,0,0-3.78,10.19c-0.87,4.34-1.19,8.79-1.63,13.2l0.61,4.52a17,17,0,0,0,6.62,9.39,29.53,29.53,0,0,0-1.16,3.8,17.53,17.53,0,0,0,1.71,13.1,17.07,17.07,0,0,0,4.67,5.16c-0.16,1.24-.28,2.48-0.41,3.69,0,0.07,0,.14,0,0.21a17.49,17.49,0,0,0-2.37,2c-0.65.76-1.29,1.53-1.88,2.32a13.43,13.43,0,0,0-3.32-.11c-3,.19-6.52.83-9.14,2.56a23.18,23.18,0,0,0-5.72,4.91,43.48,43.48,0,0,0-4.62,6.62l-1.09,2.08a27.13,27.13,0,0,0-5.42,4,43.84,43.84,0,0,0-4.73,6.08c-0.75,1.13-1.47,2.27-2.2,3.41-1.06,1.68-2.11,3.34-3.1,5.05-2.1,3.61-4.16,7.25-6.31,10.84-2.24,3.73-4.5,7.45-6.93,11.05a102,102,0,0,0-6.8,10.82c-2.11,4.17-3,8.49-1.71,13.1a17.11,17.11,0,0,0,7.81,10.16q0.65,0.38,1.33.7a17.07,17.07,0,0,0,9.56,2.95l4.52-.61a17.09,17.09,0,0,0,4.38-1.91,16.64,16.64,0,0,0,13.31-1.59,70,70,0,0,0,7.74-6c1-.78,1.93-1.55,2.89-2.34,2.13-1.75,4.21-3.54,6.22-5.41a91.06,91.06,0,0,0,10-11.46,40.25,40.25,0,0,0,2.67-4l2.74-3.75c1.52-2.07,3-4.15,4.48-6.28,0.75-1.1,1.51-2.19,2.25-3.3l1.36-2.05,0.61-.92a25.43,25.43,0,0,0,2.44-4.84c3-2.51,5.9-5.12,8.93-7.59,1.49-1.22,3-2.42,4.43-3.72,1.09-1,2.18-2,3.24-3a65.68,65.68,0,0,0,7.64-9.38,43.54,43.54,0,0,0,4.13-7.59,76.81,76.81,0,0,0,4.27-11.49,57.36,57.36,0,0,0,1.71-12.27,24,24,0,0,0-.67-7.61q-0.16-.49-0.32-1a39.91,39.91,0,0,0-.27-6,52.45,52.45,0,0,0,2.53-6.68,21.63,21.63,0,0,0,.52-2.68,51.67,51.67,0,0,0,.76-7.21,54.68,54.68,0,0,0-.47-7.43q0-.55,0-1.1a22.93,22.93,0,0,0-1.93-9.17c0.58-3.54,1-7.1,1.49-10.65a36.37,36.37,0,0,0-.35-12.32,19.71,19.71,0,0,0-10.83-13.9,21.65,21.65,0,0,0-2.32-3,17.89,17.89,0,0,0-4.45-3.45,16.89,16.89,0,0,0-8.58-2.32,28.58,28.58,0,0,0-5,.63h0Z"/><path class="cls-3" d="M914.93,533q-1.92,1.45-3.8,2.93a18.66,18.66,0,0,0-3.22,4.43c-1.07,2.25-2,4.59-2.88,6.92l-0.5,1c-0.85,1.68-1.58,3.41-2.36,5.12q-0.67,1.46-1.37,2.9c-1,1.22-1.89,2.46-2.77,3.73a32.21,32.21,0,0,0-3.66,8.35c-1.12,3.46-2.62,7.16-2.29,10.84a17,17,0,0,0,2.32,8.58,35,35,0,0,0,3,3.93,25.86,25.86,0,0,0,3.91,3l4.06,1.71a17.06,17.06,0,0,0,9,0c4.14-.56,8.13-4.15,11.19-6.62l2.66-3.44a16.94,16.94,0,0,0,2.32-8.58q0-.22,0-0.44l2.12-2.75A16.89,16.89,0,0,0,935,566v-0.06a44.13,44.13,0,0,1,1.27-5.16,51.07,51.07,0,0,0,3.62-8.56A17,17,0,0,0,928,531.31l-4.52-.61a17,17,0,0,0-8.58,2.32h0Z"/><path class="cls-3" d="M934.48,543.61q-0.68.19-1.33,0.43h-0.08c-4.71,0-8.58,1.91-12,5q-5.6,5-11.06,10.14c-1.62,1.52-3.17,3.13-4.7,4.73-1.05,1.1-2.11,2.2-3.15,3.31-1.78,1.91-3.31,3.93-4.91,6-2.43,3.17-3.34,7-3.65,10.91a17.69,17.69,0,0,0,5.11,13.28c2.52,2.52,4.6,3.25,7.87,4.52a15.59,15.59,0,0,0,9.49-.19,16.93,16.93,0,0,0,7.5-4.37,8.64,8.64,0,0,0,1.29-1.27c0.4-.49.79-1,1.18-1.48l1-1.29a17,17,0,0,0,6.09-3.91,28.12,28.12,0,0,0,2.16-2.1,41.24,41.24,0,0,1,3.34-2.95l2.43-2.05c0.68-.57,1.34-1.14,2-1.72a23.43,23.43,0,0,0,5.14-6.12L951,572c3.27-2.86,5-7.79,5-12a17,17,0,0,0-17-17l-4.52.61h0Z"/><path class="cls-3" d="M786.91,417.75a56,56,0,0,0-5.51,6.88,36.25,36.25,0,0,0-4.07,8.92,38.9,38.9,0,0,0-1.64,9.92,18.22,18.22,0,0,0,.22,3.63c0.3,2.39.59,4.8,1,7.17a40.65,40.65,0,0,0,3.54,9.52,44.77,44.77,0,0,0,5.5,8.1c0.69,0.9,1.41,1.77,2.14,2.63q0.1,0.54.23,1.07c0.71,3,2.95,6.2,5,8.44,2.32,2.51,4.73,5,7.23,7.31,1.11,1,2.24,2.07,3.35,3.11,3.93,3.71,7.82,7.68,13.27,9a17.66,17.66,0,0,0,13.36-1.88c1.22,1.33,2.46,2.65,3.75,3.92,2,2,4,4,6.07,5.89l2.1,1.95q-0.11.44-.19,0.88l-0.61,4.52a17,17,0,0,0,2.32,8.58,20.71,20.71,0,0,0,3.17,4,40.21,40.21,0,0,0,5.64,4c0.58,0.32,1.18.61,1.77,0.91a70.74,70.74,0,0,0,7.74,3.32,32.11,32.11,0,0,0,8.18,1.52,33.28,33.28,0,0,0,7.42-.65H878q1.87,1.53,3.73,3.09c5.2,4.36,10.18,9,15.22,13.52a17.56,17.56,0,0,0,12,5,17,17,0,0,0,17-17,16.66,16.66,0,0,0-5-12l-11.15-10.05c-2.83-2.54-5.84-4.86-8.8-7.25-4.42-3.59-8.75-7.29-13.37-10.62a63.93,63.93,0,0,0-10.66-6.7,17.38,17.38,0,0,0-2.9-1.35l-0.29-.32c-3.14-3.54-6.61-6.73-10.07-9.94-4.07-3.78-7.84-7.79-11.54-11.92s-7.18-8-10.9-11.89-7.72-7.73-11.48-11.7q-2.94-3.11-5.64-6.42c-2.24-3.07-4.36-6.27-6.3-9.53l-2.18-3.66a16.87,16.87,0,0,0-4.8-13.86,17.13,17.13,0,0,0-12.11-4.92,16.54,16.54,0,0,0-11.93,4.92h0Z"/><path class="cls-3" d="M835.68,411.2l-3.44,2.66a16.92,16.92,0,0,0-4.37,7.5,17.21,17.21,0,0,0,1.71,13.1c1.6,2.81,3.57,5.49,5.38,8.18s3.52,5,5.34,7.52c4.64,6.3,9.73,12.3,14.69,18.36l3.44,2.66A17,17,0,0,0,884,456.5L883.39,452a16.93,16.93,0,0,0-4.37-7.5l-3.7-4.54a13.4,13.4,0,0,0-.72-3.61,38.79,38.79,0,0,0-2.33-5.21,41,41,0,0,0-4.52-6.05L866,423.69c-1.61-2.1-3.25-4.16-5-6.19a37.31,37.31,0,0,0-6.67-6.07,17.53,17.53,0,0,0-9.57-2.86c-2.92,0-6.71.84-9.09,2.63h0Z"/><path class="cls-3" d="M811.42,403.67c-4.78,2.79-8.26,6.82-11.36,11.31a39,39,0,0,0-3.67,7.78A28.53,28.53,0,0,0,795,427.5a46.49,46.49,0,0,0-.94,7.86,46,46,0,0,0,1.11,9.12,55.86,55.86,0,0,0,2.35,8.27,76.75,76.75,0,0,0,5.2,12.84c4.51,8.09,15.39,10.71,23.26,6.1a16.62,16.62,0,0,0,6.27-6.5,17,17,0,0,0,12.25,5.3,17.16,17.16,0,0,0,17-17c0-5.5,0-11-.05-16.51,0-1.13-.18-2.26-0.28-3.39a68.55,68.55,0,0,0-1.25-8.18,34.57,34.57,0,0,0-3-7.73,14.12,14.12,0,0,0-1.39-2c-0.93-1.27-2-2.54-2.94-3.8-0.41-.52-0.8-1.06-1.23-1.57s-1.08-1.27-1.65-1.89c-2.84-3.07-6.32-4.64-10.11-6.13a45.06,45.06,0,0,0-11.82-2.5,21.48,21.48,0,0,0-2.41-.13,28,28,0,0,0-13.92,4h0Z"/><path class="cls-3" d="M808.3,402.94a34.94,34.94,0,0,0-6.82,1.2,29.67,29.67,0,0,0-6.87,3.14,33.33,33.33,0,0,0-10.12,10.43,40,40,0,0,0-2.89,6.3,27.89,27.89,0,0,0-1.34,4,36.1,36.1,0,0,0-.27,15.46,27.35,27.35,0,0,0,2.25,6.25c1,2.29,2.7,4.09,4.23,6s3.95,3.5,5.75,4.87a17.42,17.42,0,0,0,3.63,2.1,107.78,107.78,0,0,0,14.86,5.41,17.17,17.17,0,0,0,20.91-11.87l0-.16A18,18,0,0,0,837,457a17,17,0,0,0,17-17q-0.3-2.26-.61-4.52A17,17,0,0,0,849,428c-3-3.42-6-6.82-8.92-10.32-0.64-.77-1.27-1.55-1.9-2.34a19.05,19.05,0,0,0-2.54-2.57,57.44,57.44,0,0,0-6.11-4.6,34.85,34.85,0,0,0-9.24-4,51,51,0,0,0-7.7-1.21,17.37,17.37,0,0,0-2.08-.13,18.48,18.48,0,0,0-2.22.14h0Z"/><path class="cls-3" d="M797.82,400.14c-4.53,1.24-8.2,3.79-11.64,6.88a19.31,19.31,0,0,0-2.29,2.63,43.36,43.36,0,0,0-4.4,6.3,61.48,61.48,0,0,0-5.29,14.5,116.67,116.67,0,0,0-2.69,15.62l0.61,4.52a17,17,0,0,0,28.41,7.5l2.66-3.44a16.87,16.87,0,0,0,2.32-8.23c0.24-1.32.5-2.63,0.78-3.95,0.4-1.92.84-3.86,1.37-5.77q1,1.05,1.91,2.14a27.18,27.18,0,0,1,1.37,2.37l0.68,1.81,1.71,4.06a17,17,0,0,0,29.36,0c2.13-3.64,3.24-9,1.71-13.1-1.16-3.11-2.37-6.18-3.73-9.21-1.54-3.41-4.05-6.33-6.39-9.2-1.14-1.39-2.42-2.65-3.68-3.93a68.77,68.77,0,0,0-8.37-7.22,27.77,27.77,0,0,0-9.5-4.3,29.77,29.77,0,0,0-7.49-1,27.83,27.83,0,0,0-7.4,1h0Z"/><path class="cls-3" d="M805.78,402.78c-0.82.51-1.58,1.05-2.36,1.63a56.28,56.28,0,0,0-5,4,34.08,34.08,0,0,0-4.17,5.23,27.35,27.35,0,0,0-2.53,5.56,21.6,21.6,0,0,0-1.18,6.65c-0.09,4.78,1.68,8.7,3.68,12.93,3.15,6.68,8.81,11.51,14.25,16.26l3.44,2.66A17,17,0,0,0,837.5,443c0-4.23-1.71-9.16-5-12-1.41-1.23-2.87-2.44-4.29-3.71a16.52,16.52,0,0,0,2.53-5.29,17.1,17.1,0,0,0-1.71-13.1,17.5,17.5,0,0,0-14.95-8.44,15.65,15.65,0,0,0-8.32,2.34h0Z"/><path class="cls-3" d="M807.19,395.66a14.24,14.24,0,0,0-3.22.91,28.73,28.73,0,0,0-6.13,3,44.72,44.72,0,0,0-5.27,4.27,45.35,45.35,0,0,0-4.83,6,43.81,43.81,0,0,0-4.65,9.33c-1.38,3.36-1.66,7-2.13,10.52s0.37,7.15.93,10.55A43.67,43.67,0,0,0,784,448l2.64,7.24a61.63,61.63,0,0,0,4.44,10.05,17,17,0,1,0,29.36-17.16c-0.35-.59-0.66-1.18-1-1.79a89.94,89.94,0,0,1-4.29-12.73q2.66,3.19,5.28,6.39l3.44,2.66A17,17,0,0,0,849.5,428l-0.61-4.52a17,17,0,0,0-4.37-7.5c-3.37-4.13-6.64-8.6-10.58-12.2a52.81,52.81,0,0,0-5.34-4.12,30.57,30.57,0,0,0-6.32-2.9,19.43,19.43,0,0,0-3.25-.91q-2.72-.42-5.46-0.75c-0.43,0-.85-0.06-1.26-0.06a31.63,31.63,0,0,0-5.14.61h0Z"/><path class="cls-2" d="M971.1,416.38a23.28,23.28,0,0,0-5.67,2.18,26.94,26.94,0,0,0-5.16,3.81,75.07,75.07,0,0,0-9.15,9.72,52.09,52.09,0,0,0-6.54,10.31A62,62,0,0,0,940.49,455s0,0,0,0c2.06-2.53,4.13-5,6.27-7.51a89.43,89.43,0,0,1,7.41-7.35c2.63-2.39,5.41-4.63,8.06-7,1.33-1.19,2.65-2.39,4-3.57,1.17-1,2.28-2.12,3.47-3.12a27.19,27.19,0,0,1,3.44-2.11,13.9,13.9,0,0,1,1.47-.43,16,16,0,0,1,2.26,0,12.45,12.45,0,0,1,1.6.42,20.9,20.9,0,0,1,3.39,2c3.75,3.12,7,6.75,10.48,10.21a0,0,0,0,0,0,0c-1.05-2.75-2.21-5.44-3.47-8.1a28.49,28.49,0,0,0-5.76-8.47,13.75,13.75,0,0,0-9.43-3.81,12.39,12.39,0,0,0-2.59.27h0Z"/><path class="cls-2" d="M835,434.84a17.22,17.22,0,0,0-5.61,1.84,12,12,0,0,0-4.16,3.81,12.72,12.72,0,0,0-2.07,5.14,20.15,20.15,0,0,0,1.13,11.55,8.61,8.61,0,0,0,2.64,3.36,15.91,15.91,0,0,0,4.1,2,0,0,0,0,0,0,0c-0.66-.69-1.27-1.42-1.88-2.16a9.7,9.7,0,0,1-1-1.68,15.64,15.64,0,0,1-.51-2,15.82,15.82,0,0,1,0-3,31.48,31.48,0,0,1,1.79-6.64,13.93,13.93,0,0,1,.83-1.51,15.19,15.19,0,0,1,1.37-1.35,13.56,13.56,0,0,1,1.72-1,23.1,23.1,0,0,1,3.74-1,26.17,26.17,0,0,1,4.42.06,33.43,33.43,0,0,1,6.83,2c4.52,2,8.93,4.16,13.58,5.79,0,0,0,0,0,0-2.07-2-4.1-4-6.19-6-1.45-1.37-2.92-2.7-4.47-4a23.88,23.88,0,0,0-10.94-5.21,17.35,17.35,0,0,0-3-.26,17.66,17.66,0,0,0-2.41.17h0ZM828,458.42l0,0.09,0-.09h0Z"/><path class="cls-2" d="M958.25,463.65c-1.43,2.61-2.7,5.31-4.1,7.94s-2.68,5-4,7.49-2.8,5.11-4.25,7.64c-1.06,1.87-2.21,3.67-3.37,5.48A43.46,43.46,0,0,1,937.3,495a76,76,0,0,1-17.52,4.36,134.34,134.34,0,0,1-16.06,1.12c-2.32,0-4.64-.12-7-0.17-1.67,0-3.33-.13-5-0.2-3.31-.15-6.62-0.27-9.92-0.65s-6.8-1.26-10.15-2.1c-2.6-.64-5.2-1.26-7.76-2.07a0,0,0,1,0,0,0c2.32,1.55,4.77,2.9,7.21,4.24a70.9,70.9,0,0,0,12.44,5.52,169.4,169.4,0,0,0,18.59,4.46,79.22,79.22,0,0,0,9.25,1.16,88.58,88.58,0,0,0,11.88,0,68.22,68.22,0,0,0,7.12-.77c-2.27,3.15-4.55,6.3-6.74,9.51-2.8,4.12-5.54,8.29-8.54,12.27a46.66,46.66,0,0,1-6.38,6.51,30,30,0,0,1-4.52,2.77,15.34,15.34,0,0,1-1.59.42,19.1,19.1,0,0,1-2,0,11.86,11.86,0,0,1-1.18-.31c-0.49-.26-1-0.54-1.42-0.84-2.95-2.56-5.25-5.89-7.67-8.92q-2-2.51-4-5c-1.4-1.89-2.86-3.75-4.18-5.69q-2.57-3.78-5.21-7.5c-3.58-5.07-7.46-9.89-11.46-14.62,0,0,0,0,0,0,2.16,5.4,4.34,10.79,6.42,16.22,1,2.7,2.1,5.37,3.19,8s2.4,5.33,3.7,8c1.06,2.15,2.35,4.21,3.57,6.28a77.39,77.39,0,0,0,7.75,11.44,15.66,15.66,0,0,0,2.45,2.07,16.85,16.85,0,0,0,2.19,1.43,16.55,16.55,0,0,0,6.11,1.68,21.78,21.78,0,0,0,5.59-.25,10.94,10.94,0,0,0,2.32-.68,29.45,29.45,0,0,0,3.76-1.72c6.93-3.71,11.69-10.2,16.05-16.52,1.87-2.71,3.62-5.5,5.41-8.25,1.4-2.14,2.86-4.23,4.3-6.34,2.84-4.16,5.82-8.23,8.56-12.46,1.09-1.69,2.2-3.37,3.28-5.06a47.33,47.33,0,0,0,5-4,49.06,49.06,0,0,0,7.59-9.22A54.59,54.59,0,0,0,967.94,479a43,43,0,0,0,2.67-11.14,8.16,8.16,0,0,0-1-3.88,7.33,7.33,0,0,0-2.75-2.57,6.13,6.13,0,0,0-3.14-.84,6.21,6.21,0,0,0-5.49,3.11h0Z"/></svg>