<svg id="Background" xmlns="http://www.w3.org/2000/svg" xmlns:xlink="http://www.w3.org/1999/xlink" viewBox="0 0 1536 700"><defs><style>.cls-1{fill:#1021aa;}.cls-2{fill:#bebebe;}.cls-3{fill:#00596f;}</style></defs><title>glum1</title><image id="Background-2" data-name="Background" width="1" height="1" transform="scale(1536 700)" /><path class="cls-1" d="M1063.49,225.51a49.71,49.71,0,0,0,7.64,8.72,32.88,32.88,0,0,0,10.5,5.67,60.24,60.24,0,0,0,12.63,2.65,63.2,63.2,0,0,0,7.24.47,102.61,102.61,0,0,0,15.67-1,34.64,34.64,0,0,0,11.45-3.5,30.78,30.78,0,0,0,8.77-7.52s0,0,0,0c-1.54.85-3.12,1.6-4.74,2.3a33.23,33.23,0,0,1-6.8,1.91,72.4,72.4,0,0,1-14.45-.43c-2.49-.25-5-0.52-7.47-0.74-7.23-.65-14.51-0.59-21.72-1.45a43.64,43.64,0,0,1-10.21-2.67c-2.91-1.3-5.67-2.88-8.47-4.43h0a0,0,0,0,0,0,0h0Z"/><path class="cls-1" d="M1313.81,213.56c-3,.49-6,0.89-9,1.33q-4.11.46-8.23,0.87-3.53.35-7.07,0.63c-4.3.34-8.62,0.43-12.93,0.54-7.62.21-15.28,0.23-22.89-.16-3.91-.2-7.82-0.26-11.73-0.28a0,0,0,0,0,0,0,128.78,128.78,0,0,0,13.43,5.69,70.15,70.15,0,0,0,16.26,3.5,52.83,52.83,0,0,0,17.14-1.44,73.93,73.93,0,0,0,9.43-3.07c1.75-.67,3.47-1.36,5.18-2.13a93.06,93.06,0,0,0,10.39-5.48,0,0,0,0,0,0,0h0Z"/><path class="cls-1" d="M1199.8,334.48c-2.58.15-5.16,0.57-7.73,0.88-2.31.28-4.65,0.51-6.93,1q-4.59,1-9.17,2.06c-2.54.6-5,1.52-7.5,2.31-4.82,1.55-9.55,3.46-14.24,5.36-2.13.86-4.33,1.55-6.49,2.35-1.34.49-2.72,0.88-4.08,1.33l-5.17,1.72a0,0,0,0,0,0,0q4.73,0,9.46-.17c2.19-.06,4.39-0.31,6.57-0.49,1.22-.1,2.45-0.34,3.67-0.51l4-.58c2.39-.36,4.78-0.71,7.17-1.1q3.88-.51,7.76-1.08,4.2-.35,8.39-0.79c2.05-.21,4.07-0.3,6.14-0.39,2.72-.11,5.46-0.37,8.19-0.41q4.63-.08,9.27-0.26c4.71-.2,9.43-0.36,14.14-0.56q4.7-.19,9.4-0.49c2-.12,4-0.19,5.93-0.27a73.43,73.43,0,0,1,11.91.59c7.23,1,14.34,2.64,21.5,4.1a122.37,122.37,0,0,0,14.6,2.42,0,0,0,0,0,0,0c-0.79-.3-1.58-0.61-2.36-0.92l0.08,0-2-.86,0.11,0c-4.76-2.09-9.51-4.21-14.28-6.28-4.41-1.91-8.84-3.78-13.41-5.28a71.42,71.42,0,0,0-11.16-2.83,94.14,94.14,0,0,0-9.88-1c-5.8-.29-11.59-0.49-17.39-0.5h-0.16c-5.43,0-10.84.2-16.26,0.52h0Zm82.59,15.36,0,0,0,0h0Z"/><path class="cls-2" d="M1256.76,46.7c-2.21,0-4.41.21-6.62,0.38l-5.08.39c-2,.15-3.95.49-5.91,0.75-2.37.32-4.72,0.77-7.07,1.27a104.69,104.69,0,0,0-20.2,6.79c-2.85,1.26-5.76,2.43-8.56,3.79l-8.93,4.36c-1.27.62-2.48,1.43-3.71,2.13l-4.64,2.67c-3.23,1.86-6.42,3.79-9.49,5.9a111.57,111.57,0,0,0-10.78,8.46c-1.41,1.24-2.73,2.57-4.07,3.89-1,1-2,1.89-2.91,2.91-3.48,3.89-7,7.73-10.2,11.87a123.42,123.42,0,0,0-7.55,11.18c-2.56-3.61-5.14-7.18-7.8-10.73-4.18-5.57-8.5-11.09-12.94-16.46a89,89,0,0,0-18.49-16.73,58.37,58.37,0,0,0-37.67-10.08A66.39,66.39,0,0,0,1050.75,62c-2.68.8-5.26,1.88-7.87,2.88-1.48.56-3,1.11-4.43,1.71-3.21,1.32-6.41,2.62-9.51,4.2a75.62,75.62,0,0,0-8.18,5.14c-3.36,2.29-6.59,4.75-9.77,7.29-1.57,1.25-3.14,2.51-4.66,3.82a73.87,73.87,0,0,0-8,7.94c-2.82,3.3-5.4,6.81-8,10.28-1.26,1.52-2.52,3-3.76,4.57a67.46,67.46,0,0,0-8.58,13.1c-1.45,3-2.57,6.23-3.82,9.34-0.43,1.08-.88,2.16-1.33,3.23q-3.65,8.06-7.41,16.06a90.27,90.27,0,0,1-4.75,8.65c-5.1,1.37-10.07,3.28-15.07,4.94a144.82,144.82,0,0,0-17.68,6.93,85.14,85.14,0,0,0-21,14.64,101.3,101.3,0,0,0-8.31,9.29,85,85,0,0,0-8,10.92,44.05,44.05,0,0,0-4.92,11.88,51.37,51.37,0,0,0-1,6.64,53,53,0,0,0-.21,7.09c0.36,12.88,1,26,5.36,38.28a65.77,65.77,0,0,0,3.86,8.62,64.35,64.35,0,0,0,4.85,7.33c1.45,2,3,4,4.53,6a96,96,0,0,0,10.16,11.47A76.56,76.56,0,0,0,929.68,316c2.65,1.44,5.4,2.69,8.16,3.9,3,1.32,6.09,2.56,9.23,3.59a74.1,74.1,0,0,0,19.61,3.38c4.89,0.23,9.78.22,14.65,0.59-0.66,1.32-1.19,2.72-1.72,4.07-0.73,1.85-1.25,3.78-1.8,5.69-0.64,2.25-1.13,4.54-1.56,6.85A85.15,85.15,0,0,0,975,367.38a122.5,122.5,0,0,0,2.66,18.06,74.28,74.28,0,0,0,10.25,24,54.75,54.75,0,0,0,8.52,9.66c1.61,1.46,3.37,2.74,5.1,4,1.1,0.83,2.21,1.66,3.33,2.46l8.64,6.2c2.66,1.91,5.36,3.75,8,5.62,2.51,1.75,5.14,3.34,7.71,5a140,140,0,0,0,16.55,9.16,113.49,113.49,0,0,0,25.46,8.36,165.47,165.47,0,0,0,44.75,2.35c3.67-.27,7.38-0.37,11-0.92l10.84-1.63a96.65,96.65,0,0,0,20.77-5.53,71.39,71.39,0,0,0,11.21-5.64,107.76,107.76,0,0,0,11-8,112.51,112.51,0,0,0,9.14-8.05l5.53-5.51c2.39-2.38,4.52-5.05,6.73-7.59l8.11-9.29c1.48-1.68,2.93-3.35,4.27-5.14q1.71-2.28,3.39-4.57c0.57,0.39,1.14.77,1.72,1.13,1.53,0.94,3.07,1.83,4.63,2.72,2.41,1.38,4.83,2.73,7.28,4,5.29,2.85,10.58,5.73,16.08,8.17l5.79,2.57c1.38,0.61,2.76,1.28,4.17,1.8l10.41,3.88c2.58,1,5.2,1.77,7.82,2.62,5,1.62,9.93,3.17,15,4.34a107.91,107.91,0,0,0,18.36,2.31c3,0.16,6.11.46,9.16,0.47,6.32,0,12.63,0,18.94-.16l10.11-.33c4.18-.14,8.38-0.54,12.52-1a142.79,142.79,0,0,0,14.85-2.57,121.91,121.91,0,0,0,12.39-3.59,132.19,132.19,0,0,0,13.29-5.56c3.51-1.65,6.92-3.52,10.36-5.32a127.31,127.31,0,0,0,12.19-7.06,77.55,77.55,0,0,0,9.36-7.5,68.05,68.05,0,0,0,7.92-9.06,82.07,82.07,0,0,0,11-19.64,46.87,46.87,0,0,0,2.8-10.61,45.8,45.8,0,0,0,.46-6.16c0-2.17-.18-4.34-0.39-6.5a93.59,93.59,0,0,0-5.6-22.95c-1.41-3.92-3-7.75-4.67-11.58a110.76,110.76,0,0,0-4.82-10.13,100.31,100.31,0,0,0-14-19.09c-2.53-2.77-5.08-5.52-7.7-8.21l-1.15-1.2,0.1,0c1.3-.23,2.64-0.38,3.93-0.69l4.91-1.18a80.54,80.54,0,0,0,11.57-3.94,56.05,56.05,0,0,0,12-6.57,43,43,0,0,0,9.35-9.33,37,37,0,0,0,5.65-12,57.8,57.8,0,0,0,1.86-13.11c0.21-4.57.17-9.14,0-13.71a191.34,191.34,0,0,0-2.86-26.87,136.87,136.87,0,0,0-7.93-25.81c-1.7-4.21-3.53-8.37-5.61-12.42a110.37,110.37,0,0,0-6.86-11.41,113.23,113.23,0,0,0-15.75-18.65,74.6,74.6,0,0,0-9.26-7.47,62,62,0,0,0-11.18-5.73,54.94,54.94,0,0,0-10.81-3.11,80,80,0,0,0-13.71-1.38,112.87,112.87,0,0,0-25.77,2.85c-6.29,1.36-12.5,3.19-18.71,4.89-2.68.73-5.34,1.58-8,2.39-1.2.36-2.42,0.64-3.62,1-1.94.51-3.88,1-5.86,1.41-0.37,0-.73,0-1.1,0a17.81,17.81,0,0,1-.83-1.65c-0.94-2.27-1.91-4.53-2.83-6.81-1.3-3.22-2.56-6.47-4-9.66-2.66-6.09-5.36-12.16-8.24-18.16a78.87,78.87,0,0,0-11.26-17.42,57.76,57.76,0,0,0-9.3-8.35,30.21,30.21,0,0,0-5.05-3,36.26,36.26,0,0,0-7-2.57,44.26,44.26,0,0,0-7-.92c-1.5-.12-3-0.16-4.5-0.16l-1.82,0h0Zm-5.06,13.76a74.74,74.74,0,0,1,13.43.08,29,29,0,0,1,5,1.39,34.5,34.5,0,0,1,5.4,3.19,56.06,56.06,0,0,1,7.94,7.95,72.29,72.29,0,0,1,7,11.66c1,2.16,2.14,4.31,3.13,6.5q2.74,6.11,5.42,12.23c1.77,4.36,3.55,8.71,5.36,13.06,0.76,1.82,1.45,3.68,2.36,5.43a13,13,0,0,0,8.94,6.66c5.21,0.93,10.48-.9,15.49-2.21,2.6-.68,5.16-1.51,7.73-2.29s5.21-1.44,7.81-2.16a179.2,179.2,0,0,1,21-4.78,91,91,0,0,1,21.52-.36,62.28,62.28,0,0,1,13.28,3.51,56,56,0,0,1,10,5.81A93.23,93.23,0,0,1,1427.1,141a126.19,126.19,0,0,1,7.48,11,110.91,110.91,0,0,1,6.76,13.37,168.76,168.76,0,0,1,6,16.72,122.37,122.37,0,0,1,3.6,17.17c0.7,5.79,1,11.62,1.29,17.45a117.28,117.28,0,0,1-.35,17.39,43.82,43.82,0,0,1-2.24,8.47,30.55,30.55,0,0,1-2.7,4.57,40.17,40.17,0,0,1-5.13,5.18,51.3,51.3,0,0,1-9.21,5.33,92.13,92.13,0,0,1-12.81,4.12c-2.29.55-4.55,1-6.87,1.39-1.27.17-2.55,0.34-3.82,0.44l-1.64.14a14.88,14.88,0,0,0-3.93.46,6.76,6.76,0,0,0-3,1.73,22.77,22.77,0,0,0-1.44,1.92,10.66,10.66,0,0,0-.9,2.37,8.92,8.92,0,0,0,0,4.3,11.89,11.89,0,0,0,1.71,3.57,25.57,25.57,0,0,0,2.8,3.19c0.88,0.86,1.66,1.8,2.49,2.71,1.13,1.25,2.31,2.46,3.49,3.67,2.14,2.2,4.21,4.46,6.29,6.72,1.89,2,3.73,4.12,5.47,6.29a104.2,104.2,0,0,1,6.6,9.92,98.8,98.8,0,0,1,5.45,11.29c3.59,8.6,6.77,17.4,8.22,26.63a54.46,54.46,0,0,1,.32,11.12,51.09,51.09,0,0,1-3,10.29,80,80,0,0,1-9,15.1,69.08,69.08,0,0,1-4.66,5.32,61.92,61.92,0,0,1-5.61,5,116.66,116.66,0,0,1-16,9.57l-6.18,3.22c-2.56,1.34-5.21,2.53-7.86,3.68a122.35,122.35,0,0,1-28.56,7.57c-6.46.8-13,1.07-19.46,1.28-3.79.12-7.57,0.27-11.36,0.27h-8.45c-1.22,0-2.45,0-3.67,0-5.6-.3-11.18-0.52-16.74-1.19a98.86,98.86,0,0,1-16.07-3.8l-9.76-3.18c-4.39-1.43-8.69-3.16-13-4.78l-5.69-2.53c-1.71-.76-3.46-1.48-5.13-2.33-4.69-2.41-9.36-4.84-14-7.34-1.79-1-3.55-2-5.31-3-2.2-1.26-4.41-2.49-6.52-3.91l-1.15-.78a10,10,0,0,0-1.48-1,10.15,10.15,0,0,0-4.34-1.26c-4.31-.36-7.88,2.49-10.26,5.82-1.47,2.06-3,4.09-4.5,6.11q-6.28,7.18-12.56,14.37l-3.92,4.48c-1,1.15-2.18,2.19-3.26,3.27l-3.55,3.53a114.53,114.53,0,0,1-10.17,8.79,77.14,77.14,0,0,1-14.71,8.92,92.67,92.67,0,0,1-11.73,3.7c-3,.75-6,1.4-9.09,1.86l-9.59,1.44-12.32.9c-4.6.34-9.26,0.35-13.87,0.27a156.17,156.17,0,0,1-16.36-1.19,130.57,130.57,0,0,1-13.61-2.65,102.29,102.29,0,0,1-13.61-4.54,135.49,135.49,0,0,1-18.86-10.18c-2.91-1.87-5.86-3.7-8.7-5.68-6.54-4.56-13.12-9.08-19.46-13.91a52.45,52.45,0,0,1-7.66-7.6,58.41,58.41,0,0,1-5.94-10.44,88.08,88.08,0,0,1-5.22-19.54c-0.28-2.38-.46-4.77-0.67-7.16a76.92,76.92,0,0,1,.42-16.13A73.54,73.54,0,0,1,992.67,335c0.33-.71.68-1.41,1.07-2.11,0.73-1.32,1.71-2.48,2.47-3.77a10.41,10.41,0,0,0,1.44-4.68,8.25,8.25,0,0,0-2.19-5.92c-2.05-2.38-4.95-3.24-7.92-3.84a49.93,49.93,0,0,0-6.43-.75c-6.79-.48-13.63-0.32-20.4-1.1a72.34,72.34,0,0,1-16-4.57,91.3,91.3,0,0,1-17.59-9.77,88,88,0,0,1-12.65-12.83l-3.89-5.12c-1.13-1.48-2.2-3-3.25-4.54a46,46,0,0,1-4-7.38,74.55,74.55,0,0,1-4.18-16.49c-0.56-4.62-.82-9.26-1-13.91q-0.07-1.79-.15-3.58a69.37,69.37,0,0,1,.27-10.18,33.89,33.89,0,0,1,1.69-6.3,52.07,52.07,0,0,1,5.63-9.47c2.32-2.94,4.73-5.83,7.22-8.63a69.9,69.9,0,0,1,8.64-8.11,87.73,87.73,0,0,1,17.45-10.13c5-2,10.18-3.61,15.3-5.31l2.11-.71a6.57,6.57,0,0,0,1.79,1.54,6.84,6.84,0,0,0,9.23-2.42c2.27-3.64,4.64-7.24,6.75-11,1.82-3.22,3.44-6.53,5-9.89,1.73-3.78,3.49-7.55,5.21-11.34,1.87-4.12,3.47-8.37,5.16-12.56a54.29,54.29,0,0,1,5.83-9.73c1.56-2,3.17-3.89,4.77-5.83,1.42-1.72,2.72-3.54,4.06-5.32,1.23-1.58,2.46-3.17,3.75-4.7a68.63,68.63,0,0,1,8-7.94c2.52-2.17,5.15-4.22,7.78-6.25,1.68-1.17,3.34-2.36,5-3.51,1-.69,2-1.39,3.06-2.05a62.59,62.59,0,0,1,7.34-3.94c2.29-.94,4.58-1.86,6.9-2.74,2.16-.82,4.3-1.68,6.48-2.45a57.58,57.58,0,0,1,10.46-2.58,54.86,54.86,0,0,1,11.91,0A52.89,52.89,0,0,1,1086,76.16a65.39,65.39,0,0,1,12.18,7.26,89.35,89.35,0,0,1,10.72,10.15c2.17,2.43,4.17,5,6.18,7.56q3.3,4.18,6.55,8.39c3.59,4.8,7.08,9.65,10.52,14.57a21.71,21.71,0,0,0,3.31,4,8.35,8.35,0,0,0,7.69,2,10.23,10.23,0,0,0,5.3-3.34,46.36,46.36,0,0,0,4.05-6.12,110.45,110.45,0,0,1,7-10.61c1.81-2.25,3.72-4.41,5.65-6.56,1.16-1.3,2.27-2.7,3.52-3.93l4.37-4.32a82.68,82.68,0,0,1,6.8-5.92,147.28,147.28,0,0,1,14.87-9.52c2.63-1.51,5.21-3.11,7.93-4.44s5.34-2.73,8.08-3.93l8.27-3.65a115.26,115.26,0,0,1,11.65-4.05,95.5,95.5,0,0,1,11.95-2.49c3-.36,6.05-0.57,9.09-0.8h0ZM1318,114.77l0.24,0.31-0.24-.31h0Zm-0.29.1,0.3,0.23-0.3-.23h0Zm1.32,0.68,0.26,0-0.26,0h0Zm-181,2.58-0.32.25,0.32-.25h0Z"/><path class="cls-3" d="M1005.26,467.34a10.86,10.86,0,0,0-3.23,1.84,40.81,40.81,0,0,0-6.61,6.21,26.3,26.3,0,0,0-3,4l-0.61,1.39q-0.28,1.17.89,0.89a10.87,10.87,0,0,0,3.23-1.84,40.81,40.81,0,0,0,6.61-6.21,26.31,26.31,0,0,0,3-4l0.61-1.39q0.22-.95-0.5-0.95a1.75,1.75,0,0,0-.39.05h0Z"/><path class="cls-3" d="M1038.26,545.34a10.87,10.87,0,0,0-3.23,1.84,40.81,40.81,0,0,0-6.61,6.21,26.3,26.3,0,0,0-3,4l-0.61,1.39q-0.28,1.17.89,0.89a10.87,10.87,0,0,0,3.23-1.84,40.81,40.81,0,0,0,6.61-6.21,26.3,26.3,0,0,0,3-4l0.61-1.39q0.22-.95-0.5-0.95a1.75,1.75,0,0,0-.39.05h0Z"/><path class="cls-3" d="M1101.26,491.34a10.87,10.87,0,0,0-3.23,1.84,40.81,40.81,0,0,0-6.61,6.21,26.3,26.3,0,0,0-3,4l-0.61,1.39q-0.28,1.17.89,0.89a10.87,10.87,0,0,0,3.23-1.84,40.81,40.81,0,0,0,6.61-6.21,26.3,26.3,0,0,0,3-4l0.61-1.39q0.22-.95-0.5-0.95a1.75,1.75,0,0,0-.39.05h0Z"/><path class="cls-3" d="M1233.26,456.84a10.87,10.87,0,0,0-3.23,1.84,40.81,40.81,0,0,0-6.61,6.21,26.3,26.3,0,0,0-3,4l-0.61,1.39q-0.28,1.17.89,0.89a10.87,10.87,0,0,0,3.23-1.84,40.81,40.81,0,0,0,6.61-6.21,26.3,26.3,0,0,0,3-4l0.61-1.39q0.22-.95-0.5-0.95a1.75,1.75,0,0,0-.39.05h0Z"/><path class="cls-3" d="M1345.76,471.84a10.87,10.87,0,0,0-3.23,1.84,40.81,40.81,0,0,0-6.61,6.21,26.3,26.3,0,0,0-3,4l-0.61,1.39q-0.28,1.17.89,0.89a10.87,10.87,0,0,0,3.23-1.84,40.81,40.81,0,0,0,6.61-6.21,26.3,26.3,0,0,0,3-4l0.61-1.39q0.22-.95-0.5-0.95a1.75,1.75,0,0,0-.39.05h0Z"/><path class="cls-3" d="M1246.76,534.84a10.87,10.87,0,0,0-3.23,1.84,40.81,40.81,0,0,0-6.61,6.21,26.3,26.3,0,0,0-3,4l-0.61,1.39q-0.28,1.17.89,0.89a10.87,10.87,0,0,0,3.23-1.84,40.81,40.81,0,0,0,6.61-6.21,26.3,26.3,0,0,0,3-4l0.61-1.39q0.22-.95-0.5-0.95a1.75,1.75,0,0,0-.39.05h0Z"/><path class="cls-3" d="M1161.26,587.34a10.87,10.87,0,0,0-3.23,1.84,40.81,40.81,0,0,0-6.61,6.21,26.3,26.3,0,0,0-3,4l-0.61,1.39q-0.28,1.17.89,0.89a10.87,10.87,0,0,0,3.23-1.84,40.81,40.81,0,0,0,6.61-6.21,26.3,26.3,0,0,0,3-4l0.61-1.39q0.22-.95-0.5-0.95a1.75,1.75,0,0,0-.39.05h0Z"/><path class="cls-3" d="M1059.26,662.34a10.87,10.87,0,0,0-3.23,1.84,40.81,40.81,0,0,0-6.61,6.21,26.3,26.3,0,0,0-3,4l-0.61,1.39q-0.28,1.17.89,0.89a10.87,10.87,0,0,0,3.23-1.84,40.81,40.81,0,0,0,6.61-6.21,26.3,26.3,0,0,0,3-4l0.61-1.39q0.22-.95-0.5-0.95a1.75,1.75,0,0,0-.39.05h0Z"/><path class="cls-3" d="M1129.76,528.84a10.87,10.87,0,0,0-3.23,1.84,40.81,40.81,0,0,0-6.61,6.21,26.3,26.3,0,0,0-3,4l-0.61,1.39q-0.28,1.17.89,0.89a10.87,10.87,0,0,0,3.23-1.84,40.81,40.81,0,0,0,6.61-6.21,26.3,26.3,0,0,0,3-4l0.61-1.39q0.22-.95-0.5-0.95a1.75,1.75,0,0,0-.39.05h0Z"/><path class="cls-3" d="M1233.26,635.34a10.87,10.87,0,0,0-3.23,1.84,40.81,40.81,0,0,0-6.61,6.21,26.3,26.3,0,0,0-3,4l-0.61,1.39q-0.28,1.17.89,0.89a10.87,10.87,0,0,0,3.23-1.84,40.81,40.81,0,0,0,6.61-6.21,26.3,26.3,0,0,0,3-4l0.61-1.39q0.22-.95-0.5-0.95a1.75,1.75,0,0,0-.39.05h0Z"/><path class="cls-3" d="M1333.76,597.84a10.87,10.87,0,0,0-3.23,1.84,40.81,40.81,0,0,0-6.61,6.21,26.3,26.3,0,0,0-3,4l-0.61,1.39q-0.28,1.17.89,0.89a10.87,10.87,0,0,0,3.23-1.84,40.81,40.81,0,0,0,6.61-6.21,26.3,26.3,0,0,0,3-4l0.61-1.39q0.22-.95-0.5-0.95a1.75,1.75,0,0,0-.39.05h0Z"/><path class="cls-3" d="M1359.26,507.84a10.87,10.87,0,0,0-3.23,1.84,40.81,40.81,0,0,0-6.61,6.21,26.3,26.3,0,0,0-3,4l-0.61,1.39q-0.28,1.17.89,0.89a10.87,10.87,0,0,0,3.23-1.84,40.81,40.81,0,0,0,6.61-6.21,26.3,26.3,0,0,0,3-4l0.61-1.39q0.22-.95-0.5-0.95a1.75,1.75,0,0,0-.39.05h0Z"/><path class="cls-3" d="M1318.76,552.84a10.87,10.87,0,0,0-3.23,1.84,40.81,40.81,0,0,0-6.61,6.21,26.3,26.3,0,0,0-3,4l-0.61,1.39q-0.28,1.17.89,0.89a10.87,10.87,0,0,0,3.23-1.84,40.81,40.81,0,0,0,6.61-6.21,26.3,26.3,0,0,0,3-4l0.61-1.39q0.22-.95-0.5-0.95a1.75,1.75,0,0,0-.39.05h0Z"/><path class="cls-3" d="M1408.76,654.84a10.87,10.87,0,0,0-3.23,1.84,40.81,40.81,0,0,0-6.61,6.21,26.3,26.3,0,0,0-3,4l-0.61,1.39q-0.28,1.17.89,0.89a10.87,10.87,0,0,0,3.23-1.84,40.81,40.81,0,0,0,6.61-6.21,26.3,26.3,0,0,0,3-4l0.61-1.39q0.22-.95-0.5-0.95a1.75,1.75,0,0,0-.39.05h0Z"/><path class="cls-3" d="M1089.26,600.84a10.87,10.87,0,0,0-3.23,1.84,40.81,40.81,0,0,0-6.61,6.21,26.3,26.3,0,0,0-3,4l-0.61,1.39q-0.28,1.17.89,0.89a10.87,10.87,0,0,0,3.23-1.84,40.81,40.81,0,0,0,6.61-6.21,26.3,26.3,0,0,0,3-4l0.61-1.39q0.22-.95-0.5-0.95a1.75,1.75,0,0,0-.39.05h0Z"/><path class="cls-3" d="M1017.26,603.84a10.86,10.86,0,0,0-3.23,1.84,40.81,40.81,0,0,0-6.61,6.21,26.31,26.31,0,0,0-3,4l-0.61,1.39q-0.28,1.17.89,0.89a10.86,10.86,0,0,0,3.23-1.84,40.81,40.81,0,0,0,6.61-6.21,26.31,26.31,0,0,0,3-4l0.61-1.39q0.22-.95-0.5-0.95a1.75,1.75,0,0,0-.39.05h0Z"/><path class="cls-3" d="M1140.26,647.34a10.87,10.87,0,0,0-3.23,1.84,40.81,40.81,0,0,0-6.61,6.21,26.3,26.3,0,0,0-3,4l-0.61,1.39q-0.28,1.17.89,0.89a10.87,10.87,0,0,0,3.23-1.84,40.81,40.81,0,0,0,6.61-6.21,26.3,26.3,0,0,0,3-4l0.61-1.39q0.22-.95-0.5-0.95a1.75,1.75,0,0,0-.39.05h0Z"/><path class="cls-3" d="M1303.76,656.34a10.87,10.87,0,0,0-3.23,1.84,40.81,40.81,0,0,0-6.61,6.21,26.3,26.3,0,0,0-3,4l-0.61,1.39q-0.28,1.17.89,0.89a10.87,10.87,0,0,0,3.23-1.84,40.81,40.81,0,0,0,6.61-6.21,26.3,26.3,0,0,0,3-4l0.61-1.39q0.22-.95-0.5-0.95a1.75,1.75,0,0,0-.39.05h0Z"/><path class="cls-3" d="M1270.76,582.84a10.87,10.87,0,0,0-3.23,1.84,40.81,40.81,0,0,0-6.61,6.21,26.3,26.3,0,0,0-3,4l-0.61,1.39q-0.28,1.17.89,0.89a10.87,10.87,0,0,0,3.23-1.84,40.81,40.81,0,0,0,6.61-6.21,26.3,26.3,0,0,0,3-4l0.61-1.39q0.22-.95-0.5-0.95a1.75,1.75,0,0,0-.39.05h0Z"/><path class="cls-3" d="M1287.26,492.84a10.87,10.87,0,0,0-3.23,1.84,40.81,40.81,0,0,0-6.61,6.21,26.3,26.3,0,0,0-3,4l-0.61,1.39q-0.28,1.17.89,0.89a10.87,10.87,0,0,0,3.23-1.84,40.81,40.81,0,0,0,6.61-6.21,26.3,26.3,0,0,0,3-4l0.61-1.39q0.22-.95-0.5-0.95a1.75,1.75,0,0,0-.39.05h0Z"/><path class="cls-3" d="M1185.26,506.34a10.87,10.87,0,0,0-3.23,1.84,40.81,40.81,0,0,0-6.61,6.21,26.3,26.3,0,0,0-3,4l-0.61,1.39q-0.28,1.17.89,0.89a10.87,10.87,0,0,0,3.23-1.84,40.81,40.81,0,0,0,6.61-6.21,26.3,26.3,0,0,0,3-4l0.61-1.39q0.22-.95-0.5-0.95a1.75,1.75,0,0,0-.39.05h0Z"/><path class="cls-3" d="M1395.26,593.34a10.87,10.87,0,0,0-3.23,1.84,40.81,40.81,0,0,0-6.61,6.21,26.3,26.3,0,0,0-3,4l-0.61,1.39q-0.28,1.17.89,0.89a10.87,10.87,0,0,0,3.23-1.84,40.81,40.81,0,0,0,6.61-6.21,26.3,26.3,0,0,0,3-4l0.61-1.39q0.22-.95-0.5-0.95a1.75,1.75,0,0,0-.39.05h0Z"/><path class="cls-3" d="M982.76,537.84a10.87,10.87,0,0,0-3.23,1.84,40.81,40.81,0,0,0-6.61,6.21,26.3,26.3,0,0,0-3,4l-0.61,1.39q-0.28,1.17.89,0.89a10.87,10.87,0,0,0,3.23-1.84,40.81,40.81,0,0,0,6.61-6.21,26.3,26.3,0,0,0,3-4l0.61-1.39q0.22-.95-0.5-0.95a1.75,1.75,0,0,0-.39.05h0Z"/></svg>