<svg id="Background" xmlns="http://www.w3.org/2000/svg" xmlns:xlink="http://www.w3.org/1999/xlink" viewBox="0 0 1536 707.72"><defs><style>.cls-1{fill:#0a0e60;}.cls-2{fill:#6edaf4;}.cls-3{fill:#bd8d46;}.cls-4{fill:#6a3f00;}.cls-5{fill:#bebebe;}</style></defs><title>glum2</title><image id="Background-2" data-name="Background" width="1" height="1" transform="scale(1536 700)" /><path class="cls-1" d="M625.67,645.26c-1.9.38-3.79,0.8-5.64,1.36a77.15,77.15,0,0,0-11.36,4.18q-2.62,1.25-5.2,2.62c-4.73,2.52-8.75,6.28-12.48,10.07a0,0,0,0,0,0,0c3.54-1.07,7.06-2.23,10.65-3.14,2.09-.52,4.19-1,6.3-1.37,3-.6,6-1.21,9-1.88q3.34-.74,6.67-1.56c4.2-1,8.24-2.58,12.51-3.31a24.79,24.79,0,0,1,4.92.1,28.19,28.19,0,0,1,6,1.7l2.29,1-0.41-.17c2.47,1.05,4.89,2.24,7.29,3.46,0,0,0,0,0,0a61.4,61.4,0,0,0-5.84-6.66,32.22,32.22,0,0,0-4.86-4,23.19,23.19,0,0,0-7-2.86,19.13,19.13,0,0,0-4.55-.51,43,43,0,0,0-8.26,1h0Zm20.93,8.61,0.33,0.14-0.33-.14h0Z"/><path class="cls-1" d="M872.85,643.25a75.59,75.59,0,0,0-9.38.9c-3.34.59-6.67,1.29-10,2.05-2.18.5-4.29,1.21-6.41,1.93a81.53,81.53,0,0,0-8,2.92c-5.31,2.43-10.51,5-15.58,7.93a0,0,0,0,0,0,0q5.23-.3,10.45-0.68,2.5-.19,5-0.43c0.74-.07,1.49-0.19,2.24-0.22,4.71-.18,9.4-0.65,14.1-0.86q4.71-.21,9.4-0.66c2.24-.21,4.49-0.27,6.73-0.46,2-.18,4-0.46,6.05-0.66,2.74-.27,5.48-0.61,8.21-1,1.86-.21,3.72-0.45,5.59-0.62a30.18,30.18,0,0,1,6.07.16,53.47,53.47,0,0,1,8,1.8c2,0.64,4.08,1.36,6.1,2.07,2.46,0.88,4.94,1.72,7.39,2.63a0,0,0,0,0,0,0c-2.15-2-4.38-3.84-6.63-5.7a70.63,70.63,0,0,0-7.12-5.25,38.1,38.1,0,0,0-10.77-4.59,39,39,0,0,0-5.9-.84c-1-.1-2.08-0.2-3.12-0.25q-2.61-.15-5.21-0.24c-1.15,0-2.29-.06-3.42-0.06s-2.56,0-3.85.09h0Z"/><path class="cls-1" d="M756.68,672a12.39,12.39,0,0,0-1.54.5,29.41,29.41,0,0,0-3.28,1.47,55.27,55.27,0,0,0-11.15,7.26,28.62,28.62,0,0,0-7.3,10c-1.61,3.59-1.68,7.43-1.42,11.3a0,0,0,0,0,0,0,43.36,43.36,0,0,1,3.73-6.83,35.1,35.1,0,0,1,5.31-5.06,83.85,83.85,0,0,1,11-6.49c2.33-1.21,4.57-2.65,6.94-3.77l0.27-.08c0.34,0,.66,0,1,0l0.22,0.06a13.23,13.23,0,0,1,1.47.89,41,41,0,0,1,4.84,4.73c1.3,1.5,2.54,3.07,3.8,4.59,1.54,1.86,3.13,3.68,4.68,5.53a0,0,0,0,0,0,0,104.48,104.48,0,0,0-4-12.75,29.9,29.9,0,0,0-2.61-5.1,15.92,15.92,0,0,0-4.28-4.78,10.65,10.65,0,0,0-5.84-1.68l-1.93.26h0Zm2.15,8.41-0.6.25a5.81,5.81,0,0,1,.6-0.25h0Z"/><path class="cls-2" d="M755.26,156l-9,.76c-2.87.25-5.75,0.73-8.61,1.09l-7.66,1-15,2c-7.08,1-14.15,2-21.22,3-2.71,1.15-5.39,2.35-8.05,3.56a99,99,0,0,0-10.65,5.68c-1.63,1-3.23,2.06-4.79,3.17l-0.42.4c-1.68,1.61-3.36,3.22-5.07,4.8q-5.51,5.08-11.2,10L648.25,196c-1.79,1.52-3.48,3.12-5.18,4.75h0a10.68,10.68,0,0,1,.54,1.5c0.33,2.38.78,4.34,0.07,6.71a21,21,0,0,1-1.58,3.93c-0.91,1.68-2.06,3.22-3.09,4.82l-2.82,4.41c-1.18,1.85-2.38,3.68-3.52,5.55-2.83,4.65-5.82,9.24-8.47,14l-5.3,9.54c-1,1.74-2,3.45-2.88,5.24-3.19,6.45-6.46,12.86-9.34,19.46a158.09,158.09,0,0,0-10.15,37q-0.51,4.11-.85,8.23,0.09,0.7.17,1.4c0.31,2.61.62,5.22,0.9,7.84,0.56,5.17,1.19,10.32,1.77,15.49,0.29,2.55.6,5.1,0.91,7.64a53.94,53.94,0,0,1,.46,7.82c0,0.68,0,1.36-.06,2L600,365A165.21,165.21,0,0,0,605.21,381c0.66,1.5,1.37,3,2.12,4.43,0.89,1.07,1.82,2.12,2.71,3.16l0.1,0.07c0.57,0.91,1.17,1.8,1.79,2.69l0.89,1c0.68,0.75,1.36,1.48,2.06,2.2a12.62,12.62,0,0,1,2.71,4.34l2.58,3.25a97.13,97.13,0,0,0,8.15,8.95c2.57,2.53,5.29,4.89,8.08,7.17,4.89,4,9.91,7.84,15.07,11.47a237.29,237.29,0,0,0,20.2,13,171.55,171.55,0,0,0,27.67,12.12,139.29,139.29,0,0,0,23.19,5.6q15.3,2.54,30.8,3.66c7.21,0.52,14.45.66,21.68,0.9,4.52,0.15,9,.24,13.53.23,6.91,0,13.82,0,20.72-.18,8.11-.25,16.16-0.75,24.21-1.73,10.25-1.25,20.54-2.56,30.5-5.4s19.36-6.94,28.64-11.14a190.77,190.77,0,0,0,20.61-11.17c3.44-2.1,6.8-4.35,10.1-6.7a94.54,94.54,0,0,1,7.11-9l2.63-2.93c1.61-3.11,3.34-6.14,5.11-9.18,1.34-2.31,2.92-4.47,4.43-6.68,1.32-1.93,2.66-3.82,4-5.71,3.62-4.93,7.3-9.81,11-14.67l0.14-.18c0.83-2.1,1.68-4.19,2.56-6.27a161.27,161.27,0,0,1,6.95-14.76c0.26-.47.53-0.94,0.81-1.41,0.31-2.63.54-5.28,0.7-7.91,0.39-6.42-.64-12.68-1.51-19a124.55,124.55,0,0,0-5.27-23,136.31,136.31,0,0,0-12.59-27.34c-9.64-15.8-21.53-30.28-34-43.92-3.83-4.19-7.79-8.23-11.78-12.28s-8.2-7.8-12.39-11.62a210.39,210.39,0,0,0-54.14-35.66c-9.12-4.2-18.48-7.59-27.92-11a207.53,207.53,0,0,0-22.6-6.88,203.24,203.24,0,0,0-23.54-3.86c-2.6.12-5.21,0.16-7.8,0.38h0Z"/><path class="cls-3" d="M817.59,276.86c-3.22,4.41-4.09,10.88-4.09,16.14a34.81,34.81,0,0,0,1.93,11.81c1.28,3.32,3.75,8.19,8.07,8.19a7.5,7.5,0,0,0,5.91-3.86c3.22-4.41,4.09-10.87,4.09-16.14a34.81,34.81,0,0,0-1.93-11.81c-1.28-3.32-3.75-8.19-8.07-8.19a7.5,7.5,0,0,0-5.91,3.86h0Z"/><path class="cls-3" d="M780.29,255.16a34.38,34.38,0,0,0-7,2.81,24.63,24.63,0,0,0-3.7,2.71l-0.8.69a29.17,29.17,0,0,0-6.12,1.86,13.84,13.84,0,0,0-4.95,3.86l-3.5,0A53.4,53.4,0,0,0,739,269.86c-2.29.71-4.44,1.24-6.25,2.84a20.19,20.19,0,0,0-6.38,9.68q-0.71,2.74-1.42,5.49a39.46,39.46,0,0,0,0,12.64,31.4,31.4,0,0,0,1.74,6.86,20.5,20.5,0,0,0,7.32,9.71,39.38,39.38,0,0,0,9.09,4.87,79.59,79.59,0,0,0,10.72,3.42,42.5,42.5,0,0,0,2.62,11,61.71,61.71,0,0,0,7.65,13.44,85.16,85.16,0,0,0,12.2,13.29A73.6,73.6,0,0,0,789.5,373.3l0.3,0.17,1.12,1.55c0.67,1.53,1.53,3,2.33,4.45a20.6,20.6,0,0,0,2.23,3c0.55,0.68,1.14,1.34,1.74,2,2.15,3.49,4.18,7.05,6.6,10.36a7.49,7.49,0,0,0,5.91,3.86,5.65,5.65,0,0,0,3.06-.91l1.66,1.45a6.92,6.92,0,0,0,1.33.68c0.9,1,1.88,1.88,2.83,2.81a4.16,4.16,0,0,0,1.7,1c1.48,0.5,2.72,1.21,4.22,1.05,3.39-.36,4.72-2.3,6.88-4.7,1-1.13,3-5.8,2.92-5.61,0.19-.52.34-1,0.49-1.54l0.48-1.69,1.2-4.19a163.54,163.54,0,0,0,4.84-20.16c1.3-8.45,1.12-16.94.5-25.42-0.35-4.74-.71-9.45-1.41-14.14-0.39-2.61-.94-5.21-1.43-7.81-0.32-1.72-.58-3.46-0.82-5.19a88.75,88.75,0,0,0-3.41-15.61q-0.15-.47-0.33-0.92,0.05-.72.1-1.44a41.13,41.13,0,0,0-.76-10.61c-1.25-6.39-3.64-13-8.21-17.75a41.81,41.81,0,0,0-6-5.57,34.09,34.09,0,0,0-4.47-2.54,55.7,55.7,0,0,0-13.43-4.35A63.31,63.31,0,0,0,788.8,254a28.15,28.15,0,0,0-8.51,1.2h0Zm-39.65,24.26v0h0v0h0Zm81.17,63.29q0.16,1.14.29,2.29c0.16,2.43.29,4.88,0.31,7.31q-0.13-.83-0.25-1.67-0.23-4-.35-7.93h0Z"/><path class="cls-3" d="M771.54,155.43c-2.64.07-5.29,0.08-7.93,0.21s-5.58.17-8.36,0.41l-2.2.19a16.75,16.75,0,0,0-1.07,1.91c-0.93.08-1.86,0.18-2.79,0.28a41.31,41.31,0,0,0-9.94,2.41,15.55,15.55,0,0,0-5.32,3.55,50.91,50.91,0,0,0-4.32,4.6,29.85,29.85,0,0,0-3.47,6.22,23.06,23.06,0,0,0-2.07,8,39.46,39.46,0,0,0,0,12.64,51.22,51.22,0,0,0,1.54,6.12,39.3,39.3,0,0,0,3,6.1,6.61,6.61,0,0,0,.8.95,38.25,38.25,0,0,0,3.26,3.3c2,1.86,5.13,2.72,7.65,3.45a22.52,22.52,0,0,0,7.43.63c7.22-.31,13.8-3.14,20.43-5.75,2.23,1.09,4.47,2.15,6.71,3.23A153.09,153.09,0,0,0,794.52,222a63.81,63.81,0,0,0,8.79,2,14,14,0,0,0,5.88.06,27.44,27.44,0,0,0,2.7-.8,12.51,12.51,0,0,0,2.09,1,108.68,108.68,0,0,0,16.42,4.3c0.63,0.81,1.28,1.61,2,2.38a43.45,43.45,0,0,0,4.93,4.88,5.16,5.16,0,0,0,1.53.86c1.56,0.58,2.77,1.26,4.32,1,3.58-.6,5.92-2.69,7.87-5.7a26.38,26.38,0,0,0,1.58-2.84l0.26-.32c2.3-2.84,3.27-6.8,4-10.28,0.93-4.7.6-9,0-13.73-0.33-2.77-2.11-8.11-3.9-10.48a25.32,25.32,0,0,0-1.77-2.08l-0.9-1.65a18.94,18.94,0,0,0-2.71-3.7,41.24,41.24,0,0,0-6.12-5.73,40.19,40.19,0,0,0-12.74-5.67c-1.65-.47-3.31-0.87-5-1.21-0.65-.45-1.32-0.88-2-1.3-2.09-1.3-4.2-2.55-6.35-3.74a54.35,54.35,0,0,0-15.21-5.36c-0.77-.22-1.54-0.45-2.31-0.7-7.09-2.28-14.23-4.43-21.37-6.61-1-.38-2-0.76-2.94-1.16l-2,0h0Z"/><path class="cls-3" d="M911.2,321.28a13.65,13.65,0,0,0-5.6,2.1,20.62,20.62,0,0,0-5,5.66,76.47,76.47,0,0,0-4.41,8.71c-1.1,2.38-2.23,4.73-3.18,7.17-0.41,1-.73,2.13-1.05,3.2-0.67,2.24-1.2,4.58-1.76,6.87a13.94,13.94,0,0,0-.31,2c-0.37,3.82-.9,9-0.14,13-0.59.59-1.15,1.19-1.69,1.81-2.63,3.07-3.88,7.59-4.47,11.47a39.46,39.46,0,0,0,0,12.64,33.44,33.44,0,0,0,1.42,5.52,41.56,41.56,0,0,0-.6,7.18,34.81,34.81,0,0,0,1.93,11.81l2.16,4.33a7.5,7.5,0,0,0,5.91,3.86A65.09,65.09,0,0,0,905,426a37.37,37.37,0,0,0,6.74-3.38c0.8-.5,1.61-1,2.39-1.52a5,5,0,0,0,2,.32,23.68,23.68,0,0,0,4.57-1.14l3.12-.82,7.3-2,1.94-.54c1.61-3.1,3.33-6.13,5.1-9.16,1.34-2.31,2.92-4.47,4.43-6.68,1.32-1.93,2.66-3.82,4-5.71,3.62-4.93,7.3-9.81,11-14.67l0.13-.18c0.83-2.1,1.68-4.19,2.56-6.27,2.07-4.86,4.19-9.67,6.71-14.31,0-.38,0-0.78,0-1.18-0.13-2.52-.34-5-0.61-7.54a25,25,0,0,0-3.58-9.82,8.85,8.85,0,0,0-1-1.39l-0.18-.47a35.1,35.1,0,0,0-2.74-5.49l-0.57-.61a18.9,18.9,0,0,0-3.41-3.37,9.48,9.48,0,0,0-2.56-1.28,32.21,32.21,0,0,0-7.31-1.93,14.41,14.41,0,0,0-5.19.5,10.56,10.56,0,0,0-3.8-3.28,28.71,28.71,0,0,0-7.41-2.09,80.42,80.42,0,0,0-9.35-.83c-1.43-.08-2.89-0.18-4.34-0.18a21.84,21.84,0,0,0-3.78.29h0Z"/><path class="cls-3" d="M643.67,209a21,21,0,0,1-1.58,3.93c-0.91,1.68-2.06,3.22-3.09,4.82l-2.82,4.41c-1.18,1.85-2.38,3.68-3.52,5.55-2.83,4.65-5.82,9.24-8.47,14l-5.3,9.54c-1,1.74-2,3.45-2.88,5.24-3.19,6.46-6.46,12.86-9.34,19.47a158,158,0,0,0-10.15,36.95q-0.51,4.11-.85,8.23,0.09,0.7.17,1.4c0.31,2.61.62,5.22,0.9,7.84,0.56,5.17,1.19,10.32,1.77,15.49,0.29,2.55.6,5.1,0.91,7.64,0.21,1.71.37,3.43,0.44,5.15a10.79,10.79,0,0,0,3.07,3.21c2.78,1.83,4.95,1.79,7.8.24s5.28-6.77,6.27-9.3a39.86,39.86,0,0,0,1.27-4.19l0.27-1a35,35,0,0,0,4.3,10.57,6.45,6.45,0,0,0,11.81,0c2.57-3.67,4.19-8.43,5.73-12.69A103.39,103.39,0,0,0,644,332.94c0.6-2.67,1.22-5.33,1.69-8a131,131,0,0,0,1.52-13.33c0.13-1.9.2-3.8,0.25-5.71l0.86-.37c1.57-.69,2.61-2.45,3.71-3.76,1.3-1.56,2-3.65,2.77-5.52,1.84-4.25,2.29-10.23,2.37-14.74a46.33,46.33,0,0,0-3.6-18.09q0.66-1.1,1.35-2.18a65.34,65.34,0,0,0,3.92-7.32c2.21-4.74,3-10.23,3.1-15.41a41,41,0,0,0-.62-7.75c-0.45-2.66-1.79-7.47-3.53-10.07a35,35,0,0,0-1.66-7.14,14.47,14.47,0,0,0-4.91-7.17,12.09,12.09,0,0,0-5.2-1.79,9.69,9.69,0,0,0-1.59-.7l-0.59-.23a11.71,11.71,0,0,1-.13,5.36h0Z"/><path class="cls-4" d="M1252.06,458.93a96,96,0,0,0-15.58,14.64l-4.1,5a25.58,25.58,0,0,0-4.34,7.61,17.37,17.37,0,0,1-.63,2.09c-1.4,2.62-2.9,5.16-4.5,7.67q-0.74,1-1.52,2l-1.47,1.69q-1.08,1.1-2.18,2.17-2.23,2-4.51,3.92-2.59,2-5.28,3.87a109.9,109.9,0,0,1-12,6.68c-16.49,7-34,10.74-51.41,14.85-9.26,2.19-18.58,4.18-27.9,6.09-17.73,3.64-35.48,7.74-53.45,10-7.71,1-15.48,1.56-23.24,2-8,.41-16,0.2-23.93.19-6,0-12-.09-18-0.14-9.27-.07-18.54-0.24-27.82-0.39-8.31-.13-16.62-0.7-24.92-1.1l-17-2c-4.67-.55-9.29-1.37-13.94-2.12s-9.43-1.45-14.11-2.37l-19-3.73c-21.61-4.25-43.14-9-64.66-13.7q-31.52-6.81-63.17-12.95c-9.4-1.81-18.79-3.7-28.12-5.78-5.3-1.18-10.69-2.17-15.94-3.58l-17.53-4.73c-5.4-1.45-10.88-2.68-16.31-4A178.79,178.79,0,0,0,639.8,488c-12.16-.48-24.35-0.45-36.52-0.57q-15.73-.16-31.45-0.09c-5.48,0-11,.17-16.44.31-4.88.12-9.76,0.57-14.64,0.88s-9.77,1.16-14.65,1.62c-5.87.56-11.74,1.12-17.59,1.84-10.34,1.26-20.64,2.82-31,4.17l-17.45,2.29c-4.53.6-9.09,1.12-13.59,1.89-5.22.89-10.45,1.7-15.6,2.91-2.46.58-5,1-7.43,1.76L414,507.92c-9.68,3-19.33,6-29.11,8.59-10.21,2.73-20.49,5.25-30.71,8-4.69,1.24-9.43,2.39-14,3.91q-7.77,2.55-15.57,5c-11.32,3.5-22.95,6.65-34.8,7.54a42,42,0,0,1-5.64,0c-2-.28-4-0.62-6-1a6.48,6.48,0,0,0-6.26,1.51l-5.23,3.48a129.08,129.08,0,0,0-23.76,23.76c-0.23.33-7.82,11-5,11.5a79.93,79.93,0,0,0,9.81,1.38,47.3,47.3,0,0,0,10.34-.68,116.23,116.23,0,0,0,12.76-3.09c4.77-1.3,9.52-2.82,14.15-4.57,5.38-2,10.77-4,16.15-6.07l9-3.39c2.76-1,5.63-1.82,8.44-2.72,10-3.19,20.14-5.89,30.27-8.65,10.79-2.94,21.41-6.37,32-9.85l5.64-1.84c2.78-.91,5.57-2,8.41-2.73,5.16-1.31,10.28-2.66,15.52-3.62,10.52-1.95,21.09-3.52,31.68-5l32.32-4.4c10.65-1.46,21.38-2.2,32.05-3.48,17.64-2.11,35.37-2.42,53.11-2.65l28.44-.36c14.09-.17,28.29-0.83,42.33.49,13.38,1.56,26.58,4.49,39.69,7.57,4.87,1.14,9.73,2.38,14.63,3.35l18.73,3.72c10.54,2.09,21.19,3.72,31.79,5.5,10.79,1.8,21.53,3.79,32.29,5.79,22,4.07,43.92,8.54,65.87,12.82,9.77,1.91,19.53,3.81,29.32,5.6,5.34,1,10.68,2.09,16,2.91l19.86,3.05c4.83,0.74,9.7,1.2,14.55,1.75s9.58,1.15,14.41,1.37l19.09,0.86c5.79,0.26,11.63.14,17.42,0.2,10.33,0.12,20.66.08,31,.08,7.42,0,14.84,0,22.25-.3,8.45-.35,16.89-1.2,25.27-2.26,11.05-1.39,22-3.75,32.85-6.12,10.59-2.3,21.18-4.55,31.73-7q17.44-4.09,34.82-8.36A289,289,0,0,0,1171,540.9a119.63,119.63,0,0,0,19.75-9.19,165.32,165.32,0,0,0,21.57-15.59,204.18,204.18,0,0,0,34.91-37.37c4.51-6.18,9.07-12.29,13.14-18.77a5.36,5.36,0,0,0,1.25-5.18l-1.91-.21a25.73,25.73,0,0,0-7.61,4.34h0ZM242.86,568.64h0v0h0Z"/><path class="cls-1" d="M752.79,379c-5,.2-9.95.58-14.93,1.07q-4.72.47-9.43,1c-3.5.42-7,1.21-10.43,1.9-3.68.73-7.32,1.49-10.95,2.47a122.28,122.28,0,0,0-12.46,4.05c-4.12,1.61-8.12,3.51-12.11,5.43,0,0,0,0,0,0,3.58-.4,7.16-0.8,10.75-1.16,4-.39,8-0.54,12.07-0.64,3.74-.1,7.47-0.08,11.21-0.05s7.19,0,10.79,0c1.77,0,3.53.07,5.3,0.12,5.28,0.15,10.57.12,15.85,0.25,6.58,0.17,13.16.2,19.74,0.05,11-.25,22-0.48,33-1.14s22-1.54,33-2.54c12.06-1.11,24.12-2.32,36.13-3.83,0,0,0,0,0,0-21.53-2.71-43.19-4.68-64.84-6.09-5.67-.37-11.36-0.68-17-0.86-6.43-.2-12.86-0.26-19.29-0.34h-2.35c-4.68,0-9.36.17-14,.35h0Z"/><path class="cls-1" d="M838.35,242.61a40.24,40.24,0,0,0-8.45,1.93,56.92,56.92,0,0,0-15.13,7.88c-5.55,3.91-10.43,8.83-15.28,13.57a0,0,0,0,0,0,0c4.44-1.4,8.82-3,13.17-4.64,8.15-3.12,16.57-5.9,25.22-7.25a38.6,38.6,0,0,1,7.56,0,23.09,23.09,0,0,1,3.79,1,36.9,36.9,0,0,1,6.17,3.68,66,66,0,0,1,10,10.41c2.34,3.17,4.76,6.28,7,9.52,0,0,0,0,0,0a90,90,0,0,0-3.36-12,50.93,50.93,0,0,0-7.92-14.46,28.69,28.69,0,0,0-6-5.59,22.33,22.33,0,0,0-8.33-3.58,28.32,28.32,0,0,0-5.91-.63c-0.85,0-1.71,0-2.55.12h0Z"/><path class="cls-1" d="M701.24,236.58a25.62,25.62,0,0,0-5.75,1,18.21,18.21,0,0,0-6.19,3.54c-5.81,4.7-9.45,11.39-12.67,18-2.81,5.78-5.28,11.74-7.59,17.73-0.53,1.37-1,2.74-1.55,4.12a0,0,0,0,0,0,0q6.08-6,11.88-12.2c1.36-1.47,2.69-2.95,4-4.43,1.78-2,3.53-4,5.35-5.88a66.53,66.53,0,0,1,5.72-5.63,29.77,29.77,0,0,1,3.85-2.51,15.93,15.93,0,0,1,1.95-.47,27.66,27.66,0,0,1,4.77,0,21,21,0,0,1,2.72.73,39.89,39.89,0,0,1,6.48,4.09c2.16,1.61,4.33,3.22,6.47,4.86,3.37,2.67,6.57,5.53,9.91,8.25q3.13,2.55,6.3,5.06c3.14,2.5,6.32,5,9.47,7.46,0,0,0,0,0,0-3.07-4.86-6.15-9.71-9.32-14.5-2.87-4.33-5.78-8.64-9-12.75-2.07-2.67-4.43-5.16-6.74-7.61a31,31,0,0,0-8.8-6.78,22.6,22.6,0,0,0-9.8-2.16q-0.77,0-1.55,0h0Z"/><path class="cls-5" d="M745.06,547.4c-1.85.26-3.7,0.63-5.54,0.94-1.45.25-2.88,0.63-4.31,1s-2.78.63-4.16,1l-6,1.61c-1.55.42-3.06,1-4.58,1.5-1.21.4-2.45,0.74-3.63,1.23l-6.18,2.56c-3,1.23-5.88,2.56-8.74,4-3.93,2-7.61,4.38-11.36,6.67-2.73,1.68-5.42,3.46-8.23,5-3.07,1.69-6.14,3.37-9.25,5s-6.08,3.31-9.09,5c-2.67,1.54-5.16,3.35-7.91,4.73l-0.23.08c-1.12-.34-2.2-0.79-3.28-1.25-2.43-1-4.86-2.08-7.27-3.15-3.54-1.57-7.08-3.2-10.7-4.59l-10-3.79c-1.21-.46-2.41-0.88-3.64-1.29-1.63-.55-3.26-1.18-4.93-1.64-3.19-.87-6.37-1.77-9.59-2.57l-5.35-1.33a97.21,97.21,0,0,0-14.85-2.23c-4.6-.41-9.19-0.4-13.8-0.4h-1.59c-2.93,0-5.83.05-8.75,0.14-3.14.09-6.29,0.11-9.41,0.34l-6.54.48c-1.28.09-2.59,0.13-3.86,0.29l-11.67,1.53c-3.68.48-7.31,1.2-11,1.88l-4.88.91c-1.2.22-2.39,0.6-3.58,0.91-3.11.79-6.27,1.5-9.34,2.42l-10.62,3.18A114.8,114.8,0,0,0,477.17,583a65.88,65.88,0,0,0-12.7,7.52,115.67,115.67,0,0,0-15.41,14.21,87.36,87.36,0,0,0-12.36,17A78.13,78.13,0,0,0,432.18,632a65.32,65.32,0,0,0-2.41,9.45c-0.52,2.45-.91,4.92-1.37,7.38-1,5.36-1.58,10.8-2.21,16.21a71.6,71.6,0,0,0,.3,17.73,51.09,51.09,0,0,0,2.23,10.38,68.71,68.71,0,0,0,5.17,10.57,8.25,8.25,0,1,0,14.25-8.33c-1.16-2.08-2.35-4.14-3.36-6.29a42.67,42.67,0,0,1-2-7.88,69.67,69.67,0,0,1-.13-16l0.7-6c0.4-2.58.79-5.17,1.27-7.73l1-5.62a62.73,62.73,0,0,1,3.17-11.41,72.3,72.3,0,0,1,7.64-13,109.39,109.39,0,0,1,17-17.16,71.41,71.41,0,0,1,13.33-7.61c5-2,10.08-3.57,15.22-5.11,3-.91,6.07-1.78,9.14-2.56s6.27-1.72,9.46-2.31l11.3-2.1,4.28-.56c2.11-.28,4.24-0.68,6.36-0.83,4.21-.31,8.44-0.75,12.67-0.87,4.39-.13,8.79-0.36,13.18-0.35h9.23a103.4,103.4,0,0,1,12.11.74c2.89,0.44,5.76,1,8.59,1.67L604.7,586c3.26,0.81,6.51,1.74,9.69,2.81,6.42,2.15,12.75,4.57,19,7.16,5.33,2.38,10.66,4.87,16.11,6.95a15.57,15.57,0,0,0,10.41.87,21.81,21.81,0,0,0,3.58-1.42,42.35,42.35,0,0,0,4.65-2.55c2.48-1.51,4.93-3,7.44-4.49s5.2-2.84,7.83-4.22c2.45-1.29,4.87-2.64,7.3-4s4.87-2.94,7.28-4.42c2.15-1.32,4.28-2.66,6.43-4A108.4,108.4,0,0,1,715.31,573l2.34-1c1.35-.56,2.7-1.23,4.08-1.69,2.93-1,5.83-2,8.8-2.83a167.84,167.84,0,0,1,18.92-4.21,48.29,48.29,0,0,1,9.76-.27,53.12,53.12,0,0,1,10.31,3c3.68,1.61,7.3,3.39,10.85,5.26,3,1.59,6,3.17,9,4.88a168.08,168.08,0,0,1,15,10.2c3.49,2.92,7,5.85,10.35,8.89,1.54,1.39,3,2.89,4.46,4.34a94,94,0,0,1,8.18,8.65c2.83,3.7,5.64,7.42,8.61,11a25.86,25.86,0,0,0,2.38,2.47,28,28,0,0,0,3.26,2.48,6.61,6.61,0,0,0,1.29.64,30.24,30.24,0,0,0,3.68,1.37,17.42,17.42,0,0,0,10.74-.61,57.84,57.84,0,0,0,7.23-3.2q6.57-3.4,13.21-6.68c4.61-2.29,9.13-4.69,13.84-6.76a99,99,0,0,1,22.18-6.09c6.45-.76,12.95-1,19.43-1.3,2.69-.11,5.38-0.17,8.06-0.35,3-.19,6-0.45,9.07-0.58,5.93-.25,11.85-0.5,17.78-0.63a155.38,155.38,0,0,1,20.95.46,62.64,62.64,0,0,1,12.51,3.31,42.9,42.9,0,0,1,6.59,3.78,59.26,59.26,0,0,1,8.4,8.63c2.63,3.59,5,7.36,7.35,11.11,1.39,2.18,2.68,4.46,3.93,6.73,1.62,3,3.22,5.92,4.75,8.93,1.07,2.09,2,4.23,2.93,6.39,1.16,3.15,2.29,6.31,3.38,9.49a60.42,60.42,0,0,1,2.16,8.33c0.6,5.8.72,11.63,0.77,17.46a8.25,8.25,0,1,0,16.5,0c0-3.35-.12-6.69-0.24-10a81.79,81.79,0,0,0-1-11.22,61.77,61.77,0,0,0-2.34-9.16c-1.3-3.84-2.6-7.7-4.2-11.43l-2.09-4.87c-0.64-1.49-1.41-2.92-2.14-4.36-1.44-2.82-2.9-5.65-4.5-8.39-5.14-8.8-10.39-17.67-17.44-25.11a51.22,51.22,0,0,0-10.71-8.6,54.8,54.8,0,0,0-13.73-5.55,81.21,81.21,0,0,0-21.2-2.45c-6.61,0-13.22,0-19.83.33-3.34.14-6.69,0.25-10,.46s-6.7.48-10.06,0.61c-8,.32-16,0.53-23.89,1.39a103.89,103.89,0,0,0-28.44,7.12c-2.9,1.2-5.79,2.44-8.6,3.86l-6.41,3.25c-3,1.51-6,3-9,4.46s-6.05,3.19-9.16,4.61c-0.76.28-1.52,0.54-2.31,0.75l-0.86-.24-0.39-.23a61,61,0,0,1-6.78-8.07l1.29,1.67-3.75-4.9a77.37,77.37,0,0,0-7.41-8.37c-2.36-2.3-4.66-4.68-7.11-6.88s-4.82-4.26-7.3-6.32c-3-2.54-6.15-4.91-9.34-7.26a125.64,125.64,0,0,0-16-10.24q-4.92-2.58-9.89-5.06c-2.88-1.44-5.82-2.78-8.81-4-2.16-.87-4.34-1.64-6.57-2.3a51.5,51.5,0,0,0-9.18-1.61,28.62,28.62,0,0,0-3.09-.16,78.24,78.24,0,0,0-10.7,1.06h0Zm104.59,62.82,0.55,0.07h0l-0.56-.08h0Zm0.58,0.08,0.12,0h-0.12Z"/></svg>