<svg id="Background" xmlns="http://www.w3.org/2000/svg" xmlns:xlink="http://www.w3.org/1999/xlink" viewBox="0 0 1536 700"><defs><style>.cls-1{fill:#bebebe;}.cls-2{fill:#0a0e60;}.cls-3{fill:#193441;}.cls-4{fill:#ea2e49;}</style></defs><title>glum4</title><image id="Background-2" data-name="Background" width="1" height="1" transform="scale(1536 700)" /><path class="cls-1" d="M508.75,123.72c-3,.18-5.92.53-8.86,0.93q-3.42.46-6.8,1.14c-2.2.43-4.43,0.89-6.59,1.51l-10.89,3.12c-1.3.37-2.57,0.88-3.85,1.32l-6.06,2.09c-3.2,1.11-6.33,2.46-9.43,3.82a91.47,91.47,0,0,0-12,6.52,117.88,117.88,0,0,0-11.54,8.5c-1.74,1.42-3.41,2.91-5.06,4.42-1.37,1.25-2.75,2.52-4,3.86l-7.55,7.85c-1.11,1.16-2.12,2.44-3.18,3.65l-3.55,4.08c-0.94,1.09-1.77,2.29-2.65,3.43l-3.34,4.32a86.26,86.26,0,0,0-7.18,10.79c-1.41,2.54-2.68,5.16-4,7.75-0.72,1.41-1.43,2.82-2.19,4.22-1,1.88-2,3.81-3.1,5.62-0.94-1-1.85-1.94-2.79-2.91-1.32-1.36-2.64-2.69-4-4-2.41-2.36-4.82-4.71-7.17-7.13-4.7-4.82-9.62-9.4-14.39-14.15-2.54-2.52-5.07-5-7.71-7.44l-3.75-3.43c-1.45-1.32-3.05-2.5-4.57-3.74-1.92-1.57-3.86-3.09-5.83-4.6A63.28,63.28,0,0,0,324.41,158a69.87,69.87,0,0,0-13.18-4.63,83.24,83.24,0,0,0-14.94-1.87c-3.16-.14-6.32,0-9.48.1-1.87.07-3.76,0.08-5.62,0.23l-6.06.48a106,106,0,0,0-10.59,1.43c-9.35,1.7-18.66,4.74-26.71,9.87a118.53,118.53,0,0,0-16,12.88c-1.93,1.76-3.77,3.58-5.56,5.48a105.62,105.62,0,0,0-8.87,10.66c-1.93,2.67-4,5.27-5.73,8.08l-3.31,5.4c-0.84,1.37-1.59,2.8-2.37,4.2-1.26,2.25-2.49,4.51-3.64,6.82a47,47,0,0,0-2.58,6.54,43.62,43.62,0,0,0-1.59,8,86.52,86.52,0,0,0-.54,8.65,61.16,61.16,0,0,0,.23,6.68,87.22,87.22,0,0,0-12,7,61.35,61.35,0,0,0-19.08,20.81c-2.76,4.57-5.07,9.43-7.48,14.19-2.63,5.21-5.25,10.44-7.66,15.76-1.91,4.24-3.61,8.6-5.17,13A68.93,68.93,0,0,0,133,332.69a77.48,77.48,0,0,0-.49,14.24c0.15,2.45.48,4.89,0.82,7.31,0.39,2.8.87,5.59,1.45,8.37A93.05,93.05,0,0,0,145.73,390a78.86,78.86,0,0,0,8.79,11.53c1.59,1.76,3.27,3.45,5,5.1s3.41,3.23,5.21,4.71l4.45,3.64c1.4,1.15,2.78,2.35,4.25,3.41,3.42,2.48,6.82,5,10.3,7.4a103.93,103.93,0,0,0,11.76,7.11c2.27,1.16,4.58,2.21,6.92,3.23a165.3,165.3,0,0,0,17.55,6.9,78.28,78.28,0,0,0,27.16,3.26c4-.22,8-0.38,11.94-0.73a115.41,115.41,0,0,0,28.3-5.83,79,79,0,0,0,9.58-4.09,82,82,0,0,0,9-5.51c2.92-2,5.77-4.14,8.57-6.3a49.47,49.47,0,0,1,8.53-5.54c0.61-.22,1.22-0.42,1.84-0.59a69,69,0,0,1,5.3,9.49c1.41,2.84,2.7,5.73,4.21,8.51q2.74,5,5.57,10c0.64,1.13,1.29,2.24,1.94,3.36,0.91,1.57,1.74,3.23,2.75,4.74,1.85,2.79,3.64,5.63,5.64,8.3,3.77,5,7.55,10,11.81,14.69a114,114,0,0,0,9.71,9.32,75.21,75.21,0,0,0,12,8.39,99.92,99.92,0,0,0,12.91,6.06,62.13,62.13,0,0,0,13.93,3.73,71.39,71.39,0,0,0,7.13.69c2.34,0.1,4.7,0,7,0,1.9,0,3.8-.14,5.69-0.2,3.48-.12,6.93-0.34,10.4-0.59l4.74-.34c1.75-.12,3.52-0.42,5.26-0.62,3.57-.43,7.14-0.85,10.71-1.37,8-1.17,16-2.35,23.88-3.91a139.33,139.33,0,0,0,13.95-3.46c4.92-1.5,9.76-3.31,14.52-5.29a124.85,124.85,0,0,0,13.36-6.51c2-1.14,4-2.34,5.92-3.57,2.93-1.86,5.89-3.68,8.8-5.59,3.32-2.19,6.64-4.39,9.86-6.73,3.45-2.53,6.79-5.22,10-8a116.05,116.05,0,0,0,15.93-17.62,73.49,73.49,0,0,0,10.84-21.22,97.07,97.07,0,0,0,4.43-24.38c0.22-3.43.23-6.87,0.32-10.3,0.17-6.21.2-12.45,0.88-18.63,0.1-.62.21-1.24,0.34-1.86,0.77,0.42,1.54.84,2.33,1.2,1.86,0.83,3.7,1.68,5.59,2.43,2.16,0.85,4.31,1.7,6.49,2.51a95,95,0,0,0,14.8,4,109.27,109.27,0,0,0,14.2,1.85,126.27,126.27,0,0,0,15.23-.09,168.08,168.08,0,0,0,22.35-2.87l13-2.53c3-.59,6-1.33,9-2.06,5.08-1.23,10.09-2.73,15.06-4.37a143.84,143.84,0,0,0,27.42-12.44,104.34,104.34,0,0,0,23.14-17.91,58.73,58.73,0,0,0,8.13-11.1,52.76,52.76,0,0,0,5.4-13.71,68.2,68.2,0,0,0,1.86-13.91c0.08-2.41,0-4.82-.11-7.23-0.11-2.82-.26-5.65-0.48-8.47a107.71,107.71,0,0,0-5.92-28.93,94.58,94.58,0,0,0-14.8-25.69c-12.14-15.39-29.68-26-48.22-31.87A102.78,102.78,0,0,0,695,190.24a114.3,114.3,0,0,0-16.08-1.38c-4.62-.11-9.23-0.05-13.85,0-6.09,0-12.18,0-18.27.2l-13.07.36c-3.37.09-6.75,0.45-10.11,0.68-1.67.12-3.34,0.21-5,.44l-5,.7c-3.25.45-6.51,0.84-9.73,1.48l-7,1.41c-1.13.23-2.27,0.42-3.37,0.73l-6.28,1.76c-1.38.39-2.78,0.72-4.14,1.17l-7.29,2.38c-1.27.41-2.54,0.83-3.82,1.23l0.22-.41a52.49,52.49,0,0,0,2.29-5.14,49.37,49.37,0,0,0,3-13,61.06,61.06,0,0,0,.2-11.71c-0.21-2.73-.44-5.44-0.82-8.16-0.31-2.23-.7-4.44-1.21-6.64a40.91,40.91,0,0,0-2.84-7.75,36.61,36.61,0,0,0-7.36-10,43.78,43.78,0,0,0-5.12-4.34A59.72,59.72,0,0,0,553.8,130a54.28,54.28,0,0,0-12.64-5,68.72,68.72,0,0,0-15.36-1.85q-1.36,0-2.72,0c-4.78,0-9.55.35-14.32,0.65h0Zm5.78,10.14a105.78,105.78,0,0,1,18.86.23A54.31,54.31,0,0,1,544.29,137a55.68,55.68,0,0,1,10.38,6,41.92,41.92,0,0,1,6.23,6.15,35.73,35.73,0,0,1,3.13,5.31,49.15,49.15,0,0,1,2.61,10.38,77.59,77.59,0,0,1,.42,17.57,50.81,50.81,0,0,1-2.81,10.87,71.17,71.17,0,0,1-4,7.39c-0.43.62-.84,1.25-1.24,1.89a8.31,8.31,0,0,0-1.27,2.55c-0.11.66-.2,1.34-0.29,2a6.65,6.65,0,0,0,1,3.14,7.72,7.72,0,0,0,4.13,3.15c0.75,0.14,1.52.25,2.28,0.34a25.77,25.77,0,0,0,3.36-.46,117.7,117.7,0,0,0,12.95-3.89c2.39-.78,4.77-1.56,7.2-2.24l8.56-2.41c1.06-.3,2.2-0.44,3.27-0.66l5.91-1.19c4.59-.93,9.25-1.48,13.9-2.1l7.79-.54c2-.14,3.93-0.33,5.89-0.39,5.13-.14,10.25-0.34,15.38-0.4s10-.13,15-0.15c8.8,0,17.65-.28,26.4.78a96.68,96.68,0,0,1,45.39,18.72,85.62,85.62,0,0,1,13.88,13.75A96,96,0,0,1,761,251.41a86.64,86.64,0,0,1,3.76,11.37A106.27,106.27,0,0,1,767,274.34c0.53,4.31.84,8.63,1,13a87.48,87.48,0,0,1-.23,13.72,57.85,57.85,0,0,1-3.24,12.65,56.93,56.93,0,0,1-6.1,10.35,77.65,77.65,0,0,1-12.35,11.83,133.33,133.33,0,0,1-27.58,15.64,169.05,169.05,0,0,1-20.11,6.65c-4.48,1.2-9,2.27-13.57,3.16-7.14,1.39-14.25,2.85-21.46,3.87a127.14,127.14,0,0,1-31.32.48,106.22,106.22,0,0,1-17.93-4.12c-3-1-5.9-2.18-8.82-3.34-1.35-.59-2.7-1.18-4-1.86-3.47-1.8-7.51-4.68-11.48-2.63-4.84,2.5-5.45,8.45-6,13.27-0.3,2.59-.38,5.2-0.53,7.8-0.52,9.14-.14,18.31-1.2,27.42a89.25,89.25,0,0,1-5.42,20.23,73,73,0,0,1-8.26,14,132.64,132.64,0,0,1-8.95,10.27,107.41,107.41,0,0,1-11.21,9.84c-5.68,4.31-11.7,8.12-17.72,11.93l-5.23,3.3c-2.08,1.32-4.29,2.48-6.45,3.66-2.7,1.45-5.48,2.73-8.29,3.94a146.84,146.84,0,0,1-23,7.48c-4.69,1.08-9.42,1.88-14.16,2.67-5.48.91-11,1.72-16.47,2.53L447,493.17c-2.84.34-5.71,0.48-8.56,0.68s-5.72.33-8.59,0.44l-5,.18a80.23,80.23,0,0,1-12.09-.39,61.07,61.07,0,0,1-7-1.5,74,74,0,0,1-7.9-2.8,83,83,0,0,1-16.58-9.4,109.17,109.17,0,0,1-9.43-8.53,125,125,0,0,1-9-10.29,150.09,150.09,0,0,1-10.14-14.67c-3.45-6-6.84-11.94-10.13-18-0.68-1.24-1.24-2.55-1.85-3.83q-1-2.14-2.08-4.27a56.6,56.6,0,0,0-5.34-9.18A17.18,17.18,0,0,0,332,410a11.36,11.36,0,0,0-2.17-1.73l-1.25-.53a7.65,7.65,0,0,0-2.42-.5,11.77,11.77,0,0,0-3.51.23c-4.3,1-8,3.37-11.59,5.92-1.91,1.38-3.75,2.86-5.65,4.25s-3.82,2.8-5.78,4.14a73.42,73.42,0,0,1-11.5,6.5,102.94,102.94,0,0,1-23.91,6.29c-4.69.57-9.38,0.85-14.1,1.11-1.81.1-3.61,0.18-5.43,0.22a82.48,82.48,0,0,1-11.54-.55,78.05,78.05,0,0,1-9.36-2.06,107.84,107.84,0,0,1-10.63-3.76l-6-2.62a115,115,0,0,1-11.36-5.69A124.14,124.14,0,0,1,185,413.94l-6-4.31-6.63-5.43c-2.21-1.81-4.3-3.79-6.35-5.77a88.07,88.07,0,0,1-7.54-8.29,78.86,78.86,0,0,1-4.93-7.38,75.9,75.9,0,0,1-4.06-8.18,94.34,94.34,0,0,1-3.77-11.19A99,99,0,0,1,143.55,352a84.84,84.84,0,0,1-.68-8.61,73,73,0,0,1,.58-10.17,68.79,68.79,0,0,1,2.39-10.48c1.15-3.69,2.59-7.31,4.07-10.88,2.83-6.54,6.08-12.88,9.29-19.23l2.72-5.39a99.47,99.47,0,0,1,8.57-14.13,59,59,0,0,1,9.18-9,89.55,89.55,0,0,1,9.28-5.89c1.29-.73,2.61-1.39,4-2a5.18,5.18,0,0,0,.59,0,5.28,5.28,0,0,0,3.71-1.54,5.51,5.51,0,0,0,.63-0.77l0.22-.1c2.65-1.23,5.3-2.45,8-3.63,1-.39,2-0.77,3-1.09A5.25,5.25,0,1,0,206.22,239a72,72,0,0,0-8.08,3.28q0-1,0-1.91c0.05-3,.23-5.9.57-8.83a41.13,41.13,0,0,1,2.36-8.36c1.48-3.13,3.19-6.14,4.87-9.16,1-1.73,2-3.43,3-5.12s2-3.38,3.16-5c1.53-2.11,3-4.24,4.6-6.32a106.18,106.18,0,0,1,11.74-13c3.11-2.85,6.21-5.67,9.52-8.29,2-1.5,4-2.95,6.12-4.29a50.76,50.76,0,0,1,6.88-3.58,91.31,91.31,0,0,1,20.3-5.25c3.62-.45,7.28-0.78,10.93-0.93l6.49-.26a94.23,94.23,0,0,1,14.25.49c2.2,0.32,4.38.73,6.55,1.23a56.8,56.8,0,0,1,8.24,2.73c2.51,1.09,5,2.28,7.36,3.62a57.54,57.54,0,0,1,6.72,4.54c1.43,1.12,2.84,2.27,4.25,3.42,1.26,1,2.58,2,3.78,3.11,2.45,2.24,5,4.43,7.32,6.77,5.16,5.13,10.41,10.17,15.61,15.26,2.46,2.41,4.82,4.94,7.27,7.36s4.7,4.6,7,7c0.61,0.62,1.2,1.25,1.8,1.88A27.85,27.85,0,0,0,383,223l0.74,0.36a6.1,6.1,0,0,0,2,.7l1.4,0.19q1.14-.13,2.27-0.34l1.25-.53a5.29,5.29,0,0,0,1.88-1.21,17.83,17.83,0,0,0,2.79-3.22,30.27,30.27,0,0,0,2.18-3.75l1.57-2.9c0.85-1.57,1.66-3.18,2.47-4.77,1.05-2.06,2.1-4.11,3.17-6.16a88.5,88.5,0,0,1,6.85-10.7l5.08-6.57c0.66-.85,1.41-1.64,2.11-2.45l4.06-4.66c2-2.25,4.11-4.36,6.18-6.51a136.24,136.24,0,0,1,13.66-12.43,98.86,98.86,0,0,1,20.33-12c3-1.24,6.11-2.36,9.22-3.43,2.16-.75,4.3-1.59,6.49-2.22L488,137.8a104.12,104.12,0,0,1,13.81-2.9c4.25-.52,8.49-0.77,12.77-1h0ZM411.26,191.15l-0.46.59,0.46-.59h0Zm-22.44,23.09,0.23,0.09-0.23-.09h0Zm-3.23.21q-0.21.18-.43,0.33l0.43-.33h0ZM595.74,361.77l-0.39.51a5,5,0,0,1,.39-0.51h0ZM324.79,417.66h0l-0.76.1a5.86,5.86,0,0,1,.76-0.11h0Zm1.06,0,0.29,0-0.29,0h0Z"/><path class="cls-2" d="M505.51,260.65c-1,0-2,.09-3,0.19a25.83,25.83,0,0,0-6.73,1.69A34.59,34.59,0,0,0,486,269s0,0,0,0c3.93-.89,7.8-2,11.74-2.89,2.91-.63,5.82-1.34,8.69-2.14s5.8-1.68,8.69-2.55a0,0,0,0,0,0,0,50.08,50.08,0,0,0-8.5-.77h-1.12Z"/><path class="cls-2" d="M349.81,280.21c-5.92,1.32-11.39,4.25-16.46,7.52,0,0,0,0,0,0,2.55-.42,5.11-0.78,7.66-1.17a96.49,96.49,0,0,1,11.38-.77c2.88,0,5.76.2,8.64,0.21,3.22,0,6.45-.21,9.64-0.52a138,138,0,0,0,17.8-3,0,0,0,0,0,0,0,135.33,135.33,0,0,0-22.45-3.35c-1.51-.09-3-0.14-4.52-0.14a53.4,53.4,0,0,0-11.73,1.21h0Z"/><path class="cls-2" d="M438.66,380.24a23.4,23.4,0,0,0-6.46,3.82,21.75,21.75,0,0,0-4.4,5.12,20.52,20.52,0,0,0-1.52,2.92q-0.4.92-.75,1.85a11.69,11.69,0,0,0-.57,2.79,12.78,12.78,0,0,0-.06,3.23,10.39,10.39,0,0,0,.35,2,12.08,12.08,0,0,0,1.11,2.55,15.88,15.88,0,0,0,2.16,2.89,16.94,16.94,0,0,0,3.53,2.9,18,18,0,0,0,3.07,1.56,26.25,26.25,0,0,0,3.65,1.27,22.16,22.16,0,0,0,8.57.44A24.92,24.92,0,0,0,461,406.51a23.58,23.58,0,0,0,2-2.27,10,10,0,0,0,1.57-2.79,8,8,0,0,0,.26-3,8.36,8.36,0,0,0-.89-3.16,9.87,9.87,0,0,0-1.66-2.16,30.68,30.68,0,0,0-2.89-2.85c-0.91-.79-1.86-1.54-2.83-2.27,0,0,0,0,0,0a53.84,53.84,0,0,1,3.93,7.15,10,10,0,0,1,.5,1.77,6.79,6.79,0,0,1-.12,1.49c0-.18,0-0.35.07-0.53a8,8,0,0,1-.38,1.36,4.32,4.32,0,0,1-.28.48,6.63,6.63,0,0,1-.67.64,29.42,29.42,0,0,1-5.41,3.19,27.76,27.76,0,0,1-5.57,1.52,21.31,21.31,0,0,1-3.56,0,25.31,25.31,0,0,1-4.61-1.28,26.25,26.25,0,0,1-3.58-2.08,18,18,0,0,1-1.81-1.82c-0.21-.32-0.4-0.64-0.57-1q0-.16-0.08-0.32a14.89,14.89,0,0,1,0-1.84,16.79,16.79,0,0,1,3.2-6.9,23.73,23.73,0,0,1,3.18-3.13,24.36,24.36,0,0,1,4.11-2.31,40.07,40.07,0,0,1,8.63-2.24c2.33-.3,4.66-0.48,7-0.7a0,0,0,0,0,0,0c-2.23-.69-4.48-1.36-6.76-1.88a33.35,33.35,0,0,0-7.31-.76,22.94,22.94,0,0,0-7.78,1.39h0Zm-4.41,17.65,0,0.14,0-.14h0ZM460.66,399l-0.09.21,0.09-.21h0Zm-0.5.93-0.22.28,0.22-.28h0Z"/><path class="cls-3" d="M294.26,468.84a10.87,10.87,0,0,0-3.23,1.84,40.81,40.81,0,0,0-6.61,6.21,26.3,26.3,0,0,0-3,4l-0.61,1.39q-0.28,1.17.89,0.89a10.87,10.87,0,0,0,3.23-1.84,40.81,40.81,0,0,0,6.61-6.21,26.3,26.3,0,0,0,3-4l0.61-1.39q0.22-.95-0.5-0.95a1.75,1.75,0,0,0-.39.05h0Z"/><path class="cls-3" d="M264.37,561l-7.83,3.91a26.5,26.5,0,0,0-4,3,40.81,40.81,0,0,0-6.21,6.61,10.87,10.87,0,0,0-1.84,3.23c0,0.27.06,0.54,0.09,0.81a2.27,2.27,0,0,0,2.2-.53l7.83-3.91a26.5,26.5,0,0,0,4-3,40.81,40.81,0,0,0,6.21-6.61,10.87,10.87,0,0,0,1.84-3.23c0-.27-0.06-0.54-0.09-0.81a2.42,2.42,0,0,0-.65-0.09,2.34,2.34,0,0,0-1.55.62h0Z"/><path class="cls-3" d="M354.26,539.34a10.87,10.87,0,0,0-3.23,1.84,40.81,40.81,0,0,0-6.61,6.21,26.3,26.3,0,0,0-3,4l-0.61,1.39q-0.28,1.17.89,0.89a10.87,10.87,0,0,0,3.23-1.84,40.81,40.81,0,0,0,6.61-6.21,26.3,26.3,0,0,0,3-4l0.61-1.39q0.22-.95-0.5-0.95a1.75,1.75,0,0,0-.39.05h0Z"/><path class="cls-3" d="M307.76,636.84l-1.39.62a26.53,26.53,0,0,0-4,3l-8.07,6.73a48.25,48.25,0,0,0-4.47,4.47l-1.74,2.14a10.88,10.88,0,0,0-1.84,3.23c-0.18.78,0.12,1.07,0.89,0.89l1.39-.62a26.53,26.53,0,0,0,4-3l8.07-6.73a48.25,48.25,0,0,0,4.47-4.47l1.74-2.14a10.88,10.88,0,0,0,1.84-3.23c0.15-.63,0-0.95-0.51-0.95a1.75,1.75,0,0,0-.39.05h0Z"/><path class="cls-3" d="M453.26,524.34a10.87,10.87,0,0,0-3.23,1.84,40.81,40.81,0,0,0-6.61,6.21,26.3,26.3,0,0,0-3,4l-0.61,1.39q-0.28,1.17.89,0.89a10.87,10.87,0,0,0,3.23-1.84,40.81,40.81,0,0,0,6.61-6.21,26.3,26.3,0,0,0,3-4l0.61-1.39q0.22-.95-0.5-0.95a1.75,1.75,0,0,0-.39.05h0Z"/><path class="cls-3" d="M400.76,603.84a10.87,10.87,0,0,0-3.23,1.84,40.81,40.81,0,0,0-6.61,6.21,26.3,26.3,0,0,0-3,4l-0.61,1.39q-0.28,1.17.89,0.89a10.87,10.87,0,0,0,3.23-1.84,40.81,40.81,0,0,0,6.61-6.21,26.3,26.3,0,0,0,3-4l0.61-1.39q0.22-.95-0.5-0.95a1.75,1.75,0,0,0-.39.05h0Z"/><path class="cls-3" d="M447.26,680.34a10.87,10.87,0,0,0-3.23,1.84,40.81,40.81,0,0,0-6.61,6.21,26.3,26.3,0,0,0-3,4l-0.61,1.39q-0.28,1.17.89,0.89a10.87,10.87,0,0,0,3.23-1.84,40.81,40.81,0,0,0,6.61-6.21,26.3,26.3,0,0,0,3-4l0.61-1.39q0.22-.95-0.5-0.95a1.75,1.75,0,0,0-.39.05h0Z"/><path class="cls-3" d="M579.26,563.34a10.87,10.87,0,0,0-3.23,1.84,40.81,40.81,0,0,0-6.61,6.21,26.3,26.3,0,0,0-3,4l-0.61,1.39q-0.28,1.17.89,0.89a10.87,10.87,0,0,0,3.23-1.84,40.81,40.81,0,0,0,6.61-6.21,26.3,26.3,0,0,0,3-4l0.61-1.39q0.22-.95-0.5-0.95a1.75,1.75,0,0,0-.39.05h0Z"/><path class="cls-3" d="M474.26,605.34a10.87,10.87,0,0,0-3.23,1.84,40.81,40.81,0,0,0-6.61,6.21,26.3,26.3,0,0,0-3,4l-0.61,1.39q-0.28,1.17.89,0.89a10.87,10.87,0,0,0,3.23-1.84,40.81,40.81,0,0,0,6.61-6.21,26.3,26.3,0,0,0,3-4l0.61-1.39q0.22-.95-0.5-0.95a1.75,1.75,0,0,0-.39.05h0Z"/><path class="cls-3" d="M588.26,488.34a10.87,10.87,0,0,0-3.23,1.84,40.81,40.81,0,0,0-6.61,6.21,26.3,26.3,0,0,0-3,4l-0.61,1.39q-0.28,1.17.89,0.89a10.87,10.87,0,0,0,3.23-1.84,40.81,40.81,0,0,0,6.61-6.21,26.3,26.3,0,0,0,3-4l0.61-1.39q0.22-.95-0.5-0.95a1.75,1.75,0,0,0-.39.05h0Z"/><path class="cls-3" d="M547.76,647.34a10.87,10.87,0,0,0-3.23,1.84,40.81,40.81,0,0,0-6.61,6.21,26.3,26.3,0,0,0-3,4l-0.61,1.39q-0.28,1.17.89,0.89a10.87,10.87,0,0,0,3.23-1.84,40.81,40.81,0,0,0,6.61-6.21,26.3,26.3,0,0,0,3-4l0.61-1.39q0.22-.95-0.5-0.95a1.75,1.75,0,0,0-.39.05h0Z"/><path class="cls-3" d="M675.26,570.84a10.87,10.87,0,0,0-3.23,1.84,40.81,40.81,0,0,0-6.61,6.21,26.3,26.3,0,0,0-3,4l-0.61,1.39q-0.28,1.17.89,0.89a10.87,10.87,0,0,0,3.23-1.84,40.81,40.81,0,0,0,6.61-6.21,26.3,26.3,0,0,0,3-4l0.61-1.39q0.22-.95-0.5-0.95a1.75,1.75,0,0,0-.39.05h0Z"/><path class="cls-3" d="M681.26,429.84a10.87,10.87,0,0,0-3.23,1.84,40.81,40.81,0,0,0-6.61,6.21,26.3,26.3,0,0,0-3,4l-0.61,1.39q-0.28,1.17.89,0.89a10.87,10.87,0,0,0,3.23-1.84,40.81,40.81,0,0,0,6.61-6.21,26.3,26.3,0,0,0,3-4l0.61-1.39q0.22-.95-0.5-0.95a1.75,1.75,0,0,0-.39.05h0Z"/><path class="cls-3" d="M646.76,507.84a10.87,10.87,0,0,0-3.23,1.84,40.81,40.81,0,0,0-6.61,6.21,26.3,26.3,0,0,0-3,4l-0.61,1.39q-0.28,1.17.89,0.89a10.87,10.87,0,0,0,3.23-1.84,40.81,40.81,0,0,0,6.61-6.21,26.3,26.3,0,0,0,3-4l0.61-1.39q0.22-.95-0.5-0.95a1.75,1.75,0,0,0-.39.05h0Z"/><path class="cls-3" d="M630.26,656.34a10.87,10.87,0,0,0-3.23,1.84,40.81,40.81,0,0,0-6.61,6.21,26.3,26.3,0,0,0-3,4l-0.61,1.39q-0.28,1.17.89,0.89a10.87,10.87,0,0,0,3.23-1.84,40.81,40.81,0,0,0,6.61-6.21,26.3,26.3,0,0,0,3-4l0.61-1.39q0.22-.95-0.5-0.95a1.75,1.75,0,0,0-.39.05h0Z"/><path class="cls-3" d="M210.26,630.84a10.87,10.87,0,0,0-3.23,1.84,40.81,40.81,0,0,0-6.61,6.21,26.3,26.3,0,0,0-3,4l-0.61,1.39q-0.28,1.17.89,0.89a10.87,10.87,0,0,0,3.23-1.84,40.81,40.81,0,0,0,6.61-6.21,26.3,26.3,0,0,0,3-4l0.61-1.39q0.22-.95-0.5-0.95a1.75,1.75,0,0,0-.39.05h0Z"/><path class="cls-3" d="M192.26,497.34a10.87,10.87,0,0,0-3.23,1.84,40.81,40.81,0,0,0-6.61,6.21,26.3,26.3,0,0,0-3,4l-0.61,1.39q-0.28,1.17.89,0.89a10.87,10.87,0,0,0,3.23-1.84,40.64,40.64,0,0,0,6.61-6.21,26.3,26.3,0,0,0,3-4l0.61-1.39q0.22-.95-0.5-0.95a1.75,1.75,0,0,0-.39.05h0Z"/><path class="cls-4" d="M1144.07,340.9a106.68,106.68,0,0,0-18.82,2.4,85.32,85.32,0,0,0-21.68,8.32,72.28,72.28,0,0,0-8.1,5.23c-3,2.18-5.71,4.64-8.5,7a92.61,92.61,0,0,0-7.66,7.19,80.27,80.27,0,0,0-7.07,9c-4.66,6.75-8.26,14.18-11.82,21.54-1.1,2.28-2.12,4.59-3.15,6.9-0.55,1.24-1,2.49-1.5,3.76s-1,2.49-1.37,3.77c-1.15,3.82-2.36,7.63-3.19,11.54a56.68,56.68,0,0,0-1.18,11.65c0,3.76.42,7.54,0.71,11.28a6.57,6.57,0,0,0,.57,2.36l-0.3,0-0.27-.05-0.07-.12c-1.8-5.27-3.89-10.45-5.91-15.64-1.16-3-2.41-5.92-3.68-8.86q-1.25-2.92-2.63-5.79a59.85,59.85,0,0,0-6.32-10.11,99.51,99.51,0,0,0-14.05-14.82l-6.48-5.65q-6.53-5.7-13.17-11.27c-2.21-1.86-4.51-3.62-6.77-5.42a92.88,92.88,0,0,0-15.22-10,60.63,60.63,0,0,0-10.59-4.2A52.91,52.91,0,0,0,953.52,359a85.63,85.63,0,0,0-11.15.23,118.54,118.54,0,0,0-12.75,1.65,67.84,67.84,0,0,0-21.7,7.89,65.24,65.24,0,0,0-9,6.57,73.4,73.4,0,0,0-8.12,8.19,100.62,100.62,0,0,0-13.11,19.23,62.58,62.58,0,0,0-4.18,10.5,46.68,46.68,0,0,0-1.73,11.89,79.9,79.9,0,0,0,.44,11q0.66,6.36,1.9,12.64A108.21,108.21,0,0,0,877,459.86a94.69,94.69,0,0,0,4.5,11.4,106.29,106.29,0,0,0,5.18,9.72,109.8,109.8,0,0,0,6.38,9.79,97,97,0,0,0,16.05,16.78c7,5.78,14.78,10.42,22.46,15.2,4.22,2.63,8.49,5.2,12.89,7.53,2.46,1.3,4.89,2.67,7.38,3.9l8.82,4.35c4.63,2.29,9.41,4.25,14.14,6.31,2.82,1.22,5.56,2.65,8.33,4,2.26,1.08,4.41,2.35,6.6,3.57,4.53,2.53,9,5.22,13.24,8.19,2.46,1.71,4.93,3.4,7.31,5.2a118.43,118.43,0,0,1,9.5,8.36,92.75,92.75,0,0,1,7.78,8.42,134,134,0,0,1,11,17.43c1.67,3.14,3.42,6.24,5,9.42l5.15,10.31c0.72,1.44,1.33,2.95,2,4.42l2,4.48,2.58,6.27c0.84,2,1.71,4.06,2.65,6.06a41.4,41.4,0,0,0,2,3.65,19.11,19.11,0,0,0,1.71,2.25l0.41,0.34a16.89,16.89,0,0,0,1.51,1.13,5.1,5.1,0,0,0,4,.53,5.37,5.37,0,0,0,3.67-3.67,6.31,6.31,0,0,0,.44-2.18c0-.65-0.1-1.29-0.18-1.93a131.06,131.06,0,0,1-.89-17.63,224.91,224.91,0,0,1,1.57-24.48,101.17,101.17,0,0,1,2.35-11.29,94.16,94.16,0,0,1,3.93-11.15l4.22-9.5a109.29,109.29,0,0,1,5.24-10.09A112,112,0,0,1,1096,545c5-6.36,10.55-12.25,16-18.24,3.34-3.69,6.55-7.5,9.83-11.25q6-6.84,12-13.58c3.46-3.84,7-7.55,10.57-11.32,7.78-8.29,15.42-16.71,23.18-25q1.69-1.81,3.44-3.58a109.39,109.39,0,0,0,7.65-8.48,85.88,85.88,0,0,0,6.39-9.09,82.79,82.79,0,0,0,5.45-11.2,66.53,66.53,0,0,0,3.2-10.17,60.18,60.18,0,0,0,1-6c0.24-1.9.51-3.82,0.61-5.73l0.5-9.38c0-.81,0-1.62,0-2.43q-0.05-2.93-.11-5.86c0-2.64-.38-5.29-0.6-7.92a89.28,89.28,0,0,0-1.33-9.16,96.56,96.56,0,0,0-3.2-12c-0.62-1.89-1.41-3.71-2.2-5.54a44.28,44.28,0,0,0-2.42-4.79,29,29,0,0,0-8.24-8.63,23,23,0,0,0-4.21-2.29,29.8,29.8,0,0,0-5.19-1.77,54.23,54.23,0,0,0-11.89-1.13h-0.89c-3.8,0-7.62.24-11.41,0.42h0Zm-86.66,114.66h0v0h0Zm2.71,164.09v0.08h0v-0.07h0Zm9,19.93,0.24,0.19-0.24-.19h0Z"/><path class="cls-2" d="M1119.36,398.8c-7.68,1.14-14.65,6.09-19.68,11.81s-8,13.2-10.69,20.39c0,0,0,0,0,0,5-4.75,9.71-9.92,15.13-14.25a77,77,0,0,1,14.74-8.75,29.19,29.19,0,0,1,5.09-1.44,19.93,19.93,0,0,1,3.87,0,17.6,17.6,0,0,1,2.61.69,23.72,23.72,0,0,1,4.17,2.46,76.06,76.06,0,0,1,8.8,8.84s0,0,0,0a49,49,0,0,0-4.92-11.12,19.59,19.59,0,0,0-7.48-7,17.91,17.91,0,0,0-8.2-1.85,24,24,0,0,0-3.5.26h0Z"/><path class="cls-2" d="M962.74,441.88a39.91,39.91,0,0,0-13.25,4.32,29.38,29.38,0,0,0-6,4.48,17.81,17.81,0,0,0-4,5.46,16.77,16.77,0,0,0-.27,12.71c1.45,4,4.72,7,7.64,10a0,0,0,0,0,0,0,58.85,58.85,0,0,1-3-9.4,18.7,18.7,0,0,1,0-4,21,21,0,0,1,.84-3.2,17.2,17.2,0,0,1,1.17-2,16,16,0,0,1,1.93-1.9,35,35,0,0,1,5.74-3.26,65.17,65.17,0,0,1,13.78-3.23A39.46,39.46,0,0,1,989,454.36a27.93,27.93,0,0,1,4.37,2.45,63.32,63.32,0,0,1,8.59,9.15,0,0,0,0,0,0,0,63.28,63.28,0,0,0-2.87-7.77,27.41,27.41,0,0,0-3.29-5.57,23.67,23.67,0,0,0-4.71-4.3,37.52,37.52,0,0,0-12.82-6,37,37,0,0,0-7.78-1l-1.24,0a44.85,44.85,0,0,0-6.49.54h0Z"/><path class="cls-2" d="M1107.34,464.6a23.75,23.75,0,0,0-3.57.68,34.53,34.53,0,0,0-9.89,4.75c-2.94,2-5.71,4.23-8.53,6.37-2,1.54-3.94,3.13-5.85,4.8q-1.73,1.51-3.44,3c-1.46,1.3-3,2.53-4.54,3.73a120.55,120.55,0,0,1-10.56,7.34q-3.44,2.09-6.85,4.23c-1.82,1.14-3.75,2.15-5.61,3.23-1.51.88-3,1.76-4.54,2.6l-12.41,6.82a68.66,68.66,0,0,0-10.68,6.79s0,0,0,0c5-2.12,10.46-3.29,15.73-4.67,5-1.32,10-2.79,14.88-4.46a175.56,175.56,0,0,0,16.82-6.58,84.1,84.1,0,0,0,15.71-9.19c2.46-1.87,4.91-3.76,7.33-5.7,4.49-3.3,8.92-6.85,14-9.23l0.45-.16c-0.08.77-.19,1.54-0.3,2.3q0.08-.61.16-1.22a61.73,61.73,0,0,1-3.08,11.6,94.46,94.46,0,0,1-10.28,17.42,56.38,56.38,0,0,1-8.64,8.62c-3,2.22-6.16,4.18-9.3,6.18a79.67,79.67,0,0,1-10.22,5.61,61.81,61.81,0,0,1-13.33,3.59,77.39,77.39,0,0,1-11.27.35c-1.8-.06-3.64,0-5.44-0.17s-3.55-.27-5.33-0.4c-1.39-.1-2.79-0.33-4.18-0.53l0.27,0c-6-1.1-12.13-2.07-17.86-4.3l-4.52-1.76a27,27,0,0,0-3.64-1.2,4.52,4.52,0,0,0-2.48.14,3.12,3.12,0,0,0-1.66,1.25c-1.21,2.18-.65,4.7-0.33,7.06s0.64,4.51,1,6.76c0,0,0,0,0,0,0.29-1.82.6-3.65,0.9-5.48a34.23,34.23,0,0,1,1.09-5.4l0.07-.13c2.71,1.48,5,3.6,7.69,5.17a60.75,60.75,0,0,0,7.58,4c2.75,1.14,5.5,2.21,8.3,3.21a52,52,0,0,0,6.74,1.95l4.65,0.95c1.29,0.26,2.61.38,3.91,0.55,2.21,0.3,4.41.59,6.63,0.8a54.07,54.07,0,0,0,13-.55,50.27,50.27,0,0,0,10.51-2.9,72.41,72.41,0,0,0,11.22-5.45c3.22-1.91,6.36-4,9.46-6.08a71.83,71.83,0,0,0,9.45-7.59A73.39,73.39,0,0,0,1108.9,507c1.62-2.79,3.13-5.64,4.49-8.57a53.3,53.3,0,0,0,3.35-9c0.58-2.24,1.17-4.47,1.63-6.74,0.28-1.37.52-2.75,0.73-4.14a19.25,19.25,0,0,0,.31-3.31,15.15,15.15,0,0,0-.43-3.07l-0.24-.62a12.1,12.1,0,0,0-1-2.23,9.24,9.24,0,0,0-2.88-2.95,10.07,10.07,0,0,0-3.95-1.59,13.4,13.4,0,0,0-2.31-.23,10.46,10.46,0,0,0-1.25.08h0Zm-110,64.91-0.16.37q0.07-.19.16-0.37h0Z"/></svg>