<svg id="Background" xmlns="http://www.w3.org/2000/svg" xmlns:xlink="http://www.w3.org/1999/xlink" viewBox="0 0 1536 700"><defs><style>.cls-1{fill:#0a0e60;}.cls-2{fill:#98c12a;}</style></defs><title>Meh1</title> <path id="meh-lefteye1" class="cls-1" d="M1167.5,162.5a13,13,0,1,0,13-13,13.12,13.12,0,0,0-13,13h0Z"/><path id="meh-righteye1" class="cls-1" d="M1301,152a13,13,0,1,0,13-13,13.12,13.12,0,0,0-13,13h0Z"/><path id="meh-leftmoustache1" class="cls-1" d="M1259.6,228.64a13.74,13.74,0,0,0-4.19,2.57,21.73,21.73,0,0,0-2.25,2.35,39.75,39.75,0,0,0-4.3,7c-1.54,2.92-2.93,6-4.21,9-2.54,6-4.81,12.13-7.33,18.14-4.36,10.26-8.84,20.79-15.62,29.7a123.43,123.43,0,0,1-8.65,9.89,0,0,0,0,0,0,0,72.22,72.22,0,0,0,13.76-7.83c6.5-4.75,11.82-11,16.57-17.39a112.17,112.17,0,0,0,11.29-18.5c1.42-3,2.75-6.06,4-9.13,1.57-3.72,3-7.48,4.52-11.23a22.71,22.71,0,0,1,1.4-2.53l0.55,0.38,1,0.76-0.63-.48a33.3,33.3,0,0,1,4.81,4.49,52.25,52.25,0,0,1,4.22,7.32c0.69,1.37,1.39,2.7,2.18,4,1.81,3,3.77,5.91,5.76,8.81,0,0,0,0,0,0-0.65-4-1.32-8-2-12-0.25-2.26-.53-4.52-0.87-6.77a26.39,26.39,0,0,0-2-6.48,32.54,32.54,0,0,0-4.52-7,15,15,0,0,0-5.17-4.61A11.71,11.71,0,0,0,1263,228a9,9,0,0,0-3.43.65h0Zm5.48,11.52h0Zm-0.86.19h0Zm-0.11,0h0l-0.44.18,0.43-.19h0Zm0.6,0.16,0.07,0-0.08,0h0Z"/><path id="meh-right-moustache1" class="cls-1" d="M1305.22,218.32a11.11,11.11,0,0,0-3.84,1.07,13.1,13.1,0,0,0-2,1.18c-3.09,2.16-5,5.49-6.41,8.91a41.83,41.83,0,0,0-2.5,10.11,37,37,0,0,0-.16,10.29A49.27,49.27,0,0,0,1293,260s0,0,0,0q0.25-2.15.54-4.31l0,0.18,0-.22v0a48.23,48.23,0,0,1,3.1-11.18,60.46,60.46,0,0,1,6-11.08,23.58,23.58,0,0,1,2.19-2.29l0.42-.24,0.73,0.47a53.06,53.06,0,0,1,6.27,7.26c2.38,3,4.83,5.89,7.38,8.74a53.27,53.27,0,0,0,8.86,7.8c1.35,1,2.74,1.87,4.12,2.79a17.77,17.77,0,0,0,5.38,2.33,10.18,10.18,0,0,0,5,.23,9.24,9.24,0,0,0,4.48-2.89,26.39,26.39,0,0,0,4.89-8.82c1.27-3.52,2.39-7.11,3.38-10.73,0,0,0,0,0,0-1.36,1.76-2.77,3.49-4.16,5.23l-2.77,3.44a32.53,32.53,0,0,1-5.1,5,14.3,14.3,0,0,1-1.43.88l-0.61-.19a20.44,20.44,0,0,1-1.8-1c-1.27-1.14-2.38-2.43-3.56-3.67-1.46-1.54-2.87-3.12-4.21-4.78-1.87-2.52-3.57-5.17-5.41-7.72a111.74,111.74,0,0,0-7-8.94,41.13,41.13,0,0,0-3.29-3.41,20.49,20.49,0,0,0-4.88-3.2,12.64,12.64,0,0,0-5.29-1.39,7.88,7.88,0,0,0-1,.07h0Zm0.21,12.46,0.41,0.18-0.42-.18h0ZM1343.36,252l-0.2.16,0.2-.16h0Zm-0.53.4-0.2.09,0.2-.09h0Zm-1.19.34h0Zm-48.08,2.91v0h0Z"/><path id="meh-mouth1" class="cls-1" d="M1313.39,292.29l-0.51.25c-2.79,1-5.69,1.79-8.52,2.7-1.64.52-3.28,1-4.91,1.59s-3.23,1-4.81,1.63l-5.43,2.1c-2,.79-4,1.83-6,2.76-1.33.63-2.59,1.33-3.87,2.05-2.14,1.2-4.28,2.41-6.39,3.68a4,4,0,1,0,4,6.91c2.86-1.73,5.79-3.35,8.71-5,0.91-.52,1.91-0.91,2.86-1.36l3.32-1.56c1.77-.7,3.53-1.45,5.33-2.05,2.07-.69,4.13-1.4,6.21-2.07s4.39-1.43,6.59-2.08a48.55,48.55,0,0,0,7.39-2.65,3.86,3.86,0,0,0,1.84-2.39,4,4,0,0,0-2.79-4.92,3.73,3.73,0,0,0-1-.14,4.78,4.78,0,0,0-2.08.54h0Z"/><path id="green-outline1" class="cls-2" d="M1241.07,67.1H1137.35a4,4,0,0,0-4,4V412.9a4,4,0,0,0,4,4h263.3a4,4,0,0,0,4-4V71.1a4,4,0,0,0-4-4H1241.07Zm55.85,8h99.73V408.9h-255.3V75.1h155.58Z"/></svg>