<svg id="Background" xmlns="http://www.w3.org/2000/svg" xmlns:xlink="http://www.w3.org/1999/xlink" viewBox="0 0 1536 700"><defs><style>.cls-1{fill:#98c12a;}.cls-2{fill:#0a0e60;}.cls-3{fill:#6edaf4;}.cls-4{fill:#bd8d46;}.cls-5{fill:#ffeb79;}</style></defs><title>Meh2</title> <path id="meh-greenoutline2" class="cls-1" d="M1075.52,189.13a6.56,6.56,0,0,0-6.5,6.5V477.75a6.56,6.56,0,0,0,6.5,6.5h181.8a6.56,6.56,0,0,0,6.5-6.5V195.63a6.56,6.56,0,0,0-6.5-6.5h-181.8Zm175.3,13V471.25H1082V202.13h168.8Z"/><path class="cls-1" d="M1069,477.75a6.5,6.5,0,1,0,6.5-6.5,6.56,6.56,0,0,0-6.5,6.5h0Z"/><path class="cls-1" d="M1069,477.75a6.5,6.5,0,1,0,6.5-6.5,6.56,6.56,0,0,0-6.5,6.5h0Z"/><g id="meh-eyes2"><path class="cls-2" d="M1203.11,265.61a99.35,99.35,0,0,0-14.19,2,0,0,0,0,0,0,0,50.56,50.56,0,0,0,18.48,3.48c5.82-.1,11.57-1.62,17.09-3.36,0,0,0,0,0,0q-3.47-.67-7-1.13l0.27,0a85.75,85.75,0,0,0-12.17-1.09q-1.26,0-2.52.07h0Z"/><path class="cls-2" d="M1115.24,270.71a0,0,0,0,0,0,0c6.64,2.43,13.7,4.31,20.81,4.31a58,58,0,0,0,8.73-.85c3-.46,5.89-1.11,8.79-1.85a0,0,0,0,0,0,0A95,95,0,0,0,1136.1,269q-2.22-.17-4.45-0.17a80.09,80.09,0,0,0-16.41,1.88h0Z"/></g><g id="meh-moustache2"><path class="cls-2" d="M1157.37,338.08a15.51,15.51,0,0,0-6.32,1.81,18.51,18.51,0,0,0-4.3,3.18,25,25,0,0,0-3.57,4.34c-1.19,1.71-2.27,3.52-3.38,5.28-2.92,4.64-5.81,9.27-9.12,13.65a45.17,45.17,0,0,1-6.31,6.75,33.18,33.18,0,0,1-5.91,3.42,40.44,40.44,0,0,1-7.79,2.27,9.47,9.47,0,0,1-1.58,0,7.08,7.08,0,0,1-1-.27,4.77,4.77,0,0,1-.62-0.36,14.18,14.18,0,0,1-1.38-1.43,37.59,37.59,0,0,1-3-5.6,0,0,0,0,0,0,0c0,1.39.13,2.78,0.29,4.16a14.6,14.6,0,0,0,1.18,4.37,7.11,7.11,0,0,0,2.5,2.77,9.73,9.73,0,0,0,4.75,1.45,33.89,33.89,0,0,0,10.85-.73,28.34,28.34,0,0,0,10.83-5,58.36,58.36,0,0,0,8.63-7.8,50.44,50.44,0,0,0,6.3-8.43q1.35-2.31,2.63-4.68a75.53,75.53,0,0,1,3.88-7,19,19,0,0,1,1.88-1.94,15.55,15.55,0,0,1,1.49-.89,17.33,17.33,0,0,1,2.27-.53,27.56,27.56,0,0,1,5.21.06,16.26,16.26,0,0,1,2.63.69,19,19,0,0,1,2.17,1.32,16.2,16.2,0,0,1,2.25,2.36c1.29,1.8,2.46,3.69,3.69,5.54,0,0,0,0,0,0-0.16-1.49-.32-3-0.54-4.48a21.18,21.18,0,0,0-1.13-4.73,14.73,14.73,0,0,0-2.54-4c-2.27-2.77-6.09-4.06-9.43-4.93a20.49,20.49,0,0,0-5.1-.59h-0.42ZM1107.23,378l0.07,0.05-0.07-.05h0Zm1,0.59,0.23,0.1-0.23-.1h0Z"/><path class="cls-2" d="M1199.15,337a22.41,22.41,0,0,0-6.27,2.48,31.65,31.65,0,0,0-5.38,3.88,25.94,25.94,0,0,0-4.05,4.38,45.75,45.75,0,0,0-3.84,6.74,0,0,0,0,0,0,0c1.11-.76,2.22-1.51,3.32-2.29a39.48,39.48,0,0,1,7-3.83,41.94,41.94,0,0,1,8.76-2.6c0.45,0,.89-0.07,1.35-0.08,0.29,0.06.58,0.14,0.87,0.23s0.56,0.33.84,0.52,0.29,0.28.42,0.43a22.06,22.06,0,0,1,1.82,3.21c1.08,2.67,2.15,5.34,3.37,7.95a51.42,51.42,0,0,0,4.66,8.78,24.43,24.43,0,0,0,14.2,9.19,31.1,31.1,0,0,0,8,1,7.77,7.77,0,0,0,4.95-2.41s0,0,0,0a15.26,15.26,0,0,1-2.1.53,11.11,11.11,0,0,1-1.77,0,8.39,8.39,0,0,1-1.36-.41,42.22,42.22,0,0,1-8.38-4.85,28.2,28.2,0,0,1-4-3.94,25.58,25.58,0,0,1-2.22-3.89c-1-2.57-1.69-5.25-2.54-7.86-0.73-2.25-1.65-4.45-2.58-6.63l0,0.06a25.09,25.09,0,0,0-2.28-4.39,15.08,15.08,0,0,0-5.36-5,11.54,11.54,0,0,0-5.35-1.31,11.3,11.3,0,0,0-2.14.2h0Zm34.52,37.52,0.23,0.1-0.23-.1h0Z"/></g><path id="meh-mouth2" class="cls-2" d="M1172.63,377s0,0,0,0a14.29,14.29,0,0,0,4.13,1.08,13.71,13.71,0,0,0,4.07-.4s0,0,0,0a16.4,16.4,0,0,0-4.07-1,9.13,9.13,0,0,0-.93,0,16.37,16.37,0,0,0-3.2.38h0Z"/><path id="meh-earthbody" class="cls-3" d="M371.48,35.4l-10,0c-2.74,0-5.5.29-8.23,0.44-14.45.79-28.9,3.2-42.43,8.46A145.25,145.25,0,0,0,286.4,56.66l-9.51,5.94c-4.42,2.76-8.94,5.36-13.43,8s-9.19,5.12-13.63,8c-2.42,1.55-5,3-7.34,4.7l-7.58,5.68a312.14,312.14,0,0,0-27.06,22.88c-7.28,6.88-14.5,13.72-20.78,21.56-4,5-7.94,10.15-12.13,15-2.78,3.24-5.52,6.44-8.09,9.85l-6,7.9c-1.64,2.17-3,4.6-4.47,6.89s-2.58,4.39-3.81,6.63a172.17,172.17,0,0,0-11.33,24.84c-2.45,6.85-4.14,13.93-6.23,20.89-1.56,5.18-3.45,10.25-4.93,15.45a141.12,141.12,0,0,0-3.55,15.33c-2.08,12.32-4.14,24.79-4.18,37.32a185.4,185.4,0,0,0,.79,19.7,86.19,86.19,0,0,0,2.73,15.1,114.14,114.14,0,0,0,5.78,14.89l3.6,8c1.13,2.52,2.57,4.92,3.86,7.36s2.63,4.65,4,7c5.25,9.11,12,17.07,19.07,24.82,3.34,3.67,6.82,7.21,10.3,10.74,2.89,2.94,5.78,5.88,8.76,8.73a107.37,107.37,0,0,0,22,16.21,176.57,176.57,0,0,0,17.75,8.12l4.15,1.75c4.18,1.35,8.26,2.92,12.32,4.59l-0.67-.29c4.55,1.84,9.3,3.17,13.93,4.79a70.14,70.14,0,0,0,11.09,2.73c2.58,0.21,5.16.28,7.75,0.32h2c1.19,0,2.38,0,3.57.07,4,0.26,8.06.82,12.06,1.46,3.78,0.61,7.36,2.09,11,3.29a79.87,79.87,0,0,0,8.53,2.34c1.59,0.14,3.19.27,4.78,0.44,3.09,0.34,6.17.67,9.27,0.84,6,0.34,12,.31,18,0.31h15.2c5,0,10,.75,15,1,2.5,0.11,5,.17,7.49.24s4.75,0.42,7.12.64c4.91,0.47,9.86.56,14.78,0.59,10.15,0.06,20.3,0,30.45,0h15a116.27,116.27,0,0,0,12.71-.77c2-.27,4-0.54,5.93-0.78,6.94-1.13,13.77-2.76,20.61-4.41,3-1.81,6-3.67,8.91-5.59,2-1.32,4.09-2.52,6.17-3.73a29.88,29.88,0,0,0,2.52-1.66c3.57-2.94,7-6.06,10.8-8.68,3.07-2.1,6.1-4.26,9.14-6.41,3.78-2.68,7.75-5.05,11.64-7.55q0.61-.69,1.19-1.39c3.3-4.41,6.54-8.86,10.15-13,1.53-1.76,3.26-3.35,4.84-5.07s3.05-3.16,4.65-4.67l3-2.85c1.7-2.32,3.52-4.57,5.36-6.73,2.8-3.3,5.82-6.42,8.64-9.7a55.05,55.05,0,0,0,4-7.75c1-2.43,2.1-4.86,3.23-7.25a68.64,68.64,0,0,1,3.68-6.39c1.25-2,2.54-4.06,3.64-6.2,0.39-.77.76-1.54,1.12-2.33,0.7-2.12,1.25-4.3,2-6.42,1.3-3.88,2.88-7.65,4.5-11.41,0.79-1.91,1.58-3.82,2.39-5.71,2.25-5.65,4.35-11.48,7.79-16.51a25.21,25.21,0,0,1,5-6.1c0.46-3.51.84-7,1.2-10.55,0.51-5,.57-10.09.66-15.1,0.09-5.32.13-10.64,0.13-16s-0.11-10.76-.5-16.15c-0.22-3.07-.52-6.1-0.87-9.15a84.86,84.86,0,0,0-2.3-13.07c-0.53-1.88-1.2-3.71-1.84-5.56a197.06,197.06,0,0,0-8.25-19.12c-2.27-4.82-4.42-9.69-6.85-14.43A134,134,0,0,0,581.34,168c-3.3-5-6.4-10.12-9.91-15a107.75,107.75,0,0,0-9.64-11.62c-1.23-1.27-2.43-2.56-3.64-3.84-1.65-1.75-3.28-3.55-5.05-5.18-2.28-2.09-4.58-4.12-6.95-6.12-0.82-.68-1.64-1.36-2.46-2-1.66-3.3-3.24-6.64-4.82-10-1.33-2.84-3-5.6-4.56-8.3l-0.3-.51c-2.84-2-5.57-4.12-8.31-6.27s-5.67-4.66-8.5-7l3.84,3c-2.37-1.84-4.68-3.7-7-5.58-0.92-.65-1.85-1.29-2.78-1.93-1.83-1.26-3.59-2.62-5.53-3.71-0.94-.53-1.9-1-2.85-1.55a41.54,41.54,0,0,1-9.6-7.42q-0.77-.79-1.53-1.59a24.36,24.36,0,0,1-2.39-1.23,25.1,25.1,0,0,1-8.12-7.64q-6.43-3.41-12.77-7a160.53,160.53,0,0,0-14.66-7.19c-6.78-2.95-13.55-5.82-20.77-7.49-2.62-.61-5.24-1.26-7.89-1.77-7.07-1.35-14.17-2.6-21.32-3.46l-9.53-1.15c-2.67-.32-5.4-0.37-8.09-0.54-4.63-.29-9.3-0.48-13.94-0.48h-0.81ZM454,94l1.33,0.73h0L454,94h0Z"/><path class="cls-4" d="M360.17,204.14c-5.32,1.19-10.81,2.46-15.3,5.71a54.78,54.78,0,0,0-6.28,5.19,49.15,49.15,0,0,0-5.19,6.46,56.56,56.56,0,0,0-3.46,5.73,54,54,0,0,0-4.61,11.18,56.43,56.43,0,0,0-1.66,10c-0.27,2.73-.47,5.46-0.51,8.21a38.6,38.6,0,0,0,1,8.27,34.79,34.79,0,0,0,2.79,7.25c1.09,2.38,3.14,4.53,4.71,6.52a32.53,32.53,0,0,0,3.92,3.91,105.83,105.83,0,0,0,8.76,6.91,59.94,59.94,0,0,0,5.1,3.4,65.56,65.56,0,0,0,7.73,3.41,38.45,38.45,0,0,0,5.71,1.81c6,1.41,12.15,1.63,18.25,2.17a38,38,0,0,1,4.59,1.13c2.54,1.19,5,2.46,7.59,3.61,1.71,0.77,3.34,1.69,5,2.53,1.09,0.55,2.16,1.11,3.21,1.72,0.33,0.58.64,1.18,0.93,1.78a27.89,27.89,0,0,1,.81,3,86.52,86.52,0,0,1-.25,13.6c-0.21,2.44-.64,4.85-0.88,7.29-0.27,2.71-.49,5.42-0.63,8.14s-0.25,5.53-.25,8.29a23.93,23.93,0,0,0,1.3,7.77,28.06,28.06,0,0,0,5.63,9.78c3.38,3.92,8.25,5.93,13,7.61a33.08,33.08,0,0,0,3.75,1.11,40,40,0,0,0,6.81.9,22.6,22.6,0,0,0,3.16-.24,69.24,69.24,0,0,0,12.89-2.2c15.05-4.44,23.38-20.16,26.48-34.54a168.2,168.2,0,0,0,2.87-19.39,200.31,200.31,0,0,0,.25-31.07q-0.51-8.43-.64-16.86c-0.09-5.27,0-10.53-.44-15.79a61.52,61.52,0,0,0-2-11.61,42.61,42.61,0,0,0-2-5.51l0,0a25.89,25.89,0,0,0,2.62-5.67,15.56,15.56,0,0,0,.71-5.56c0-3.68-.91-5.48-2.33-8.75a15.73,15.73,0,0,0-4.52-5.73,42.54,42.54,0,0,0-6.63-4.61,41.48,41.48,0,0,0-7.26-3,63.12,63.12,0,0,0-8.11-1.91,60.81,60.81,0,0,0-11.19-.87l-4.11.07c-5,.1-9.91.45-14.86,0.76l-0.39-.2a19.17,19.17,0,0,0-5-2,58.34,58.34,0,0,0-6.94-.84c-1.37-.07-2.75-0.15-4.13-0.18-2.66-.07-5.33-0.12-8-0.14q-8.32-.06-16.64-0.06h-0.07a70.32,70.32,0,0,0-15.37,1.53h0Z"/><path class="cls-4" d="M219.23,114.62a33.46,33.46,0,0,0-5.11.75,21.82,21.82,0,0,0-3.68,1.37,21.82,21.82,0,0,0-3.32,1,55.67,55.67,0,0,0-8.26,3.89,38,38,0,0,0-7,5.55,70,70,0,0,0-6,7.4c-1.52,2-3,4.06-4.42,6.1-2.81,3.4-5.75,6.7-8.49,10.16a87.54,87.54,0,0,0-6.52,8.86q-0.88.82-1.71,1.68a93.66,93.66,0,0,0-6.7,8.43c-0.83,1.1-1.62,2.22-2.42,3.34-1.54,2.16-2.85,4.5-4.19,6.79-1.22,2.09-2.49,4.14-3.6,6.29-2.28,4.44-4.37,9-6.76,13.35s-5.22,8.72-7.22,13.38q-2.35,5.5-4.66,11a58.13,58.13,0,0,0-2.61,7c-0.66,2.45-1.42,4.87-2.18,7.29s-1.19,4.7-1.68,7c-1.07,5.14-2.11,10.31-2.92,15.49a142.33,142.33,0,0,0-1.58,19.67c-0.09,5.38-.11,10.77-0.11,16.16a141.69,141.69,0,0,0,.38,15.13c1.37,12.81,4.63,25.92,11.74,36.82a88.23,88.23,0,0,0,6.82,9,63.52,63.52,0,0,0,5.42,5.86c1.88,1.71,3.9,3.22,5.91,4.77a41.32,41.32,0,0,0,5.9,3.95,61.07,61.07,0,0,0,14.67,5.39,93.6,93.6,0,0,0,11.94,1.66c2.67,0.28,5.39.34,8.07,0.42a46.1,46.1,0,0,0,13.67-1.79,42.76,42.76,0,0,0,7.57-3.08,13.61,13.61,0,0,0,1.95-1.32,66.53,66.53,0,0,0,5.28-4.25,49.89,49.89,0,0,0,7-8.68c0.75-1.08,1.46-2.19,2.1-3.34a78.59,78.59,0,0,0,3.59-7.82c0.32-.77.63-1.54,0.92-2.32,0.13-.34.22-0.7,0.33-1.05a23.53,23.53,0,0,0,1-6.23,28.24,28.24,0,0,0-3.09-11.67c-2-3.84-5-6-8.31-8.58a18.2,18.2,0,0,0-2.87-1.55,39.71,39.71,0,0,0-7.42-2.92c-3.11-.82-6.21-1.59-9.35-2.28-1.24-.28-2.5-0.48-3.74-0.74-0.38-3.79-.82-7.57-1.19-11.35-0.52-5.23-.82-10.45-1.11-15.7a130.93,130.93,0,0,1,.15-20.4l0.13-.78q0.64-1.29,1.27-2.59a185.16,185.16,0,0,0,7.8-18.69c1.73-4.93,3.25-9.92,4.49-15,1.18-4.8,2.16-9.64,3.24-14.46,1.43-1.68,2.85-3.36,4.23-5.07l5.38-6.69a80.49,80.49,0,0,0,7-10c0.88-1.52,1.68-3.09,2.5-4.65A51.94,51.94,0,0,0,237,170.09c0.28-1.85.52-3.7,0.74-5.56a12,12,0,0,0,.11-2.94c-0.44-3.71-.53-5.39-2.37-8.7a19.88,19.88,0,0,0-2.94-3.95c0.37-.46.74-0.93,1.1-1.4l1,0.14a15.94,15.94,0,0,0,8.08-2.18,16,16,0,0,0,5.74-21.89l-2.5-3.23a16,16,0,0,0-7.06-4.12c-3.8-.54-7.6-1.11-11.42-1.52a47.8,47.8,0,0,0-5.07-.31,25.85,25.85,0,0,0-3.2.18h0ZM150.17,282.45q0.22,2.11.49,4.23-0.28,1-.54,2c0-2.06,0-4.12.05-6.18h0Z"/><path class="cls-4" d="M401.49,38.85a57.09,57.09,0,0,0-8.61,1.2,41.93,41.93,0,0,0-8.75,3.34c-3.92,1.82-7.36,4.72-10.6,7.52s-5.41,6.41-7.8,9.78a82.79,82.79,0,0,0-8.32,13.81,80.86,80.86,0,0,0-6,18.41,124.07,124.07,0,0,0-2.16,19.59c-0.08,2.76-.14,5.52-0.16,8.29a31.09,31.09,0,0,0,4.4,15.88,30.08,30.08,0,0,0,11.55,10.73c5.29,3,11.5,3.45,17.45,3.73,2.57,0.12,5.14.18,7.71,0.17l1.28,0,1.55,0.65a17.3,17.3,0,0,0,3.58,1.18,34.14,34.14,0,0,0,8.29.53l2.77-.15,4-.22,0,0c0.29,0.59.59,1.18,0.91,1.77,0.94,1.73,2,3.42,3.13,5.06a44.6,44.6,0,0,0,7.36,8.61c0.62,0.92,1.25,1.82,1.9,2.72a96.29,96.29,0,0,0,7.35,8.88c0.87,0.93,1.75,1.85,2.62,2.77a57.87,57.87,0,0,0,9.82,8,65.33,65.33,0,0,0,12.9,6.5c4.74,1.83,10.07,2.21,15.05,2.83,2.47,0.3,5,.34,7.49.4,2.9,0.07,5.8.11,8.7,0.08,6.9-.07,13.56-1.8,20.05-3.93a86.71,86.71,0,0,1,10.81-2.87c3.2-.3,6.41-0.42,9.64-0.47l3.25,0a49.53,49.53,0,0,0,9.52-1.27c1.26-.26,2.51-0.54,3.78-0.77l1.4-.13,1.81-.12a39,39,0,0,0,5.68-.71,24.64,24.64,0,0,0,6.11-2.48,22.2,22.2,0,0,0,8-8.31,21.67,21.67,0,0,0,2.68-7.32,27.3,27.3,0,0,0,.43-8.39,55.39,55.39,0,0,0-1.79-9.53,79.1,79.1,0,0,0-3.24-8.32,42.72,42.72,0,0,0-8.14-11.81,49.88,49.88,0,0,0-4.2-3.93c-0.21-1.23-.45-2.45-0.7-3.67,0-.14-0.05-0.27-0.09-0.41a94.1,94.1,0,0,1-9.35-10.21,75.55,75.55,0,0,0-8.4-9.38l-1.13-.79c-3.21-2.2-6.26-4.57-9.32-7-2.88-2.27-5.67-4.66-8.5-7l3.84,3c-2.36-1.84-4.67-3.7-7-5.58-0.92-.65-1.85-1.29-2.78-1.93-1.83-1.26-3.59-2.62-5.53-3.71-0.94-.53-1.9-1-2.85-1.55a41.54,41.54,0,0,1-9.6-7.42l-1.53-1.59a24.43,24.43,0,0,1-2.4-1.23,25.17,25.17,0,0,1-9.08-9.17q-2.19-.78-4.4-1.48l-1.32-1.05c-2.16-1.7-4.31-3.4-6.5-5.05a44.76,44.76,0,0,0-12.14-6.48c-1.21-.44-2.42-0.88-3.64-1.29a51.7,51.7,0,0,0-10.89-2.27A34.67,34.67,0,0,0,433,41.87a74.78,74.78,0,0,0-7.68-1.62,136.57,136.57,0,0,0-19.56-1.46l-1.6,0c-0.89,0-1.77,0-2.66.07h0Zm95.19,122.26q-0.33-1-.69-2.08,2.55,1,5.12,1.95c1.61,0.59,3.23,1.1,4.88,1.54,0.13,0.65.29,1.3,0.48,1.93-3.12.88-6.21,1.91-9.33,2.83a14.56,14.56,0,0,0-.47-6.16h0Z"/><path class="cls-4" d="M497.37,129.91c-3.89,1.37-7.74,2.84-11.51,4.52s-6.79,4.18-10,6.72a40.7,40.7,0,0,0-6.6,6.72l-2.5,3.24a16,16,0,0,0,13.82,24.07l4.25-.57a16,16,0,0,0,7.06-4.11,42.45,42.45,0,0,1,5.94-6.15,27.52,27.52,0,0,1,3-1.74c1.66-.64,3.33-1.24,5-1.83l3.82-1.61a16,16,0,0,0,0-27.63,16.93,16.93,0,0,0-8.29-2.26,12.25,12.25,0,0,0-4,.65h0Z"/><path class="cls-4" d="M480.44,128.74a16.11,16.11,0,0,0-9.56,7.36c-2,3.44-3,8.46-1.61,12.33,0.91,2.47,2,4.89,3,7.32,0.5,1.16,1.07,2.29,1.67,3.4a38.7,38.7,0,0,0,4.29,5.88,28.68,28.68,0,0,0,5.64,4.82,21.64,21.64,0,0,0,3.46,2,43.76,43.76,0,0,0,7.07,2.74,36.06,36.06,0,0,0,8.19,1c10.13,0.33,21.6-6.24,23.08-17a55.3,55.3,0,0,0,.65-7.92v-4.14A15.94,15.94,0,0,0,498.43,136a16,16,0,0,0-18-7.22h0Z"/><path class="cls-4" d="M556.15,319.43a26,26,0,0,0-5,1.27,83,83,0,0,0-7.8,3.35,61.81,61.81,0,0,0-7.14,3.88,36.87,36.87,0,0,0-8.76,7.45,72.82,72.82,0,0,0-6,8.47,51,51,0,0,0-5.85,14.89c-0.16.69-.27,1.39-0.4,2.08-0.64,3.65-1.15,7.7.32,11.25,0.69,1.65,1.15,2.79,1.7,3.83-0.43,1-.82,2.08-1.18,3.12a15.17,15.17,0,0,0,.79,10.71,36.08,36.08,0,0,0-2,6.55,35.67,35.67,0,0,0-.77,7.45,23.8,23.8,0,0,0,1.42,8,24,24,0,0,0,5.45,8.94,17,17,0,0,0,4.49,3.3c2.22-1.42,4.47-2.81,6.69-4.23q0.61-.69,1.19-1.39c3.3-4.41,6.54-8.86,10.15-13,1.53-1.76,3.26-3.35,4.84-5.07s3.05-3.16,4.65-4.67l3-2.85c1.7-2.32,3.52-4.57,5.36-6.73,2.8-3.3,5.82-6.42,8.64-9.7a55.26,55.26,0,0,0,4-7.75c1-2.43,2.1-4.86,3.23-7.25a68.64,68.64,0,0,1,3.68-6.39c1.25-2,2.54-4.06,3.64-6.2,0.39-.77.76-1.54,1.12-2.33,0.7-2.12,1.25-4.3,2-6.42,0.82-2.44,1.75-4.85,2.73-7.23a16.42,16.42,0,0,0-1.46-1.16,16,16,0,0,0-1.39-3.1,15.72,15.72,0,0,0-9.56-7.35,107.56,107.56,0,0,0-14-2.39c-0.43,0-.85-0.05-1.27-0.05a47.44,47.44,0,0,0-6.45.73h0Z"/><path class="cls-4" d="M234.1,417.14a15.21,15.21,0,0,0-4.89,2.07c-1.87,1.05-5.21,4.08-6.09,6.13-1.35,3.15-2.38,5-2.38,8.54q0,0.39,0,.76l0.11,0a146.83,146.83,0,0,1,16.52,5.86l-0.67-.29c4.55,1.84,9.3,3.17,13.93,4.79a69.65,69.65,0,0,0,11.1,2.73c2.57,0.21,5.16.28,7.75,0.32h2c1.19,0,2.38,0,3.57.07,4,0.26,8.06.82,12.06,1.46,3.78,0.61,7.36,2.09,11,3.29a79.87,79.87,0,0,0,8.53,2.34c1.59,0.14,3.19.27,4.78,0.44,3.09,0.34,6.17.67,9.27,0.84,6,0.34,12,.31,18,0.31h15.2c5,0,10,.75,15,1,2.5,0.11,5,.17,7.49.24s4.75,0.42,7.12.64c4.91,0.47,9.86.56,14.78,0.59,10.15,0.06,20.3,0,30.45,0h15a116.27,116.27,0,0,0,12.71-.77q3-.42,5.93-0.79c2.31-.38,4.61-0.81,6.91-1.28a15.62,15.62,0,0,0,.15-2.15l-0.57-4.25a16,16,0,0,0-4.11-7.06c-2.36-2.93-5.95-4.11-9.31-5.38a21.82,21.82,0,0,0-4.16-1.06l-4-.64c-4.11-.64-8.22-1.16-12.36-1.61-5.18-.57-10.48-0.59-15.68-0.65-11-.12-22.08-0.11-33.12-0.12H339c-5.54,0-11.13.22-16.67-.1l-0.83-.07c-9.92-1.47-19.77-3.37-29.59-5.37-5.15-1.05-10.28-2.18-15.45-3.16-2.62-.49-5.25-0.88-7.89-1.25a56.92,56.92,0,0,1-11.21-3.21,72.19,72.19,0,0,0-7.13-2.46,63.19,63.19,0,0,0-7.38-1.2c-0.53-.07-1.06-0.13-1.59-0.18s-0.93-.06-1.39-0.06a38.33,38.33,0,0,0-5.73.64h0Z"/><g id="meh-eartheyes"><path class="cls-2" d="M450.71,157.59a83.45,83.45,0,0,0-23.41,5.54A192.65,192.65,0,0,0,407.52,173c-4.25,2.33-8.48,4.66-12.68,7.09,0,0,0,0,0,0,5-.61,10.09-1.25,15.1-2.09q4.66-.77,9.3-1.66c5-.94,9.91-2.09,14.93-2.82a138.15,138.15,0,0,1,34.41-.35,94.11,94.11,0,0,1,21.47,5.26,130,130,0,0,1,19.38,11.35c2.95,2,5.89,4,8.94,5.83a198.9,198.9,0,0,0,18.34,9.91s0,0,0,0c-2-1.88-4-3.82-6-5.74-1.82-1.75-3.7-3.45-5.48-5.24s-3.79-3.64-5.57-5.56q-3.11-3.33-6.25-6.63a102.72,102.72,0,0,0-16.9-14.55,59.74,59.74,0,0,0-10.32-5.18A69.88,69.88,0,0,0,475,159.05a73.45,73.45,0,0,0-16.54-1.84c-2.58,0-5.16.13-7.73,0.37h0Z"/><path class="cls-2" d="M294.19,166.63a40.91,40.91,0,0,0-11.28,3.12c-6.19,2.64-11.57,7.08-16.17,11.95a62.28,62.28,0,0,0-11.13,15.77,60.39,60.39,0,0,0-2.92,7.46s0,0,0,0a69.91,69.91,0,0,1,10.54-10.64,95.41,95.41,0,0,1,19-11.54,49.17,49.17,0,0,1,10.16-2.69,94.62,94.62,0,0,1,13.85-.17c4.91,0.19,9.84.35,14.72,0.93,6.15,0.89,12.21,2.31,18.34,3.32,4,0.66,8,1.47,12,2.18a0,0,0,0,0,0,0A150.88,150.88,0,0,0,337.27,177c-1.36-.78-2.71-1.55-4.08-2.32a69.18,69.18,0,0,0-9.22-4.23,53.32,53.32,0,0,0-9.54-2.55,101.12,101.12,0,0,0-11-1.42c-1.25-.09-2.5-0.13-3.76-0.13a44.53,44.53,0,0,0-5.48.33h0Z"/></g><path id="meh-earthsmile" class="cls-2" d="M478.4,248.41q-4.35,3.54-8.69,7.1c-2.31,1.67-4.64,3.32-7,5-1.93,1.38-4,2.64-5.94,3.94-2.83,1.86-5.66,3.73-8.54,5.52-3.42,2.13-6.84,4.25-10.37,6.2-3.36,1.85-6.85,3.45-10.38,5q-9.74,4-19.84,7.08c-7,2.11-14.09,3.88-21.17,5.68s-14.28,3.46-21.5,4.82-14.54,2.87-21.89,3.93c-8.24,1-16.51,1.59-24.8,2.14-4.18.28-8.36,0.44-12.54,0.57-3,.1-6.07.25-9.09,0.21-5.15-.06-10.31,0-15.46,0h-8.06a0,0,0,0,0,0,0c7.06,2.54,14.2,4.77,21.38,6.91a141.14,141.14,0,0,0,15.56,3.48,166,166,0,0,0,24.75,2.48c16.41,0.42,32.64-3.32,48.3-7.9,7.64-2.23,15.23-4.65,22.79-7.16,7.79-2.59,15.41-5.63,22.9-9a148.93,148.93,0,0,0,13.56-6.86c4.57-2.63,8.88-5.7,13.22-8.68,3.6-2.47,7.14-5,10.71-7.54,2.53-1.78,5-3.6,7.56-5.41l-1.74,5.89c-1,3.26-1.88,6.54-2.93,9.78-3.94,12.2-7.72,24.45-12.63,36.3a110.47,110.47,0,0,1-12.2,22.25,58.64,58.64,0,0,1-8.71,8.67A56.64,56.64,0,0,1,424.87,355a92.9,92.9,0,0,1-21.4,5.74,124.24,124.24,0,0,1-14.61.94,108.43,108.43,0,0,1-14.29-1,147.19,147.19,0,0,1-23.19-5.21c-3.93-1.24-7.79-2.71-11.64-4.2-3.59-1.38-7.17-2.77-10.72-4.25-6.81-2.89-13.44-6.08-20-9.53-3.48-1.84-7-3.66-10.45-5.53,0,0,0,0,0,0,3,2.48,6,4.92,9.05,7.34a201.5,201.5,0,0,0,18.54,13.19,197.36,197.36,0,0,0,20.63,11.38,107.74,107.74,0,0,0,22.6,7.61,97.94,97.94,0,0,0,24.29,2.09,112.06,112.06,0,0,0,24.06-3.3,88.16,88.16,0,0,0,10.39-3.4,67,67,0,0,0,11.06-5.45,64.57,64.57,0,0,0,8.86-6.82,63.53,63.53,0,0,0,8-9,100.55,100.55,0,0,0,10.22-17.22c3.23-6.7,6-13.61,8.61-20.59,2.32-6.32,4.35-12.75,6.45-19.15,0.54-1.64,1.16-3.27,1.61-4.94l2.17-7.87,2.28-8.27c0.64-2.32,1.45-4.59,2.06-6.92a18,18,0,0,0,.59-5.84c-0.08-.57-0.16-1.14-0.23-1.7a18.34,18.34,0,0,0-1-2.21,17,17,0,0,0-2-2.53,5.74,5.74,0,0,0-4.23-1.75,6.41,6.41,0,0,0-4.23,1.75h0Z"/><path class="cls-5" d="M632.59,71.44l0,0,0,0h0Z"/><g id="meh-stars"><path class="cls-5" d="M71.62,71.3a24.61,24.61,0,0,0-2.71,1,8,8,0,0,0-1.15.76c-0.42.31-.83,0.64-1.23,1q-1.28.94-2.61,1.84c-0.71-.5-1.43-1-2.16-1.43A23.36,23.36,0,0,0,58.9,72.9a10.68,10.68,0,0,0-1.46-.54,9.37,9.37,0,0,0-1.54-.24l-0.13,0a2.83,2.83,0,0,0-2,.27,2.6,2.6,0,0,0-1.3,2.26,12.83,12.83,0,0,0,.38,2.84,18.63,18.63,0,0,0,1,2.43l0.71,1.75q-3,1.68-6,3.32l-3.1,1.7c-1,.57-2.17.91-3.16,1.57a5.13,5.13,0,0,0-1.56,1.55,2.84,2.84,0,0,0-.5,1.54,5.86,5.86,0,0,0,.18,1.3,2.56,2.56,0,0,0,2.46,1.87c6,0,11.91.24,17.86,0.49,0.63,1.27,1.25,2.55,1.89,3.81,0.14,0.28.28,0.57,0.41,0.87-0.61,3-1.16,6-1.48,9,0,0,0,0,0,0,0.75-2.25,1.63-4.46,2.5-6.68q0.59,1.3,1.2,2.59c1,2.42,2,4.82,3,7.23,0,0,0,0,0,0-0.45-3.14-.9-6.3-1.63-9.39q-0.51-2.15-1-4.29,0.56-1.43,1.14-2.86l1.72,0.08a28,28,0,0,0,5.92-.29,6.71,6.71,0,0,0,2.43-1,5.54,5.54,0,0,0,1-.89,3.32,3.32,0,0,0,.56-0.8A2.57,2.57,0,0,0,78.79,91a5.18,5.18,0,0,0-.66-2.81,6.88,6.88,0,0,0-1.59-1.87C75.71,85.53,74.84,84.76,74,84L72.7,82.84c0.23-.46.45-0.92,0.69-1.38a24,24,0,0,0,1.23-2.61,9,9,0,0,0,.57-2.8,7.63,7.63,0,0,0-.21-1.6C74.89,74,74.76,73.51,74.68,73a2.49,2.49,0,0,0-2.41-1.84,2,2,0,0,0-.64.1h0Zm-6,5.84,0.52,0.4L66,77.44l-0.39-.31h0ZM70,77.59c-0.12.36-.25,0.72-0.39,1.08l-0.46,1.12-0.83-.62,0.25,0.2L68.07,79q1-.7,1.9-1.42h0Zm-3,.54L67.4,78.5l-0.47-.36h0Zm-8,.67L59.16,79,59,79l-0.09-.25h0ZM63.63,82L66.16,84a2.47,2.47,0,0,0,.34.27l0.59,0.49c-0.5,1.26-1,2.52-1.37,3.82q-0.21.69-.41,1.39l-2.39-.08c-0.46-1.25-.93-2.51-1.37-3.77-0.26-.73-0.52-1.47-0.79-2.2,1-.6,1.92-1.22,2.88-1.84h0Zm-10.7,6.37c1.23-.68,2.44-1.38,3.66-2.08l0,0c0.49,1.12,1,2.22,1.54,3.32l-1.65,0-5.6-.11,2-1.13h0Zm16.91-.24,0.37-.75,1,0.86c0.6,0.54,1.22,1.09,1.79,1.68l-0.11,0a33.18,33.18,0,0,1-3.89.1q0.43-1,.89-1.91h0Z"/><path class="cls-5" d="M632.81,39.5a3.53,3.53,0,0,0-1.64.45,4.94,4.94,0,0,0-1,.8,6,6,0,0,0-.9,1.43,49.47,49.47,0,0,0-2.2,6.29l-0.18.56c-2.14.52-4.27,1-6.43,1.46-2.91.6-5.81,1.2-8.72,1.78l-5.91,1.17c-2.16.43-4.29,1-6.43,1.49a2.46,2.46,0,0,0-1.71,1.71,2.41,2.41,0,0,0-.07.39,25.16,25.16,0,0,1,1.45,2.85,4.6,4.6,0,0,0,1.07.72,9.13,9.13,0,0,0,2.63.76c0.8,0.14,1.6.36,2.4,0.55l3.73,0.89c2.82,0.66,5.63,1.3,8.44,2L622.48,66c-0.53,2.54-1,5.09-1.48,7.64-1,5.65-1.91,11.34-2.67,17,0,0,0,0,0,0,2.6-6.48,5.06-13,7.32-19.63q0.68-2,1.32-4l4.82,1.16c-2.23,4.05-4.35,8.16-6.39,12.31a0,0,0,0,0,0,0q3.6-4.56,7.14-9.16h0l2-2.54c1.16,0.26,2.33.51,3.5,0.74,1.37,0.27,2.75.45,4.12,0.7q1.24,0.23,2.48.36a8.61,8.61,0,0,0,2.37-.18,5.06,5.06,0,0,0,1.61-.68,5.44,5.44,0,0,0,1.74-1.66,2.7,2.7,0,0,0,.44-0.89A3.84,3.84,0,0,0,651,66a5,5,0,0,0-.75-2.32c-1.27-2.5-2.71-4.91-4.07-7.37l-0.38-.69c1.11-1.15,2.24-2.29,3.36-3.43,1.36-1.37,2.71-2.78,4.18-4,0.39-.27.79-0.52,1.19-0.77a15.9,15.9,0,0,0,1.64-1.2,4.12,4.12,0,0,0,1.1-1.46,2.79,2.79,0,0,0,.25-1.89,3.56,3.56,0,0,0-.34-0.84,2.4,2.4,0,0,0-2.73-1.11c-2.13.73-4.28,1.39-6.43,2.05-1.36.41-2.7,0.88-4,1.31s-2.57.81-3.86,1.19c-0.23-.37-0.46-0.75-0.71-1.12-0.37-.56-0.78-1.09-1.2-1.61a14.48,14.48,0,0,0-1.54-1.81,5.54,5.54,0,0,0-2.48-1.3,4.87,4.87,0,0,0-1.15-.13h-0.29Zm0.82,5.78,0.43,0.52,0.39,0.51c0.16,0.21.31,0.42,0.46,0.64l-2,.55c0.22-.74.43-1.49,0.69-2.21h0Zm9.59,5.5-0.63-1.15,2.28-.71,1-.32q-1.22,1.28-2.38,2.61l-0.23-.43h0Zm-9.4,12.66-4.19-1-1.1-.25c0.76-2.48,1.54-5,2.27-7.45,0.2-.65.38-1.3,0.57-2,2-.54,4-1.12,6.06-1.7l0.83,1.47c0.56,1,1.1,2,1.64,2.94l-0.25.32a76.85,76.85,0,0,0-5.16,7.75l-0.68-.16h0Zm-12.21-2.79c-2.89-.67-5.79-1.33-8.68-2-1.27-.27-2.54-0.54-3.8-0.83l-0.18,0,3.79-.76c2.73-.55,5.46-1.14,8.19-1.72,1.48-.31,2.95-0.65,4.41-1q-0.28,1-.54,1.94-0.65,2.4-1.21,4.82l-2-.45h0Zm22.81,4.81c-0.73-.12-1.45-0.26-2.17-0.38-0.93-.16-1.87-0.27-2.79-0.44l-1.32-.25c0.79-1,1.58-2,2.39-2.92q0.8-.95,1.64-1.87c1.11,2,2.23,3.91,3.26,5.91h-0.1c-0.3,0-.59,0-0.89,0h0Zm1.91-.2-0.07,0,0.07,0h0Z"/><path class="cls-5" d="M76.67,436.05a8.08,8.08,0,0,0-1.57.85c-0.55.38-1.07,0.8-1.62,1.18-1.27.88-2.5,1.81-3.72,2.77l0.48-.38c-2.09,1.62-4.22,3.2-6.35,4.76L63.62,445a18.72,18.72,0,0,0-2.4-1.83,4.83,4.83,0,0,0-2.58-.66,4,4,0,0,0-1.34.29,3.68,3.68,0,0,0-1.41.83A3.8,3.8,0,0,0,55,445a4.52,4.52,0,0,0-.2,1.21,4.84,4.84,0,0,0,.2,1.33c0.1,0.48.29,0.95,0.42,1.41,0.2,0.69.29,1.43,0.42,2.14-1.68,1.21-3.38,2.4-5.07,3.6-1.32.94-2.62,1.9-3.93,2.86a25.23,25.23,0,0,0-3.64,3.12,10.39,10.39,0,0,0-1.34,1.85c-0.42.72-.73,1.51-1.11,2.25a2.56,2.56,0,0,0,.9,3.43,10.11,10.11,0,0,0,2.44,1.44,12.24,12.24,0,0,0,2.53.47c1.81,0.28,3.61.64,5.42,0.93s3.83,0.61,5.75.87L58.68,472c0.28,2.26.49,4.54,0.78,6.8,0.7,5.59,1.58,11.16,2.61,16.7,0,0,0,0,0,0,0.44-6.71.79-13.43,1-20.14,0-.92.06-1.84,0.07-2.76l6.38,0.83q-1,3.43-1.94,6.88c-0.29,1-.48,2.13-0.71,3.18q-0.61,2.75-1.18,5.52c-1,4.7-1.92,9.42-2.59,14.17a0,0,0,0,0,0,0C64,500.57,65,498,66,495.4s2-5.31,3-8c0.89-2.44,1.71-4.9,2.66-7.31q1.18-3,2.31-6l0.32,0.05c1.64,0.26,3.29.42,4.93,0.63a16.38,16.38,0,0,0,4.1.18,10.79,10.79,0,0,0,1.12-.18,5.92,5.92,0,0,0,1.31-.53,17.81,17.81,0,0,0,1.64-1,2.58,2.58,0,0,0,1.18-2.9,8.23,8.23,0,0,0-1.1-2.52,7.22,7.22,0,0,0-1-1.08c-0.21-.19-0.43-0.37-0.64-0.57L84,464.45l-2.84-2.72L79.7,460.3c0.82-2,1.6-3.92,2.26-5.93,0.46-1.37.91-2.75,1.32-4.14a27,27,0,0,0,.86-4.39,23,23,0,0,0,.14-3.59,8,8,0,0,0-1.07-4,5.82,5.82,0,0,0-3-2.25,5.36,5.36,0,0,0-1.81-.33,4.47,4.47,0,0,0-1.71.33h0Zm1.54,4.45-0.24,0,0.24,0h0Zm-2,1.5c0.72-.49,1.38-1.06,2.14-1.48l0.27,0.08L79,440.83l0.12,0.12,0,0a7,7,0,0,1,.2.81,21.93,21.93,0,0,1-.14,4.16,35.25,35.25,0,0,1-1.38,5.29c-0.6,1.83-1.21,3.64-1.91,5.44l-1-1c-2-2-4-4-6-5.95q-0.65-.65-1.32-1.27,3.48-2.64,6.94-5.31l-0.48.38c0.7-.53,1.41-1,2.13-1.52h0Zm2-1.43-0.26.11,0.26-.11h0Zm-19.95,7,0.15,0-0.15,0h0Zm0.52,0.17h0l-0.1,0,0.1,0h0Zm4.7,3.86c1.83,1.68,3.58,3.46,5.34,5.2,1.59,1.57,3.23,3.11,4.85,4.66l0.25,0.23L73.36,463c-0.76,1.82-1.52,3.64-2.24,5.48v0l-1.81-.23-5.3-.62-1-.12V467.1c0-1.26,0-2.54-.16-3.8q-0.23-2.48-.51-5c-0.2-1.78-.5-3.55-0.8-5.31l1.92-1.44h0Zm-6.72,4.95,0.12,0.77q0.36,3.07.8,6.14,0.18,1.73.38,3.45l-0.85-.11L52.05,466c-1.86-.27-3.69-0.65-5.55-0.91L47,465.19l-0.72-.13c0.11-.2.23-0.4,0.36-0.6a17,17,0,0,1,2.46-2.31c2.52-1.92,5.11-3.76,7.68-5.61h0Zm-7.85,5.73-0.15.12,0.15-.12h0Zm28.68,3,0-.05,0.19,0.18c0.85,0.82,1.72,1.63,2.56,2.45l1.37,1.34,0.68,0.65a17.7,17.7,0,0,1-2.77-.18c-1.11-.14-2.22-0.25-3.33-0.39l-0.43-.06q0.86-2,1.7-3.95h0Z"/><path class="cls-5" d="M77.54,262.06a13.82,13.82,0,0,0-1.94.48,9,9,0,0,0-2.23,1.32c-0.62.47-1.28,0.88-1.93,1.31l-3.12,2q-2.87,1.86-5.76,3.66c-0.62-.31-1.26-0.59-1.9-0.86a12.93,12.93,0,0,0-2.54-.79A11,11,0,0,0,55,269a6.28,6.28,0,0,0-2.36.72,5.69,5.69,0,0,0-1.8,1.68,4.7,4.7,0,0,0-.88,1.93,10.82,10.82,0,0,0-.12,2.8c0,0.72.1,1.43,0.16,2.15a41.67,41.67,0,0,0-4.48,2.93,10.58,10.58,0,0,0-1.95,1.93c-0.5.65-.9,1.36-1.35,2A2.58,2.58,0,0,0,43.75,289c1,0.18,2,.36,3,0.46a20.34,20.34,0,0,0,2.67,0l1.81,0q0.2,1.29.4,2.58c0.17,1,.41,2.07.64,3.1s0.46,2.14.79,3.19c0.51,1.61,1,3.21,1.59,4.79,0,0,0,0,0,0-0.23-2.34-.46-4.69-0.49-7,0-1.22,0-2.43-.06-3.65,0-1,0-2,.06-3l1.8,0c2.87-.05,5.75-0.13,8.62-0.32-1.71,2.7-3.37,5.44-5.28,8,0,0,0,0,0,0a102.49,102.49,0,0,0,7.95-8.17l0.08-.09,2-.25a21.78,21.78,0,0,0,3-.55,16.2,16.2,0,0,0,2.32-.91,3.83,3.83,0,0,0,2.1-2.31,4.46,4.46,0,0,0-.13-2.58A5.51,5.51,0,0,0,75,279.81l-0.34-.3q0.69-1,1.34-2a56.48,56.48,0,0,0,3.39-5.89,14,14,0,0,0,1.21-3.46,18.34,18.34,0,0,0,.06-3.68A2.51,2.51,0,0,0,80,262.7,2.42,2.42,0,0,0,78.2,262a3.18,3.18,0,0,0-.66.07h0Zm-7.11,9.67,2.47-1.65,2-1.36,0.59-.41c-0.16.55-.35,1.08-0.55,1.62-0.75,1.69-1.6,3.33-2.39,5-0.35.73-.71,1.46-1.08,2.18-1.43-1.08-2.85-2.18-4.31-3.24q1.62-1.05,3.22-2.12h0ZM55.67,274l-0.3,0,0.3,0h0Zm0.5,0.12,0.68,0.14-2.35,1.36c0-.29,0-0.57.07-0.85q0-.15.07-0.3l0.19-.19,0.3-.18h0a8.37,8.37,0,0,1,1,0h0Zm-1.32.05-0.12.15,0.12-.15h0Zm-0.33.52,0,0.11,0-.11h0ZM58,279.56l3.15-1.84c0.43-.25.86-0.52,1.28-0.79L62.52,277c1.38,0.89,2.7,1.85,4,2.83L69,281.66q-0.5.87-1,1.73c-3.59.41-7.2,0.61-10.81,0.72l-2.95.09q0-.69,0-1.38t0-1.1L58,279.56h0Zm13.74,4.32a2.11,2.11,0,0,1,.12.27l-0.12-.27h0ZM50.49,284l0,0.25H50.09l0.4-.26h0Z"/><path class="cls-5" d="M683.14,245.57c-0.78.21-1.5,0.59-2.27,0.84l-0.11,0a5.67,5.67,0,0,0-1.69,0,4.91,4.91,0,0,0-2.47,1.34l-5.15,1.66-5.75,1.83-2.46.78c-1.29.4-2.6,0.71-3.88,1.13a16.68,16.68,0,0,0-1.85.73,10.05,10.05,0,0,0-1.69,1.08,2.5,2.5,0,0,0-.9.9,2.51,2.51,0,0,0,1.5,3.69c2.83,0.49,5.66.94,8.47,1.51,1.69,0.34,3.35.69,5,1.13h0l-0.14.41c-0.13.38-.22,0.78-0.33,1.16q-0.42,1.51-.82,3c-0.29,1.11-.55,2.18-0.76,3.31-0.28,1.46-.55,2.91-0.79,4.38q-2.55,4-5,8.12l-1.5,2.48a0,0,0,0,0,0,0c3.92-4.2,7.8-8.44,11.59-12.76q2.6-3,5.14-6l1.12-1.34,1,0.41c2,0.85,3.93,1.78,5.86,2.75l2.25,1.13c0.82,0.42,1.68.76,2.54,1.11a2.51,2.51,0,0,0,2-.27,2.55,2.55,0,0,0,1.3-2.26c-0.07-.63-0.14-1.27-0.26-1.89a9.56,9.56,0,0,0-.77-2c-1.51-3.67-2.94-7.36-4.77-10.89a11.39,11.39,0,0,0,.81-2.11c0.22-.8.33-1.64,0.52-2.45a2.57,2.57,0,0,0-.25-1.93,2.52,2.52,0,0,0-2.16-1.24c-0.52,0-1-.12-1.57-0.15h-0.15a6.67,6.67,0,0,0-1.7.3h0Zm-2.65,6.18,0.25,0.27q0.46,0.63.88,1.29c-1,1.37-2,2.69-3,4.06l-1.27,1.8-1.84-.6,0.08-.15c1.15-2.07,2.21-4.24,3.56-6.2h0l1.35-.46h0ZM667.74,256c1.69-.55,3.38-1.08,5.06-1.64l0.15-.05c-0.44,1.06-.91,2.11-1.31,3.19-1.67-.43-3.35-0.8-5-1.12l1.15-.37h0ZM684.22,258c0.77,1.6,1.47,3.23,2.16,4.86l0,0-0.26-.12c-1.41-.66-2.82-1.29-4.26-1.9l2.34-2.88h0Zm-12.15,7.12c0.32-.67.66-1.33,1-2l1.24,0.4q-1.49,2.21-3,4.43-1.12,1.7-2.21,3.4l1-2.27-0.1.23q1-2.1,2.06-4.21h0Z"/><path class="cls-5" d="M207.15,31.41c-2.46,2.21-5,4.35-7.62,6.38l0.35-.26c-2.14,1.64-4.26,3.31-6.44,4.89l-4.5,3.25c-0.81.58-1.69,1.08-2.53,1.61-2.32,1.46-4.64,2.93-7,4.33l-5.11,3-1.38.82c-1.18.7-2.45,1.25-3.65,1.91a14.72,14.72,0,0,0-2.14,1.5,6.45,6.45,0,0,0-1.4,1.92,2.51,2.51,0,0,0,2.16,3.77c3.51,0.11,7,.05,10.54,0,2.47,0,4.94,0,7.41-.07l5.54-.13,1.51,0L193,64.56c0.26,0.41.55,0.8,0.85,1.19-0.45,1.82-.82,3.65-1.17,5.49-0.47,2.52-.93,5-1.32,7.57,0,0,0,0,0,0,1.37-3.67,2.79-7.33,4.28-10.95l0.48,0.51s0,0,0,0l-0.4-.73,0.55-1.31q0.49-1.13,1-2.25l2.79-.26c1-.1,1.93-0.23,2.88-0.41a15.88,15.88,0,0,0,2.2-.64,7.39,7.39,0,0,0,2.06-1,3.62,3.62,0,0,0,1.68-2.91,6.26,6.26,0,0,0-2.21-4.5c-0.71-.63-1.45-1.23-2.18-1.84l-0.69-.58,0.68-1.18c1.22-2.14,2.47-4.27,3.68-6.42,0.54-1,1-2,1.49-3s1-2.05,1.45-3.11A9.44,9.44,0,0,0,212,35a4.43,4.43,0,0,0-.19-1.71A4.37,4.37,0,0,0,211,32L211,31.9a2.62,2.62,0,0,0-1.46-1.12,2.38,2.38,0,0,0-.64-0.09,2.61,2.61,0,0,0-1.74.71h0Zm-4.73,10.13q1.38-1.08,2.73-2.18c-0.64,1.41-1.42,2.77-2.16,4.13s-1.37,2.6-2,3.93l-0.79,1.64c-0.7-.51-1.42-1-2.15-1.46a14,14,0,0,0-2.09-1.05c2.18-1.63,4.32-3.31,6.47-5h0Zm-9.28,8.55,0.24,0.07a15,15,0,0,1,2.4,1.47q1.17,0.94,2.3,1.92c-0.16.36-.32,0.72-0.47,1.08-0.59,1.44-1.15,2.89-1.67,4.36q-1.53.12-3.06,0.2-0.06-.38-0.12-0.75a35.94,35.94,0,0,1-.3-3.69,24.41,24.41,0,0,1,.09-3.22,13.15,13.15,0,0,1,.35-1.32l0-.07,0.19-.05h0Zm0.1,0a2.17,2.17,0,0,1,.4.05l-0.4-.05h0Zm-0.47.15-0.2.15,0.2-.15h0Zm0.1,0-0.13.31a2.86,2.86,0,0,1,.13-0.31h0Zm-16.64,9.08,5-3c2.33-1.4,4.61-2.86,6.9-4.32l0.87-.56s0,0,0,.06a19.09,19.09,0,0,0,.3,2.62,28.16,28.16,0,0,0,1.27,5.11c-2.63.1-5.27,0.16-7.89,0.21l-6.81.11,0.41-.25h0Zm25-3L201.95,57c0.35,0.32.72,0.63,1.07,1a17.73,17.73,0,0,1-2.44.56l-0.5.06c0.38-.74.77-1.47,1.19-2.19h0Zm-7,7.88,0,0.12,0-.11h0.08Zm0,0.09v0h0v0h0Z"/><path class="cls-5" d="M476.69,7.42a4.92,4.92,0,0,0-1.65.75,7.47,7.47,0,0,0-1.4,1.23,8.69,8.69,0,0,0-1.69,3,10.09,10.09,0,0,0-.49,2.23c-1.65.53-3.28,1.09-4.92,1.63a55,55,0,0,0-5.62,2.27A16.5,16.5,0,0,0,458,20a5,5,0,0,0-1.43,1.46,11.66,11.66,0,0,0-.54,1.16l-0.1.22a2.69,2.69,0,0,0-.25,1.95,2.53,2.53,0,0,0,1.75,1.76c0.38,0.17.77,0.35,1.16,0.49a6.46,6.46,0,0,0,1.45.32,18,18,0,0,0,2.83,0c0.57,0,1.14,0,1.71,0h0.78l4.28,0h0.17c-0.5,1.69-1.1,3.36-1.69,5a0,0,0,1,0,0,0c1.1-1.64,2.2-3.3,3.15-5,2.44,0,4.87-.09,7.31-0.14h0l-1,1.4c-1.29,1.74-2.61,3.46-3.91,5.18l0.07-.09-1.11,1.45h0l-1.43,1.81a0,0,0,0,0,0,0c2.49-2,4.88-4.1,7.25-6.23,1.13-1,2.22-2.06,3.32-3.09l0.59-.56c2.68-.14,5.36-0.38,8-0.76a25.23,25.23,0,0,0,2.63-.59,11.76,11.76,0,0,0,2.39-.82,5.35,5.35,0,0,0,1.11-.74,3.39,3.39,0,0,0,.84-1,5.32,5.32,0,0,0,.45-1.27,5.16,5.16,0,0,0,0-2.16,7.14,7.14,0,0,0-.53-1.32L497,18.07a6.67,6.67,0,0,0-.7-0.85,23.75,23.75,0,0,0-2-1.88c-0.7-.59-1.41-1.17-2.11-1.75q-1.46-1.21-3-2.32a26.68,26.68,0,0,0-5.61-3,14.07,14.07,0,0,0-3.07-.92,16.87,16.87,0,0,0-1.93-.19h-0.17a9.31,9.31,0,0,0-1.72.21h0Zm1.92,4.45c0.3,0.06.59,0.12,0.88,0.2l-3.54,1.12,0.22-.33c0.2-.22.41-0.42,0.63-0.61a6.57,6.57,0,0,1,.62-0.38l0.14,0a7.46,7.46,0,0,1,1.05,0h0ZM476,18.46c1.39-.44,2.77-0.87,4.15-1.33l2.31-.79c0.95-.32,1.91-0.71,2.89-1a17.45,17.45,0,0,1-.9,2.74,29.8,29.8,0,0,1-2,3.66c-3,.19-6.07.29-9.1,0.39,0.28-1,.51-2.06.73-3.09l1.93-.62h0Zm11.7,2.41a18.22,18.22,0,0,0,1.3-2.36l0.27-.58a34.79,34.79,0,0,1,2.82,2.51l-0.86.23c-0.94.24-1.87,0.44-2.83,0.59l-1,.12,0.35-.5h0Zm5.48-.91-0.07.09,0.07-.09h0ZM471,20.07c0,0.73-.08,1.45-0.15,2.17l-4.11.08-2,0c2.06-.84,4.16-1.58,6.27-2.28h0Zm21.76,1.13a2.17,2.17,0,0,1,.09.21l-0.09-.21h0ZM472.6,35.11l0,0,0,0h0Z"/></g></svg>