<svg id="Background" xmlns="http://www.w3.org/2000/svg" xmlns:xlink="http://www.w3.org/1999/xlink" viewBox="0 0 1536 703.99"><defs><style>.cls-1{fill:#f7e967;}.cls-2{fill:#0a0e60;}.cls-3{fill:#98c12a;}.cls-4{fill:#193441;}.cls-5{fill:#d17cb0;}.cls-6{fill:#723147;}.cls-7{fill:#bebebe;}</style></defs><title>meh33</title><image id="Background-2" data-name="Background" width="1" height="1" transform="translate(0 3.99) scale(1536 700)" /><path class="cls-1" d="M397.82,103.41a161.44,161.44,0,0,0-16.18,1.3c-7.95.91-15.91,1.86-23.48,4.56a126.54,126.54,0,0,0-26,13.36,158.25,158.25,0,0,0-34.29,29.72c-7.7,9-15.17,18-22.45,27.34-7.7,9.85-15.31,19.8-22.32,30.15-5.11,7.54-10.4,15-14.43,23.18-5.61,11.4-9.71,23.38-13.62,35.43-1.62,5-2.73,10.15-4,15.25-1.18,4.78-2.18,9.69-3,14.55-1.32,8-2.52,15.94-3.5,24-0.3,2.48-.75,5-0.9,7.48q-0.3,5.17-.61,10.35c-0.26,4.45-.4,8.9-0.36,13.36A169.1,169.1,0,0,0,216,383a141.09,141.09,0,0,0,6.56,22.88c3.38,9.14,7.08,18.21,12,26.61S246,448.08,252.8,454.89s14.67,13,22.44,19c13.84,10.61,29.58,18,45.64,24.57a225.22,225.22,0,0,0,22.36,8c9.6,2.77,19.61,4.05,29.48,5.38,8.07,1.08,16.14,1.43,24.26,1.86,5.48,0.29,11,.27,16.47.38,4.63,0.09,9.27.07,13.89-.12a142.23,142.23,0,0,0,29.28-4.7c9.68-2.5,19-6.23,28.24-9.9,6.75-2.68,13.45-5.39,20-8.48,11.29-5.31,22.61-10.63,33.57-16.61a164.15,164.15,0,0,0,41.27-31.84c11.88-12.72,23.18-26.54,30.63-42.38a248.41,248.41,0,0,0,13.75-36.7c1-3.52,2-7,2.83-10.58a201.77,201.77,0,0,0,4.21-29.18c0.59-7.45.8-15,.87-22.47a170.66,170.66,0,0,0-2.85-30.43,111,111,0,0,0-6.45-22.52,192.81,192.81,0,0,0-12.64-26.36,93.81,93.81,0,0,0-6.19-9c-3.62-4.77-7.27-9.51-11.25-14a129.07,129.07,0,0,0-16.56-15.64c-7-5.54-14.19-10.76-22.3-14.62-4.8-2.29-9.59-4.61-14.43-6.82q-11.06-5.05-22.29-9.67l-1.76-.71a44.1,44.1,0,0,0-11.55-17.59,87.12,87.12,0,0,0-17.85-12.14c-6.84-3.66-14-6.54-21.21-9.5-2.86-1.18-5.74-2.33-8.65-3.39A59.65,59.65,0,0,0,445.48,106c-4.64-.78-9.37-1.41-14.07-1.76-5.71-.41-11.4-0.66-17.12-0.77q-4.08-.08-8.15-0.08t-8.32.06h0Zm25.81,87.08c1.5-.41,3-0.77,4.53-1.07a131.53,131.53,0,0,1,14.31-.36q-2.79,1.55-5.48,3.26c-4.44-.75-8.89-1.37-13.36-1.84h0Zm31.05,64.18c0.9,0.61,1.79,1.23,2.67,1.86q3.16,2.65,6.08,5.57l-6.36,3.4-0.43.23c-0.48-3.71-1.12-7.39-2-11.05h0ZM360.84,456.74h0q1.4,0.35,2.85.68-1.45-.32-2.9-0.68h0Z" transform="translate(0 3.99)"/><path class="cls-1" d="M417.21,135.3A26.22,26.22,0,0,0,405.63,142l-4.1,5.31a26.14,26.14,0,0,0-3.59,13.25,134.25,134.25,0,0,0,2,16.79,120,120,0,0,0,3.2,11.63c1.48,4.69,3.06,9.36,4.53,14.05l5.71,18.27c3.07,9.82,6.15,19.61,9.41,29.37,3.61,10.79,7.14,21.59,11,32.3,1.92,5.34,3.62,10.82,5.8,16.07,3.32,8,6.62,16,10.05,24a68.83,68.83,0,0,0,4.61,9.18c3.26,5.23,6.38,8.13,11.36,11.59s9.88,3.76,15.67,4.51l7-.94a26.26,26.26,0,0,0,11.58-43.87l-2.68-2.07c-1.32-2.67-2.43-5.47-3.59-8.16l1.73,4.1c-1.43-3.34-2.92-6.66-4.24-10a26.17,26.17,0,0,0,22.48-44.42c-9.78-9.77-19.56-19.57-28.22-30.36A204.43,204.43,0,0,1,469,187.27L462.43,175l-4.94-9.19-3.41-6.36c-0.86-1.61-1.71-3.23-2.57-4.83a76.86,76.86,0,0,0-4.65-7.3,26.21,26.21,0,0,0-22.71-13,26.09,26.09,0,0,0-6.93.93h0Z" transform="translate(0 3.99)"/><path class="cls-1" d="M190.71,20.69A12.34,12.34,0,0,0,185.09,28a12.74,12.74,0,0,0,1.23,9.44c2.9,5.69,5.54,11.48,8.16,17.3,5.19,13.27,10.32,26.59,17.36,39q4.2,7.42,8.37,14.86c0.92,1.64,2,3.21,3,4.8,1.54,2.44,3.09,4.85,4.7,7.25a12.78,12.78,0,0,0,7.32,5.63,12.25,12.25,0,0,0,15.07-8.55,12,12,0,0,0-1.23-9.44C245.53,103,242.14,97.65,239,92.09q-3.24-5.77-6.5-11.52a193.75,193.75,0,0,1-9.34-19.37C220.81,55.14,218.59,49,215.92,43s-5.45-12-8.45-17.94a12,12,0,0,0-7.32-5.63,12.33,12.33,0,0,0-9.44,1.23h0Z" transform="translate(0 3.99)"/><path class="cls-1" d="M377.16-3.56a12,12,0,0,0-7.32,5.63C368,5.8,366.4,9.7,364.79,13.55q-2,4.75-3.93,9.51a152.84,152.84,0,0,0-6.12,17.16c-2.75,10-3.37,20.47-4,30.78a11.94,11.94,0,0,0,3.59,8.66,12.25,12.25,0,0,0,17.32,0A12.75,12.75,0,0,0,375.25,71c0.28-4.66.52-9.35,1-14a100.08,100.08,0,0,1,4.07-16.74c1-3,2.18-5.94,3.38-8.88q2.13-5.23,4.31-10.44c0.94-2.19,1.88-4.38,2.95-6.51A12.77,12.77,0,0,0,392.23,5,12.24,12.24,0,0,0,380.4-4a12.2,12.2,0,0,0-3.24.44h0Z" transform="translate(0 3.99)"/><path class="cls-1" d="M593.93,25.28q-5.65,6.17-11.43,12.22C578.43,41.78,574.24,45.9,570,50c-4,3.89-8,7.69-12.06,11.5q-4.22,4-8.38,8A88,88,0,0,0,534.7,88.95l-0.78,1.37a12.25,12.25,0,0,0,21.16,12.37,109.74,109.74,0,0,1,6.18-9.7,129.91,129.91,0,0,1,11.1-11.33l6.42-6.07q5.51-5.21,10.92-10.51c7.4-7.28,14.54-14.8,21.56-22.46a12.6,12.6,0,0,0,3.59-8.66,12.31,12.31,0,0,0-3.59-8.66,12.62,12.62,0,0,0-8.87-3.56,11.35,11.35,0,0,0-8.46,3.56h0Z" transform="translate(0 3.99)"/><path class="cls-1" d="M729.66,163.46c-11.2.29-22.39,1-33.57,1.69-4.91.32-9.8,1-14.71,1.16-5.53.18-11.06,0.45-16.59,0.45H645a12.25,12.25,0,0,0,0,24.5h22c5.2,0,10.41-.32,15.6-0.48,3-.09,6-0.5,8.91-0.74,2.16-.18,4.33-0.36,6.5-0.5q9-.58,18.09-1c4.52-.21,9-0.43,13.57-0.55a12.4,12.4,0,0,0,12.25-12.25c0-6.45-5.41-12.25-12-12.25h-0.29Z" transform="translate(0 3.99)"/><path class="cls-1" d="M655.32,400.92a12.35,12.35,0,0,0-5.63,7.32q-0.22,1.63-.44,3.26a12.19,12.19,0,0,0,1.67,6.18,100.12,100.12,0,0,0,8.52,15.64,85.77,85.77,0,0,0,13.93,15.25c3.78,3.32,7.85,6.33,11.84,9.4,1.87,1.44,3.75,2.88,5.65,4.27,2.52,1.85,6.55,2,9.44,1.23a12.25,12.25,0,0,0,8.55-15.07l-1.23-2.93a12.34,12.34,0,0,0-4.39-4.39c-2-1.43-3.87-2.9-5.79-4.38-3.2-2.55-6.41-5.06-9.39-7.88a90.32,90.32,0,0,1-7.29-7.66,95.11,95.11,0,0,1-8.68-15.84c-1.26-2.75-4.52-4.86-7.32-5.63a12.32,12.32,0,0,0-9.44,1.23h0Z" transform="translate(0 3.99)"/><path class="cls-1" d="M571.32,535.92a12.34,12.34,0,0,0-5.63,7.32l-0.44,3.26a12.23,12.23,0,0,0,1.67,6.18c2.47,5.57,5.06,11.08,7.68,16.59,1.76,3.7,3.8,7.25,5.78,10.84q5.91,10.73,11.75,21.52c3.17,5.87,11.14,7.68,16.76,4.39a12.34,12.34,0,0,0,5.63-7.32,12.57,12.57,0,0,0-1.23-9.44q-5.72-10.59-11.54-21.14c-2-3.6-4.06-7.15-5.82-10.86-2.67-5.63-5.32-11.25-7.84-17l-1.91-2.48a12.27,12.27,0,0,0-14.85-1.91h0Z" transform="translate(0 3.99)"/><path class="cls-1" d="M379.32,565.92a63,63,0,0,0-8.26,5.93,31.17,31.17,0,0,0-6.7,8,56.91,56.91,0,0,0-4.34,9.8,67.57,67.57,0,0,0-2.59,8.75,203.78,203.78,0,0,0-4.14,29.49c-0.67,8.86-1.19,17.75-1.38,26.63-0.15,6.68,5.68,12.25,12.25,12.25a12.39,12.39,0,0,0,12.25-12.25c0.13-6,.49-11.92.8-17.87,0.33-6.45.8-12.9,1.6-19.31a103,103,0,0,1,5.33-22.44,32.9,32.9,0,0,1,1.95-3.55,27,27,0,0,1,2.34-2.2c1.05-.75,2.13-1.44,3.27-2.09a12.22,12.22,0,0,0-6.25-22.78,12.21,12.21,0,0,0-6.12,1.63h0Z" transform="translate(0 3.99)"/><path class="cls-1" d="M242.82,550.92c-5.78,2.5-11.7,5-17,8.32a95.24,95.24,0,0,0-9.13,6.82c-2.61,2.12-5.14,4.37-7.57,6.69-3.4,3.25-6.57,6.73-9.78,10.17-1.77,1.89-3.53,3.78-5.27,5.7a12.63,12.63,0,0,0-3.59,8.66,12.31,12.31,0,0,0,3.59,8.66c4.55,4.55,12.84,4.95,17.32,0,7.37-8.13,14.83-16.28,23.39-23.17a61.82,61.82,0,0,1,8.74-5.35c3.82-1.92,7.75-3.64,11.68-5.34l2.48-1.91a12.25,12.25,0,0,0-5.41-20.48l-3.26-.44a12.22,12.22,0,0,0-6.18,1.67h0Z" transform="translate(0 3.99)"/><path class="cls-1" d="M108.27,383a12.3,12.3,0,0,0,3.59,8.66,12.57,12.57,0,0,0,8.66,3.59c3.79,0.15,7.57.31,11.35,0.54,4.15,0.25,8.32.38,12.46,0.78,4.83,0.48,9.66.93,14.49,1.44,5.92,0.61,11.79,1.36,17.74,1.57,6.14,0.21,12.3.17,18.44,0.16a12.25,12.25,0,0,0,0-24.5c-5.83,0-11.66,0-17.49-.13s-11.84-.83-17.76-1.49c-5-.57-10.09-1-15.14-1.51-4.13-.41-8.29-0.54-12.43-0.79-3.89-.23-7.78-0.39-11.67-0.55h-0.43c-6.48,0-11.82,5.93-11.82,12.26h0Z" transform="translate(0 3.99)"/><path class="cls-1" d="M84.25,161.55a12.26,12.26,0,0,0-8.55,15.07l1.23,2.93a12.34,12.34,0,0,0,4.39,4.39c7.66,5.52,15.21,11.18,22.77,16.83L115.38,210c3.87,3.18,7.7,6.42,11.72,9.41l15.42,11.45c3.51,2.61,7.17,5,10.88,7.32a169,169,0,0,0,18.92,9.85l2.93,1.24a12.26,12.26,0,0,0,15.07-15.07c-0.77-2.82-2.88-6-5.63-7.32A175.2,175.2,0,0,1,164.14,216q-5.39-3.42-10.5-7.23l-13.92-10.34-10.05-8.27c-3.91-3.21-7.75-6.54-11.8-9.56-8-6-16-12-24.17-17.87a10.41,10.41,0,0,0-6-1.68,13.12,13.12,0,0,0-3.43.45h0Z" transform="translate(0 3.99)"/><path class="cls-2" d="M469.48,211.3a34,34,0,0,0-17.65,5.85,44.6,44.6,0,0,0-12.18,12.21,51.37,51.37,0,0,0-4.07,7.7c-1.12,2.46-2.1,4.94-3,7.47a0,0,0,0,0,0,0c4.22-4.88,8.44-9.82,13.51-13.85a61.35,61.35,0,0,1,11.47-6.82,33.37,33.37,0,0,1,18.54-2.44,32.14,32.14,0,0,1,6.45,1.7A84.21,84.21,0,0,1,496,230.85c2.53,1.75,5.11,3.41,7.71,5.05,3.65,2.3,7.34,4.54,11.05,6.74,0,0,0,0,0,0-3-3.17-5.92-6.36-8.9-9.52-2.13-2.26-4.28-4.5-6.38-6.78a64.6,64.6,0,0,0-6.18-5.87,59.2,59.2,0,0,0-7-5.14,28.23,28.23,0,0,0-7.46-3,32.19,32.19,0,0,0-4.84-.82,35.76,35.76,0,0,0-3.81-.2h-0.68Z" transform="translate(0 3.99)"/><path class="cls-2" d="M334.28,218.65a49.24,49.24,0,0,0-8.25.87,36.68,36.68,0,0,0-7.71,2.3,33.68,33.68,0,0,0-13.13,9.46,35.11,35.11,0,0,0-6.65,13.51,27.1,27.1,0,0,0-.82,7.41,44.1,44.1,0,0,0,1,7.5s0,0,0,0a50.68,50.68,0,0,1,2.49-9.63,44,44,0,0,1,5.19-8.62,38.16,38.16,0,0,1,5.73-5.84,44.77,44.77,0,0,1,7.78-4.49,69,69,0,0,1,15.19-4,53.74,53.74,0,0,1,5.4-.4,45.32,45.32,0,0,1,6.67.49,78.22,78.22,0,0,1,9.67,1.88c1.76,0.48,3.53.94,5.3,1.39,2.8,0.72,5.58,1.56,8.36,2.39,0,0,0,0,0,0-3.37-2.27-6.82-4.37-10.36-6.37a73.37,73.37,0,0,0-9.93-4.74,53,53,0,0,0-7.82-2.36,38.14,38.14,0,0,0-7.83-.7h-0.28Z" transform="translate(0 3.99)"/><path class="cls-2" d="M526.81,266.41a15.34,15.34,0,0,0-2,.21l-0.75.14q-0.81.32-1.59,0.7c-0.68.32-1.21,0.93-1.86,1.32l-3.07,1.83c-1.71,1-3.47,2-5.23,2.9q-6.35,3.37-12.63,6.83c-4,2.17-7.89,4.38-11.83,6.57-2,1.1-3.9,2.24-5.9,3.26-5.5,2.82-11.08,5.51-16.77,7.94-4.75,2-9.56,3.78-14.41,5.49-2.75,1-5.49,2-8.29,2.79l-13,3.84c-12.95,3.82-25.94,7.7-39.33,9.6q-10.26,1.32-20.57,2.12l-2.77.19c-1.72-2.46-3.38-5-5.1-7.42-4.5-6.39-9-12.77-13.6-19.09a0,0,0,0,0,0,0c4,9,8.26,18,12.75,26.79-4.26.17-8.53,0.23-12.78,0.22-7.72,0-15.44-.52-23.15-0.88,0,0,0,0,0,0,3.39,1.23,6.8,2.39,10.23,3.51a126.85,126.85,0,0,0,13,3.49c3.52,0.75,7.08,1.24,10.64,1.7q3.37,0.44,6.75.68c1.29,2.3,2.61,4.59,3.93,6.87,1,1.66,2.08,3.23,3.14,4.82q2.74,4.12,5.57,8.17c1,1.38,2,2.7,3,4,2.28,3,4.59,6,7,8.84,2.19,2.61,4.53,5.1,6.88,7.56a97.9,97.9,0,0,0,8,7.61,85.14,85.14,0,0,0,8.27,6,61.47,61.47,0,0,0,9.79,5.08,46,46,0,0,0,9.81,2.72,52.29,52.29,0,0,0,11.31.84,84.05,84.05,0,0,0,10.5-1.32,67.55,67.55,0,0,0,10.83-2.73,56.88,56.88,0,0,0,9.3-4.24,46.06,46.06,0,0,0,8.54-6.43,85.19,85.19,0,0,0,13.39-16.3,146,146,0,0,0,10-19c4.69-10.33,9.55-20.59,14.33-30.87,0.86-1.87,1.8-3.71,2.54-5.64l3.13-8.13c1-2.5,2-5,2.82-7.54,1.15-3.38,2.22-6.79,3.06-10.27a44.41,44.41,0,0,0,1.07-5.49,12,12,0,0,0,.07-2.48,30.25,30.25,0,0,0-.66-3.58A4.51,4.51,0,0,0,527,266.4h-0.22Zm-133.9,63.46a173,173,0,0,0,21.28-5.06c3.33-1,6.65-1.93,9.95-3l19.16-6.27c3.3-1.08,6.55-2.31,9.79-3.55,6.89-2.64,13.7-5.51,20.34-8.73,3.14-1.52,6.25-3.14,9.32-4.79,1.59-.86,3.19-1.71,4.75-2.62l8.79-5.2c4.28-2.52,8.6-4.95,12.93-7.39,2.13-1.2,4.36-2.25,6.53-3.37,1.92-1,3.86-2,5.83-2.84l0.31-.14c-0.3,1.18-.64,2.34-1,3.52-0.69,2.6-1.54,5.16-2.4,7.7-0.64,1.89-1.34,3.75-2,5.62l-4.07,10.78q-4.3,9.59-8.57,19.19c-1.95,4.37-3.91,8.72-5.82,13.1-1,2.37-2,4.74-3.09,7.1-1.17,2.62-2.45,5.18-3.77,7.73A94.46,94.46,0,0,1,482.88,365a66.59,66.59,0,0,1-10.5,10.9,46.52,46.52,0,0,1-8.56,4.85,72.47,72.47,0,0,1-16.84,4.2,60.73,60.73,0,0,1-6.42.49,42.44,42.44,0,0,1-6.11-.4,50.75,50.75,0,0,1-11.23-3,70.07,70.07,0,0,1-13.36-8.13A112.47,112.47,0,0,1,398,362.58c-3.9-4.16-7.49-8.57-11-13.07-2-2.61-3.94-5.28-5.92-7.91q-2.59-3.42-5.24-6.81l-2.32-3.31a125.9,125.9,0,0,0,19.42-1.61h0Z" transform="translate(0 3.99)"/><path class="cls-3" d="M1007.89,383.07H817.38a7.06,7.06,0,0,0-7,7V652a7.06,7.06,0,0,0,7,7h390a7.06,7.06,0,0,0,7-7V390.07a7.06,7.06,0,0,0-7-7H1007.89Zm9,14h183.52V645h-376V397.07h192.49Z" transform="translate(0 3.99)"/><path class="cls-2" d="M1049,459.22s0,0,0,0c2.83,0.34,5.66.66,8.5,0.91,1.71,0.15,3.43.22,5.15,0.37q3.62,0.3,7.25.38c2.07,0,4.12.15,6.19,0.09,3.69-.1,7.38-0.25,11.05-0.61,4-.39,8-0.95,12-1.61H1099l2.1-.26s0,0,0,0c-4.09-1.05-8.31-1.7-12.48-2.39a98.33,98.33,0,0,0-11.8-1.48q-1.25-.05-2.5-0.05a80,80,0,0,0-25.34,4.65h0Z" transform="translate(0 3.99)"/><path class="cls-2" d="M923.79,458.74a67.37,67.37,0,0,0-9.11,1.71,29.18,29.18,0,0,0-6,2.36,26.13,26.13,0,0,0-5,3.68s0,0,0,0a44.78,44.78,0,0,1,6.5-1.46,81.18,81.18,0,0,1,8.87-.21c1,0,2.08,0,3.11,0,1.89,0,3.78-.11,5.67-0.23a99.91,99.91,0,0,0,10.49-1.39c2.84-.5,5.67-1,8.47-1.69,3.18-.77,6.3-1.78,9.45-2.65a0,0,0,0,0,0,0c-3.58-.41-7.21-0.4-10.8-0.56-3.21-.15-6.43-0.37-9.64-0.38h-0.32a87.17,87.17,0,0,0-11.69.81h0Z" transform="translate(0 3.99)"/><path class="cls-2" d="M983,514.35a17.85,17.85,0,0,0-5.45,1.14,39.53,39.53,0,0,0-9.13,5.11,67.61,67.61,0,0,0-6.26,4.95c-2.12,1.89-4.2,3.79-6.2,5.8q-1.54,1.54-3.06,3.11c-0.89.91-1.69,1.92-2.52,2.88-1.79,2.06-3.54,4.14-5.3,6.21-3.51,4.11-7.16,8.11-10.69,12.2-2.15,2.5-4.28,5-6.35,7.56a92.92,92.92,0,0,1-14.33,14.61,45.06,45.06,0,0,1-8.77,5.19,36.4,36.4,0,0,1-8.07,2.43,19.16,19.16,0,0,1-2.63.06A11.74,11.74,0,0,1,892,585a12.56,12.56,0,0,1-1.58-1,16.94,16.94,0,0,1-1.8-1.93,28.49,28.49,0,0,1-2.52-4.77h0l0-.06h0c-0.26-.62-0.51-1.25-0.76-1.88,0,0,0,0,0,0a43.07,43.07,0,0,0,1.09,5.93A13.66,13.66,0,0,0,888,585a10.18,10.18,0,0,0,3.14,3c2.33,1.55,5.43,1.73,8.13,1.53a39.81,39.81,0,0,0,10.77-2.44c7-2.61,13.38-7.27,18.84-12.36a116.36,116.36,0,0,0,8.17-8.71c3.54-4.05,7.18-8,10.84-11.93s7.25-8,10.74-12.11c0.8-.94,1.63-1.84,2.47-2.75,1.14-1.23,2.23-2.53,3.4-3.73q2.11-2.17,4.18-4.37a79.41,79.41,0,0,1,8.2-7.48,29,29,0,0,1,4.77-2.93,20.41,20.41,0,0,1,2.69-.8,23.09,23.09,0,0,1,4.84.07,17.65,17.65,0,0,1,3.08.82,13.48,13.48,0,0,1,2,1.19,8.73,8.73,0,0,1,1,1,10.89,10.89,0,0,1,1.2,2.07,54.76,54.76,0,0,1,1.66,6s0,0,0,0c0.1-1.65.22-3.31,0.22-5a12.59,12.59,0,0,0-.52-3.62,9.62,9.62,0,0,0-2.45-3.82,15.53,15.53,0,0,0-7.45-3.75,18.58,18.58,0,0,0-4.54-.59H983Zm6.55,5.67,0.17,0-0.17,0h0ZM886.06,577.31h0l0,0,0,0h0Z" transform="translate(0 3.99)"/><path class="cls-2" d="M1038,518.66a62.61,62.61,0,0,0-7.57,1.1,31.75,31.75,0,0,0-7.13,2.42,29.23,29.23,0,0,0-5.56,3.52,16.54,16.54,0,0,0-4.44,4.71c-2.07,3.66-.72,8.19.16,12,0,0,0,0,0,0,0.14-1.84.27-3.68,0.5-5.51,0,0.07,0,.15,0,0.22a19.12,19.12,0,0,1,.76-2.91,12.26,12.26,0,0,1,.86-1.52,10.59,10.59,0,0,1,1.15-1.17,28.81,28.81,0,0,1,4.92-2.67c1-.42,2.08-0.8,3.14-1.15a28,28,0,0,1,4.43-1,56.77,56.77,0,0,1,12.77,0,33.07,33.07,0,0,1,6.53,1.65,32.66,32.66,0,0,1,5.14,3.05,73.37,73.37,0,0,1,11.62,12c3.64,4.77,7.31,9.52,11.11,14.16l6.25,7.63a109.15,109.15,0,0,0,11.42,12.42,92.46,92.46,0,0,0,17,12,78.65,78.65,0,0,0,20.16,7.64,65.86,65.86,0,0,0,10.14,1.53,34.71,34.71,0,0,0,10.42-.72,18.85,18.85,0,0,0,7.56-3.9,18.44,18.44,0,0,0,5-7.69,22.75,22.75,0,0,0,1.7-6.81s0,0,0,0c-0.19.58-.38,1.13-0.62,1.68a44.07,44.07,0,0,1-4.52,7.64,18.63,18.63,0,0,1-2.17,2.13,17.48,17.48,0,0,1-3,1.83,22,22,0,0,1-4.6,1.26,35,35,0,0,1-7.54-.3,73.8,73.8,0,0,1-16.86-5,101.32,101.32,0,0,1-20.93-12.08,81.71,81.71,0,0,1-10-9.16c-2.42-2.67-4.66-5.53-6.88-8.37l-6.94-8.83c-2.2-2.89-4.41-5.76-6.55-8.69-1.52-2.09-3-4.19-4.61-6.24a74.58,74.58,0,0,0-5-5.79,37.9,37.9,0,0,0-12.71-9.09,30.42,30.42,0,0,0-11.64-2.08c-1.14,0-2.28,0-3.41.13h0Zm27.5,25,0.25,0.33-0.25-.33h0Zm99.86,37.64,0,0,0,0h0Z" transform="translate(0 3.99)"/><path class="cls-2" d="M989.17,571.27a14.42,14.42,0,0,0-4.23,2.25,21.06,21.06,0,0,0-3.76,4.39s0,0,0,0c1.39-.76,2.79-1.5,4.24-2.13a26,26,0,0,1,5.18-1.1c2.35-.29,4.72-0.43,7.08-0.69,1.24-.14,2.48-0.3,3.73-0.47,2-.28,4.05-0.69,6.08-1a5.66,5.66,0,0,1,1.62.08l-0.21,0,0.63,0.25a17,17,0,0,1,1.77,1.16h0l0.65,0.52s0,0,0,0a17.8,17.8,0,0,0-1.08-1.89,4.66,4.66,0,0,0-1.39-1.47,9.19,9.19,0,0,0-1.8-.72,13.32,13.32,0,0,0-2.29-.31c-1.8-.21-3.6-0.36-5.41-0.44q-0.71,0-1.41,0a26.94,26.94,0,0,0-9.44,1.63h0Zm18.56,1.23-0.12,0,0.12,0h0Z" transform="translate(0 3.99)"/><path class="cls-4" d="M1386.15,379.79a10.87,10.87,0,0,0-3.23,1.84,40.81,40.81,0,0,0-6.61,6.21,26.3,26.3,0,0,0-3,4l-0.61,1.39q-0.28,1.17.89,0.89a10.87,10.87,0,0,0,3.23-1.84,40.81,40.81,0,0,0,6.61-6.21,26.3,26.3,0,0,0,3-4l0.61-1.39q0.22-.95-0.5-0.95a1.75,1.75,0,0,0-.39.05h0Z" transform="translate(0 3.99)"/><path class="cls-4" d="M1259.15,416.35a10.87,10.87,0,0,0-3.23,1.84,40.81,40.81,0,0,0-6.61,6.21,26.3,26.3,0,0,0-3,4l-0.61,1.39q-0.28,1.17.89,0.89a10.87,10.87,0,0,0,3.23-1.84,40.81,40.81,0,0,0,6.61-6.21,26.3,26.3,0,0,0,3-4l0.61-1.39q0.22-.95-0.5-0.95a1.75,1.75,0,0,0-.39.05h0Z" transform="translate(0 3.99)"/><path class="cls-4" d="M1186,604.93a10.87,10.87,0,0,0-3.23,1.84,40.81,40.81,0,0,0-6.61,6.21,26.3,26.3,0,0,0-3,4l-0.61,1.39q-0.28,1.17.89,0.89a10.87,10.87,0,0,0,3.23-1.84,40.81,40.81,0,0,0,6.61-6.21,26.3,26.3,0,0,0,3-4l0.61-1.39q0.22-.95-0.5-0.95a1.75,1.75,0,0,0-.39.05h0Z" transform="translate(0 3.99)"/><path class="cls-4" d="M1149.47,502.95a10.87,10.87,0,0,0-3.23,1.84,40.81,40.81,0,0,0-6.61,6.21,26.3,26.3,0,0,0-3,4l-0.61,1.39q-0.28,1.17.89,0.89a10.87,10.87,0,0,0,3.23-1.84,40.81,40.81,0,0,0,6.61-6.21,26.3,26.3,0,0,0,3-4l0.61-1.39q0.22-.95-0.5-0.95a1.75,1.75,0,0,0-.39.05h0Z" transform="translate(0 3.99)"/><path class="cls-4" d="M1295.71,485.63a10.87,10.87,0,0,0-3.23,1.84,40.81,40.81,0,0,0-6.61,6.21,26.3,26.3,0,0,0-3,4L1282.3,499q-0.28,1.17.89,0.89a10.87,10.87,0,0,0,3.23-1.84,40.81,40.81,0,0,0,6.61-6.21,26.3,26.3,0,0,0,3-4l0.61-1.39q0.22-.95-0.5-0.95a1.75,1.75,0,0,0-.39.05h0Z" transform="translate(0 3.99)"/><path class="cls-4" d="M1251.46,597.23a10.87,10.87,0,0,0-3.23,1.84,40.81,40.81,0,0,0-6.61,6.21,26.3,26.3,0,0,0-3,4l-0.61,1.39q-0.28,1.17.89,0.89a10.87,10.87,0,0,0,3.23-1.84,40.81,40.81,0,0,0,6.61-6.21,26.3,26.3,0,0,0,3-4l0.61-1.39q0.22-.95-0.5-0.95a1.75,1.75,0,0,0-.39.05h0Z" transform="translate(0 3.99)"/><path class="cls-4" d="M1399.62,510.64a10.87,10.87,0,0,0-3.23,1.84,40.81,40.81,0,0,0-6.61,6.21,26.3,26.3,0,0,0-3,4l-0.61,1.39q-0.28,1.17.89,0.89a10.87,10.87,0,0,0,3.23-1.84,40.81,40.81,0,0,0,6.61-6.21,26.3,26.3,0,0,0,3-4l0.61-1.39q0.22-.95-0.5-0.95a1.75,1.75,0,0,0-.39.05h0Z" transform="translate(0 3.99)"/><path class="cls-4" d="M959,347.08a10.87,10.87,0,0,0-3.23,1.84,40.81,40.81,0,0,0-6.61,6.21,26.3,26.3,0,0,0-3,4l-0.61,1.39q-0.28,1.17.89,0.89a10.87,10.87,0,0,0,3.23-1.84,40.81,40.81,0,0,0,6.61-6.21,26.3,26.3,0,0,0,3-4l0.61-1.39q0.22-.95-0.5-0.95a1.75,1.75,0,0,0-.39.05h0Z" transform="translate(0 3.99)"/><path class="cls-4" d="M1109.06,360.55a10.87,10.87,0,0,0-3.23,1.84,40.81,40.81,0,0,0-6.61,6.21,26.3,26.3,0,0,0-3,4l-0.61,1.39q-0.28,1.17.89,0.89a10.87,10.87,0,0,0,3.23-1.84,40.81,40.81,0,0,0,6.61-6.21,26.3,26.3,0,0,0,3-4l0.61-1.39q0.22-.95-0.5-0.95a1.75,1.75,0,0,0-.39.05h0Z" transform="translate(0 3.99)"/><path class="cls-4" d="M907,445.22a10.87,10.87,0,0,0-3.23,1.84,40.81,40.81,0,0,0-6.61,6.21,26.3,26.3,0,0,0-3,4l-0.61,1.39q-0.28,1.17.89,0.89a10.87,10.87,0,0,0,3.23-1.84,40.81,40.81,0,0,0,6.61-6.21,26.3,26.3,0,0,0,3-4l0.61-1.39q0.22-.95-0.5-0.95a1.75,1.75,0,0,0-.39.05h0Z" transform="translate(0 3.99)"/><path class="cls-4" d="M870.45,572.22a10.87,10.87,0,0,0-3.23,1.84,40.81,40.81,0,0,0-6.61,6.21,26.3,26.3,0,0,0-3,4L857,585.64q-0.28,1.17.89,0.89a10.87,10.87,0,0,0,3.23-1.84,40.81,40.81,0,0,0,6.61-6.21,26.3,26.3,0,0,0,3-4l0.61-1.39q0.22-.95-0.5-0.95a1.75,1.75,0,0,0-.39.05h0Z" transform="translate(0 3.99)"/><path class="cls-4" d="M893.54,562.6a10.87,10.87,0,0,0-3.23,1.84,40.81,40.81,0,0,0-6.61,6.21,26.3,26.3,0,0,0-3,4L880.12,576q-0.28,1.17.89,0.89a10.87,10.87,0,0,0,3.23-1.84,40.81,40.81,0,0,0,6.61-6.21,26.3,26.3,0,0,0,3-4l0.61-1.39q0.22-.95-0.5-0.95a1.75,1.75,0,0,0-.39.05h0Z" transform="translate(0 3.99)"/><path class="cls-4" d="M747.3,620.33a10.87,10.87,0,0,0-3.23,1.84,40.81,40.81,0,0,0-6.61,6.21,26.3,26.3,0,0,0-3,4l-0.61,1.39q-0.28,1.17.89,0.89A10.87,10.87,0,0,0,738,632.8a40.81,40.81,0,0,0,6.61-6.21,26.3,26.3,0,0,0,3-4l0.61-1.39q0.22-.95-0.5-0.95a1.75,1.75,0,0,0-.39.05h0Z" transform="translate(0 3.99)"/><path class="cls-4" d="M1016.7,458.69a10.87,10.87,0,0,0-3.23,1.84,40.82,40.82,0,0,0-6.61,6.21,26.31,26.31,0,0,0-3,4l-0.61,1.39q-0.28,1.17.89,0.89a10.87,10.87,0,0,0,3.23-1.84,40.82,40.82,0,0,0,6.61-6.21,26.3,26.3,0,0,0,3-4l0.61-1.39q0.22-.95-0.5-0.95a1.75,1.75,0,0,0-.39.05h0Z" transform="translate(0 3.99)"/><path class="cls-4" d="M1061,618.4a10.87,10.87,0,0,0-3.23,1.84,40.81,40.81,0,0,0-6.61,6.21,26.3,26.3,0,0,0-3,4l-0.61,1.39q-0.28,1.17.89,0.89a10.87,10.87,0,0,0,3.23-1.84,40.81,40.81,0,0,0,6.61-6.21,26.3,26.3,0,0,0,3-4l0.61-1.39q0.22-.95-0.5-0.95a1.75,1.75,0,0,0-.39.05h0Z" transform="translate(0 3.99)"/><path class="cls-4" d="M937.8,647.27a10.87,10.87,0,0,0-3.23,1.84,40.81,40.81,0,0,0-6.61,6.21,26.3,26.3,0,0,0-3,4l-0.61,1.39q-0.28,1.17.89,0.89a10.87,10.87,0,0,0,3.23-1.84,40.81,40.81,0,0,0,6.61-6.21,26.3,26.3,0,0,0,3-4l0.61-1.39q0.22-.95-0.5-0.95a1.75,1.75,0,0,0-.39.05h0Z" transform="translate(0 3.99)"/><path class="cls-4" d="M1340,601.08a10.87,10.87,0,0,0-3.23,1.84,40.81,40.81,0,0,0-6.61,6.21,26.3,26.3,0,0,0-3,4l-0.61,1.39q-0.28,1.17.89,0.89a10.87,10.87,0,0,0,3.23-1.84,40.81,40.81,0,0,0,6.61-6.21,26.3,26.3,0,0,0,3-4l0.61-1.39q0.22-.95-0.5-0.95a1.75,1.75,0,0,0-.39.05h0Z" transform="translate(0 3.99)"/><path class="cls-5" d="M1144.47,214.34c-5.1,0-10.2,0-15.29.07-5.73.07-11.47,0.14-17.2,0.27-2.36.06-4.71,0.11-7.06,0.22-2.82.13-5.66,0.17-8.48,0.41l-9.3.8c-2.74.23-5.47,0.65-8.2,1-4.72.57-9.48,1.05-14.17,1.88l-9.38,1.64c-2.94.52-5.86,1.23-8.78,1.84-5.08,1.06-10.14,2.23-15.21,3.38s-10,2.28-14.89,3.75c-2.64.79-5.35,1.48-7.95,2.42l-8.36,3c-1.46.53-2.9,1.29-4.32,1.93L991,239.15c-2.49,1.11-4.95,2.32-7.41,3.49a114.39,114.39,0,0,0-13.37,7.13c-2.71,1.75-5.51,3.42-8.1,5.35-2.84,2.12-5.64,4.26-8.39,6.5-6.41,5.23-12.67,10.66-18.68,16.35a126,126,0,0,0-17.5,20.67c-2.25,3.33-4.28,6.74-6.19,10.27-0.73,1.35-1.43,2.71-2.14,4.06a61,61,0,0,0-3.37,8c-0.79,2.22-1.5,4.45-2.07,6.74s-0.93,4.87-1.3,7.31c-0.79,5.24-1.35,10.46-1.64,15.75-0.32,5.82-.91,11.62-1.49,17.42-0.18.78,0.12,1.08,0.89,0.89l1.39-.61a26.53,26.53,0,0,0,4-3c0.33-.29.65-0.58,1-0.87L904,367.89c-2.29,2.91-4.37,5.95-6.52,9a11,11,0,0,0-1.84,3.23c0,0.27.06,0.54,0.09,0.81a2.28,2.28,0,0,0,2.2-.53,26,26,0,0,0,4-3,39.2,39.2,0,0,0,6.21-6.61c1.73-2.43,3.36-5,5.21-7.3q2.22-2.82,4.45-5.63,3.19-3.77,6.46-7.44c2.32-2.46,4.65-4.92,7.07-7.29l0.73-.64,0,0c0.83-.5,1.68-1,2.55-1.39A34.08,34.08,0,0,1,948,338.88c2.46,0,4.92.3,7.37,0.54l3.58,0.55a43,43,0,0,1,10.57,3.28,65,65,0,0,1,9.8,5.42,68.27,68.27,0,0,1,6.5,4.73,69.13,69.13,0,0,1,5.86,5.61c1.81,1.95,3.52,4,5.26,6,0.79,0.91,1.55,1.84,2.33,2.77a13,13,0,0,0,3.21,2.85,4.08,4.08,0,0,0,1.89.41c1.63,0,3-1.07,4.27-2a40.65,40.65,0,0,0,9.25-9.14,33.07,33.07,0,0,0,2.44-3.94c0.62-1.15,1.2-2.32,1.83-3.48,1.36-2.51,2.75-5,4.12-7.5,2.25-4.11,4.66-8.1,7.16-12.06,1.61-2.39,3.22-4.78,5-7.07l0.86-1q0.86-.88,1.74-1.74,1.28-1.15,2.6-2.26c0.48-.37,1-0.73,1.46-1.09a37,37,0,0,1,3.52-2,33.12,33.12,0,0,1,7.59-2,54.87,54.87,0,0,1,8.7-.32c2.61,0.05,5.23.17,7.84,0.27,4.26,0.16,8.5.59,12.73,1a165.39,165.39,0,0,1,19.82,4,72.44,72.44,0,0,1,17.75,7.78l7,4.21c3.54,2.13,7.09,4.21,10.47,6.59,4.76,3.35,8.69,7.71,12.48,12.07,0.85,1,1.79,1.91,2.56,3l2.8,3.77c0.73,1,1.37,2.05,2,3.07a24.71,24.71,0,0,0,2.72,3.39,5,5,0,0,0,2,1.21c1.06,0.4,2.42-.33,3.29-0.79a30.25,30.25,0,0,0,6.29-5.13A33.74,33.74,0,0,0,1179,355c0.73-1.05,1.45-2.11,2.11-3.21a24.44,24.44,0,0,0,1.56-3.46c0.63-1.34,1.28-2.67,2-3.95,0.29-.39.57-0.77,0.86-1.14,0.8-.95,1.61-1.89,2.43-2.82l0.54-.54,1.08-1c1.18-.93,2.38-1.85,3.61-2.72a45.23,45.23,0,0,1,4.56-2.54,31.8,31.8,0,0,1,7.7-2,44.2,44.2,0,0,1,10,0,59.87,59.87,0,0,1,10.14,2.36,50.35,50.35,0,0,1,9.14,4.22c2.58,1.44,5.13,2.89,7.66,4.4,4.71,2.8,9.39,5.68,14.05,8.56,9.25,5.73,18.48,11.57,26.58,18.88,4.14,3.74,8,7.81,11.79,11.89a69.15,69.15,0,0,1,4.92,6.07l2.12,2.91c1,1.34,1.8,3.08,3.23,4a2.28,2.28,0,0,0,2.2-.53,26.3,26.3,0,0,0,4-3,49.28,49.28,0,0,0,4.47-4.47l1.74-2.14a10.82,10.82,0,0,0,1.84-3.23c0.34-1.79-.25-3.73-0.6-5.5-0.28-1.45-.52-2.9-0.8-4.34-0.49-2.5-1.07-5-1.63-7.45-1.22-5.43-2.35-10.88-3.49-16.34s-2.68-10.7-4.18-16c-1.33-4.7-2.79-9.36-4.25-14l-2.86-9.08c-0.27-.87-0.65-1.72-1-2.57l-2.21-5.77c-4-10.44-9.34-20.69-16.44-29.37-1.75-2.14-3.43-4.4-5.29-6.45l-6.14-6.74c-0.71-.79-1.54-1.5-2.3-2.24l-4-3.91a107.32,107.32,0,0,0-15.5-12.39c-6.5-4.32-13.59-7.45-20.74-10.52a107,107,0,0,0-17-5.9q-9-2.19-18.11-4.24c-2.39-.54-4.83-0.89-7.25-1.29s-4.64-.78-7-1.08c-3-.37-5.94-0.89-8.92-1.11l-9.34-.69c-1.88-.14-3.78-0.13-5.68-0.13-0.9,0-1.8,0-2.69,0l-3.27,0h-4.2Zm31.08,134.17,0,0h0l0,0h0Zm-259.08,4.36q-1.56,1.74-3.08,3.51v0q1.51-1.74,3.07-3.49h0Zm97.6,0.28-0.43.78h0l0.43-.77h0ZM1297,355.22l0.16,0.61h0l-0.14-.6h0Z" transform="translate(0 3.99)"/><path class="cls-6" d="M1139.85,295.12l-1.39.61a26.53,26.53,0,0,0-4,3,49.28,49.28,0,0,0-4.47,4.47l-1.74,2.14a11,11,0,0,0-1.84,3.23c-1.11,6.11-2.24,12.22-3.1,18.38a49.54,49.54,0,0,0,0,12.14,59.5,59.5,0,0,0,1.14,7.57c2.6,10.77,6.44,21.2,9.69,31.78,0.72,2.34,1.24,4.77,1.83,7.14q1,4.18,2.08,8.35,2,8,4,16c2.56,10.26,4.9,20.57,7.2,30.89q3.53,15.91,7.11,31.82c2.18,9.67,3.39,19.52,4.71,29.34,0.52,5.13,1.1,10.27,1.29,15.43q0.3,8.41.47,16.82c0.11,5.67,0,11.33-.05,17,0,2.77-.37,5.55-0.56,8.3s-0.59,5.31-.92,8a62.82,62.82,0,0,1-3.33,14.63,22.75,22.75,0,0,1-9.29,1.24,43.28,43.28,0,0,1-14.26-4.64,28.54,28.54,0,0,1-6.18-4.29,24.06,24.06,0,0,1-4.45-6,59.6,59.6,0,0,1-3.83-9.74c-0.72-2.08-1.39-4.18-2-6.29a2.27,2.27,0,0,0-2.2.53,28.24,28.24,0,0,0-6.29,5.13,41.8,41.8,0,0,0-3.9,4.45c-0.71,1-2.17,2.64-1.75,4,0.88,3,1.88,5.9,2.9,8.84a58.17,58.17,0,0,0,2.95,7.2,22.41,22.41,0,0,0,7.05,8.06,37.47,37.47,0,0,0,9.11,4.6,42.31,42.31,0,0,0,11.05,2.46c9.43,0.71,17.32-5.69,23.65-11.86a64.5,64.5,0,0,0,9.71-11.93,35.39,35.39,0,0,0,3.95-10.75,75.57,75.57,0,0,0,1.4-7.88c0.33-2.64.75-5.3,0.93-8,0.2-2.82.54-5.66,0.58-8.48,0.09-5.71.12-11.41,0.05-17.12s-0.27-11.16-.47-16.75c-0.39-11.08-2.09-22.1-3.67-33.06-1.48-10.27-4.12-20.35-6.35-30.47-2.48-11.27-5-22.53-7.54-33.77-2.39-10.4-5.12-20.73-7.7-31.08-1.3-5.22-2.54-10.45-4.12-15.59s-3.16-10-4.78-14.92c-1.2-3.66-2.39-7.3-3.29-11a86.37,86.37,0,0,1-1.82-10.71,61.61,61.61,0,0,1,.95-14.68c0.76-4.55,1.58-9.09,2.41-13.62,0.15-.63,0-0.95-0.5-0.95a1.74,1.74,0,0,0-.39.05h0Z" transform="translate(0 3.99)"/><path class="cls-5" d="M1187.39,267.32a28.22,28.22,0,0,0-6.29,5.13,41.8,41.8,0,0,0-3.9,4.45c-0.36.5-2.52,3.06-1.75,4a67.18,67.18,0,0,0,5.77,6.51c2.54,2.49,5.7,3.74,8.92,5.06,4.43,1.82,8.91,3.52,13.35,5.3a2.27,2.27,0,0,0,2.2-.53,28,28,0,0,0,6.29-5.12,42.28,42.28,0,0,0,3.91-4.45l1.22-1.84a2.27,2.27,0,0,0,.53-2.2q-6.67-2.67-13.35-5.3c-1-.37-1.91-0.79-2.86-1.18a19.22,19.22,0,0,1-6.05-3.89,60.55,60.55,0,0,1-5.77-6.51,2.39,2.39,0,0,0-.65-0.09,2.36,2.36,0,0,0-1.55.62h0Z" transform="translate(0 3.99)"/><path class="cls-5" d="M1153.23,272.44a10.88,10.88,0,0,0-3.23,1.84,40.79,40.79,0,0,0-6.61,6.21,26.34,26.34,0,0,0-3,4l-0.62,1.39c-0.18.78,0.12,1.08,0.89,0.89l0.4,0a41.8,41.8,0,0,0-3.81,4.36,11,11,0,0,0-1.84,3.23,20.73,20.73,0,0,0,.24,2.91,7.59,7.59,0,0,0,1.35,2.6l-0.14.18c-0.52.72-2.37,2.86-1.75,4a10.56,10.56,0,0,0,1.47,2.29c0.51,0.56,1.16,1,1.7,1.53l2.22,2.16c1.17,1.14,2.3,2.34,3.42,3.53,2.88,3,5.78,6,8.46,9.24a2.28,2.28,0,0,0,2.2-.53,28.17,28.17,0,0,0,6.29-5.13q0.82-.81,1.59-1.66l0.25,0.29a2.28,2.28,0,0,0,2.2-.53,28.15,28.15,0,0,0,6.29-5.12,42.19,42.19,0,0,0,3.9-4.45c0.51-.7,2.39-2.88,1.75-4l-0.45-.78a2.59,2.59,0,0,0-.06-0.28l-0.15-.06a68,68,0,0,0-5.19-7,11,11,0,0,0,1.38-1,45.29,45.29,0,0,0,8.35-8.35,10.87,10.87,0,0,0,1.84-3.23,1.4,1.4,0,0,0,.1-0.68c0-1-.23-1-1-1.33-0.61-.22-1.3-0.32-1.93-0.51l-3.28-1c-2.37-.69-4.75-1.34-7.14-2l0.29-.66q0.27-1.17-.89-0.89c-4-.4-8-0.76-12-1.16a12.77,12.77,0,0,0-2.73-.4,5.39,5.39,0,0,0-.71,0h0Z" transform="translate(0 3.99)"/><path class="cls-5" d="M1136.22,237.28a7.9,7.9,0,0,0-2.24.49,13.94,13.94,0,0,0-3.34,1.61,47.63,47.63,0,0,0-9.46,8.41,24.5,24.5,0,0,0-4.77,7.35,9.31,9.31,0,0,0-.64,4.46,18.35,18.35,0,0,0,1.41,5.42,22.77,22.77,0,0,0,2.7,4.41q0.7,1,1.43,1.95c-3.4,1.47-6.1,4.09-8.73,6.63a30.53,30.53,0,0,0-5.13,6.29,8.46,8.46,0,0,0-1.07,2.54,6.8,6.8,0,0,0,.18,2.17,5.56,5.56,0,0,0,.24,1c-0.45.43-.88,0.86-1.3,1.27a41.8,41.8,0,0,0-3.9,4.45c-0.53.73-2.37,2.85-1.75,4,1.25,2.39,3.45,3.59,5.73,4.87,1.25,0.7,2.49,1.41,3.75,2.08,2.31,1.23,4.61,2.49,7,3.62s4.54,2.29,6.88,3.24a0.86,0.86,0,0,0,.15.77c2.48,2.63,5,5.11,7.67,7.58,1.75,1.64,3.61,3.17,5.44,4.73,1.65,1.41,3.4,2.72,5.11,4.06,0.6,0.48,1.22.94,1.85,1.39q1.51,1.19,3,2.36c2.24,1.71,4.54,3.31,6.86,4.91,1,0.71,2.08,1.36,3.13,2,0.72,0.46,1.43.94,2.13,1.43a5.88,5.88,0,0,0,4.48.73,13.36,13.36,0,0,0,3.61-2.07,40.81,40.81,0,0,0,6.61-6.21c1.69-1.95,3.57-4.16,4.16-6.74a12.19,12.19,0,0,0-.12-4,22.17,22.17,0,0,0-1.52-5.69,69.51,69.51,0,0,0-3.31-7.2c0.47-.45.93-0.91,1.37-1.35a41.8,41.8,0,0,0,3.9-4.45c0.16-.23,2.67-3.33,1.75-4a55.64,55.64,0,0,0-6-3.93q0.41-.5.81-1a41.77,41.77,0,0,0,6.3-6.77,15.84,15.84,0,0,0,2.81-5.7c0.77-3.29-.09-7-1.24-10.09a46.53,46.53,0,0,0-5.05-9.43,74.32,74.32,0,0,0-7.58-9.31,68.78,68.78,0,0,0-18.26-14,45.88,45.88,0,0,0-9.8-3.8,20.31,20.31,0,0,0-4.87-.56h-0.37Zm1,22.18a60.68,60.68,0,0,1-4.16-5.58,63.16,63.16,0,0,1,5.73,2.77,61.46,61.46,0,0,1,11,7.76,40.47,40.47,0,0,0-4.13,3.74l0,0a86.34,86.34,0,0,1-8.43-8.71h0Zm24,20a22.58,22.58,0,0,1-5.5-9.36,80.22,80.22,0,0,1,7.24,9,40.62,40.62,0,0,1,2.23,3.61,32.14,32.14,0,0,1-4-3.2h0Zm-51.79,5.95-0.56.25a2.42,2.42,0,0,1,.56-0.25h0Z" transform="translate(0 3.99)"/><path class="cls-5" d="M1151.4,266.26l-1.39.62a26.53,26.53,0,0,0-4,3,49.23,49.23,0,0,0-4.47,4.47c-1.32,1.52-3,3.37-3.58,5.37-1,3.46-2,6.92-2.94,10.39a35.74,35.74,0,0,0-1.28,10.76c0,0.08,0,.17,0,0.25l-0.2-.11a27.89,27.89,0,0,1-4-2.24,2.28,2.28,0,0,0-2.2.53,28.33,28.33,0,0,0-6.29,5.13,42.19,42.19,0,0,0-3.9,4.45c-0.23.32-2.62,3.24-1.75,4,2.34,2.14,4.59,4.35,6.86,6.57,1.63,1.6,3.49,3,5.23,4.51l5.16,4.4,2.94,2.5c1.18,1,2.37,2,3.59,2.91a14,14,0,0,0,1.94,1.29,7.56,7.56,0,0,0,2,.49,2.28,2.28,0,0,0,2.2-.53,26.47,26.47,0,0,0,3.67-2.69q1.55,0.89,3.13,1.73a2.27,2.27,0,0,0,2.2-.53,28.06,28.06,0,0,0,6.29-5.13,42.28,42.28,0,0,0,3.91-4.45c0.66-.91,2.23-2.7,1.75-4a7.67,7.67,0,0,0-1.32-2.42c-0.42-.53-0.87-1-1.29-1.55-0.61-.77-1.24-1.53-1.83-2.31-1.06-1.41-2.16-2.81-3.18-4.26-1.47-2.09-3-4.17-4.37-6.32a61.56,61.56,0,0,1-3.25-5.5q0.58-.81,1.09-1.66c0.13-.24,1.54-2.9-0.28-2.29q-1.14.39-2.24,0.82a24.35,24.35,0,0,1-1.51-5.53,34.88,34.88,0,0,1,1-10.53c0.92-3.78,2.09-7.51,3.16-11.25q0.22-.95-0.5-0.95a1.76,1.76,0,0,0-.39.05h0Z" transform="translate(0 3.99)"/><path class="cls-5" d="M1207.73,261.1a28.15,28.15,0,0,0-6.29,5.13q-4.93,4.93-9.91,9.8-0.55.31-1.12,0.6a36.44,36.44,0,0,1-10.88,2.26c-1.61.11-3.25,0.3-4.86,0.31-3.22,0-6.48.11-9.7-.15a6.29,6.29,0,0,0-2.46,0,10.88,10.88,0,0,0-3.23,1.84,54.93,54.93,0,0,0-4.91,4.27,42.22,42.22,0,0,0-3.64,4.1l-0.07,0c-1.1-.69-2.22-1.33-3.34-2-0.82-.48-1.66-0.95-2.49-1.42-0.61-.35-1.2-0.73-1.81-1.07a3.21,3.21,0,0,1-1.1-.85,10.84,10.84,0,0,0,1.14-2.28c0.18-.78-0.12-1.07-0.89-0.89l-1.39.61a26.34,26.34,0,0,0-4,3,48.19,48.19,0,0,0-5,5,21.71,21.71,0,0,0-4,5.9,3.33,3.33,0,0,0-.27,2,2.25,2.25,0,0,0,1.43,1.76c2.16,1.33,4.4,2.54,6.59,3.82q2.09,1.22,4.07,2.59a49.33,49.33,0,0,0-3.53,3.62c-0.14.17-4.8,5.64-3.49,6.18,2.11,0.86,4.29,1.6,6.42,2.41a41.26,41.26,0,0,1,5.95,2.94,37.75,37.75,0,0,0,3.52,2,3.62,3.62,0,0,0,1.6.37,3.9,3.9,0,0,0,2.67-.69,30.22,30.22,0,0,0,6.78-5.41l1.21-1.25,2,0.79a21.84,21.84,0,0,0,6.63,1.7,4.83,4.83,0,0,0,3-.66,12,12,0,0,0,2.22-1.42,40.79,40.79,0,0,0,6.61-6.21,26.34,26.34,0,0,0,3-4,12.36,12.36,0,0,0,.82-1.77,3.71,3.71,0,0,0-.32-2.32,8.49,8.49,0,0,0-2-1.87c-0.65-.56-1.39-1-2.07-1.55-1.37-1-2.77-2.07-4.11-3.15-1.1-.88-2.2-1.75-3.3-2.64l0.82-.16c8.47-1.76,15-7.86,20.93-13.73q4.76-4.67,9.48-9.37a41.8,41.8,0,0,0,3.9-4.45c0.27-.36,2.6-3.19,1.75-4a2.44,2.44,0,0,0-.65-0.09,2.35,2.35,0,0,0-1.55.62h0Zm-15.45,14.41-0.19.16,0.19-.16h0Z" transform="translate(0 3.99)"/><path class="cls-5" d="M1170.64,283.58l-1.39.62a26,26,0,0,0-4,3c-2.43,2.2-4.85,4.43-7.35,6.57l-0.67.49c-0.77.47-1.56,0.91-2.37,1.32l-0.8.29c-0.93-.48-1.85-1-2.78-1.47-1.43-.77-2.87-1.52-4.31-2.27-0.76-.39-1.54-0.75-2.31-1.12-0.58-.28-1.16-0.54-1.75-0.79a10.16,10.16,0,0,0-3.34-.5,10.82,10.82,0,0,0-3.23,1.84,41.42,41.42,0,0,0-4.45,3.9,41.84,41.84,0,0,0-3.91,4.45,11,11,0,0,0-1.84,3.23,3,3,0,0,0,.18,2.37,5.36,5.36,0,0,0,1,1c0.57,0.52,1.17,1,1.74,1.54l0.42,0.38a4.85,4.85,0,0,0-.28.64c-0.73,1-1.89,2.82-1.23,3.33l0.1,0.08a1.27,1.27,0,0,0-.05,1.41c1.06,1,2.37,1.67,3.52,2.53,0.79,0.59,1.56,1.17,2.32,1.78,1.88,1.52,3.73,3.07,5.59,4.6a2.28,2.28,0,0,0,2.2-.53,15.38,15.38,0,0,0,1.73-1.08l0.34,0.18,2.52,1.34a32.92,32.92,0,0,0,5.13,2.57,2.28,2.28,0,0,0,2.2-.53,28.24,28.24,0,0,0,6.29-5.13,41.8,41.8,0,0,0,3.9-4.45c0.53-.72,2.37-2.85,1.75-4a8.62,8.62,0,0,0-1.43-2.14,18,18,0,0,0-2.45-1.88c-0.56-.41-1.13-0.8-1.71-1.18q0.89-1,1.71-2.1l1.22-1.84a2.27,2.27,0,0,0,.53-2.2c-0.5-.39-1-0.78-1.52-1.13a8.93,8.93,0,0,0-2.11-.93l3.74-3.41a49.28,49.28,0,0,0,4.47-4.47l1.74-2.14a10.82,10.82,0,0,0,1.84-3.23c0.15-.63,0-0.95-0.5-0.95a1.74,1.74,0,0,0-.39.05h0Z" transform="translate(0 3.99)"/><path class="cls-5" d="M1163.48,284.2c-3.46,1.89-6.9,3.86-10.48,5.52a59,59,0,0,1-9.45,3c-1.61.36-3.24,0.64-4.88,0.86-1.84.24-3.67,0.06-5.5,0.38a10.87,10.87,0,0,0-3.23,1.84,45.61,45.61,0,0,0-8.35,8.35s-0.38.49-.78,1.09a41.72,41.72,0,0,0-3.42,4c-0.46.63-2.44,2.94-1.75,4a9.83,9.83,0,0,0,.92,1.34,8.39,8.39,0,0,0,1.95,1.56c0.79,0.55,1.61,1.06,2.38,1.64l4,3c2,1.5,4,2.91,6.08,4.34s4,2.69,6,4c1,0.68,2,1.34,3.06,2,0.59,0.39,1.17.77,1.75,1.18,0.74,0.51,1.45,1,2.22,1.48a13.89,13.89,0,0,0,1.9.83,2.27,2.27,0,0,0,2.2-.53,25.81,25.81,0,0,0,4-3c0.39,0.33.79,0.65,1.19,1a2.27,2.27,0,0,0,2.2-.53,28.24,28.24,0,0,0,6.29-5.13,41.42,41.42,0,0,0,3.9-4.45c0.35-.48,2.54-3.08,1.75-4a24.21,24.21,0,0,1-2.72-3.92,38.28,38.28,0,0,1-2.36-5.65,69.71,69.71,0,0,1-2.36-10.1c-0.32-1.7-.64-3.41-0.94-5.11a38.77,38.77,0,0,0,5-5.51,10.82,10.82,0,0,0,1.84-3.23c0-.27-0.06-0.54-0.09-0.81a2.4,2.4,0,0,0-.65-0.09,2.34,2.34,0,0,0-1.55.62h0Z" transform="translate(0 3.99)"/><path class="cls-5" d="M1115.25,264.51a10.88,10.88,0,0,0-3.23,1.84,45.29,45.29,0,0,0-8.35,8.35s-2.74,3.54-1.75,4c2.35,1.17,4.75,2.24,7.2,3.23l-0.44.44a42.68,42.68,0,0,0-3.91,4.45c-0.29.41-2.57,3.15-1.75,4,1.22,1.32,2.4,2.64,3.73,3.85s2.66,2.2,4,3.27q0.76,0.6,1.49,1.21l-1.23,1.21a41.8,41.8,0,0,0-3.9,4.45c0,0.07-2.73,3.51-1.75,4l1.43,0.77q-1.12,1-2.18,2.05a41.8,41.8,0,0,0-3.91,4.45c-0.5.68-2.4,2.89-1.75,4a1.08,1.08,0,0,0,.82.78c0.43,0.13.87,0.25,1.3,0.37s0.84,0.25,1.26.38l2.68,0.8,5.68,1.7c1.8,0.54,3.63,1,5.45,1.49,3.64,1,7.47,2,11.26,1.45a11.27,11.27,0,0,0,4.41-2.27q0.83-.64,1.62-1.3c1,0.39,2.06.74,3.09,1.11a2.27,2.27,0,0,0,2.2-.53,26.3,26.3,0,0,0,4-3,49.32,49.32,0,0,0,4.47-4.47l1.74-2.14a10.84,10.84,0,0,0,1.84-3.23,8.25,8.25,0,0,0,.11-2,3.2,3.2,0,0,0-.79-2,18.44,18.44,0,0,0-1.52-1.56c-0.87-.91-1.73-1.83-2.62-2.73l-3.52-3.53a44.91,44.91,0,0,0,6.2-.1,11,11,0,0,0,3.23-1.84,42.19,42.19,0,0,0,4.45-3.9,41.42,41.42,0,0,0,3.9-4.45,10.82,10.82,0,0,0,1.84-3.23,14.23,14.23,0,0,0,0-1.91l0.11-.13a26.53,26.53,0,0,0,3-4l0.62-1.39c0.18-.78-0.12-1.08-0.89-0.89q-3.95-.29-7.88-0.69a89.73,89.73,0,0,1-9.71-1.64l-1.58-.75c-2.75-1.32-5.65-2.39-8.46-3.58-3.45-1.46-6.92-2.87-10.45-4.12-1.91-.68-3.78-1.48-5.71-2.11a17.43,17.43,0,0,0-2.48-.56,7.88,7.88,0,0,0-1.32-.12,8.23,8.23,0,0,0-2,.26h0Zm41.19,12.55,0.46,0-0.46,0h0ZM1129,324.24l-0.07.16,0.07-.16h0Z" transform="translate(0 3.99)"/><path class="cls-5" d="M1155.58,253.07l-1.09,1.42a7,7,0,0,0-1,3.53c-0.45,4.49-.83,9-1.36,13.48-0.1.59-.21,1.17-0.35,1.75l-0.76.44a11,11,0,0,0-5.35,10.1c0,0.09,0,.18,0,0.28l-0.31,0a90.29,90.29,0,0,1-9-2c-2.56-.68-5.13-1.41-7.75-1.85a7,7,0,0,0-8.61,8.61l0.1,0.32a7.57,7.57,0,0,0-2.39,1.15,7,7,0,0,0-11.8,6.55,4.25,4.25,0,0,0-.48.78c-0.35.75-.68,1.51-1,2.28a21.07,21.07,0,0,0-.49,3.16q0,0.43.08,0.86a7.15,7.15,0,0,0-.13,1.32,9.3,9.3,0,0,0,.24,2.63,10.32,10.32,0,0,0,1.39,2.88,38,38,0,0,0,3.4,4l0.74,1c1,1.43,2.17,2.8,3.28,4.18,0.66,0.82,1.37,1.62,2,2.43,0.52,0.62,1,1.25,1.57,1.86a14.22,14.22,0,0,0,3.91,2.73,7.85,7.85,0,0,0,2.14.8,7,7,0,0,0,8.38-3l0.71-1.67a7.08,7.08,0,0,0,0-3.72,32.52,32.52,0,0,0-.91-5.27,29.69,29.69,0,0,0-2-4.86,4.71,4.71,0,0,0,1.35-.5l1.24,1.33c0.54,0.57,1.05,1.16,1.57,1.74,1.68,1.89,4.29,3.41,6.88,3.08l1.86-.25a7,7,0,0,0,4.89-4.89,7.07,7.07,0,0,0,0-3.72c-0.35-.86-0.68-1.71-1.1-2.54a12.58,12.58,0,0,0-2.15-2.6l-0.27-.27a7.89,7.89,0,0,0,1.25-2.65c0.94,0.12,1.88.21,2.83,0.25a23.6,23.6,0,0,0,5.05-.59,10.82,10.82,0,0,0,4.51-2.37,8.85,8.85,0,0,0,2.59-3.34,7,7,0,0,0,1-3.53,2.63,2.63,0,0,0,0-1.18c-0.08-.82-0.23-1.62-0.39-2.42l0.37-.24a11.86,11.86,0,0,0,4.63-6.11c1-3,1.2-6.19,1.52-9.3q0.57-5.53,1.11-11.06a6.73,6.73,0,0,0-2-4.95,7,7,0,0,0-9.9,0h0Zm-3,19.66-0.12.16h0l0.12-.16h0Zm-0.46.26,0,0.12h0l0.05-.12h0Zm6.45,12.54-0.22.29,0.22-.29h0Z" transform="translate(0 3.99)"/><path class="cls-5" d="M1085.54,260.89a7,7,0,0,0-4.18,3.22l-0.71,1.67a7.08,7.08,0,0,0,0,3.72c0.2,1.39.39,2.77,0.64,4.16v0.06a6.8,6.8,0,0,0-1.76,1.27,7,7,0,0,0-1.09,8.48,10.51,10.51,0,0,0,3.32,3.48l1.71,1.12c0.86,0.56,1.7,1.14,2.54,1.72,1.62,1.13,3.22,2.27,4.85,3.38,3.45,2.35,7,4.59,10.52,6.8q0.91,0.57,1.84,1.11c2.68,2.28,5.36,4.55,8,6.89,3.67,3.29,7,6.82,10.38,10.44l4.94,5.35c0.71,0.78,1.44,1.55,2.16,2.32a30,30,0,0,0,4,3.57,8.33,8.33,0,0,0,3,1.53,30.77,30.77,0,0,0,3.38.5,7,7,0,0,0,3.54-1,6.75,6.75,0,0,0,.85-0.59c2.15,1.39,4.34,2.72,6.59,4a7,7,0,0,0,7.06-12.09c-2.76-1.51-5.44-3.18-8.07-4.91-1.3-.87-2.67-1.68-3.92-2.62l-2.44-1.84a35.56,35.56,0,0,0-3.86-4.71,59.62,59.62,0,0,0-8-6.55c-1.59-1.16-3.24-2.25-4.89-3.32s-3.51-2.32-5.33-3.37q-1.22-.88-2.45-1.75c-4.09-2.86-8.19-5.68-12.3-8.51l-0.92-.63q-0.8-.81-1.57-1.66c-1.94-2.13-3.88-4.31-5.7-6.56a27.55,27.55,0,0,1-2.13-3.34,34.47,34.47,0,0,1-1.33-6.44,6.66,6.66,0,0,0-3.21-4.18,7.05,7.05,0,0,0-5.39-.71h0Z" transform="translate(0 3.99)"/><path class="cls-5" d="M926.08,300.09a7.48,7.48,0,0,0-3.22,4.18,102.75,102.75,0,0,0-3.62,10.66c-0.91,3.54-2,7-3,10.5-0.94,3.11-1.89,6.26-3.1,9.29-1.29,3.23-2.56,6.47-3.86,9.69a88.39,88.39,0,0,1-4.9,10.19,7,7,0,1,0,12.09,7.07,103.14,103.14,0,0,0,6.27-13.43c1.73-4.27,3.46-8.54,5-12.87,0.73-2,1.36-4.13,2-6.2,0.71-2.34,1.45-4.66,2.11-7,0.6-2.14,1.13-4.29,1.78-6.42,0.8-2.61,1.8-5.17,2.76-7.73a6.78,6.78,0,0,0-.7-5.39,7.06,7.06,0,0,0-4.18-3.22,7.06,7.06,0,0,0-5.39.71h0Zm-16.2,42.84-0.27.63,0.27-.63h0Z" transform="translate(0 3.99)"/><path class="cls-5" d="M930.64,283.5a7.4,7.4,0,0,0-3.22,4.18c-4.24,11.74-8.83,23.35-13.49,34.92-2.1,4.8-4.22,9.6-6.27,14.41-1.14,2.68-2.24,5.38-3.44,8l-2.28,5.05c-1.13,2.51-2.63,5-3.12,7.72a7,7,0,0,0,11.7,6.81,21.14,21.14,0,0,0,2.52-3.31c0.35-.59.61-1.23,0.91-1.84l1.11-2.23c0.83-1.66,1.7-3.3,2.55-4.94,1.58-3,2.85-6.2,4.15-9.35,2.94-6.42,5.85-12.84,8.63-19.32,0.66-1.54,1.34-3.06,2-4.59,0.35-.8.77-1.58,1.15-2.37s0.73-1.65,1.18-2.42c0.87-1.5,1.67-3.09,2.65-4.51,1.34-2,2.68-3.92,4.06-5.84a6.77,6.77,0,0,0,.7-5.39,7,7,0,0,0-2.47-3.68q0.63-1.71,1.25-3.42a6.78,6.78,0,0,0-.7-5.39,7,7,0,0,0-9.58-2.51h0Zm-8.28,58-0.19.45,0.19-.45h0Z" transform="translate(0 3.99)"/><path class="cls-5" d="M945.07,295.53c-3,1.13-6,2.26-9.08,3.36-2.07.75-4.12,1.43-6.15,2.3a12.8,12.8,0,0,0-4.45,3.18,20.86,20.86,0,0,0-3.48,5.9c-1.37,3.13-2.4,6.39-3.56,9.6-0.9,2.51-1.81,5-2.8,7.48q-1.14,2.67-2.26,5.36c-0.91,2.12-1.87,4.21-2.92,6.28-1.13,2.23-2.38,4.37-3.65,6.52s-2.57,4.61-3.87,6.9c-0.67,1.17-1.3,2.35-1.91,3.55-0.48.94-1,1.87-1.39,2.83s-0.86,2-1.21,3A9.78,9.78,0,0,0,898,366c0.08,0.62.16,1.24,0.25,1.86A7,7,0,0,0,910,371,6.75,6.75,0,0,0,912,366q-0.06-.4-0.09-0.81c1.18-2.52,2.57-4.92,3.92-7.37s2.72-4.89,4.17-7.3a118.3,118.3,0,0,0,7.43-15.72c1.25-2.94,2.46-5.89,3.55-8.9s2.13-6.31,3.35-9.4a24.15,24.15,0,0,1,1.38-2.69l0.31-.16c2-.76,4.1-1.44,6.14-2.18,2.21-.8,4.41-1.64,6.61-2.46a7.48,7.48,0,0,0,4.18-3.22,7,7,0,0,0-2.51-9.58,7.53,7.53,0,0,0-3.65-1,5,5,0,0,0-1.75.29h0Zm-8.68,17.67-0.19.14,0.19-.14h0Zm-22.65,18.45-0.3.7,0.3-.7h0Z" transform="translate(0 3.99)"/><path class="cls-7" d="M1280.24,31.93c-2.64,0-5.27.09-7.91,0.19l-10.44.39c-1.13,0-2.27.18-3.39,0.27l-6.79.54c-6.05.47-12.07,1.4-18.09,2.18-3.39.44-6.76,1.09-10.13,1.67-2.56.45-5.12,0.86-7.67,1.39-3.6.75-7.21,1.44-10.79,2.28a156.83,156.83,0,0,0-24.43,7.61A79.5,79.5,0,0,0,1169.23,54a66.22,66.22,0,0,0-10.4,8,64.8,64.8,0,0,0-8,9.63A96.27,96.27,0,0,0,1144,83c-1.6,3-3.3,6-5,9-1.84,3.11-3.64,6.25-5.59,9.29-0.14-.42-0.29-0.84-0.45-1.25-0.71-1.82-1.35-3.72-2.2-5.48l-2.37-4.94c-0.59-1.22-1.32-2.39-2-3.57s-1.24-2.31-2-3.41c-2.48-3.78-4.95-7.55-7.62-11.2s-5.32-6.93-8.1-10.3a77.68,77.68,0,0,0-8.88-9.19,61.8,61.8,0,0,0-10.27-7.39A51.49,51.49,0,0,0,1084.3,42c-2.41-1-4.82-2-7.3-2.81-8.8-3-18.22-4.15-27.46-4.68a130,130,0,0,0-21.14.45l-10.56,1.13c-1.59.17-3.14,0.48-4.7,0.77l-6.54,1.19c-2.84.52-5.66,1.2-8.48,1.84a165.78,165.78,0,0,0-16.76,4.54c-4.2,1.41-8.3,3.14-12.38,4.88a91.35,91.35,0,0,0-12.21,6.26,115,115,0,0,0-10.21,7.3,78.59,78.59,0,0,0-9.34,8.54c-1.55,1.68-3,3.48-4.36,5.29a37.69,37.69,0,0,0-3.37,5.12,51,51,0,0,0-2.74,6.44,58,58,0,0,0-2,6.94c-0.77,3.29-1.5,6.59-2,9.92-0.84,5.41-1.34,10.85-2,16.28a6.67,6.67,0,0,0,2.05,4.95,7,7,0,0,0,9.9,0l1.09-1.42a6.93,6.93,0,0,0,1-3.53c0.44-3.5.83-7,1.21-10.52,1.1-7,2.42-14,5-20.59a34.88,34.88,0,0,1,3.4-5.66,74.86,74.86,0,0,1,5.6-6.19,78.63,78.63,0,0,1,6.58-5.68c2.67-2,5.41-3.9,8.25-5.66a82.87,82.87,0,0,1,10.81-5.48c2.82-1.17,5.66-2.3,8.54-3.33,3.72-1.33,7.54-2.39,11.36-3.39,3.18-.83,6.41-1.5,9.61-2.21,4.62-1,9.27-1.85,13.92-2.69l10.52-1.13a123.23,123.23,0,0,1,13.59-.51,135.28,135.28,0,0,1,16,1.05,86.17,86.17,0,0,1,19.17,5.17,51.62,51.62,0,0,1,9.49,5.47,72.09,72.09,0,0,1,7.81,7.23c2.61,2.81,5,5.83,7.37,8.86,2.13,2.8,4.19,5.64,6.12,8.58l2.35,3.57c0.43,0.65.91,1.29,1.29,2l3.42,6.1c0.86,1.54,1.56,3.19,2.31,4.79,0.47,1.15.94,2.3,1.32,3.47,0.64,2,1.26,4,1.85,6,0.25,0.85.52,1.68,0.85,2.51a13.45,13.45,0,0,0,1.62,3.29,5.07,5.07,0,0,0,1.63,1.84,7,7,0,0,0,3.09,1.8,5.55,5.55,0,0,0,2.47.48q1.31-.16,2.61-0.36c0.81-.32,1.61-0.66,2.39-1s1.35-1,2-1.5a27.51,27.51,0,0,0,2.16-2.32,63.29,63.29,0,0,0,5.08-7c2.41-3.72,4.62-7.59,6.8-11.44,1.28-2.26,2.59-4.51,3.81-6.8,1.32-2.46,2.64-4.91,4.11-7.29,1.2-1.93,2.49-3.8,3.85-5.62,1.26-1.57,2.57-3.09,4-4.54a42.94,42.94,0,0,1,4-3.57,66.71,66.71,0,0,1,5.85-3.9,61.7,61.7,0,0,1,7-3.44,155.73,155.73,0,0,1,22.84-7.13c3.62-.86,7.28-1.57,10.92-2.33,5.43-1.13,10.91-2,16.38-2.93l13.72-1.76c2.35-.3,4.76-0.37,7.12-0.56,2.16-.17,4.32-0.41,6.48-0.49,5.09-.19,10.17-0.42,15.26-0.51,9.44-.16,18.94-0.56,28.34.53,2.3,0.35,4.59.78,6.85,1.31a49.24,49.24,0,0,1,6.73,2.19,58.46,58.46,0,0,1,10.87,6.39,53.89,53.89,0,0,1,7.62,7.32,70.53,70.53,0,0,1,7,13q2.27,5.62,4.07,11.41a87.5,87.5,0,0,1,2.71,12.34c0.6,5.58,1.18,11.14,1.35,16.75,0.23,7.57.6,15.19-.26,22.73a68.72,68.72,0,0,1-3.35,13.82c-0.42.94-.85,1.87-1.3,2.8-0.29.59-.6,1.16-0.91,1.74-1,1.88-2.2,4-2.11,6.23a8.09,8.09,0,0,0,1,4.23,11.23,11.23,0,0,0,2,2.41,13.22,13.22,0,0,0,5.84,2.9,42.74,42.74,0,0,0,10,.74c3,0,6,0,9-.09s6.1-.08,9.14-0.27c6.12-.4,12.26-0.89,18.39-1.11,3.12-.11,6.24-0.31,9.36-0.33l5.42,0c1.25,0,2.51-.08,3.75,0l5.18,0.35c1.13,0.07,2.28.09,3.4,0.23l7.26,0.92a85.13,85.13,0,0,1,10.07,2.14,97.4,97.4,0,0,1,9.88,3.5c2,0.86,4,1.77,5.93,2.75a45.79,45.79,0,0,1,6.38,3.95,36.13,36.13,0,0,1,4.79,4.89,53.46,53.46,0,0,1,5.65,9.5,63.65,63.65,0,0,1,3.5,13.38c0.34,3,.52,6,0.71,9a89.61,89.61,0,0,1-.09,15.2,67.34,67.34,0,0,1-3.94,14.12,65.17,65.17,0,0,1-7.14,12.21A71.8,71.8,0,0,1,1460,276.24a61.23,61.23,0,0,1-11.26,6.43,83.75,83.75,0,0,1-19,5.14c-5.59.68-11.24,1-16.86,1.23a86.91,86.91,0,0,1-13.37-.49l-5.05-.62c-3.36-.54-6.72-1.09-10.06-1.71l-2.44-.46c-2.76-.53-5.74-0.91-8.3.59a9,9,0,0,0-2.95,2.89,8.48,8.48,0,0,0-.81,6c0.29,1.16.66,2.3,0.95,3.47s0.43,2.06.59,3.1c0.4,3.29.7,6.62,0.85,9.93a117.73,117.73,0,0,1,.16,15.71,29.47,29.47,0,0,1-1.22,4.72,24.26,24.26,0,0,1-1.8,3.11c-0.38.41-.77,0.79-1.18,1.16a18.77,18.77,0,0,1-2.11,1.2,50.14,50.14,0,0,1-9.66,2.28,87.5,87.5,0,0,1-15.33.6c-1.68-.1-3.36-0.3-5-0.49l-2.92-.52a29.12,29.12,0,0,1-5.3-1.51c-0.59-.29-1.16-0.59-1.74-0.91a7,7,0,1,0-7.07,12.09,37.52,37.52,0,0,0,8,3.28,49.93,49.93,0,0,0,5.2,1.05c2.57,0.46,5.19.66,7.79,0.94,6.58,0.71,13.3-.11,19.82-1a50.39,50.39,0,0,0,9-2,39.78,39.78,0,0,0,4.87-2,21,21,0,0,0,7.59-6.85,20.81,20.81,0,0,0,2.43-4.39,31.86,31.86,0,0,0,1.86-5.36,42.82,42.82,0,0,0,.87-5.8,89,89,0,0,0-.1-13.11c-0.11-2.38-.28-4.74-0.46-7.11-0.14-1.75-.3-3.48-0.5-5.22q-0.07-.59-0.14-1.17l1,0.17c3.35,0.58,6.71,1,10.08,1.45,1.87,0.23,3.73.46,5.61,0.61a108.76,108.76,0,0,0,13,.2c3.52-.14,7-0.37,10.55-0.7a127.93,127.93,0,0,0,13.4-1.91,76.62,76.62,0,0,0,12.91-3.89,79.47,79.47,0,0,0,11.25-5.41,60.75,60.75,0,0,0,10.89-8.41,79.46,79.46,0,0,0,8.53-9.89,65.29,65.29,0,0,0,6.71-10.9,70.36,70.36,0,0,0,7-26.5,128.05,128.05,0,0,0-.5-16.33,74.82,74.82,0,0,0-4-20.41,54.67,54.67,0,0,0-5.84-11.62,46.09,46.09,0,0,0-8.55-10c-6.64-5.59-14.79-9.05-22.87-12a77.39,77.39,0,0,0-11.27-3.23c-2.81-.57-5.66-0.95-8.5-1.3-3.07-.39-6.13-0.82-9.22-1l-5.94-.4c-1.16-.08-2.33,0-3.5,0-3.1,0-6.18,0-9.27.15-7.89.29-15.77,0.76-23.66,1.27-3.67.24-7.36,0.26-11,.36-1.73,0-3.46,0-5.19,0s-3.41.06-5.12,0c0.69-1.56,1.33-3.15,1.92-4.74a51.31,51.31,0,0,0,1.84-7.12c0.63-3,1.1-6,1.49-9a113.92,113.92,0,0,0,.51-14.61c0-2.73-.1-5.5-0.25-8.23-0.16-2.95-.19-5.93-0.51-8.86-0.45-4.17-.84-8.35-1.49-12.5-1.41-9-4.43-17.63-8-26a88.64,88.64,0,0,0-5.38-10.63,45.37,45.37,0,0,0-8.88-10.46,71.14,71.14,0,0,0-10.18-7.57,60.38,60.38,0,0,0-23.93-8.21,114.16,114.16,0,0,0-14.14-1.08q-1.6,0-3.21,0c-3.73,0-7.47.1-11.2,0.17h0ZM1128.91,107.2h0l-0.42.18,0.42-.18h0Z" transform="translate(0 3.99)"/><path class="cls-7" d="M885,119.6a34.52,34.52,0,0,0-6,2.29,29.76,29.76,0,0,0-4.51,2.67,46.1,46.1,0,0,0-8.75,8c-3.3,3.87-5.92,8.3-8.69,12.55-1.55,2.38-3.08,4.79-4.61,7.19-1.38,2.17-2.59,4.44-3.86,6.68-0.94,1.67-1.7,3.47-2.54,5.19a93.54,93.54,0,0,0-5.16,13.22,90.47,90.47,0,0,0-3.18,16.13,35.29,35.29,0,0,0,.08,8.32,73.86,73.86,0,0,0,1.61,9.23,50.26,50.26,0,0,0,2.85,7.78,42,42,0,0,0,4,6.72c1.05,1.56,2.21,3.05,3.31,4.58,2.25,3.11,4.65,6.13,7,9.17,2.07,2.71,4.11,5.44,6.32,8,1.88,2.19,3.77,4.37,5.59,6.62a19.33,19.33,0,0,1,1.11,1.76c0.06,0.2.12,0.41,0.17,0.61s0,0.52,0,.78a15.65,15.65,0,0,1-.47,1.64c-0.59,1.21-1.2,2.41-1.8,3.61s-1,2.39-1.55,3.57a84.69,84.69,0,0,0-3.05,8.16A72.21,72.21,0,0,0,860,289.77c-0.42,5.06-.64,10.13-0.76,15.21a27.22,27.22,0,0,0,1.3,9.66,16.07,16.07,0,0,0,8.3,8.84,66.18,66.18,0,0,0,11.79,4.41,7,7,0,1,0,3.72-13.5,74.88,74.88,0,0,1-7.51-2.56,24.3,24.3,0,0,1-2.72-1.43l-0.37-.38c-0.16-.55-0.3-1.1-0.41-1.67a64,64,0,0,1,0-6.9c0.06-1.85.14-3.7,0.22-5.55,0.15-3.19.46-6.37,0.83-9.54a52,52,0,0,1,1.46-7c0.4-1.27.74-2.59,1.21-3.83l1.39-3.63c0.79-1.8,1.62-3.57,2.51-5.33a35.79,35.79,0,0,0,2-4.71,19.08,19.08,0,0,0,.8-5.18,15,15,0,0,0-1-5.61,21.65,21.65,0,0,0-3.71-6.2c-3-3.77-6.21-7.34-9.21-11.1q-2.54-3.31-5.11-6.61c-1.2-1.59-2.42-3.18-3.59-4.79a67,67,0,0,1-6.82-10.68,50.24,50.24,0,0,1-2.57-10.15c-0.13-1.14-.23-2.29-0.28-3.44a31.12,31.12,0,0,1,.26-4.92,86,86,0,0,1,5.37-19.74,102.39,102.39,0,0,1,7.21-13.81c1.43-2.25,2.86-4.51,4.32-6.75,2.17-3.34,4.27-6.76,6.61-10a44,44,0,0,1,5.87-5.94,33.8,33.8,0,0,1,5.16-3.09,28.36,28.36,0,0,1,4.55-1.26,91.92,91.92,0,0,1,13.51.13c2.82,0.14,5.61.43,8.4,0.76,3.74,0.7,7.45,1.49,11.17,2.32a7.25,7.25,0,0,0,5.39-.71,7,7,0,0,0,3.22-4.18c1-3.54-1.16-7.78-4.89-8.61a136.63,136.63,0,0,0-18.35-3.23c-2.62-.22-5.23-0.42-7.86-0.5l-4.21-.14q-1,0-2,0A42.25,42.25,0,0,0,885,119.6h0Z" transform="translate(0 3.99)"/><path class="cls-2" d="M1215.88,123.65c-2.22.22-4.44,0.48-6.66,0.77q-8.05,1.07-16,2.73a0,0,0,0,0,0,0q9.38,2,18.88,3.1c2.41,0.29,4.82.53,7.23,0.75,6.22,0.56,12.48.83,18.69,1.58a96,96,0,0,1,17,4.41c2.73,0.93,5.46,1.87,8.16,2.89a0,0,0,0,0,0,0c-2.78-2.5-5.7-4.79-8.69-7a50.73,50.73,0,0,0-11.41-6.42,49.08,49.08,0,0,0-15.9-3.24q-1.24-.06-2.5-0.06c-3,0-5.94.23-8.87,0.52h0Z" transform="translate(0 3.99)"/><path class="cls-2" d="M1012.91,107.62a28.93,28.93,0,0,0-7.72,3.41A34,34,0,0,0,994,122.31a42,42,0,0,0-3.12,6.79,46.17,46.17,0,0,0-1.82,6.5q-0.42,1.82-.81,3.65a32.42,32.42,0,0,0-.81,7.2,0,0,0,0,0,0,0c0.23-.67.47-1.32,0.74-2l0,0.09a61.73,61.73,0,0,1,2.86-5.47c0.61-1.05,1.2-2.11,1.81-3.16,0.79-1.34,1.55-2.69,2.38-4,0.72-1.14,1.55-2.22,2.36-3.3a40.89,40.89,0,0,1,6.41-6.41,48.5,48.5,0,0,1,9.14-5.24,36.32,36.32,0,0,1,4.62-1.49,43.1,43.1,0,0,1,4.32-.78c5.72-.73,11.46-0.66,17.21-0.9,0.91,0,1.81,0,2.72,0h1.36c2.48,0,5,0,7.43-.09a0,0,0,0,0,0,0,113.21,113.21,0,0,0-12.74-4.42,66.4,66.4,0,0,0-16.8-2.64,34.46,34.46,0,0,0-8.4,1h0Zm10.09,7-0.28,0,0.28,0h0Z" transform="translate(0 3.99)"/><path class="cls-2" d="M1070.07,171.43a11.41,11.41,0,0,0,.13,2.07,32.92,32.92,0,0,0,.93,3.63,10.6,10.6,0,0,0,3.32,4.73,23.86,23.86,0,0,0,5.94,3.49,44.55,44.55,0,0,0,8,2.77,77,77,0,0,0,8.06,1.31,61.75,61.75,0,0,0,9.31.42,71.66,71.66,0,0,0,17.76-3.05,132.5,132.5,0,0,0,18.65-7.32c3.72-1.69,7.36-3.6,11-5.53,0,0,0,0,0,0-4,.68-8,1.42-11.95,2.06-6,1-12,2.09-18,2.94q-9.58,1.24-19.23,1.79c-3.36.19-6.73,0.22-10.1,0.23a77.18,77.18,0,0,1-9.14-.41,42.06,42.06,0,0,1-8.24-1.81,13.41,13.41,0,0,1-2.11-1.17,15,15,0,0,1-1.75-1.87q-0.65-.91-1.26-1.84a14.76,14.76,0,0,1-1.22-2.39h0Z" transform="translate(0 3.99)"/><path class="cls-5" d="M920.46,306.7a388.18,388.18,0,0,0-23,66.32c-1.58,6.43,7.64,10.78,11,4.62l11.28-20.89c3.21-5.94,6.15-12.59,11.55-16.88,9.13-7.26,22.42-7.26,33.38-5.54,7.55,1.18,10.81-10.38,3.19-11.57-13.83-2.17-29.49-2.24-41.55,6-6.4,4.35-10.59,10.37-14.28,17.07-4.71,8.57-9.3,17.2-13.94,25.81l11,4.62a371.33,371.33,0,0,1,21.76-63.45c3.14-7-7.2-13.1-10.36-6.06h0Z" transform="translate(0 3.99)"/><path class="cls-5" d="M1299.78,369.12c1.58,4.41,4.56,7.68,6.58,11.8a20.17,20.17,0,0,1,1,14.61l10-2.65q-21.3-21.42-40.93-44.4c-5-5.88-13.48,2.64-8.49,8.49q19.62,23,40.93,44.4a6.06,6.06,0,0,0,10-2.65,32.76,32.76,0,0,0,.2-17.83c-1.59-5.65-5.87-9.63-7.78-15-2.59-7.22-14.19-4.1-11.57,3.19h0Z" transform="translate(0 3.99)"/><path class="cls-5" d="M901.8,327.17l-6.58,37.44c-1.33,7.55,10.23,10.79,11.57,3.19l6.58-37.44c1.33-7.55-10.23-10.79-11.57-3.19h0Z" transform="translate(0 3.99)"/><path class="cls-5" d="M897.35,364.49a28.71,28.71,0,0,0-3.39,13,6,6,0,0,0,12,0,15.4,15.4,0,0,1,1.75-7,6.13,6.13,0,0,0-2.15-8.21,6.07,6.07,0,0,0-8.21,2.15h0Z" transform="translate(0 3.99)"/></svg>
