<svg id="Background" xmlns="http://www.w3.org/2000/svg" xmlns:xlink="http://www.w3.org/1999/xlink" viewBox="0 0 1536 700"><defs><style>.cls-1{fill:#0a0e60;}.cls-2{fill:#ffb03b;}.cls-3{fill:#e74c3c;}.cls-4{fill:#c77966;}.cls-5{fill:#98c12a;}.cls-6{fill:#8d1760;}.cls-7{fill:#725af7;}.cls-8{fill:#e8c4da;}.cls-9{fill:#e4dc00;}.cls-10{fill:#468966;}.cls-11{fill:#77c4d3;}</style></defs><title>Meh4</title> <path class="cls-1" d="M1129.63,62.25c-1.79.89-7.57,4.26-7.57,10.07a3.39,3.39,0,0,0,1.16,2.32,3.85,3.85,0,0,1,.39.45v2.11c0.27,6.59.42,13.14,4.05,19.13a4.88,4.88,0,0,1-1,7.48c-2.15,1.73-4.5,3.16-6.65,4.71s-4.32,2.95-6.41,4.53a12.65,12.65,0,0,0-4.35,5.6,43,43,0,0,0-1.85,10.73c-0.39,8.94-.69,17.88-1,26.82-0.21,6.53-.42,13.05-0.68,19.58a17.88,17.88,0,0,0,5.6,12.7,7.39,7.39,0,0,1,1.73,4,62.19,62.19,0,0,1,.32,7.75,98.17,98.17,0,0,0,.78,11.92c1.88,12.84,4.32,25.27,6.46,35.76a113.2,113.2,0,0,1-1.61,56.42,13.07,13.07,0,0,1-7,8.64l-3.16,1.49a60.22,60.22,0,0,0-6.11,3c-1,.57-3.61,2.83-3,4.77a6,6,0,0,0,4.41,4H1107a35.74,35.74,0,0,0,12.81-1.79,29,29,0,0,1,12.46-3,11.48,11.48,0,0,0,8.7-3.76,26.93,26.93,0,0,0,3.73-11.92c0.48-6.41.66-12.91,0.86-19.2,0.15-5,.33-10.07.6-15.11,0.39-6.47,1-13,1.52-19.37q0.13-1.49.27-3l0.21,0.48a102.42,102.42,0,0,1,8.94,28.46q0.89,8.14,1.73,16.3c0.78,7.69,1.58,15.35,2.45,23,0,0.93.92,4.44,3,4.8a1.7,1.7,0,0,1,1.13.45,1.65,1.65,0,0,1,0,1.22,23.62,23.62,0,0,1-3.61,6.46,36.35,36.35,0,0,1-3.43,3.64c-1.07,1-2.2,2.14-3.19,3.31a5.22,5.22,0,0,0-1.37,4.95,3.85,3.85,0,0,0,3.22,2.45,44.9,44.9,0,0,0,8.55.8c1.31,0,2.8-.06,4,0a21.59,21.59,0,0,0,12.37-6.44,35.6,35.6,0,0,1,5.6-4.17c2-1.13,1.85-5,1.85-5.45-0.15-2.65-.39-5.27-0.62-7.93-0.36-4-.77-8-0.77-11.92-0.09-6.71.09-13.53,0.24-20.12,0.24-3.84.24-7.69,0.24-11.54v-0.39a43.58,43.58,0,0,0-.54-8.55c-1-5.66-2.18-11.35-3.31-17-1.25-6.29-2.54-12.58-3.67-18.86a134.33,134.33,0,0,1-2-16.57,12,12,0,0,1,.63-3.64,14,14,0,0,0,.71-4.56,136.42,136.42,0,0,0-2.23-20.5,19,19,0,0,1,4.8-18.84,21.9,21.9,0,0,0,5.51-18.36q-0.21-2.36-.42-4.71a239.11,239.11,0,0,0-3-25c-0.36-1.79-.59-3.4-0.8-4.77-1.46-9.39-2-9.89-16.93-14.07a24.47,24.47,0,0,1-12.76-7.54,5,5,0,0,1-1-6l0.39-1.16a11.76,11.76,0,0,0,1.19-3.16c1.11-6.11,1.55-13.26-3.66-19-3.07-3.38-8.18-4.73-13-4.73a20.58,20.58,0,0,0-8.74,1.75h0ZM1107,323.52h-2.77a4.06,4.06,0,0,1-1.82-1.8,5.19,5.19,0,0,1,1.64-1.68c1.82-1,3.74-1.94,5.6-2.81l0.36-.17,2.43-1.15,0.79-.37a15.9,15.9,0,0,0,8.46-10.34,116.5,116.5,0,0,0,1.79-57.72c-2.13-10.39-4.57-22.75-6.47-35.53a96.71,96.71,0,0,1-.75-11.68v-0.11c-0.06-2.56-.12-5.2-0.33-7.79a10,10,0,0,0-2.44-5.66,15,15,0,0,1-4.83-10.82q0.36-9.78.68-19.49c0.32-9.57.61-18.2,1-26.82a40.12,40.12,0,0,1,1.73-10,9.56,9.56,0,0,1,3.34-4.09c2.41-1.76,4.28-3.09,6.26-4.44l0.4-.28c2.12-1.45,4.32-3,6.39-4.55a7.66,7.66,0,0,0,1.7-11.2c-3.36-5.5-3.64-11.36-3.64-17.89V75a3.44,3.44,0,0,0-1.16-2.29l-0.19-.22-0.2-.23a9.5,9.5,0,0,1,6-7.49,18.5,18.5,0,0,1,7.72-1.56c4.56,0,8.45,1.44,10.65,3.94,4.38,5,4,10.94,3,16.64a9.55,9.55,0,0,1-1,2.41l-0.54,1.11a7.69,7.69,0,0,0,1.46,8.93,27,27,0,0,0,14.12,8.4c13.66,4,13.66,4,14.91,11.93,0.21,1.46.46,2.91,0.86,5.07,1.45,7.93,2.2,16.15,2.92,24.1l0.06,0.64,0.23,2.44,0.22,2.24a19.14,19.14,0,0,1-4.74,16.16,21.82,21.82,0,0,0-5.54,21.36,135.92,135.92,0,0,1,2.18,20,11.86,11.86,0,0,1-.63,3.64,14.15,14.15,0,0,0-.74,4.53,136.22,136.22,0,0,0,2,16.93c1.2,6.52,2.51,13.09,3.67,18.89l0,0.15c1.11,5.52,2.25,11.23,3.28,16.84a41.62,41.62,0,0,1,.41,8v0.15c0,1.55-.07,3.09-0.11,4.64-0.06,2.25-.12,4.57-0.12,6.86-0.24,6.62-.24,13.53-0.24,20.21,0,3.75.39,7.68,0.73,11.47l0,0.45c0.07,0.73.14,1.46,0.22,2.2a53.91,53.91,0,0,1,.4,5.64,6.38,6.38,0,0,1-.39,2.84,37.9,37.9,0,0,0-6,4.5,19.32,19.32,0,0,1-10.77,5.79c-1.27.11-2.55,0.17-3.82,0.17a43.64,43.64,0,0,1-8.1-.76,1.51,1.51,0,0,1-1.09-.61,2.78,2.78,0,0,1,.87-2.21c0.82-.87,1.73-1.76,2.7-2.7l0.29-.28a39.9,39.9,0,0,0,3.7-3.93,26.13,26.13,0,0,0,4-7.24,4.19,4.19,0,0,0,0-3.6,4.1,4.1,0,0,0-3-1.85,6,6,0,0,1-.87-2q-1.25-11.49-2.45-23l-0.91-8.67-0.81-7.66a106.37,106.37,0,0,0-8.94-29.27c-0.48-1.24-1-2.43-1.45-3.59-0.33-.79-0.65-1.58-1-2.36l-1.35.2-1.35.2c-0.24,2.89-.48,5.7-0.75,8.68l-0.09,1c-0.54,6.06-1.1,12.32-1.43,18.49-0.23,4.38-.42,9.05-0.6,15.17-0.16,5.82-.38,12.58-0.83,19.07a24.31,24.31,0,0,1-3.31,10.65,8.6,8.6,0,0,1-6,2.42h-0.25a32.68,32.68,0,0,0-13.59,3.42,33.58,33.58,0,0,1-10.3,1.62c-0.54,0-1.08,0-1.62,0h0Z"/><path class="cls-2" d="M302.76,402.54a13.65,13.65,0,0,0-4.57,6.86,47.57,47.57,0,0,0-1.48,13.21A19.14,19.14,0,0,0,300,432a5.92,5.92,0,0,1,1.31,4.19,4.08,4.08,0,0,1-2.14,2.5c-6.15,3.68-12.51,7.3-18.62,10.78l-3.89,2.23a8.29,8.29,0,0,0-5.29,6.54c-0.27,2.79-.62,5.55-1,8.32a116.18,116.18,0,0,0-1.4,14.85c-0.56,21-.77,42.14-0.77,61.87a15,15,0,0,1-.21,2c-0.41,2.41-.95,6,3,7.9v3.62a16.88,16.88,0,0,0,.32,4.81,14.84,14.84,0,0,0,3.77,7.48,4.68,4.68,0,0,1,1.84,4.63L276.66,578c-0.89,16.1-1.81,32.49-2.35,48.77-0.3,9.15,0,18.5,0,27.41v5.5a9.47,9.47,0,0,0,1,3.62l0.45,1.07-1.61,2.08c-1.75,2.26-3.62,4.66-5.46,7.13a6.73,6.73,0,0,0-1.43,5.59,3.75,3.75,0,0,0,2.68,2.61c4.81,1.52,10,2.67,15.15,0l1.39-.8a18,18,0,0,0,4.93-3,15.23,15.23,0,0,0,5.2-7.66,149.14,149.14,0,0,0,1.25-15.5c0.09-1.72.06-3.45,0.27-5.14a41.69,41.69,0,0,0,.21-5.08c0.09-2.23.15-4.48,0.32-6.71a178.38,178.38,0,0,1,6.86-33.18c1.1-3.54,2.05-7.07,3-10.63,1.43-6.15,3-12.09,4.4-18,0.13-.54.26-1.09,0.38-1.63A84.67,84.67,0,0,1,314.62,587c0.3,15,.48,30.06.63,44.91q0.23,10.93.24,21.89a30.08,30.08,0,0,0,.27,3.3,5.62,5.62,0,0,1,.18,1.72c0.09,1.13.32,2.26,0.32,3.39,0.27,2.76.59,5.61,0.59,8.4a6,6,0,0,0,4.19,6.12,105.79,105.79,0,0,1,10.13,4.81,23.42,23.42,0,0,0,11.41,3,27.86,27.86,0,0,0,7.46-1.1,5.94,5.94,0,0,0,4.21-3.8,6.71,6.71,0,0,0-2.61-4.87c-1.87-1.69-3.83-3.12-5.7-4.66s-3.71-3-5.52-4.52a3.14,3.14,0,0,1-.89-2,7.45,7.45,0,0,1,.45-2,11.58,11.58,0,0,0,.54-2.38c0.27-2.85.41-5.61,0.59-8.58a153.6,153.6,0,0,1,1.48-16,257.21,257.21,0,0,0,4.13-55.72,8,8,0,0,1,3.77-7.87,25.18,25.18,0,0,0,6.71-9.5,23.27,23.27,0,0,0,1.57-6.27,10.65,10.65,0,0,0,.33-2,3.94,3.94,0,0,0,2.49-1,5.54,5.54,0,0,0,1.19-4.34c-0.39-8.5-.59-17.17-0.77-25.55a498.11,498.11,0,0,0-3-51.53c-1.37-10.61-4-22.16-18.86-24.83a25.41,25.41,0,0,1-5.94-2.14l-1-.45a26.41,26.41,0,0,1-5-3,7.21,7.21,0,0,1-1.6-8.91,20.77,20.77,0,0,0,2.29-7.13,21.7,21.7,0,0,0-.3-5.23,18.73,18.73,0,0,1-.27-4.6,2.68,2.68,0,0,1,.47-0.54,4.05,4.05,0,0,0,1.48-3.48,10.26,10.26,0,0,0-4.48-5.64l-1.43-1.21a18.24,18.24,0,0,0-21.65-1.1h0Zm-32,276.21a1,1,0,0,1-.72-0.66,4.12,4.12,0,0,1,1-3c1.55-2,3.12-4.07,4.6-6L276.5,668l0.45-.58,2.1-2.71-0.27-.71c-0.24-.67-0.5-1.32-0.8-2a7.68,7.68,0,0,1-.81-2.53V654c-0.14-8.48-.3-18.1,0-27.27,0.57-16.36,1.47-33,2.35-48.71l0.12-2.06,0.12-2.18a7.5,7.5,0,0,0-2.82-6.91,12.56,12.56,0,0,1-3-5.95,14.9,14.9,0,0,1-.18-4.19v-2.95a2.78,2.78,0,0,0-1.12-3c-2.37-.84-2.43-2.24-2-5a17.13,17.13,0,0,0,.24-2.35c0.05-18.42.19-40.16,0.77-61.81a143.69,143.69,0,0,1,1.37-14.64c0.38-3,.72-5.71,1-8.41,0.21-2.18,1.57-3.05,4-4.41l1.92-1.1,1.88-1.07c5.8-3.31,12.38-7.06,18.68-10.81a6.83,6.83,0,0,0,3.44-4.3,8.59,8.59,0,0,0-1.81-6.56,16.16,16.16,0,0,1-2.77-8,44.82,44.82,0,0,1,1.4-12.42,10.78,10.78,0,0,1,3.63-5.35,15.62,15.62,0,0,1,18,1l0.75,0.65,0.76,0.66a10.56,10.56,0,0,1,3.48,3.75,1.33,1.33,0,0,1-.66,1.2,3.64,3.64,0,0,0-1.27,2.31,20.86,20.86,0,0,0,.24,5.38,19.18,19.18,0,0,1,.3,4.54,17.81,17.81,0,0,1-2,6.15,10.06,10.06,0,0,0,2.43,12.32,29.54,29.54,0,0,0,5.52,3.18l1,0.45a26.84,26.84,0,0,0,6.5,2.34c11.73,2.11,14.95,9.82,16.55,22.44a498.83,498.83,0,0,1,3,51.23v0.17c0.18,8.34.36,17,.77,25.46a2.93,2.93,0,0,1-.27,2.06,2.26,2.26,0,0,1-1,.25,2.33,2.33,0,0,1-.68-0.1h-1.24c-0.07.4-.14,0.81-0.21,1.22-0.21,1-.39,2-0.56,3.2a21.21,21.21,0,0,1-1.34,5.53,23.21,23.21,0,0,1-5.68,8.65,10.66,10.66,0,0,0-4.89,10.21A255.14,255.14,0,0,1,339.67,634a156.84,156.84,0,0,0-1.39,16.25c-0.18,2.82-.36,5.52-0.59,8.5a9.62,9.62,0,0,1-.45,1.81,9.81,9.81,0,0,0-.56,3,5.92,5.92,0,0,0,1.87,4.15c1,0.89,2.08,1.73,3.1,2.54,0.83,0.66,1.67,1.32,2.52,2s1.8,1.48,2.7,2.19,2,1.56,2.92,2.38a5.38,5.38,0,0,1,1.7,2.27,4.11,4.11,0,0,1-2.17,1.55A21.39,21.39,0,0,1,332.64,679a110.4,110.4,0,0,0-10.48-5,3.24,3.24,0,0,1-2.44-3.57c0-2.73-.29-5.36-0.57-8.14l-0.05-.53c0-.35-0.08-0.69-0.12-1a18.41,18.41,0,0,1-.2-2.33c0-.23-0.05-0.45-0.09-0.68a7.53,7.53,0,0,1-.12-1.16,28.4,28.4,0,0,1-.27-3c-0.16-7.21-.24-14.58-0.24-21.89v-1.45c-0.14-14.32-.29-29.12-0.61-43.49a105.38,105.38,0,0,0-2.6-19.44H312q-0.88,4-1.75,8c-1.29,5.61-2.71,11.49-4.37,18-1,3.56-2,7.07-3,10.6a180.73,180.73,0,0,0-7,34c-0.16,2-.33,4.45-0.33,6.83l0,1.17c0,1.23-.08,2.5-0.17,3.82l-0.06.8c-0.11,1.43-.21,2.91-0.21,4.36a146.55,146.55,0,0,1-1.22,15.3,14,14,0,0,1-4.37,5.95,15.73,15.73,0,0,1-4.19,2.52l-0.3.1-1.27.41a16,16,0,0,1-6.11,1.21,16.2,16.2,0,0,1-6.85-1.53h0Z"/><path class="cls-3" d="M560.7,53.56v0.62c1.37,3.23,2.52,4.69,3.5,4.69l0.74,0.06a10,10,0,0,1-1.81,5.16,14.61,14.61,0,0,1-1.6.15,7.08,7.08,0,0,0-4,1.16l-2.08,1.4,0.77,0.36A6.66,6.66,0,0,0,551.83,69l-0.33.56v0.59a14.82,14.82,0,0,1-.41,4.78,148.28,148.28,0,0,0-4.51,23.3c0,0.21-.86,20.69,5.34,26.48l0.41,0.27a12.3,12.3,0,0,0,2,.62c-1.43,5-5.67,20.22-5.67,24.55v0.57l0.39,0.41a8.73,8.73,0,0,0,4.45,2.41C552,159.93,547,184.3,546,193.84v0.56l0.36,0.45a29.69,29.69,0,0,0,7.87,7l0.65,0.39c0,2.76-.06,12.11-0.62,16-0.66,4.78-1,40.64,0,55.07a94.78,94.78,0,0,1-11.87,21.73l-0.66.63v0.92c0,2.58,0,9.41,5.7,9.89h1.19c4.48,0,10.86-1.93,12-5a33.73,33.73,0,0,0,.95-3.59c0.36-1.48.92-3.77,1.54-5.94a2.93,2.93,0,0,1,.18.89l0.5,1.78,3.71-2.26v-0.8c-0.15-3.38.18-9.44,1.72-11.22a9.73,9.73,0,0,0-.54-12.05,45.36,45.36,0,0,1,2.26-19.5c3.21-7.72,4.13-20.34,4.13-26.9,3.41-5.61,3.83-14.64,3.83-17.81a14.53,14.53,0,0,1,5.07-.48,12.36,12.36,0,0,1,3.95,1,14.1,14.1,0,0,0,3.5,1.07,22.69,22.69,0,0,0,5.94,14,24.75,24.75,0,0,1,.77,7.93,39.48,39.48,0,0,0,2.11,15c3.38,8,4.78,21.35,3.38,25.8a18,18,0,0,0-.86,8.58,156,156,0,0,1,2.38,21,4.24,4.24,0,0,0,1.19,3.36c2.85,3.15,10.21,3,11,3h0.45a8.28,8.28,0,0,0,4.93-6.95,35.76,35.76,0,0,0,0-8.91c-0.09-.33-2.11-8.46-2.79-10.75a32.06,32.06,0,0,0-2.55-6.15c-0.3-2.7,0-23.3.48-24.85s1.34-21-.95-29.69a75.55,75.55,0,0,1-2.26-14,27.91,27.91,0,0,1,7.07-1.1h1.07c0.08-.37.16-0.73,0.24-1.1,1.07-5.23-3.62-38.56-7.07-47.91,2.52-.45,5.49-0.77,5.49-0.77l1.57-.27-0.36-1.55c-0.24-.95-5-21.79-7.69-30h0.3c3.86-.56,11.31-1.63,11.88-8.43,0.12-1.39.3-2.73,0.45-4.07a29.86,29.86,0,0,0-1.48-17.07,27.33,27.33,0,0,1-2.55-12.59V77.61a13.08,13.08,0,0,0-2.52-5.34c-0.09-5-1.84-7.72-5.2-7.93h-1.6c-2.2-.09-2.7-0.12-3.12-1.28l1.42-1c-0.15-.12-8-13-8.91-18.2-1.51-8.31-7.48-22.36-20.21-22.36-14,0-22.45,23.75-22.74,32.06h0Zm2.75-.18c0.57-7.43,8.32-28.93,20-28.93a13.07,13.07,0,0,1,7.89,2.6c5.27,3.84,7.89,11,9,14.86,0.24,0.81.43,1.56,0.59,2.21L601,44.5a75.33,75.33,0,0,0,7.52,16.38l0.19,0.31h0l-0.76.34h0l0.3,1.1c1,4.17,2.89,4.47,5.93,4.47h1.55c1.8,0.24,2.56,2,2.56,5.95v0.82l0.34,0.21L619,74.3a9.78,9.78,0,0,1,1.82,3.9A30.44,30.44,0,0,0,623.59,92a27.21,27.21,0,0,1,1.4,15.56c-0.05.45-.11,0.89-0.18,1.34a19.92,19.92,0,0,0-.27,2.81c-0.36,4.25-4.76,5.24-9.63,5.95-0.32,0-.62.11-0.9,0.16a5.88,5.88,0,0,1-1.09.16l-0.69.16-0.76.16-0.12,0,0.56,1.51c2,5.21,6.15,22.7,7.49,28.5,0.11,0.44.2,0.84,0.28,1.19h0c-1.65.21-4.07,0.54-5.93,0.92l-0.91.18-0.87.17-0.27.05,0.29,0.43,0.81,1.26c1.57,2.39,3.73,13.37,5.36,24.23,1.31,8.71,2.27,17.35,2.28,21.45,0,0.34,0,.64,0,0.92A23,23,0,0,0,608.14,203H593.58a11,11,0,0,1-4.62-1,15.17,15.17,0,0,0-4.75-1.24H582.7a20.7,20.7,0,0,0-5.43,1,8.55,8.55,0,0,1-2.56.48l-3.86-.15-5.6-.21-5.59-.21a2.56,2.56,0,0,1-1.1-.39l-2.79-1.69a27.36,27.36,0,0,1-6.69-5.95c1-8.95,5.36-29.91,7-37.8,0.4-1.92.64-3.08,0.64-3.14l0.18-.86,0.15-.7c0-.05,0-0.1,0-0.15H555.3a6.31,6.31,0,0,1-3.72-1.41,212.11,212.11,0,0,1,5.94-24.73l0.25-.89,0.2-.67L558,123h-1.87a8.31,8.31,0,0,1-2.53-.57,10.88,10.88,0,0,1-2.21-4.12,47.12,47.12,0,0,1-1.87-10.71,78.17,78.17,0,0,1-.2-9.28A156.09,156.09,0,0,1,553.66,76a14.61,14.61,0,0,0,.71-5.44,15.27,15.27,0,0,1,4.76-.76c0.39,0,.79,0,1.19,0a2.74,2.74,0,0,0,3-.89l0.24-.34,0.24-.33-0.11-.13-0.1-.15,1.62-1.5,1.55-1.45h-0.65l0.18-.32,0.18-.31a11,11,0,0,0,1.16-6.73A3.78,3.78,0,0,0,565,56.18l-0.09-.12H564.5a1.44,1.44,0,0,1,.43,0,9.87,9.87,0,0,1-1.48-2.67h0Zm-15.9,250.25c-2.64-.22-3-3.7-3-6.69v-0.13a93.5,93.5,0,0,0,12.7-22.94v-0.51c-1-14.18-.68-50,0-54.74a145,145,0,0,0,.65-14.84h0a4.66,4.66,0,0,0,1.87.41l5.54,0.21,5.54,0.21,3.86,0.15a6.75,6.75,0,0,0,.74,0l0.72,0h0c-0.09,3.26-.61,11.34-3.6,15.95l-0.12.18-0.11.17v0.42c0,6.58-1,19-3.93,26.25A49.16,49.16,0,0,0,566.06,269v0.44l0.3,0.33a7.2,7.2,0,0,1,.83,8.74,10.34,10.34,0,0,0-2.11,4.69l-1.42,1.16c-2.05,1.77-3.6,7.31-5,13-0.44,1.8-.7,2.8-0.86,3.27-0.46,1.26-5.16,3-9.16,3-0.37,0-.75,0-1.12,0h0Zm61.89-98,0.21-.18a10.63,10.63,0,0,1,2.32-1.43h0a78.2,78.2,0,0,0,2.29,13.71c2.17,8.31,1.31,26.86,1,28.27,0,0,0,.19,0,0.49-0.39,7.69-1.16,25.7,0,26.79a26.75,26.75,0,0,1,2.14,5.34c0.65,2.17,2.68,10.4,2.7,10.48a34,34,0,0,1,0,7.93,5.67,5.67,0,0,1-3,4.55h-0.44c-2.35,0-6.71-.42-8.18-2a1.41,1.41,0,0,1-.42-1.2,153.83,153.83,0,0,0-2.5-22,15.82,15.82,0,0,1,.81-7.19c1.68-5.41-.12-19.66-3.5-27.72a37.18,37.18,0,0,1-1.87-14,22.69,22.69,0,0,0-1.18-9.4l-0.45-.45a19.51,19.51,0,0,1-5-11.88h14.89l0.21-.18h0Z"/><path class="cls-4" d="M1289.8,358.34c-4.06,1.83-8.92,6.51-9.54,18.44V377a2.25,2.25,0,0,0,1.12,2.3,34,34,0,0,0,.77,5.65,43.84,43.84,0,0,0,5.89,13.25c-1.41,3-3.54,3.27-7.84,3.74l-2.38.3c-7.27.94-9.43,7.63-10.46,13.34-0.5,2.95-2.36,10.39-4.12,17.67-2,8.16-4,16.61-4.48,19.32-0.82,5.15-.62,23.91-0.62,24.53a13.49,13.49,0,0,1-.38,1.8,11.77,11.77,0,0,0-.15,9.8,8.16,8.16,0,0,0,2.12,5.09,8.51,8.51,0,0,0,.29,1.39,77.08,77.08,0,0,0-6.6,23.91c-1.38,13.37-10.84,41.79-10.84,42.08l-0.32,1,0.88,0.59a34.29,34.29,0,0,0,9.51,4.62c0.24,5.24,1.47,29.36,2.45,40.23,0.88,9.9-9.34,16-14.22,18.94l-1.77,1.09a3.74,3.74,0,0,0-2.12,4,7.18,7.18,0,0,0,5.89,4.18h0.41a37.12,37.12,0,0,0,12.55-3.42l0.23-.2,0.18-.32a17.48,17.48,0,0,1,9.19-7.28l0.8,4.54,3.89-1.18v-1.09a11.17,11.17,0,0,1,.44-3.8,7.53,7.53,0,0,0,4.13-4.36,5.16,5.16,0,0,0-.86-4.83c-2.21-3.06-4.12-5.68-2.41-16.67,1.44-9,3.06-22.14,3.59-26.5a14.71,14.71,0,0,0,11.51-2.36,12.77,12.77,0,0,0,2.95.5c0,5.8-.12,29.77-1.41,36.75a119.15,119.15,0,0,1-6.71,23.21l-0.71.88c-1.71,2.12-4.33,5.3-3.09,7.74a5,5,0,0,0,4.65,2v0h1.18c8.33-.5,12.43-1.8,13.69-4.36a16.48,16.48,0,0,0,.65-4.86V630l4-.71v-6.33c2.21-2.32,4.59-7.36,1.65-10.89s-2.32-5.36,0-11.25c0.09-.27,9.25-23.62,8.48-33.07,2.5-.44,4.13-0.86,4.33-0.86l1.21-.27v-1.24a27.87,27.87,0,0,0,9.54-2.56l1.09-.53-0.35-1.15c-3.62-11.57-6.8-30.48-9.51-56.19-0.08-.7-0.16-1.39-0.24-2.09a55,55,0,0,1,0-6.42c0.18-5.3.32-10.75-1.44-13.16a68.53,68.53,0,0,1-4.83-15.05,5.19,5.19,0,0,0,.41-0.68,2.77,2.77,0,0,0-.44-3.09,29,29,0,0,1-2.09-2.5l-0.3-.36c4.48-5.86,9-23.12,9.34-25.71s2-15.52,2-20.62c0-3.68-2.21-6.62-6.71-8.92a91,91,0,0,1-6.36-6.68l-1.15-5.89h-0.32c0.06-1.89.23-5.09,0.38-6.77a5.14,5.14,0,0,0,3.3-1.36c1.18-1.12,1.35-3.77,1.5-7.66v-2a16.81,16.81,0,0,0,2.59-2.68l0.21-.47a5.1,5.1,0,0,0-1.62-5.89,7,7,0,0,1-.15-2.68,4.6,4.6,0,0,0-2.95-5.89,8,8,0,0,0-8-3.15h-0.74a5.21,5.21,0,0,0-2.77-.71,12.11,12.11,0,0,0-8,3.84h0ZM1245.65,561c1.91-5.65,9.34-29.29,10.63-41.64a74.21,74.21,0,0,1,6.57-23.56l0.14-.3,0.14-.3-0.23-.58a4.72,4.72,0,0,1-.35-1.71l0.23-.95,0.06-.27-0.63-.09-0.67-.1a6.09,6.09,0,0,1-1.09-3.3v-0.61l-0.47-.45a9.69,9.69,0,0,1,0-6.75l0.2-.33,0.13-.2a14,14,0,0,0,.55-2.7v-0.11c0-3.24-.11-19.64.59-24.13,0.42-2.62,2.58-11.58,4.42-19.09l0.38-1.57c1.68-6.87,3.28-13.36,3.77-16.1,1.33-7.31,3.66-10.52,8.05-11.08l1.16-.13,1.16-.13c4.88-.53,8.41-0.91,10.48-6.23l0.12-.34,0.17-.45-0.18-.34-0.18-.34a39.48,39.48,0,0,1-5.89-12.72,28.11,28.11,0,0,1-.71-5.89v-1.08l-0.47-.18-0.47-.17h-0.22v-0.18c0.45-8.49,3.25-14.05,8.1-16.09l0.41-.32a10,10,0,0,1,6.24-3.2,2.13,2.13,0,0,1,1.38.41l0.2,0.16,0.18,0.16h2a5.28,5.28,0,0,1,5.73,2.15l0.23,0.38,0.41,0.18c0.41,0.17,2.41,1.1,1.83,2.54a10.14,10.14,0,0,0,.21,4.8v0.46l0.38,0.3a3,3,0,0,1,1.24,2.7,11.53,11.53,0,0,1-2.36,2.36c-0.87.53-.87,1.24-0.87,3.88a23.53,23.53,0,0,1-.62,5.72,3.24,3.24,0,0,1-1.93.63,3.5,3.5,0,0,1-.67-0.07H1304l-0.24.84-0.05.19c0,0.09-1.47,10.52.21,11.57l0.4,1.88,0.48,2.27,0.13,0.15,0.13,0.14a72.3,72.3,0,0,0,7.3,7.54l0.14,0,0.15,0c3.41,1.71,5.22,4,5.22,6.55,0,4.94-1.62,17.62-2,20-0.54,3.31-5.62,21.58-9.37,25.1l-0.49.46-0.47.43,0,0,0.44,0.52,0.45,0.52,0.49,0.63,0.48,0.61a23.05,23.05,0,0,0,2.27,2.63,2,2,0,0,1-.5.83l-0.56.55,0.12,0.39,0.12,0.38c0.21,1.22,2.91,13.48,5.53,16.48,1,1.36.94,5.57,0.9,9.28,0,0.73,0,1.45,0,2.12a54.06,54.06,0,0,0,0,6.84c0.07,0.68.14,1.37,0.21,2.05,2.66,25.1,5.78,43.79,9.27,55.55a25.75,25.75,0,0,1-8.84,1.86h-1.46l0.07,0.91,0.07,0.86a91.81,91.81,0,0,1-18.12,2,44.19,44.19,0,0,1-10.21-1h-1.08l-0.53.91c-0.39.61-2.62,1.93-6.76,1.93a27.2,27.2,0,0,1-10.92-2.59h-0.29l-0.09.16h-1.91a27.5,27.5,0,0,1-3.59.23,27.2,27.2,0,0,1-15.45-4.79h0Zm19.47,7.06h1.09a36.71,36.71,0,0,0,5.9,2c-0.26,1.66-.66,4.83-1.13,8.51-0.71,5.63-1.6,12.64-2.46,18.18-1.77,11.32,0,14.77,2.94,18.75a2.36,2.36,0,0,1,.44,2.31,4.77,4.77,0,0,1-2.39,2.51,2.71,2.71,0,0,0-1.41,1.2,2.78,2.78,0,0,0-.21.5v0c-0.06-.36-0.13-0.71-0.18-1.07a0.5,0.5,0,0,0,0-.07l-1.47.35A21.35,21.35,0,0,0,1254,630.1a35.57,35.57,0,0,1-10.87,2.95,4.86,4.86,0,0,1-3.39-2,1.6,1.6,0,0,1,.92-1l1.68-1,0.15-.09c5.34-3.2,16.47-9.85,15.45-21.52-0.94-10.58-2.11-33.77-2.36-39v-0.24h0a31.39,31.39,0,0,0,9.6,0h0Zm44,0.2h0c0.58,7.85-7.43,29.17-8.34,31.57-2.25,5.43-3.74,9,.59,14.09,2.46,2.9-1.09,6.71-1.86,7.47l-0.22.2-0.21.2v1.37h-2a3.55,3.55,0,0,1-.73,1.06,12,12,0,0,0-1.32,5.59,20.16,20.16,0,0,1-.65,3.8c-0.45,1.07-2.79,2.44-11.34,2.95a4.14,4.14,0,0,1-.93.11,4.21,4.21,0,0,1-2-.52c-0.21-.34.11-1.44,2.77-4.7l0.38-.48,0.38-.49c1.83-2.51,5.77-17.3,7.21-24.35,1-4.79,1.47-17.23,1.48-37,1.33,0.06,2.68.09,4,.09a83.86,83.86,0,0,0,12.81-1h0Z"/><path id="meh-greenoutline4" class="cls-5" d="M997.51,204.47H713a1.13,1.13,0,0,0-.68,0,11,11,0,0,0-1.39.62h0a11,11,0,0,0-1.81,1.2l-0.62.47a41.71,41.71,0,0,0-6,5.76,26.48,26.48,0,0,0-1.76,2.17,11,11,0,0,0-1.2,1.8h0a11.1,11.1,0,0,0-.61,1.38,1.13,1.13,0,0,0,0,.68V636.86q-0.27,1.17.89,0.89H985a10.91,10.91,0,0,0,3.23-1.84,45.29,45.29,0,0,0,8.35-8.35,11,11,0,0,0,1.84-3.23v-419q0.22-.95-0.51-0.95a1.75,1.75,0,0,0-.39.05h0Zm-98.29,14.32h84.87V623.44H713.18V218.79h186Z"/><g id="meh-moustache4"><path class="cls-1" d="M876.14,406a38.26,38.26,0,0,0-8.78,2,29.58,29.58,0,0,0-7.86,4.36,27.64,27.64,0,0,0-5.68,5.72,11.72,11.72,0,0,0-1.46,3,10.49,10.49,0,0,0-.26,4s0,0,0,0c0.21-.76.45-1.51,0.71-2.25a10.07,10.07,0,0,1,1.07-1.79,16.61,16.61,0,0,1,2.12-2,32.4,32.4,0,0,1,14.35-5.71,39.28,39.28,0,0,1,7.68-.2,18.69,18.69,0,0,1,2.82.8,17.87,17.87,0,0,1,2.6,1.54,38.41,38.41,0,0,1,3.16,2.87c1.42,1.46,2.74,3,4.1,4.55s2.66,2.94,4.1,4.31a54.37,54.37,0,0,0,4.82,4,43.19,43.19,0,0,0,10.75,5.54,39.85,39.85,0,0,0,12,2.47,22.54,22.54,0,0,0,10.54-2,21.21,21.21,0,0,0,8.36-7.2,20.83,20.83,0,0,0,3.26-10,50.28,50.28,0,0,0,.37-5.42,0,0,0,0,0,0,0,53.22,53.22,0,0,1-2.48,7.44,16.7,16.7,0,0,1-5.41,7.22,24,24,0,0,1-4.09,2.41,21.48,21.48,0,0,1-3.93,1,24.3,24.3,0,0,1-5.11,0,33,33,0,0,1-8.15-2.38,55.64,55.64,0,0,1-10.4-6c-4.53-3.67-8.3-8.13-12.55-12.11a35.7,35.7,0,0,0-3.5-2.76,19,19,0,0,0-4.43-2.4,18.54,18.54,0,0,0-3.77-1,23.64,23.64,0,0,0-2.57-.25H878.3a17.88,17.88,0,0,0-2.17.2h0Z"/><path class="cls-1" d="M802,409.14a28,28,0,0,0-7.78,4.41c-4.39,3.38-8.09,7.55-12,11.49a168.2,168.2,0,0,1-14.69,14,47.84,47.84,0,0,1-8.8,5.24,50,50,0,0,1-10.66,3,21.6,21.6,0,0,1-11.67-1.69,39.35,39.35,0,0,1-7.76-4.3,26.29,26.29,0,0,1-3.83-4l0.06,0.09q-1.05-1.38-2.05-2.81s0,0,0,0c0.5,1.32,1.06,2.62,1.68,3.89a21.84,21.84,0,0,0,3.89,5.54,34.32,34.32,0,0,0,5.5,4.46,32.79,32.79,0,0,0,3.86,2.3,23.43,23.43,0,0,0,4,1.49c5.23,1.54,10.91.93,16.16-.2a43.46,43.46,0,0,0,14.9-6.53c5.89-3.95,10.88-9.05,15.93-14,4.22-4.1,8-8.67,12.55-12.41a27.15,27.15,0,0,1,4.34-2.58,22.84,22.84,0,0,1,4.43-1.2,47.23,47.23,0,0,1,10.15.1,37.9,37.9,0,0,1,7.61,2,28.06,28.06,0,0,1,5.33,3.08,22.61,22.61,0,0,1,3.56,3.56c1,1.3,1.91,2.64,2.84,4a0,0,0,0,0,0,0,35,35,0,0,0-3.32-8.07,24.29,24.29,0,0,0-10.69-8.8,34.87,34.87,0,0,0-7.64-2.47,42.44,42.44,0,0,0-8.33-.93h-0.12a22.6,22.6,0,0,0-7.49,1.35h0Zm34.73,15,0.11,0.14-0.11-.14h0Z"/></g><path id="meh-mouth4" class="cls-1" d="M845.27,453.16a29.26,29.26,0,0,0-9.45,2.05,25.83,25.83,0,0,0-6.82,4.2,30.49,30.49,0,0,0-5.43,5.8,22.8,22.8,0,0,0-3.1,6.64,24.23,24.23,0,0,0-.77,7.74,0,0,0,0,0,0,0c0.37-1,.76-2.08,1.16-3.12a26,26,0,0,1,3.2-5.36,22.32,22.32,0,0,1,3.46-3.48,44.68,44.68,0,0,1,7.37-4.55,25.69,25.69,0,0,1,5.21-1.43,30.78,30.78,0,0,1,6.21-.13,7.79,7.79,0,0,1,.83.23,15,15,0,0,1,1.65.92,17.66,17.66,0,0,1,1.72,1.75,48.93,48.93,0,0,1,3.75,6.86l0.08,0.18c-1.34.3-2.7,0.51-4.06,0.7q-3.72.45-7.44,1c-2.49.32-5,.59-7.45,1.05a51.39,51.39,0,0,0-9.07,2.55c-3.08,1.19-6.07,2.68-9,4.13a0,0,0,0,0,0,0c2.88-.52,5.79-1,8.69-1.37a57.78,57.78,0,0,1,8.16-.3c3.12,0.07,6.21.46,9.31,0.73,2.36,0.2,4.72.31,7.08,0.44a34.41,34.41,0,0,0,6.53-.29c0.5-.07,1-0.14,1.5-0.23a11.39,11.39,0,0,0,2.5-.95l1.51-1.16a6.62,6.62,0,0,0,1.6-2.62,7.07,7.07,0,0,0-.17-3.91c-0.18-.57-0.46-1.14-0.68-1.71q-0.71-1.79-1.51-3.54a43.79,43.79,0,0,0-2.41-4.61,19.67,19.67,0,0,0-5.86-6.16,14.84,14.84,0,0,0-3.76-1.65,9,9,0,0,0-1.85-.32,14,14,0,0,0-1.85-.12l-0.85,0h0Zm-1.78,19.91-0.23,0,0.23,0h0Z"/><g id="meh-eyebrows4"><path class="cls-1" d="M898,297.14a22.41,22.41,0,0,0-8.22,4.67,23.38,23.38,0,0,0-5.79,8,21,21,0,0,0-1.68,8.63,0,0,0,0,0,0,0,32.68,32.68,0,0,1,3.24-5.49,35.63,35.63,0,0,1,5.12-4.94,25,25,0,0,1,12.76-5.29,24.77,24.77,0,0,1,5.23-.15,20.1,20.1,0,0,1,3.42.95,31.75,31.75,0,0,1,4.83,3c3,2.4,5.72,5.13,8.48,7.79a0,0,0,0,0,0,0c-3.62-7.78-8.57-16.7-18-17.89a22.16,22.16,0,0,0-2.82-.18,23.54,23.54,0,0,0-6.65,1h0Z"/><path class="cls-1" d="M815.75,306.88a27.17,27.17,0,0,0-12,4.52,25.07,25.07,0,0,0-7.54,8.67c-1.83,3.57-1.77,7.7-1.48,11.58a0,0,0,0,0,0,0q0.78-2.2,1.67-4.36a16.5,16.5,0,0,1,5.4-7,36,36,0,0,1,6.31-3.9,43,43,0,0,1,9.37-2.3l3-.4a34.14,34.14,0,0,1,7.21-.3,17.25,17.25,0,0,1,3,.86,36.51,36.51,0,0,1,6.34,4.25l2.83,2.18-0.3-.24q3.93,3,8,5.91s0,0,0,0q-2.72-3.94-5.62-7.73c-1.31-1.71-2.65-3.39-4.05-5a22.82,22.82,0,0,0-4-3.81,17.79,17.79,0,0,0-5.81-2.72,25.17,25.17,0,0,0-6-.67h-0.41a41.3,41.3,0,0,0-5.93.49h0Zm-19.3,20.26,0,0.07,0-.07h0Z"/></g><g id="meh-eyes4"><path class="cls-1" d="M816.41,316.19a7,7,0,1,0,7-7,7.06,7.06,0,0,0-7,7h0Z"/><path class="cls-1" d="M899.11,306.78a7,7,0,1,0,7-7,7.06,7.06,0,0,0-7,7h0Z"/></g><path class="cls-6" d="M110.52,84.67c-7.25,2-13.94,11.85-13.29,15a3.53,3.53,0,0,0,1.68,2.52,33.33,33.33,0,0,0,4.67,21.27c2,3.23,1.27,4.7-.53,5.91l-2.55,1.74c-2.86,1.93-5.73,3.95-8.84,5.79-8.18,5-11.85,11.11-11.85,19.72a204.36,204.36,0,0,1-1.65,22.12c-0.28,2.71-.59,5.38-0.84,8.05a413.08,413.08,0,0,0-.46,67.18,8.62,8.62,0,0,0,4.73,7.22,9,9,0,0,0,8.93-.56,44,44,0,0,1,4.29-2.52l1.12-.56Q97,263.25,98,269c2.43,13.47,4.76,26.66,7.18,39.85a28.65,28.65,0,0,0,1,3.73,20.59,20.59,0,0,1,1,4,75.86,75.86,0,0,1,.59,8.4,83.87,83.87,0,0,0,1.77,15.55c0.28,1.15.59,2.3,0.9,3.45A29.26,29.26,0,0,1,112,357.61a4.42,4.42,0,0,0,.43,2.64c1.43,3.11,1.8,5.26,0,6.22l-1,.84a18.26,18.26,0,0,0-3.86,4.29c-0.22.34-.5,0.78-0.81,1.21-1.4,2.05-3.55,5.13-1.68,7.93a8.73,8.73,0,0,0,6.78,1.74,97.9,97.9,0,0,0,21-3.52l0.84-.25,0.18-.84c0.38-1.62.81-3.2,1.21-4.73a46.89,46.89,0,0,0,1.87-9.33,212.5,212.5,0,0,0-1.34-38.51c-0.65-5.1-1.4-10.17-2.18-15.24-1-6.31-2-13.22-2.64-19.29s-1.09-12.22-1.49-18.26q4.92,26.81,9.83,53.66c0.25,1.37.5,2.73,0.78,4.11,0.62,3.23,1.28,6.59,1.68,9.89a17,17,0,0,1,0,2.89,9.15,9.15,0,0,0,2.58,8.31v4.16a46.24,46.24,0,0,0,.53,6.81c0.75,4.17,1.84,8.3,2.89,12.29l0.5,1.89a4.23,4.23,0,0,0,2.86,3.11l3.67,0.34a89.41,89.41,0,0,0,13.41.62,7.64,7.64,0,0,0,6.69-2.7c1.15-2.18-.18-5-1.65-7.56l-0.43-.62a13.66,13.66,0,0,0-1.93-2.58c-1.68-1.87-2.68-3-1-5.66a8.93,8.93,0,0,0,0-6.44,20.39,20.39,0,0,1-.46-3.11c-0.19-3.8-.46-7.62-0.46-11.41-0.28-8-.59-16.3-1.37-24.42a35.64,35.64,0,0,0-2.33-8.65,34.08,34.08,0,0,1-2.14-7.71c-1.34-12.53-2.24-25.32-3.11-37.76q-0.28-3.9-.56-7.81a3.13,3.13,0,0,1,.78-1.9c7.71-4.26,9.89-11.66,10.82-17.63,1.43-9.08,2.39-16.46,3.11-23.18,1.62-15.46,2.3-32-3.92-48.34-2.21-5.87-3.92-12.1-5.57-18.1-0.44-1.74-.87-3.23-1.34-4.85a9.32,9.32,0,0,0-6.22-6.78c-6.72-2.33-13.72-4.79-21.4-7.9a18.92,18.92,0,0,1-5.29-3.11,2.88,2.88,0,0,1-.62-2.05,56.71,56.71,0,0,1,3.11-9.11,17.7,17.7,0,0,0-1.62-17.45,32.81,32.81,0,0,0-2-2.89,16.42,16.42,0,0,0-18.66-6.22h0Zm-27.62,174a5.65,5.65,0,0,1-3.12-4.8,411.81,411.81,0,0,1,.47-66.72c0.17-1.79.36-3.57,0.55-5.34,0.1-.88.2-1.77,0.29-2.65a206.63,206.63,0,0,0,1.68-22.43c0-7.59,3.12-12.73,10.43-17.21,3.05-1.9,6.11-3.95,9-5.88l1.29-.86,1.29-.86c2.45-1.64,4.68-4.7,1.37-9.91A31,31,0,0,1,102,101.65a1.67,1.67,0,0,0-1.33-1.79,0.57,0.57,0,0,1-.47-0.61,19.92,19.92,0,0,1,11.17-11.57,13.33,13.33,0,0,1,15.56,5.26,29.25,29.25,0,0,1,1.84,2.65,14.85,14.85,0,0,1,1.4,14.69,59.93,59.93,0,0,0-3.11,9.57,5.6,5.6,0,0,0,1.61,5,21.85,21.85,0,0,0,6.21,3.58c7.77,3,14.8,5.61,21.5,7.93a6.19,6.19,0,0,1,4.39,4.79l0.67,2.41,0.67,2.41,0.21,0.78c1.61,5.81,3.27,11.82,5.45,17.57,5.95,15.9,5.31,32,3.73,47-0.7,6.47-1.68,13.79-3.11,23-1.24,7.91-4.12,12.7-9.34,15.56a5.56,5.56,0,0,0-2.29,4.69q0.3,3.9.59,7.8c0.75,11.53,1.67,24.92,3.11,37.89a36.59,36.59,0,0,0,2.33,8.39,33,33,0,0,1,2.18,7.9c0.66,6.88,1.08,14.5,1.31,24,0.13,4,.29,7.82.46,11.45a23.44,23.44,0,0,0,.52,3.42,7.82,7.82,0,0,1,.25,4.3,6.69,6.69,0,0,0,1.34,9.32,11.35,11.35,0,0,1,1.52,2,6.34,6.34,0,0,0,.5.75c2.07,3.61,1.64,4.57,1.59,4.67-0.16.29-.89,1-4.27,1.16q-1.17,0-2.34,0a87.3,87.3,0,0,1-10.59-.65l-1.73-.16-1.73-.16a2.7,2.7,0,0,1-.53-0.94L151,374.9l-0.28-1.05c-1-3.72-2.14-7.93-2.86-12a43.09,43.09,0,0,1-.5-6.37v-3.58a3.11,3.11,0,0,0-.84-2.57,6.25,6.25,0,0,1-1.78-6.07,19.66,19.66,0,0,0,0-3.39c-0.41-3.45-1.07-6.88-1.71-10.11-0.13-.72-0.27-1.43-0.41-2.14s-0.25-1.29-.37-1.94q-6-32.88-12-65.72a9.49,9.49,0,0,0-.46-1.59l-0.52-1.52-1.84-.08-1.78-.09h-0.07v1.68l0.33,5,0.33,5,0,0.66c0.45,7.25.92,14.74,1.73,22.07,0.71,6.44,1.7,13.13,2.67,19.41l0.11,0.71c0.73,4.73,1.48,9.63,2.07,14.46a210.18,210.18,0,0,1,1.27,38.14,44.21,44.21,0,0,1-1.59,8.9c-0.34,1.27-.68,2.61-1,4a89.75,89.75,0,0,1-20.09,2.9c-2,0-3.21-.17-3.62-0.51-0.69-1.06.34-2.72,1.65-4.61,0.32-.47.66-1,0.93-1.43a16,16,0,0,1,3.11-3.55L114,369v-0.13c4.22-2.44,2.29-7.52,1.34-10-0.06-.15-0.12-0.29-0.18-0.41a1.43,1.43,0,0,1-.2-0.56,32.38,32.38,0,0,0-1.61-14.74c-0.31-1.12-.62-2.24-0.91-3.39a82.78,82.78,0,0,1-1.71-15c-0.11-2.61-.27-5.64-0.59-8.55a23.13,23.13,0,0,0-1.15-4.66,26.88,26.88,0,0,1-.94-3.36c-2.63-14.3-5.11-28.16-7.18-39.84l-2.3-12.81-0.49-2.73-1.31.75-0.48.27L94.15,255l-0.77.43-0.2.11c-1.59.89-3,1.67-4.29,2.5a6,6,0,0,1-6,.59h0Z"/><path id="meh-blueman4" class="cls-7" d="M111.32,87.68a19.92,19.92,0,0,0-11.17,11.57,0.57,0.57,0,0,0,.47.61,1.67,1.67,0,0,1,1.33,1.79A31,31,0,0,0,106.09,122c3.32,5.21,1.09,8.27-1.37,9.91l-1.29.86-1.29.86c-2.85,1.93-5.91,4-9,5.88-7.31,4.47-10.43,9.62-10.43,17.21a206.63,206.63,0,0,1-1.68,22.43c-0.09.89-.19,1.77-0.29,2.65-0.19,1.78-.39,3.55-0.55,5.34a411.81,411.81,0,0,0-.47,66.72,5.65,5.65,0,0,0,3.12,4.8,6,6,0,0,0,6-.59c1.32-.84,2.7-1.61,4.29-2.5l0.2-.11,0.77-.43,2.16-1.21,0.48-.27,1.32-.75,2.79,15.54c2.08,11.68,4.55,25.54,7.18,39.84a26.88,26.88,0,0,0,.94,3.36,23.13,23.13,0,0,1,1.15,4.66c0.32,2.91.48,5.94,0.59,8.55a82.78,82.78,0,0,0,1.71,15c0.28,1.15.59,2.27,0.91,3.39A32.38,32.38,0,0,1,115,357.89a1.43,1.43,0,0,0,.2.56c0.06,0.13.13,0.26,0.18,0.41,0.95,2.49,2.89,7.56-1.34,10V369l-0.55.52a16,16,0,0,0-3.11,3.55c-0.27.47-.61,1-0.93,1.43-1.31,1.89-2.34,3.55-1.65,4.61,0.41,0.34,1.67.51,3.63,0.51a89.75,89.75,0,0,0,20.09-2.9c0.35-1.37.69-2.71,1-4a44.21,44.21,0,0,0,1.59-8.9,210.18,210.18,0,0,0-1.27-38.14c-0.59-4.83-1.34-9.73-2.07-14.46l-0.11-.71c-1-6.28-2-13-2.67-19.41-0.82-7.34-1.28-14.83-1.73-22.07l0-.66-0.33-5-0.33-5v-1.68l1.85,0.09,1.84,0.08,0.52,1.52a9.49,9.49,0,0,1,.46,1.59q6,32.84,12,65.72c0.12,0.65.25,1.3,0.37,1.94s0.28,1.42.41,2.14c0.64,3.22,1.3,6.66,1.71,10.11a19.66,19.66,0,0,1,0,3.39,6.25,6.25,0,0,0,1.78,6.07,3.11,3.11,0,0,1,.84,2.57v3.58a43.09,43.09,0,0,0,.5,6.38c0.73,4.11,1.86,8.32,2.86,12L151,374.9l0.22,0.84a2.7,2.7,0,0,0,.53.94l1.73,0.16,1.73,0.16a87.3,87.3,0,0,0,10.59.65q1.17,0,2.34,0c3.38-.19,4.11-0.87,4.27-1.16,0.05-.1.48-1.07-1.59-4.67a6.34,6.34,0,0,1-.5-0.75,11.35,11.35,0,0,0-1.52-2,6.69,6.69,0,0,1-1.34-9.32,7.82,7.82,0,0,0-.25-4.3,23.44,23.44,0,0,1-.52-3.42c-0.18-3.63-.34-7.48-0.46-11.45-0.23-9.48-.64-17.11-1.31-24a33,33,0,0,0-2.18-7.9,36.59,36.59,0,0,1-2.33-8.39c-1.45-13-2.37-26.36-3.11-37.89q-0.29-3.9-.59-7.8A5.56,5.56,0,0,1,159,249.9c5.22-2.86,8.1-7.65,9.34-15.56,1.43-9.23,2.41-16.55,3.11-23,1.57-15,2.21-31.1-3.73-47-2.17-5.75-3.84-11.76-5.45-17.57l-0.21-.78-0.67-2.41-0.67-2.41a6.19,6.19,0,0,0-4.39-4.79c-6.7-2.32-13.73-4.91-21.5-7.93a21.85,21.85,0,0,1-6.21-3.58,5.6,5.6,0,0,1-1.61-5,59.93,59.93,0,0,1,3.11-9.57,14.85,14.85,0,0,0-1.4-14.69,29.25,29.25,0,0,0-1.84-2.65,13.33,13.33,0,0,0-15.56-5.26h0Z"/><path id="meh-pinkman4" class="cls-8" d="M1131,64.78a9.5,9.5,0,0,0-6,7.49l0.2,0.23,0.19,0.22a3.44,3.44,0,0,1,1.16,2.29v2.11c0,6.53.28,12.39,3.64,17.89a7.66,7.66,0,0,1-1.7,11.2c-2.08,1.6-4.27,3.1-6.39,4.55l-0.4.28c-2,1.35-3.85,2.68-6.26,4.44a9.56,9.56,0,0,0-3.34,4.09,40.12,40.12,0,0,0-1.73,10c-0.37,8.63-.66,17.25-1,26.82q-0.33,9.71-.68,19.49a15,15,0,0,0,4.83,10.82,10,10,0,0,1,2.44,5.66c0.21,2.59.27,5.23,0.33,7.79v0.11A96.71,96.71,0,0,0,1117,212c1.9,12.79,4.34,25.14,6.47,35.53a116.5,116.5,0,0,1-1.79,57.72,15.9,15.9,0,0,1-8.46,10.34l-0.79.37-2.43,1.15-0.36.17c-1.86.87-3.78,1.78-5.6,2.81a5.19,5.19,0,0,0-1.64,1.68,4.06,4.06,0,0,0,1.82,1.8H1107c0.54,0,1.08,0,1.62,0a33.58,33.58,0,0,0,10.3-1.62,32.68,32.68,0,0,1,13.59-3.42h0.25a8.6,8.6,0,0,0,6-2.42,24.31,24.31,0,0,0,3.31-10.65c0.45-6.5.67-13.25,0.83-19.07,0.18-6.11.36-10.79,0.6-15.17,0.34-6.17.89-12.43,1.43-18.49l0.09-1c0.27-3,.51-5.79.75-8.68l1.35-.2,1.35-.2c0.3,0.78.63,1.56,1,2.36,0.48,1.16,1,2.35,1.45,3.59a106.37,106.37,0,0,1,8.94,29.27l0.81,7.66,0.91,8.67q1.21,11.53,2.45,23a6,6,0,0,0,.87,2,4.1,4.1,0,0,1,3,1.85,4.19,4.19,0,0,1,0,3.6,26.13,26.13,0,0,1-4,7.24,39.9,39.9,0,0,1-3.7,3.93l-0.29.28c-1,.94-1.88,1.83-2.7,2.7a2.78,2.78,0,0,0-.87,2.21,1.51,1.51,0,0,0,1.09.61,43.64,43.64,0,0,0,8.1.76c1.27,0,2.56-.06,3.82-0.17a19.32,19.32,0,0,0,10.77-5.79,37.9,37.9,0,0,1,6-4.5,6.38,6.38,0,0,0,.39-2.84,53.91,53.91,0,0,0-.4-5.64c-0.08-.73-0.16-1.46-0.22-2.2l0-.45c-0.35-3.79-.71-7.71-0.73-11.47,0-6.68,0-13.59.24-20.21,0-2.29.06-4.62,0.13-6.86,0-1.55.09-3.09,0.11-4.64v-0.15a41.62,41.62,0,0,0-.41-8c-1-5.62-2.18-11.32-3.28-16.84l0-.15c-1.16-5.8-2.47-12.37-3.67-18.89a136.22,136.22,0,0,1-2-16.93,14.15,14.15,0,0,1,.74-4.53,11.86,11.86,0,0,0,.63-3.64,135.92,135.92,0,0,0-2.18-20,21.82,21.82,0,0,1,5.54-21.36,19.15,19.15,0,0,0,4.74-16.16l-0.22-2.24-0.23-2.44-0.06-.64c-0.72-7.95-1.47-16.17-2.92-24.1-0.4-2.16-.66-3.61-0.86-5.07-1.25-8-1.25-8-14.91-11.93a27,27,0,0,1-14.12-8.4,7.69,7.69,0,0,1-1.46-8.93l0.54-1.11a9.55,9.55,0,0,0,1-2.41c1-5.7,1.4-11.66-3-16.64-2.21-2.5-6.09-3.94-10.65-3.94a18.5,18.5,0,0,0-7.72,1.56h0Z"/><g id="meh-yellowgirl4"><path class="cls-9" d="M563.45,53.38a9.92,9.92,0,0,0,1.48,2.68L565,56.18a3.78,3.78,0,0,1,2.55,1.54,11,11,0,0,1-1.16,6.73l-0.18.31-0.18.32,0.66,0L563.54,68l0.1,0.15,0.11,0.13-0.24.33-0.24.34a2.74,2.74,0,0,1-3,.89c-0.4,0-.79,0-1.19,0a15.27,15.27,0,0,0-4.76.76,14.61,14.61,0,0,1-.71,5.44,156.09,156.09,0,0,0-4.31,22.33c-0.29,6.14.36,20.11,4.28,24.12a8.31,8.31,0,0,0,2.53.57H558l-0.26.88-0.25.89a212.11,212.11,0,0,0-5.94,24.73,6.31,6.31,0,0,0,3.72,1.41h1.78l-0.19.85-0.18.86c0,0.06-.24,1.22-0.64,3.14-1.64,7.89-6,28.86-7,37.8a27.36,27.36,0,0,0,6.69,5.95l2.79,1.69a2.56,2.56,0,0,0,1.1.39l5.59,0.21,5.6,0.21,3.86,0.15a8.55,8.55,0,0,0,2.56-.48,20.7,20.7,0,0,1,5.43-1h1.51A15.17,15.17,0,0,1,589,202a11,11,0,0,0,4.62,1h14.57a23,23,0,0,1,12.29-3.86c0.33-7.55-4.67-42.11-7.62-46.6L612,151.28l-0.29-.43,1.14-.22,0.91-.18c1.87-.38,4.28-0.71,5.93-0.92-0.91-4-5.61-24.05-7.77-29.7l-0.56-1.51,0.88-.19,0.69-.16a5.88,5.88,0,0,0,1.09-.16c0.28-.06.58-0.12,0.9-0.16,4.87-.71,9.27-1.7,9.63-5.95a19.92,19.92,0,0,1,.27-2.81c0.07-.45.13-0.9,0.18-1.34A27.21,27.21,0,0,0,623.59,92,30.44,30.44,0,0,1,620.8,78.2,9.78,9.78,0,0,0,619,74.3l-0.35-.21-0.34-.21V73.07c0-3.93-.77-5.71-2.56-5.95H614.2c-3,0-5-.3-5.93-4.47l-0.3-1.1,0.77-.34A75.45,75.45,0,0,1,601,44.5l-0.09-.38c-1.43-5.91-6-19.67-17.49-19.67-11.67,0-19.42,21.49-20,28.93h0Z"/><path class="cls-9" d="M557.94,203.77h0a145,145,0,0,1-.65,14.84c-0.68,4.7-1,40.57,0,54.74v0.51a93.5,93.5,0,0,1-12.7,22.94v0.13c0,3,.34,6.47,3,6.69,0.37,0,.74,0,1.12,0,4,0,8.7-1.76,9.16-3,0.16-.46.42-1.47,0.86-3.27,1.36-5.72,2.91-11.26,5-13l1.42-1.16a10.34,10.34,0,0,1,2.11-4.69,7.2,7.2,0,0,0-.83-8.74l-0.3-.33V269a49.16,49.16,0,0,1,2.43-21.28c2.88-7.25,3.93-19.67,3.93-26.25v-0.42l0.11-.17,0.12-.18c3-4.61,3.51-12.68,3.6-15.95l-0.75,0a6.75,6.75,0,0,1-.74,0l-3.86-.15-5.54-.21-5.54-.21a4.66,4.66,0,0,1-1.87-.41h0Z"/><path class="cls-9" d="M612,204.07a10.63,10.63,0,0,0-2.32,1.43l-0.21.18-0.21.18H594.4a19,19,0,0,0,5,11.89l0.45,0.45a22.69,22.69,0,0,1,1.18,9.4,37.18,37.18,0,0,0,1.88,14c3.39,8.06,5.19,22.31,3.5,27.72a15.82,15.82,0,0,0-.81,7.19,153.83,153.83,0,0,1,2.5,22,1.41,1.41,0,0,0,.42,1.2c1.47,1.55,5.83,2,8.18,2h0.44a5.67,5.67,0,0,0,3-4.55,34,34,0,0,0,0-7.93c0-.09-2.05-8.31-2.7-10.48a26.75,26.75,0,0,0-2.14-5.34c-1.18-1.09-.41-19.1,0-26.79,0-.3,0-0.48,0-0.49,0.33-1.4,1.19-20-1-28.27A78.2,78.2,0,0,1,612,204.08h0Z"/></g><path id="meh-greenman4" class="cls-10" d="M304.37,404.67a10.78,10.78,0,0,0-3.63,5.35,44.82,44.82,0,0,0-1.4,12.42,16.16,16.16,0,0,0,2.77,8,8.59,8.59,0,0,1,1.81,6.56,6.83,6.83,0,0,1-3.44,4.3c-6.3,3.75-12.88,7.5-18.68,10.81l-1.88,1.07-1.92,1.1c-2.39,1.36-3.75,2.23-4,4.41-0.25,2.69-.59,5.4-1,8.41a143.69,143.69,0,0,0-1.37,14.64c-0.58,21.65-.72,43.39-0.77,61.81a17.13,17.13,0,0,1-.24,2.35c-0.43,2.76-.37,4.15,2,5a2.78,2.78,0,0,1,1.13,3v2.95a14.9,14.9,0,0,0,.18,4.19,12.56,12.56,0,0,0,3,5.95,7.5,7.5,0,0,1,2.82,6.91L279.64,576,279.53,578c-0.87,15.68-1.78,32.35-2.35,48.71-0.3,9.17-.14,18.79,0,27.27v5.49a7.68,7.68,0,0,0,.81,2.53c0.3,0.67.56,1.32,0.8,2l0.27,0.71-2.1,2.71-0.45.58-0.84,1.09c-1.48,1.91-3.05,3.94-4.6,6a4.12,4.12,0,0,0-1,3,1,1,0,0,0,.72.66,16.2,16.2,0,0,0,6.85,1.53,16,16,0,0,0,6.11-1.21l1.27-.41,0.3-.1a15.73,15.73,0,0,0,4.19-2.52,14,14,0,0,0,4.37-5.95,146.55,146.55,0,0,0,1.22-15.3c0-1.45.11-2.93,0.21-4.36l0.06-.8c0.09-1.32.13-2.59,0.17-3.82l0-1.17c0-2.39.16-4.79,0.33-6.83a180.73,180.73,0,0,1,7-34c1-3.53,2-7,3-10.6,1.65-6.48,3.08-12.36,4.37-18q0.87-4,1.75-8h2.78a105.38,105.38,0,0,1,2.6,19.44c0.32,14.37.47,29.17,0.61,43.49v1.45c0,7.31.08,14.68,0.24,21.89a28.4,28.4,0,0,0,.27,3,7.53,7.53,0,0,0,.12,1.16c0,0.23.07,0.45,0.09,0.68a18.41,18.41,0,0,0,.2,2.33c0,0.34.09,0.68,0.13,1l0.05,0.53c0.28,2.78.54,5.41,0.57,8.14a3.24,3.24,0,0,0,2.44,3.57,110.4,110.4,0,0,1,10.48,5,21.39,21.39,0,0,0,16.64,1.66,4.11,4.11,0,0,0,2.17-1.55,5.38,5.38,0,0,0-1.7-2.27c-1-.82-1.94-1.6-2.92-2.38s-1.79-1.43-2.7-2.19-1.68-1.37-2.52-2c-1-.81-2.07-1.64-3.1-2.54a5.92,5.92,0,0,1-1.87-4.15,9.81,9.81,0,0,1,.56-3,9.62,9.62,0,0,0,.45-1.81c0.23-3,.41-5.68.59-8.5A156.84,156.84,0,0,1,339.67,634a255.14,255.14,0,0,0,4.07-55.13,10.65,10.65,0,0,1,4.89-10.21,23.21,23.21,0,0,0,5.68-8.65,21.21,21.21,0,0,0,1.34-5.53c0.17-1.23.35-2.25,0.56-3.2,0.07-.41.14-0.82,0.21-1.22h1.24a2.33,2.33,0,0,0,.68.1,2.26,2.26,0,0,0,1-.25,2.93,2.93,0,0,0,.27-2.06c-0.41-8.49-.59-17.12-0.77-25.46v-0.17a498.83,498.83,0,0,0-3-51.23c-1.61-12.61-4.83-20.33-16.55-22.44a26.84,26.84,0,0,1-6.5-2.34l-1-.45a29.54,29.54,0,0,1-5.52-3.18A10.06,10.06,0,0,1,324,430.29a17.81,17.81,0,0,0,2-6.15,19.18,19.18,0,0,0-.3-4.54,20.86,20.86,0,0,1-.24-5.37,3.64,3.64,0,0,1,1.27-2.31,1.33,1.33,0,0,0,.66-1.2,10.56,10.56,0,0,0-3.48-3.75l-0.76-.66-0.75-.65a15.62,15.62,0,0,0-18-1h0Z"/><g id="meh-bluegirl4"><path class="cls-11" d="M1291.59,360.51l-0.41.32c-4.86,2-7.66,7.59-8.1,16.09v0.18h0.22l0.47,0.17,0.47,0.18v1.08a28.11,28.11,0,0,0,.71,5.89,39.48,39.48,0,0,0,5.89,12.72l0.18,0.34,0.18,0.34-0.17.45-0.12.34c-2.06,5.33-5.59,5.71-10.48,6.23l-1.16.13-1.16.13c-4.39.56-6.72,3.77-8.05,11.08-0.49,2.74-2.08,9.23-3.77,16.1l-0.38,1.57c-1.84,7.51-4,16.46-4.42,19.09-0.7,4.5-.61,20.89-0.59,24.13v0.11a14,14,0,0,1-.55,2.7l-0.12.2-0.2.33a9.69,9.69,0,0,0,0,6.75l0.47,0.45v0.61a6.09,6.09,0,0,0,1.09,3.3l0.67,0.1,0.63,0.09-0.3,1.22a4.72,4.72,0,0,0,.35,1.71l0.23,0.58-0.14.3-0.14.3a74.21,74.21,0,0,0-6.57,23.56c-1.29,12.35-8.71,36-10.63,41.64a27.2,27.2,0,0,0,15.45,4.79,27.5,27.5,0,0,0,3.59-.23h1.91l0.09-.16H1267A27.2,27.2,0,0,0,1277.9,568c4.13,0,6.37-1.32,6.76-1.93l0.53-.91h1.08a44.19,44.19,0,0,0,10.21,1,91.81,91.81,0,0,0,18.13-2l-0.07-.86-0.07-.91h1.46a25.75,25.75,0,0,0,8.84-1.86c-3.49-11.77-6.61-30.45-9.27-55.55-0.07-.68-0.14-1.37-0.21-2.05a54.06,54.06,0,0,1,0-6.84c0-.67,0-1.39,0-2.12,0-3.71.09-7.93-.9-9.28-2.62-3-5.32-15.26-5.53-16.48l-0.12-.38-0.12-.39,0.56-.55a2,2,0,0,0,.5-0.83,23.05,23.05,0,0,1-2.27-2.63l-0.48-.61-0.49-.63-0.45-.52-0.44-.52,0.48-.44,0.49-.46c3.75-3.52,8.84-21.79,9.37-25.1,0.38-2.41,2-15.08,2-20,0-2.58-1.8-4.84-5.22-6.55l-0.15,0-0.14,0a72.3,72.3,0,0,1-7.3-7.54l-0.13-.14-0.13-.15-0.48-2.27-0.4-1.87c-1.68-1-.25-11.47-0.21-11.57l0.05-.19,0.24-.84h1.08a3.5,3.5,0,0,0,.67.07,3.24,3.24,0,0,0,1.93-.63,23.53,23.53,0,0,0,.62-5.72c0-2.64,0-3.35.88-3.88a11.53,11.53,0,0,0,2.36-2.36,3,3,0,0,0-1.24-2.7l-0.38-.3v-0.46a10.14,10.14,0,0,1-.21-4.8c0.58-1.44-1.43-2.37-1.83-2.54l-0.41-.18-0.23-.38a5.28,5.28,0,0,0-5.73-2.15h-2l-0.18-.16-0.2-.16a2.13,2.13,0,0,0-1.37-.41,10,10,0,0,0-6.24,3.2h0Z"/><path class="cls-11" d="M1265.12,568.09a31.39,31.39,0,0,1-9.6,0c0.22,4.68,1.42,28.48,2.37,39.24,1,11.66-10.1,18.32-15.45,21.52l-0.15.09-1.68,1a1.6,1.6,0,0,0-.92,1,4.86,4.86,0,0,0,3.39,2A35.57,35.57,0,0,0,1254,630.1a21.35,21.35,0,0,1,12.25-8.84l1.47-.35c0.05,0.38.13,0.76,0.19,1.14a2.74,2.74,0,0,1,1.64-1.7,4.77,4.77,0,0,0,2.39-2.51,2.36,2.36,0,0,0-.44-2.31c-2.93-4-4.71-7.43-2.94-18.75,0.87-5.54,1.75-12.55,2.46-18.18,0.46-3.68.87-6.85,1.13-8.51a36.71,36.71,0,0,1-5.9-2h-1.09Z"/><path class="cls-11" d="M1296.31,569.28c-1.33,0-2.68,0-4-.09,0,19.77-.5,32.21-1.48,37-1.44,7.05-5.38,21.84-7.21,24.35l-0.38.49-0.38.48c-2.66,3.25-3,4.35-2.77,4.7a4.21,4.21,0,0,0,2,.52,4.14,4.14,0,0,0,.93-0.11c8.55-.51,10.89-1.88,11.34-2.95a20.16,20.16,0,0,0,.65-3.8,12,12,0,0,1,1.32-5.59,3.55,3.55,0,0,0,.73-1.06h2v-1.37l0.21-.2,0.22-.2c0.76-.76,4.31-4.57,1.86-7.47-4.33-5.07-2.84-8.66-.59-14.09,0.91-2.41,8.92-23.72,8.34-31.57h0a83.86,83.86,0,0,1-12.81,1h0Z"/></g></svg>