<svg id="Background" xmlns="http://www.w3.org/2000/svg" xmlns:xlink="http://www.w3.org/1999/xlink" viewBox="0 0 1536 700"><defs><style>.cls-1{fill:#98c12a;}.cls-2,.cls-3{fill:#fcfff5;}.cls-2{opacity:0.83;}.cls-4{fill:#caf2fb;}.cls-4,.cls-5,.cls-6,.cls-7,.cls-8,.cls-9{opacity:0.86;}.cls-5{fill:#e8c4da;}.cls-6{fill:#f3d4ca;}.cls-7{fill:#c0b6fd;}.cls-8{fill:#f9e6c8;}.cls-9{fill:#dfe9c7;}.cls-10{fill:#dacea2;}.cls-11{fill:#6edaf4;}.cls-12{fill:#0a0e60;}</style></defs><title>meh5</title><image id="Background-2" data-name="Background" width="1" height="1" transform="scale(1536 700)" /><path class="cls-1" d="M1007.28,40.56H602a1.11,1.11,0,0,0-.68,0,10.87,10.87,0,0,0-1.38.61h0a11,11,0,0,0-1.82,1.22l-0.24.18a41.23,41.23,0,0,0-6.37,6,26.49,26.49,0,0,0-1.72,2.12l0,0A10.87,10.87,0,0,0,587.93,54a1.11,1.11,0,0,0,0,.68V650.24c-0.18.78,0.12,1.07,0.89,0.89H994.75A10.88,10.88,0,0,0,998,649.3a45.61,45.61,0,0,0,8.35-8.35,10.86,10.86,0,0,0,1.84-3.23V41.45c0.15-.63,0-0.94-0.5-0.94a1.74,1.74,0,0,0-.39.05h0ZM826.91,54.87h167v582H602.25v-582H826.91Z"/><path class="cls-2" d="M1059.35,409.27h-535a0.17,0.17,0,0,0-.1,0,1.56,1.56,0,0,0-.47.27l-0.07.05h0l0,0a6.06,6.06,0,0,0-.88.85,3.71,3.71,0,0,0-.26.32h0a1.71,1.71,0,0,0-.28.48,0.17,0.17,0,0,0,0,.1V673.3c0,0.12,0,.16.13,0.13h535.11a1.56,1.56,0,0,0,.48-0.28,6,6,0,0,0,.67-0.59,6.3,6.3,0,0,0,.59-0.66,1.71,1.71,0,0,0,.28-0.48v-262c0-.09,0-0.14-0.07-0.14h-0.06ZM736.4,411.42h320.93V671.28h-533V411.42h212Z"/><path class="cls-2" d="M1059.35,409.27h-535a0.17,0.17,0,0,0-.1,0,1.56,1.56,0,0,0-.47.27l-0.07.05h0l0,0a6.06,6.06,0,0,0-.88.85,3.71,3.71,0,0,0-.26.32h0a1.71,1.71,0,0,0-.28.48,0.17,0.17,0,0,0,0,.1V673.3c0,0.12,0,.16.13,0.13h535.11a1.56,1.56,0,0,0,.48-0.28,6,6,0,0,0,.67-0.59,6.3,6.3,0,0,0,.59-0.66,1.71,1.71,0,0,0,.28-0.48v-262c0-.09,0-0.14-0.07-0.14h-0.06ZM736.4,411.42h320.93V671.28h-533V411.42h212Z"/><path class="cls-2" d="M523.3,410.35h535.11v262H523.3v-262h0Z"/><path class="cls-3" d="M523.3,410.35h535.11v262H523.3v-262h0Z"/><path class="cls-4" d="M598.17,442.51A26.15,26.15,0,0,0,586.85,449a38,38,0,0,0-4.21,5,50.77,50.77,0,0,0-2.9,4.26,73.09,73.09,0,0,0-5.57,12.79,86.44,86.44,0,0,0-4.75,25.45,62.06,62.06,0,0,0,.56,11.26A98.93,98.93,0,0,0,573,523,104.57,104.57,0,0,0,582.94,545c3,5.27,6.27,10.41,9.31,15.67a191.51,191.51,0,0,1,9.41,17.76,67.53,67.53,0,0,1,4,14.54,73.67,73.67,0,0,1,.49,7.64,55,55,0,0,1-.65,7.5c-0.43,3-1,5.92-1.58,8.88a32.89,32.89,0,0,1-1.65,6,0,0,0,0,0,0,0,36.28,36.28,0,0,0,5.64-7.1,63.69,63.69,0,0,0,8.52-17.62c4.27-14.77,1.39-30.27-2.74-44.72-1.76-6.13-3.9-12.16-6.05-18.16-4.12-11.46-8.08-23.07-10-35.13a133.6,133.6,0,0,1-.71-13.92A109.4,109.4,0,0,1,598,472.12a58.72,58.72,0,0,1,3-11.91,11.68,11.68,0,0,1,4-5.25,21.68,21.68,0,0,1,2.85-1.66,31.23,31.23,0,0,1,5.91-1.6c4.89-.58,9.8-0.81,14.71-1.19,0,0,0,0,0,0-6-3.28-12.18-7.15-19-8.36a28.2,28.2,0,0,0-4.92-.45,25.89,25.89,0,0,0-6.44.82h0Z"/><path class="cls-5" d="M705.86,428.33c-4.84.05-9.3,1.73-13.66,3.63-4,1.76-7.68,4.67-11,7.53a54.39,54.39,0,0,0-8.34,9.76,63.85,63.85,0,0,0-6.7,12.87,85.93,85.93,0,0,0-6,25.38,61,61,0,0,0,.09,11,59.83,59.83,0,0,0,3,14.82,87.76,87.76,0,0,0,12.26,22.83q3.32,4.49,6.71,8.94c1.86,2.44,3.74,4.87,5.63,7.3a95.82,95.82,0,0,1,9.45,15,37.39,37.39,0,0,1,1.86,7.12,27.79,27.79,0,0,1,.06,4.81,35.49,35.49,0,0,1-1.94,6.5c-2.3,5.18-5.62,9.74-9,14.27l0-.06-0.06.08-0.07.09,0-.06-1.54,2h0L686,603s0,0,0,0c7.65-3.91,15.21-8.49,20.57-15.33a29,29,0,0,0,4.1-6.9,32.1,32.1,0,0,0,2.07-8.68c0.71-6-.22-11.82-1.66-17.67-1.67-6.78-4.76-13.23-7.54-19.62-2.23-5.13-4.61-10.19-6.84-15.32a91.92,91.92,0,0,1-5.47-18.75,91.73,91.73,0,0,1,0-19.72,96,96,0,0,1,5-20.11,50.9,50.9,0,0,1,4.74-8.18,40.83,40.83,0,0,1,4.65-4.77,28.86,28.86,0,0,1,3.55-2.17,23.69,23.69,0,0,1,2.87-.73,26.87,26.87,0,0,1,4.52.07,32.24,32.24,0,0,1,5.94,1.63c5.55,2.51,10.45,6.23,15.44,9.68,0,0,0,0,0,0-2.86-6.69-5.69-13.42-10.63-18.86a29.35,29.35,0,0,0-21.24-9.3h-0.27ZM688.28,600.18l0,0v0l0,0h0Z"/><path class="cls-6" d="M791.56,438.4a9.83,9.83,0,0,0-2.17.66A20.35,20.35,0,0,0,783,442.8a29.28,29.28,0,0,0-6.92,9.06,49.72,49.72,0,0,0-4.71,13.07c-3.5,16.17-2.15,32.85,2.67,48.6,1.85,6.05,3.88,12.06,6,18,2.27,6.36,4.76,12.6,6.7,19.06a133.23,133.23,0,0,1,4.32,18.25,31.93,31.93,0,0,1,.11,6.49,20.64,20.64,0,0,1-.76,3c-0.21.38-.43,0.74-0.66,1.1a25.86,25.86,0,0,1-3.36,3.18c-3.21,2.32-6.88,3.75-10.43,5.48-1.87.91-3.74,1.77-5.63,2.62a18.81,18.81,0,0,1-3,.93,0,0,0,0,0,0,0,25.31,25.31,0,0,0,7.22.52c3.29-.13,6.6-0.25,9.89-0.48,5.55-.4,11.51-2.62,15.48-6.59,2.34-2.34,3.63-5.47,4.87-8.47,1.39-3.39,1.72-7,2.2-10.65l-0.12.91a124,124,0,0,0,.6-26.73c-0.59-6.77-1.73-13.49-2.66-20.21q-0.9-6.43-2-12.83c-0.94-5.49-2-11-2.86-16.46-1.06-8.69-1.83-17.57-1-26.3a39.74,39.74,0,0,1,1.42-5.67,45.85,45.85,0,0,1,6.86.33,54.19,54.19,0,0,1,11.4,3.12,38.74,38.74,0,0,1,6.53,3.66,14.28,14.28,0,0,1,1.47,1.42,15.42,15.42,0,0,1,1.06,1.86,54.34,54.34,0,0,1,1.71,8.38s0,0,0,0l1-2.43h0c1.27-3,2.4-5.87,2.31-9.15-0.1-3.46-2-6.75-3.91-9.52A44.4,44.4,0,0,0,811.24,442c-4.09-1.9-8.34-3.69-12.87-4.11-0.44,0-.87-0.06-1.31-0.06a36.36,36.36,0,0,0-5.5.61h0Zm39.05,36.48,0,0.1,0-.1h0ZM770.52,590.67l-0.06,0,0.06,0h0Z"/><path class="cls-7" d="M883.3,436.89a25.86,25.86,0,0,0-7,2.45c-4,1.91-7,5.7-9.43,9.33a48.59,48.59,0,0,0-5.41,12.13,66.21,66.21,0,0,0-2.21,10.6,92.91,92.91,0,0,0-1.11,14.87,87,87,0,0,0,1.7,14.11,100.77,100.77,0,0,0,3,11.87,154.52,154.52,0,0,0,6.6,16.43q2.29,5.1,4.72,10.14c1.16,2.43,2.26,4.89,3.33,7.36a141.11,141.11,0,0,1,5.74,17.61c0.87,3.33,1.52,6.72,2.2,10.09,0.58,2.9,1.15,5.8,1.58,8.73a34.43,34.43,0,0,1,.33,7.11,23,23,0,0,1-.81,3.2,17.47,17.47,0,0,1-1.4,2.35,25.58,25.58,0,0,1-3.44,3.47,21.7,21.7,0,0,1-3.36,2,26.06,26.06,0,0,1-5.91,1.57h0c-0.61.07-1.23,0.13-1.84,0.18a0,0,0,0,0,0,0,20.43,20.43,0,0,0,16.75.09,19.75,19.75,0,0,0,7.42-5.41,24.72,24.72,0,0,0,4.8-10.13c1.62-7.17,2.14-14.73,2.57-22.05a114.75,114.75,0,0,0-1.41-24.84,195.37,195.37,0,0,0-5.38-22.41c-1.19-4.16-2.28-8.36-3.37-12.55-1.74-6.64-3.52-13.34-4.59-20.13a103.84,103.84,0,0,1-.37-21.9,41.79,41.79,0,0,1,1.55-6.34q0.21-.39.43-0.77l0.56-.55,0.58-.35,0.67-.16a29.15,29.15,0,0,1,4.77.06,21.73,21.73,0,0,1,3.2.82,24.67,24.67,0,0,1,3.51,2.12,42.34,42.34,0,0,1,6.05,6.25c2.22,2.92,4.4,5.85,6.66,8.73a0,0,0,0,0,0,0c-0.37-3.82-.65-7.68-1.24-11.48-1.18-7.62-4.5-14.91-10.94-19.46a32,32,0,0,0-11-4.94,20.21,20.21,0,0,0-4.71-.56,23.9,23.9,0,0,0-3.8.32h0Zm-10.74,165.4h0Z"/><path class="cls-8" d="M963.38,440.82a24,24,0,0,0-10.64,3.7,23.12,23.12,0,0,0-8.16,9.22,42.22,42.22,0,0,0-3.91,22.5,90.16,90.16,0,0,0,1.81,11.59,68.94,68.94,0,0,0,3.08,9.34c2.53,6.57,5.42,13,8.21,19.43a211.8,211.8,0,0,1,13.15,49.58,78.64,78.64,0,0,1,.61,16.78,65.22,65.22,0,0,1-3.81,13.3,40.3,40.3,0,0,1-3.82,6.77,34.48,34.48,0,0,1-4.63,4.73,31.06,31.06,0,0,1-5.22,3.08,22.25,22.25,0,0,1-4,1.16,34.2,34.2,0,0,1-6.77-.24,51.37,51.37,0,0,1-5.56-1s0,0,0,0a35.4,35.4,0,0,0,11,6.38c3.23,1.18,6.94,1,10.27.5A33.72,33.72,0,0,0,965.61,614c7-3.64,12.12-9.91,16.36-16.35a59.64,59.64,0,0,0,5.48-11,51.67,51.67,0,0,0,2.63-11.47,118.16,118.16,0,0,0,1.21-17.5c0-2.63.11-5.31-.08-7.94-0.75-10.54-1.68-21.13-4.45-31.35a119,119,0,0,0-9.26-22.76c-1.53-3-3-6-4.54-9-1.34-2.58-2.71-5.15-3.92-7.79a66.29,66.29,0,0,1-3.56-11.69,37.3,37.3,0,0,1-.07-5.6c0.1-.5.23-1,0.37-1.48l0.24-.4c0.34-.37.69-0.72,1.06-1.07s0.65-.38,1-0.55a29.52,29.52,0,0,1,4.74-1.29,27.78,27.78,0,0,1,4.35-.1,14.55,14.55,0,0,1,1.53.37l0,0a17.29,17.29,0,0,1,.45,1.77c0.32,2.41.64,4.81,1.15,7.19,0.61,2.86,1.37,5.69,2.17,8.5a0,0,0,0,0,0,0c1.29-4.55,2.64-9.05,4.2-13.52a18.9,18.9,0,0,0,1.36-6.46c0-3.67-2.31-6.6-5.09-8.72a26.07,26.07,0,0,0-9.3-4.2,29.57,29.57,0,0,0-7.36-.94,26.94,26.94,0,0,0-2.93.16h0ZM979,457.17a4.67,4.67,0,0,1,.39.3l-0.39-.3h0Zm0,0.2,0.15,0.19-0.15-.19h0Zm0,0.19,0.07,0.18-0.07-.18h0Zm0,0.12,0.05,0.39-0.05-.39h0Z"/><path class="cls-9" d="M1019.66,443a23,23,0,0,0-14.21,8.51,34.84,34.84,0,0,0-4.49,7.08,47.53,47.53,0,0,0-3.23,9.14,41.93,41.93,0,0,0,.09,19.66,57,57,0,0,0,3.47,9,69.31,69.31,0,0,0,3.66,7.11c2.91,5,6.89,9.25,10.41,13.78l-2-2.64c2.55,3.3,5.19,6.53,7.77,9.81a90.75,90.75,0,0,1,10.38,17.25,80.58,80.58,0,0,1,5,17.23,32.1,32.1,0,0,1,.25,5.82,18,18,0,0,1-.64,2.22,25.73,25.73,0,0,1-2.18,3.79,48.23,48.23,0,0,1-7.84,7c-1.32,1-2.65,2-4,3a0,0,0,0,0,0,0,72.16,72.16,0,0,0,8.95-2,40.84,40.84,0,0,0,6.86-2.5,21.53,21.53,0,0,0,5.77-4.57c3.64-3.87,5-9.16,5.73-14.27a75.75,75.75,0,0,0,.46-17.42c-1-12.39-5.57-24-11.76-34.7-2.64-4.57-5.54-8.89-8.5-13.25a89.1,89.1,0,0,1-6.92-12.13,33.15,33.15,0,0,1-1.35-4.85,45.23,45.23,0,0,1,0-7.93,33.68,33.68,0,0,1,1.27-5c0.27-.52.56-1,0.87-1.53a20.45,20.45,0,0,1,1.47-1.47c0.26-.17.53-0.32,0.8-0.47a26.2,26.2,0,0,1,3.32-.77,27.86,27.86,0,0,1,5.09.05,21,21,0,0,1,2.85.7,17.06,17.06,0,0,1,2.35,1.39,18.62,18.62,0,0,1,1.86,1.84,14.57,14.57,0,0,1,1.21,2.1,31.8,31.8,0,0,1,1.5,6,0,0,0,0,0,0,0,28.72,28.72,0,0,0,2.12-5.62,14.51,14.51,0,0,0-.17-6.8c-1.21-5-5.11-8.64-9.39-11.16a27.6,27.6,0,0,0-7.09-2.85,35.07,35.07,0,0,0-4.41-.75,15.64,15.64,0,0,0-1.93-.12,25,25,0,0,0-3.48.29h0Z"/><path class="cls-10" d="M853.78,615.45a15.48,15.48,0,0,0-2.72.7c-0.84.23-1.66,0.54-2.49,0.83-1.45.5-2.86,1.09-4.29,1.63-2.7,1-5.37,2.24-8,3.45s-5.1,2.3-7.58,3.61-4.9,2.6-7.38,3.85c-5.92,3-11.9,5.81-17.85,8.73l-1,.46a20.39,20.39,0,0,1-8.43,2,7.51,7.51,0,0,1-2-.58,2.44,2.44,0,0,1-1.19-1.93,23.15,23.15,0,0,1,.62-3.29c0.2-.9.34-1.81,0.5-2.72,0.69-3.84,1-8.68-2.15-11.52a4.48,4.48,0,0,0-2.19-.74,10,10,0,0,0-3.55.21,58.49,58.49,0,0,0-7,1.82,85.34,85.34,0,0,0-9.4,3.79c-1.41.63-2.86,1.22-4.23,1.94L758,630.58c-4.24,2.23-8.37,4.65-12.73,6.66-3.69,1.52-7.46,3-11.49,2.74a9.63,9.63,0,0,1-2.72-1,3.2,3.2,0,0,1-1.57-2.28,10.41,10.41,0,0,1,.78-3l0.84-2.49c0.46-1.37.88-2.75,1.22-4.16a19.08,19.08,0,0,0,.27-7.11,8.47,8.47,0,0,0-.65-2.12,3.4,3.4,0,0,0-2.16-1.64A7.48,7.48,0,0,0,727,616a23.93,23.93,0,0,0-2.48.29c-1.84.27-3.65,0.55-5.48,0.9a65.94,65.94,0,0,0-21.43,8.41c-4.44,2.65-8.82,5.3-13.11,8.18l1.84-1.23a74.58,74.58,0,0,1-9.73,5.51c-4.18,1.72-8.45,3-13,2.82-2.48-.37-5.56-1.35-6.47-3.85,0-2,.87-3.95,1.51-5.87a23.18,23.18,0,0,0,1.17-7.17,10,10,0,0,0-.67-4,3.88,3.88,0,0,0-2.61-2.07,8.33,8.33,0,0,0-3.89.22c-0.8.15-1.6,0.41-2.39,0.62a84.4,84.4,0,0,0-12.11,4.09,127.68,127.68,0,0,0-11.69,6.05c-3.75,2.14-7.45,4.36-11.18,6.53-5.66,3.29-11.29,6.85-17.22,9.64-3.17,1.35-6.48,2.59-10,2.42a11.06,11.06,0,0,1-2.57-.75,4.59,4.59,0,0,1-2.3-2.72,7.38,7.38,0,0,1,.43-2.17c1.42-2.86,2.79-5.73,3.95-8.71,1-2.66,1.69-6-.26-8.43-0.79-1-2.82-.93-3.91-0.88a14.54,14.54,0,0,0-2.61.61c-0.86.21-1.71,0.48-2.55,0.72a132.78,132.78,0,0,0-14.39,5A143.77,143.77,0,0,0,549.28,637c-5.51,3.07-11,6.26-16.41,9.44a26.5,26.5,0,0,0-4,3,40.81,40.81,0,0,0-6.21,6.61,10.87,10.87,0,0,0-1.84,3.23c0,0.27.06,0.54,0.09,0.81a2.27,2.27,0,0,0,2.2-.53c4.46-2.6,8.89-5.25,13.4-7.77,1.85-1,3.66-2.13,5.57-3l6.18-3c3-1.27,6-2.55,9.14-3.63,1.61-.55,3.2-1.13,4.83-1.61l3.26-1a28.44,28.44,0,0,1,6-1.43,4.38,4.38,0,0,1,1.68.73,3.6,3.6,0,0,1,1.07,2.19c0,3.09-1.52,6-2.74,8.81l0.55-1.25c-1.53,3.07-4.07,6.55-2.8,10.07,0.75,2.07,3.11,2.72,5,3a16.19,16.19,0,0,0,7.7-1c7.2-2.4,13.7-6.5,20.23-10.29,3.47-2,6.93-4.06,10.39-6.11a157.26,157.26,0,0,1,13.83-7.52,66.42,66.42,0,0,1,8.76-3.05c2.35-.63,4.92-1.63,7.38-1.63a4.27,4.27,0,0,1,2.86,3.34,25.23,25.23,0,0,1-1.57,9.56,28.09,28.09,0,0,0-1.07,3.72,6.31,6.31,0,0,0,.31,2.82c0.27,0.88,1.39,1.54,2.1,2a10.49,10.49,0,0,0,3.91,1.38c5.25,1,10.61-.8,15.38-2.8a86.31,86.31,0,0,0,14.29-8l-0.73.49c2.33-1.54,4.74-2.94,7.13-4.37,3.08-1.84,6.17-3.65,9.41-5.18a64.32,64.32,0,0,1,12.89-3.77,44.42,44.42,0,0,1,7.95-1,4.44,4.44,0,0,1,2,1.08,4.92,4.92,0,0,1,1.07,2.91,29.43,29.43,0,0,1-2,10.31c-0.26.77-.52,1.54-0.79,2.3a11.54,11.54,0,0,0-.57,2,6.56,6.56,0,0,0,.41,2.68c0.51,1.61,2.84,2.25,4.27,2.54a16.51,16.51,0,0,0,7.09-.48,46.53,46.53,0,0,0,7.63-2.9c2.32-1,4.57-2.21,6.83-3.37,3-1.57,6-3.27,9-4.86,1.43-.76,2.85-1.59,4.33-2.25l4.3-1.93a76.11,76.11,0,0,1,7.21-2.58,30.12,30.12,0,0,1,7.84-1.6,5.46,5.46,0,0,1,1,.29,4.06,4.06,0,0,1,1.82,1.61,7.15,7.15,0,0,1,1.24,3.37,40.49,40.49,0,0,1-1.22,9.41c-0.39,1.82-.67,4.2,1,5.43a6.89,6.89,0,0,0,3.32.74,13.66,13.66,0,0,0,4.13-.45c4.48-1.08,8.58-3.39,12.7-5.37l7.3-3.51c3.43-1.64,6.82-3.38,10.18-5.16,1.84-1,3.65-2,5.54-2.9l5.75-2.65c1.68-.73,3.35-1.49,5.05-2.14l3.88-1.47a19.21,19.21,0,0,1,6.64-1.67,3.89,3.89,0,0,1,1.29.48,2,2,0,0,1,.72,1.34,10.48,10.48,0,0,1-.84,3,78.81,78.81,0,0,1-4.87,8.26c-1.17,1.67-2.37,3.32-3.47,5a9.89,9.89,0,0,0-2,4.66,4.75,4.75,0,0,0,.45,2.13c0.34,0.78,1.69,1.14,2.4,1.39a15.45,15.45,0,0,0,4.95.61,27.43,27.43,0,0,0,5.59-.67,68.85,68.85,0,0,0,11.66-3.82c5.85-2.34,11.64-4.89,17.46-7.32l7.46-3.12c2.63-1.1,5.29-2.06,8-3a104.66,104.66,0,0,1,15.58-4.19,44.48,44.48,0,0,1,7.3-1.12c1.71,0.52,2.39,2,2.72,3.71a21.1,21.1,0,0,1-2.06,9.17c-0.88,1.84-1.87,3.62-2.85,5.4-0.4.73-.84,1.43-1.25,2.14s-0.77,1.2-1.09,1.86a9.26,9.26,0,0,0-.92,3.41c0,0.27.06,0.54,0.09,0.81,0.8,0.27,1.59.56,2.4,0.8a7.32,7.32,0,0,0,3.36,0,15.17,15.17,0,0,0,2.62-.87c1.33-.52,2.66-1.07,4-1.68,2.45-1.15,4.79-2.52,7.15-3.85,2.91-1.64,5.8-3.31,8.77-4.84,5.79-3,11.64-5.83,17.52-8.64,1.48-.61,3-1.24,4.47-1.77,2.25-.79,4.68-1.86,7.08-2a3.37,3.37,0,0,1,2.33,2.88,33.07,33.07,0,0,1-.56,5.64c-0.34,2.33-1,4.87,0,7.11a3.38,3.38,0,0,0,1.5,1.13,5.41,5.41,0,0,0,2,.5,14.69,14.69,0,0,0,5.8-.82,40.25,40.25,0,0,0,6.22-2.63,66.74,66.74,0,0,0,5.89-3.29l9.55-5.84c1.21-.74,2.55-1.33,3.81-2,1.89-1,3.78-1.95,5.72-2.84a60.07,60.07,0,0,1,11.58-3.65,49.3,49.3,0,0,1,6.7-1.13,5.42,5.42,0,0,1,1.23.45,4.81,4.81,0,0,1,1.53,1.75,9.71,9.71,0,0,1,1.27,4c0.29,4.67-.71,9.35-1.87,13.86l-0.53,2.05a16.6,16.6,0,0,0-.6,2.33,6.17,6.17,0,0,0,.76,3c0.63,1.35,2.3,2,3.55,2.55,1.72,0.79,3.44,1.5,5.22,2.15a2.28,2.28,0,0,0,2.2-.53,28.15,28.15,0,0,0,6.29-5.12,42.68,42.68,0,0,0,3.91-4.45l1.22-1.84a2.27,2.27,0,0,0,.53-2.2c-2-.73-4-1.57-5.91-2.47a8.32,8.32,0,0,1-2.44-1.62,4.11,4.11,0,0,1-1-2.19,38.39,38.39,0,0,1,1.11-4.22c0.24-.93.44-1.87,0.65-2.8,0.36-1.63.69-3.26,0.95-4.9a28.68,28.68,0,0,0,.06-8.16c-0.27-2.15-1.29-4.63-3.3-5.64a6.39,6.39,0,0,0-3-.32,19.7,19.7,0,0,0-2.21.37,83.4,83.4,0,0,0-8.68,1.93c-6.7,1.91-12.85,5.3-19,8.5-2,1-3.83,2.34-5.72,3.5a118.46,118.46,0,0,1-10.86,6.17,20.52,20.52,0,0,1-7.11,1.78,6.59,6.59,0,0,1-2-.72,2.43,2.43,0,0,1-1.25-1.8,30.12,30.12,0,0,1,.53-4.51c0.22-1.57.5-3.15,0.58-4.74a9.91,9.91,0,0,0-.43-3.42,3,3,0,0,0-2.54-2.08c-2-.36-4,0.53-5.87,1.11a106.73,106.73,0,0,0-14.12,6c-4.39,2.1-8.72,4.27-13,6.5-5.24,2.69-10.21,6-15.53,8.5a19,19,0,0,1-5.74,1.72,20.06,20.06,0,0,1-2.41-.74c0-.3.08-0.6,0.14-0.9,0.59-1,1.28-2,1.85-3.07,1-1.89,2.09-3.77,3-5.73,1.67-3.57,3.2-7.43,3.12-11.43a8.79,8.79,0,0,0-1-4c-0.86-1.58-2.8-1.64-4.35-1.54a44.33,44.33,0,0,0-5.05.81c-1.3.23-2.61,0.47-3.89,0.77-2.79.65-5.54,1.31-8.28,2.14a167.34,167.34,0,0,0-16.37,6.09c-5,2.07-9.93,4.14-14.89,6.24-2.71,1.15-5.42,2.29-8.16,3.38-5.37,2.13-11.16,4-17,3.78a14.5,14.5,0,0,1-2.58-.64,5,5,0,0,1-1.25-.68,1.76,1.76,0,0,1-.74-1.26,2.82,2.82,0,0,1,0-.4l0.1-.17c1.85-2.58,3.7-5.18,5.33-7.89,0.87-1.46,1.77-2.9,2.59-4.38a49.12,49.12,0,0,0,2.57-5.5c0.71-1.76.91-3.66-.32-5.22a2.82,2.82,0,0,0-1.72-.55,9.22,9.22,0,0,0-1.32-.09c-0.34,0-.68,0-1,0h0Z"/><path class="cls-11" d="M977.86,346.05c-0.11,11.27.11,22.34,2.6,33.4a76.83,76.83,0,0,0,9.84,23.47q0.58,1.52,1.19,3a0,0,0,0,0,0,0l0.28-.7q0.59,0.88,1.19,1.75a0,0,0,0,0,0,0c2.59-9.13,5-18.29,7.09-27.55l0.28-1.27c1.08-4.31,2-8.66,2.73-13,1-6.24,2-12.74,1.78-19.09-0.28-7.36-5.93-13.52-13.52-13.52a13.66,13.66,0,0,0-13.52,13.52h0Z"/><path class="cls-11" d="M919.93,353q0.05,1.48.14,3c0.16,3.86.23,7.72,0.58,11.58a134.73,134.73,0,0,0,2.59,17.07A98.46,98.46,0,0,0,934.49,413h0A185.35,185.35,0,0,0,943,384.6a158.34,158.34,0,0,0,2.37-16.6c0.37-4,.42-8,0.57-12.07q0.09-1.47.14-2.95c0.24-7.12-6.12-13.07-13.07-13.07s-13.47,5.95-13.06,13.07h0Z"/><path class="cls-11" d="M858.42,372.79c0,12.84,2.91,25.14,7.07,37.21a0,0,0,0,0,0,0q1.12-1.69,2.1-3.45l0.13,0.21a0,0,0,0,0,0,0l0.26-1c5.36-10,7.57-21.7,7.58-33a8.59,8.59,0,1,0-17.18,0h0Z"/><path class="cls-11" d="M804.44,364.12c-2.32,15.4,1.6,31.51,7,45.88h0a68.91,68.91,0,0,0,8.26-19.23,90.3,90.3,0,0,0,2.09-12.5c0.13-1.23.19-2.45,0.21-3.67a28.18,28.18,0,0,0-.23-10.48,9.08,9.08,0,0,0-8.7-6.62c-3.65,0-8.11,2.72-8.7,6.62h0Z"/><path class="cls-11" d="M755.33,370.2c-3.91,3.57-2.62,9.27-2,13.91a47.08,47.08,0,0,0,1.16,6,41.69,41.69,0,0,0,4.8,11.4,48.46,48.46,0,0,0,5.67,7s0,0,0,0c0.23-1.38.42-2.77,0.6-4.16a26.93,26.93,0,0,0,2.38,2.57,0,0,0,0,0,0,0c0.07-2.23.26-4.44,0.44-6.67,0.14-1,.27-2.05.38-3.08l-0.1.73c1.08-8,1.45-16.24-.14-24.19a7.84,7.84,0,0,0-5.54-5.54,7.75,7.75,0,0,0-2.06-.28,8.41,8.41,0,0,0-5.66,2.32h0Z"/><path class="cls-11" d="M708.55,373.06a94.91,94.91,0,0,0,.85,11.9,112.08,112.08,0,0,0,6.08,23.54s0,0,0,0a62.35,62.35,0,0,0,3.43-6.26,59,59,0,0,0,3,5.1,0,0,0,0,0,0,0,128.82,128.82,0,0,0,3.18-16c0.39-2.93.69-5.87,0.85-8.82a37.64,37.64,0,0,0-.87-11.68,8.45,8.45,0,0,0-16.6,2.25h0Zm1,13.22-0.12-.89,0.12,0.89h0Zm-0.12-.89-0.06-.43-0.09-.69,0.15,1.12h0Z"/><path class="cls-11" d="M673.5,356.3a10,10,0,0,0-7,2.92,9.5,9.5,0,0,0-2.9,6.95q0,0.61,0,1.21a97.46,97.46,0,0,0,6,30.62,101.9,101.9,0,0,0,3.85,10.08h0a100.52,100.52,0,0,0,3.75-9.8,97.42,97.42,0,0,0,6.06-30.56q0-.78,0-1.55a9.65,9.65,0,0,0-4.06-7.93,9.85,9.85,0,0,0-5.81-1.94h0Z"/><path class="cls-11" d="M619.13,368.65a53.22,53.22,0,0,0,1.25,14.45,63.29,63.29,0,0,0,2.61,9.51c2.66,6.94,5.91,14.1,11.39,19.3a0,0,0,0,0,0,0c0-3.08.35-6.12,0.61-9.19,0,0.31-.08.61-0.12,0.92,0.26-1.93.51-3.87,0.7-5.81q0.51-3.24.87-6.5a106.56,106.56,0,0,0,1.41-22.69c0.44-5.09-4.6-9.37-9.37-9.37-5.36,0-9,4.27-9.37,9.37h0Z"/><path class="cls-11" d="M571.71,364.69c-0.92,2.66-.86,6.07-0.89,8.94q0,2.36.08,4.7a107.65,107.65,0,0,0,1.43,12.76A73.73,73.73,0,0,0,579,411.51h0a144,144,0,0,0,5.94-13.9q1.38,2.06,2.84,4.07s0,0,0,0c0.91-5.64,1.68-11.3,2.05-17s0.78-11.68,0-17.52a9.19,9.19,0,0,0-1.27-4.68,9.31,9.31,0,0,0-8-4.59,9.63,9.63,0,0,0-8.92,6.81h0Z"/><path class="cls-11" d="M538.37,371.42c0.06,7.82.2,15.57,1.57,23.29,0.18,1.37.38,2.74,0.61,4.1,0.25,2.24.57,4.46,0.93,6.68a0,0,0,0,0,0,0q1.36-1.46,2.59-3c1,3,2.16,5.9,3.39,8.79h0a122.16,122.16,0,0,0,6.1-17.9c0.76-3,1.38-6,1.85-9.11,0.75-4.93,1.64-10.35.51-15.27a9,9,0,0,0-17.59,2.38h0Z"/><path class="cls-11" d="M1022,348.76a70.93,70.93,0,0,0-1.21,15.15,121.94,121.94,0,0,0,1.8,14.92,78.53,78.53,0,0,0,3,11.52c1.44,4.26,3.35,8.65,6.6,11.86a8.09,8.09,0,0,0,6,2.47c2,0,4.08-1.3,5.85-2.15a0,0,0,0,0,0,0,33,33,0,0,1-4.26-2.17l-0.3-.31-0.16-.29q-0.06-.19-0.1-0.39a24.37,24.37,0,0,1,.18-4.88c1.15-7.72,2.76-15.35,3.44-23.15,0.31-3.53.46-7.07,0.64-10.62v0c0.72-4.71,2.25-10.4-.9-14.59a11.39,11.39,0,0,0-4-4,11.22,11.22,0,0,0-5.69-1.54c-4.61,0-10.06,3.39-10.86,8.27h0Zm17,50.69,0.22,0.28h0l-0.22-.29h0Zm0.22,0.29,0.07,0.09h0l-0.08-.09h0Zm0.11,0.14,0,0,0,0h0Z"/><path class="cls-12" d="M866.95,127.69a46.89,46.89,0,0,0-17.78,5.63,46.38,46.38,0,0,0-9.4,7c-5.5,5-9.48,11.32-13.28,17.65a0,0,0,0,0,0,0c3.3-2,6.54-4.09,9.87-6a99.57,99.57,0,0,1,10.6-5.22,67.53,67.53,0,0,1,15.18-4,41.41,41.41,0,0,1,6.76-.29,24.88,24.88,0,0,1,3.49,1,25.46,25.46,0,0,1,3.57,2.05c2.26,1.85,4.44,3.82,6.6,5.78a47.52,47.52,0,0,0,9.84,7c6.85,3.61,15.17,3.78,22.66,2.61,2.57-.4,5.1-1.06,7.64-1.61q2.65-.57,5.29-1.17a42.53,42.53,0,0,0,8.72-2.71,0,0,0,0,0,0,0,52.9,52.9,0,0,1-8-.63c-4.67-.66-9.35-1.15-14-1.73a52.16,52.16,0,0,1-10.8-2.91,26.14,26.14,0,0,1-4.19-2.39,53.79,53.79,0,0,1-6.76-6.74,52.51,52.51,0,0,0-7.5-7.64,24,24,0,0,0-5.14-3.2,28.64,28.64,0,0,0-6.77-2.2,24,24,0,0,0-4.19-.4,19.57,19.57,0,0,0-2.36.14h0Z"/><path class="cls-12" d="M724,126.25a39,39,0,0,0-12.68,2.82C705,131.56,699.14,135,693,137.93c-5.05,2.41-10.09,4.88-15.12,7.34a62.23,62.23,0,0,0-10.77,6.39,0,0,0,0,0,0,0c1.52-.32,3-0.55,4.58-0.8l-0.27,0,3-.41-0.41.06c7.11-.73,14.19-1.43,21.22-2.71,1.4-.26,2.84-0.45,4.21-0.82q3.22-.86,6.43-1.81c6.51-1.93,12.95-4.43,19.67-5.51a35.8,35.8,0,0,1,7-.07,26.52,26.52,0,0,1,4.53,1.22,23,23,0,0,1,3,1.84c4.37,3.58,7.76,8.1,11.3,12.45,1,1.46,2.09,2.9,3.11,4.36a0,0,0,0,0,0,0,69,69,0,0,0-1.47-8.84,58.19,58.19,0,0,0-2.31-7.3,33.37,33.37,0,0,0-5.07-8.72c-2.63-3.38-6.48-5.37-10.39-6.87a27.52,27.52,0,0,0-9.72-1.55l-1.51,0h0Z"/><path class="cls-12" d="M1078.31,193a65,65,0,0,0-11.4,4.36,48.2,48.2,0,0,0-10.33,7.15,55.15,55.15,0,0,0-7.89,9c-2.67,3.6-4.44,7.77-6.16,11.88a42.13,42.13,0,0,0-2.86,10.15,34,34,0,0,0-.59,6.94,23.28,23.28,0,0,0,2.5,8.65,21.22,21.22,0,0,0,3.79,5.23,25.38,25.38,0,0,0,5.29,4.07,34.35,34.35,0,0,0,12.13,4.31,59.82,59.82,0,0,0,12.87,1.05,47.46,47.46,0,0,0,13.17-2.18c7.57-2.52,14.95-7.3,19.43-14a26.75,26.75,0,0,0,3.8-9.61c0.79-4,.85-7.89-0.76-11.65a13.34,13.34,0,0,0-7.14-6.95,30.26,30.26,0,0,0-11.41-2,51.91,51.91,0,0,0-9.69.59s0,0,0,0a38.09,38.09,0,0,1,5.12,1.13c2.9,0.86,5.78,1.73,8.59,2.86a25.5,25.5,0,0,1,4.53,2.62,15.13,15.13,0,0,1,1.26,1.27,14.55,14.55,0,0,1,1,1.73,13.33,13.33,0,0,1,.37,1.36,15.28,15.28,0,0,1,0,2.37,19.15,19.15,0,0,1-3.54,7.74,25.42,25.42,0,0,1-2.61,2.67,31.79,31.79,0,0,1-5.08,2.81,43.7,43.7,0,0,1-8.06,2.32,50.86,50.86,0,0,1-10.47-.18,57,57,0,0,1-10.91-2.8,29.76,29.76,0,0,1-3.47-2c-0.38-.35-0.75-0.71-1.1-1.08-0.2-.32-0.39-0.65-0.57-1q-0.08-.25-0.15-0.5c0-.67,0-1.33.1-2a42.61,42.61,0,0,1,2.3-8,48.11,48.11,0,0,1,4.54-8,47.22,47.22,0,0,1,6.08-6.08,43.77,43.77,0,0,1,6.93-4,56.65,56.65,0,0,1,10.71-3c6.11-.57,12.22-0.05,18.31.48,1.65,0.24,3.29.48,4.91,0.86a87.23,87.23,0,0,1,11.21,3.15,49.84,49.84,0,0,1,8.27,4.86,43.45,43.45,0,0,1,5.63,5.54,33,33,0,0,1,2.78,4.65,27,27,0,0,1,1.08,3.86,72,72,0,0,1-.49,14.14,45.43,45.43,0,0,1-2.14,8.5,35.9,35.9,0,0,1-3.3,5.67,55.4,55.4,0,0,1-8,7.69,108.58,108.58,0,0,1-9.65,6.59,95.27,95.27,0,0,1-10.49,5.32c-5.55,2.25-11.27,4-17,5.74a124.58,124.58,0,0,1-17.78,3.94q-4.5.56-9,.85c-3.86.25-7.73,0.18-11.59,0.05-3.35-.11-6.68-0.27-10-0.48l-10.52-.64c-3.67-.22-7.31-0.62-11-1.09-9.87-1.41-19.73-3.48-29-7.23a310,310,0,0,1-28.58-14.7c-5.08-2.87-10.19-5.66-15.31-8.46-9.35-5.1-18.3-10.83-27.17-16.71-4.23-2.8-8.43-5.63-12.87-8.09a110.26,110.26,0,0,0-11.16-5.23,49.31,49.31,0,0,0-11.12-3.22,72.71,72.71,0,0,0-12.14-.94c-1.54,0-3.08.12-4.61,0.19-2.84.13-5.66,0.41-8.49,0.7-3.28.34-6.54,0.89-9.8,1.41a65.45,65.45,0,0,0-20.06,6.88,45.14,45.14,0,0,0-6.18,4.18c-1.41,1.07-2.9,2.11-4.23,3.27q-1.69,1.48-3.37,3a85.61,85.61,0,0,0-11.57,14.13,20.67,20.67,0,0,0-2.52,7.14c-0.55,3.36.24,6.86,0.85,10.17,0,0,0,0,0,0a45.67,45.67,0,0,1,1.79-7.84,21.89,21.89,0,0,1,2.33-4,31,31,0,0,1,4.29-4.11,106.33,106.33,0,0,1,13.26-8.74c2.59-1.42,5.27-2.67,8-3.86a59.25,59.25,0,0,1,13.09-3.25,146.45,146.45,0,0,1,16.79-.78,142.34,142.34,0,0,1,15.72.59c2.37,0.39,4.71.87,7,1.49a53.45,53.45,0,0,1,6.17,2.15c8.64,3.82,16.47,9.14,24.41,14.21q6.56,4.18,13.32,8c10,5.66,20.2,10.88,30.3,16.31,5.55,3,11.19,5.81,16.95,8.38,3.76,1.68,7.55,3.31,11.4,4.77a88.54,88.54,0,0,0,11.77,3.43,194.47,194.47,0,0,0,35,4.3c9.56,0.39,19.19,1,28.75.34a137,137,0,0,0,24.49-3.84c3.68-.95,7.31-2.12,10.93-3.3,4-1.29,7.9-2.62,11.77-4.18a111.93,111.93,0,0,0,21.23-11.18c3.28-2.23,6.5-4.57,9.59-7.06a53.54,53.54,0,0,0,8.73-9.23,40.49,40.49,0,0,0,5.32-10.08,52.13,52.13,0,0,0,2.77-11.92,87.47,87.47,0,0,0,1-12.57,37.08,37.08,0,0,0-.8-7,37.65,37.65,0,0,0-2.64-7.37c-1.54-3.64-4.21-6.93-6.77-9.88a53.5,53.5,0,0,0-9.66-8.32,55,55,0,0,0-11.28-5.74,50.37,50.37,0,0,0-7.2-2.19L1116,193c-1.43-.34-2.94-0.48-4.39-0.72-3.43-.56-6.88-0.86-10.34-1.18-2.05-.19-4.12-0.29-6.18-0.29a64.1,64.1,0,0,0-16.76,2.2h0Z"/><path class="cls-12" d="M509.07,202.77A105.17,105.17,0,0,0,496,205a75.28,75.28,0,0,0-22,9.23,66,66,0,0,0-18.4,17.46,62.56,62.56,0,0,0-5.2,9.15,107.22,107.22,0,0,0-5.05,12.61,69.16,69.16,0,0,0-4,24.84,46.06,46.06,0,0,0,2.21,12.3,43.06,43.06,0,0,0,2.61,6,35.46,35.46,0,0,0,4.11,5.91,28.25,28.25,0,0,0,5,4.45,26.23,26.23,0,0,0,4.29,2.71,40.87,40.87,0,0,0,11.69,3.75,96,96,0,0,0,16.8,1.13h2.8c1.9,0,3.8,0,5.7-.1l9.75-.54a140.83,140.83,0,0,0,19.55-2.54,117.93,117.93,0,0,0,22.48-6.85c3.78-1.57,7.51-3.24,11.15-5.12,3-1.54,5.92-3.19,8.89-4.79,4.69-2.53,9.36-5.1,14.1-7.55l9.11-4.7c2.17-1.12,4.27-2.41,6.39-3.62s4.34-2.32,6.38-3.66l8.64-5.65c7.43-4.86,14.78-9.87,22.16-14.82q5.62-3.76,11.29-7.43c2.14-1.4,4.29-2.8,6.45-4.17,2.54-1.61,5.06-3.24,7.66-4.75a77.68,77.68,0,0,1,7.8-3.93A76.08,76.08,0,0,1,685,229.92c8.85-1,17.75-.63,26.63-0.59a157.1,157.1,0,0,1,17.08.78,58.28,58.28,0,0,1,12.52,3.43,68.35,68.35,0,0,1,12.74,6.94c2,1.48,4.1,2.94,6.12,4.46a54.06,54.06,0,0,1,10.2,10.44c1.67,2.24,3.11,4.61,4.6,7a58.68,58.68,0,0,0,6.63,8.15,0,0,0,0,0,0,0,85.11,85.11,0,0,1-3.19-8.93c-0.45-1.63-.79-3.29-1.21-4.92a55.66,55.66,0,0,0-3.48-9.1,49.41,49.41,0,0,0-6.13-9.65A70.73,70.73,0,0,0,739,215.56c-6.12-2.52-12.64-3.6-19.19-4.3-2.72-.29-5.44-0.59-8.17-0.74-4.24-.23-8.47-0.41-12.71-0.39A108.59,108.59,0,0,0,674.37,213a67,67,0,0,0-10.42,3.45,99.29,99.29,0,0,0-11.84,5.78c-4.15,2.42-8.1,5.2-12.07,7.91-4.73,3.24-9.46,6.48-14.15,9.77-9.42,6.61-18.85,13.2-28.38,19.66-3.52,2.38-7.26,4.42-10.93,6.57s-7.27,4-11,5.95-7.45,4-11.16,6c-7.12,3.87-14.16,7.89-21.59,11.14a115.78,115.78,0,0,1-26.88,7.3c-6.53.77-13.06,1-19.63,1.22-2.64.11-5.3,0-7.94,0a102.78,102.78,0,0,1-11-.49,43.35,43.35,0,0,1-8-2,26.31,26.31,0,0,1-3.51-2,26.62,26.62,0,0,1-2.43-2.42,28.25,28.25,0,0,1-2.08-3.65,36.64,36.64,0,0,1-1.66-6.35,47.17,47.17,0,0,1,0-9.28,91.94,91.94,0,0,1,5.72-20A64,64,0,0,1,472,239.84a58.55,58.55,0,0,1,8.1-8,61,61,0,0,1,10.67-6.24,78.82,78.82,0,0,1,17-4.57q2.45-.3,4.91-0.52a30.44,30.44,0,0,1,5.64,0,22.78,22.78,0,0,1,3.06.82,23.76,23.76,0,0,1,2.22,1.28,20.61,20.61,0,0,1,1.7,1.73,25.66,25.66,0,0,1,1.92,3.28,67.69,67.69,0,0,1,3.43,14.3,41.93,41.93,0,0,1,.25,8.57,23.51,23.51,0,0,1-1,3.37,19.33,19.33,0,0,1-1.43,2.46,27.82,27.82,0,0,1-3.25,3.19,38.81,38.81,0,0,1-7,4,28,28,0,0,1-5.77,1.63,18.75,18.75,0,0,1-3.12,0,16.16,16.16,0,0,1-2.21-.53,22.5,22.5,0,0,1-4.29-2.52l0.1,0.08c-0.82-.64-1.6-1.32-2.37-2,0,0,0,0,0,0a19.54,19.54,0,0,0,5.52,6.84,17.16,17.16,0,0,0,9.92,2.76,35.07,35.07,0,0,0,10-1.64,28.88,28.88,0,0,0,9.88-5.29A21.39,21.39,0,0,0,542,254c1.59-3.93,2.05-8.35,2.29-12.54a65,65,0,0,0-.25-10.79,40.69,40.69,0,0,0-3.26-13A25,25,0,0,0,534.2,209a27.09,27.09,0,0,0-12.74-6,43.07,43.07,0,0,0-6.9-.66h-0.16a46.45,46.45,0,0,0-5.33.45h0ZM770.5,255.69l0.15,0.2-0.15-.2h0Zm-263.17,8.94,0.13,0.06-0.13-.06h0Z"/><path class="cls-12" d="M850.65,266.49a15.61,15.61,0,0,0-1.91,1.18,7,7,0,0,0-2.41,2.08l-0.37.46c-4.28,2.42-8.83,4.39-13.32,6.38l-8.5,3.29c-1.23.48-2.54,0.79-3.8,1.17l-5.76,1.75c-3.22,1-6.55,1.7-9.8,2.59a176.47,176.47,0,0,1-21.64,4.6c-8.94,1.12-17.91,1.66-26.89,2.29-4.5.31-9,.74-13.5,1-10.11.68-20.16,1.79-30.25,2.68a0,0,0,0,0,0,0c5.89,1.65,11.82,3.05,17.8,4.35,4.66,1,9.36,2.1,14.07,2.82,7.45,1.14,14.9,2.16,22.4,2.84a125.66,125.66,0,0,0,23.94,0,118.1,118.1,0,0,0,19.09-3.67c3.87-1.05,7.73-2.11,11.53-3.39l7-2.36c1.74-.59,3.44-1.35,5.14-2l1.55-.62a53,53,0,0,1-3.85,6.36,57.58,57.58,0,0,1-8.1,8A62.4,62.4,0,0,1,811.62,315c-9.8,3.88-20.22,5.8-30.63,7.26a100.18,100.18,0,0,1-25.06.44,39.85,39.85,0,0,1-9-2.23,79.66,79.66,0,0,1-12.8-7.31s0,0,0,0a77.34,77.34,0,0,0,7.88,8.4,35.84,35.84,0,0,0,6.7,4.94,53.86,53.86,0,0,0,8.41,3.61,82.75,82.75,0,0,0,19,4,133.35,133.35,0,0,0,19,.61c13.14-.47,26.44-3.15,37.52-10.56a60.09,60.09,0,0,0,14.82-14.21,63.2,63.2,0,0,0,4.61-7.41,102.68,102.68,0,0,0,4.27-9.51l-1,2.3c1.25-2.95,2.32-6,3.51-8.92a34.12,34.12,0,0,1,2-4.22c0.35-.33.72-0.63,1.1-0.94a9.33,9.33,0,0,0-6.64-16,9.77,9.77,0,0,0-4.73,1.22h0Z"/></svg>