<svg id="Background" xmlns="http://www.w3.org/2000/svg" xmlns:xlink="http://www.w3.org/1999/xlink" viewBox="0 0 432 306"><defs><style>.cls-1{fill:#ff530d;}</style></defs><title>mod3button</title><image id="Background-2" data-name="Background" width="1" height="1" transform="matrix(0, -306, 432, 0, 0, 306)" /><path class="cls-1" d="M129.5,173.68h0a34.46,34.46,0,0,1,2.68-4.59l-0.21.27,1-1.36a39.25,39.25,0,0,1,4-4.37,18.37,18.37,0,0,1,2.37-1.38,16.11,16.11,0,0,1,2.26-.63,38.31,38.31,0,0,1,5.84,0,13.93,13.93,0,0,1,1.36.41c3.57,1.7,6.82,4,10.32,5.87a27.26,27.26,0,0,0,12.06,3.07,43.48,43.48,0,0,0,6.13-.44,33.41,33.41,0,0,0,10-2.32,14.56,14.56,0,0,0,8.08-11.62,22.22,22.22,0,0,0-2.11-12.7,0,0,0,0,0,0,0,44.16,44.16,0,0,1-1.78,5.79l-0.37.86a27.85,27.85,0,0,1-2.27,3.88A15.53,15.53,0,0,1,187.3,156a17.29,17.29,0,0,1-1.58,1l-0.7.19a23.07,23.07,0,0,1-3.68-.12,62.41,62.41,0,0,1-11.13-2.2c-2.34-1.14-4.53-2.54-6.86-3.72-1.86-.95-3.78-1.74-5.72-2.53a20.14,20.14,0,0,0-13-.74,37.47,37.47,0,0,0-5.51,2,17.78,17.78,0,0,0-8.5,8.34,20.36,20.36,0,0,0-2,9,22.86,22.86,0,0,0,.92,6.41h0Z" transform="translate(0 0)"/><path class="cls-1" d="M174.35,146.76c0,1,0,2.08,0,3.12,0,2,0,4,.11,6,0.14,2.52.34,5,.69,7.5,0.3,2.12.66,4.22,1,6.32a100,100,0,0,0,3.55,12.73c0.4,1.24.85,2.45,1.32,3.66a31.09,31.09,0,0,0,1.54,3.24,5.65,5.65,0,0,0,1.31,2,1.49,1.49,0,0,0,1,.55l0.27,0a1.51,1.51,0,0,0,1.18-.77,10.5,10.5,0,0,0,1.48-2.65c0.57-1.19,1.12-2.39,1.7-3.57,0.89-1.72,1.8-3.42,2.79-5.09s2.18-3.31,3.36-4.92,2.69-3.3,4-5,2.64-3.57,3.91-5.41c1.16-1.68,2.44-3.27,3.68-4.89a61.62,61.62,0,0,0,4.11-5.2,8.07,8.07,0,0,0,.86-5.57,3.8,3.8,0,0,0-2-3c-0.85-.38-1.71-0.74-2.57-1.11-2-.87-3.91-1.87-5.81-2.91a27.85,27.85,0,0,1-2.48-1.53c-0.85-.59-1.75-1.13-2.56-1.77-1.64-1.31-3.31-2.59-4.95-3.91-3.45-2.78-6.93-5.55-10.24-8.5a1.08,1.08,0,0,0-1.27,0,3.73,3.73,0,0,0-1.27,2.53,8.13,8.13,0,0,0-.11,1,1.11,1.11,0,0,0-1.11.09,5.13,5.13,0,0,0-1.64,3.31c-0.08.47-.17,0.93-0.25,1.4-0.14.89-.26,1.79-0.43,2.67s-0.31,1.82-.51,2.73a22.67,22.67,0,0,0-.52,2.85c-0.11,1.36-.18,2.7-0.18,4.06v0.12h0Zm4.54,13.56,0.15,0.45c0.2,0.42.41,0.83,0.62,1.24l0.3,0.32a11.46,11.46,0,0,0-.12,2.22q0,1.12.11,2.24-0.63-3.22-1.05-6.47h0Z" transform="translate(0 0)"/></svg>
