<svg id="Background" xmlns="http://www.w3.org/2000/svg" xmlns:xlink="http://www.w3.org/1999/xlink" viewBox="0 0 1540.33 934.66"><defs><style>.cls-1{fill:#fff570;}.cls-2{fill:#1021aa;}.cls-3{fill:#bebebe;}.cls-4{fill:#98c12a;}.cls-5{fill:#ea2e49;}</style></defs><title>Radiant-5</title><image id="Background-2" data-name="Background" width="1" height="1" transform="scale(1536 700)" /><path class="cls-1" d="M258.2,119.47c-4.35,0-8.66.32-13,.64a248.09,248.09,0,0,0-42.76,6.7,93.24,93.24,0,0,0-9.52,3c-3.7-.44-7.45-0.67-11.17-0.79a90.79,90.79,0,0,0-16.19,1.4,55.24,55.24,0,0,0-11.3,3.05,114.53,114.53,0,0,0-13.81,6.21,76.89,76.89,0,0,0-12.91,9.25,68.56,68.56,0,0,0-7.66,7.78,165.94,165.94,0,0,0-10.19,13.16,108.36,108.36,0,0,0-7.64,13q-4.15,8.18-8.27,16.37c-2.36,4.71-4.52,9.52-6.71,14.31-2.81,6.16-5.24,12.57-7.64,18.89-2,5.31-4.11,10.57-5.84,16l-2.75,8.57c-0.91,2.83-1.54,5.79-2.31,8.66-1.46,5.48-2.41,11.06-3.48,16.64C64.33,286,64,290,63.44,293.85c-0.37,2.77-.91,5.57-1.11,8.36-0.37,5.14-.83,10.28-1,15.42-0.33,11.29-.55,22.57-0.41,33.86,0.2,17.36,1,34.87,4.35,51.93a150.64,150.64,0,0,0,6.53,22.88,257.08,257.08,0,0,0,11,25.73c7.44,15,17.05,29.25,29,41.07a103.68,103.68,0,0,0,8.1,7.16,155.89,155.89,0,0,0,13.16,9.67,134.08,134.08,0,0,0,24.6,12,100.21,100.21,0,0,0,22.59,5.73,186.3,186.3,0,0,0,28.77,2.1,108.64,108.64,0,0,0,11.21-.88c3.79-.48,7.56-1,11.3-1.66,3.29,0.74,6.64,1.26,10,1.75,5.76,0.84,11.52,1.61,17.32,2.05a152.93,152.93,0,0,0,23.55.36,64.87,64.87,0,0,0,15.7-2.86,98.88,98.88,0,0,0,15.13-6.58,76.67,76.67,0,0,0,8.8-5.62c2.69-2,5.33-4,7.82-6.13,2.14-.86,4.27-1.77,6.41-2.67,8.56-3.62,16-9.1,23.16-14.93a155.9,155.9,0,0,0,16.51-16.14,163,163,0,0,0,16.86-22,225.62,225.62,0,0,0,11.27-20.48c4.2-8.36,8-16.9,11.46-25.6a206.7,206.7,0,0,0,12.27-46.22c2.45-16.37,3.79-33.09,2.41-49.65l-1.5-18.07c-0.48-5.82-1.44-11.63-2.15-17.42a181.86,181.86,0,0,0-11-45,165.41,165.41,0,0,0-12.23-25.43A228.3,228.3,0,0,0,387.12,184c-10.48-13.26-23.18-24.34-37.11-33.85-5.14-3.51-10.57-6.77-16-9.88a190.78,190.78,0,0,0-25.13-12,106,106,0,0,0-22-6.41,168.65,168.65,0,0,0-27.27-2.34H258.2ZM103.8,366q0.25,1.07.52,2.13-0.19.59-.37,1.18-0.08-1.65-.14-3.31h0Z"/><path class="cls-2" d="M265.61,210.88a41.77,41.77,0,0,0-9.82,2.83,71.9,71.9,0,0,0-10.17,5.09,76.94,76.94,0,0,0-8.41,6.12,62,62,0,0,0-13.62,15.47c-2.09,3.23-4,6.56-5.76,10-2.55,4.83-5.26,9.64-7.32,14.71,0,0,0,0,0,0l0.85-1.14c2.36-2.92,4.8-5.77,7.24-8.64,2.65-3.11,5.21-6.29,8-9.3,1.76-1.92,3.53-3.83,5.38-5.66a67.62,67.62,0,0,1,6-5.22,129.21,129.21,0,0,1,11.64-7.75,116.51,116.51,0,0,1,12.77-6.67,45.53,45.53,0,0,1,9.87-2.7,44.63,44.63,0,0,1,10.23,0c7,1,13.65,3.39,20.27,5.84a0,0,0,0,0,0,0q-1.85-1.44-3.73-2.83c-1-.7-1.9-1.48-2.91-2.11l-3.74-2.33a46.34,46.34,0,0,0-6.57-3.26,37.64,37.64,0,0,0-14.45-2.85,39.32,39.32,0,0,0-5.78.43h0Zm-54.22,53h0Z"/><path class="cls-2" d="M372.17,318.45q-6.9,2.7-13.69,5.65c-3.06,1.32-6.07,2.79-9.07,4.25s-5.72,2.84-8.56,4.3q-2.87,1.48-5.71,3c-3.28,1.76-6.67,3.37-10.08,4.84-4.38,1.8-8.86,3.37-13.35,4.85a91.93,91.93,0,0,1-13.95,3.24l-6.58.8c-2.09.26-4.21,0.34-6.3,0.5-1.11.08-2.23,0.11-3.35,0.16-2.22.11-4.44-.07-6.6,0.58a20.11,20.11,0,0,0-2.31.95,7.75,7.75,0,0,0-2,1.39,11.79,11.79,0,0,0-2.39,3.43,34.78,34.78,0,0,0-2.32,8.76,90.15,90.15,0,0,0,2.47,39.49,62.47,62.47,0,0,0,7.87,16.74,45.93,45.93,0,0,0,13.23,13.11,52.16,52.16,0,0,0,12,5.29,56.56,56.56,0,0,0,13.76,2.38,69.25,69.25,0,0,0,14.07-.85,87.53,87.53,0,0,0,14.19-3.4A78.36,78.36,0,0,0,356,432.3c2-1.09,4-2.24,6.05-3.39,1.8-1,3.64-2,5.43-3.05,3.49-2,7-4.08,10.45-6.17a0,0,0,0,0,0,0c-4.74,1.77-9.54,3.36-14.32,5-5.07,1.77-10.06,3.73-15.18,5.33a99.33,99.33,0,0,1-15.8,3.28,84.12,84.12,0,0,1-20.64.6,54.48,54.48,0,0,1-12.1-3.34,42.39,42.39,0,0,1-8-4.52,42.91,42.91,0,0,1-6.3-6.46,54,54,0,0,1-6.11-10.45,73.2,73.2,0,0,1-4.69-17.08,92.4,92.4,0,0,1-.27-22.07c0.24-1.66.54-3.3,0.83-5a26.71,26.71,0,0,1,1.11-4.44c0.17-.33.34-0.64,0.54-1l0.5-.28c0.26-.09.53-0.17,0.8-0.25,1.36-.09,2.73-0.1,4.1-0.18,1-.05,2-0.1,3-0.17,2.19-.15,4.38-0.26,6.56-0.49,3.14-.34,6.28-0.64,9.41-1.09s6.19-1,9.23-1.77c3.21-.8,6.37-1.84,9.51-2.88a87.91,87.91,0,0,0,9.38-3.75,83.46,83.46,0,0,0,9-5.08c2.17-1.36,4.24-2.91,6.32-4.39,3.92-2.79,7.77-5.68,11.57-8.61l2.76-2.14c4.41-3.3,8.77-6.68,13.11-10.08a0,0,0,0,0,0,0h0ZM332.45,433.33l-0.59.08,0.59-.08h0Z"/><path class="cls-1" d="M132.75,559.66c-2.93,12.18-5.75,24.39-8.67,36.57l-2.76,11.51c-0.47,2-.89,3.94-1.41,5.88L115,632c-1.4,5.25-2.72,10.54-4.07,15.8-0.7,2.75-1.19,5.57-1.78,8.35-0.75,3.53-1.22,7.15-1.69,10.72a6,6,0,0,0,1.83,4.42,6.25,6.25,0,0,0,8.84,0l1-1.27A6.21,6.21,0,0,0,120,667c1.46-10.22,4.07-20.23,6.72-30.19l5-18.76c1.36-5.11,2.49-10.27,3.73-15.4,3.17-13.2,6.23-26.42,9.4-39.62a6.34,6.34,0,0,0-4.37-7.69,6,6,0,0,0-1.59-.21,6.25,6.25,0,0,0-6.1,4.58h0Z"/><path class="cls-1" d="M288.65,597.59a6.25,6.25,0,1,0,6.25-6.25,6.31,6.31,0,0,0-6.25,6.25h0Z"/><path class="cls-1" d="M293.6,562.81c-1,3.74-2.07,7.47-3,11.24L288,585c-1,4.26-2.15,8.5-2.92,12.82-2,11.06-4.06,22.11-5.79,33.21-2.49,16-5,32-7.7,48l-0.22,1.66a6.21,6.21,0,0,0,.85,3.15,6.25,6.25,0,0,0,8.55,2.24,6,6,0,0,0,2.88-3.73c1.69-10.11,3.37-20.22,4.95-30.35L291.89,631c0.64-4.16,1.43-8.3,2.17-12.45q1.41-7.89,2.8-15.77c0.37-2.07.74-4.11,1.23-6.15l3.67-15.32,1.38-5.76c0.75-3.14,1.67-6.25,2.52-9.37a6.32,6.32,0,0,0-4.37-7.69,6.09,6.09,0,0,0-1.62-.22,6.32,6.32,0,0,0-6.07,4.59h0Z"/><path class="cls-1" d="M98.32,36.57A6.29,6.29,0,0,0,96.49,41a6.43,6.43,0,0,0,1.83,4.42c3.72,4.08,7.23,8.34,10.68,12.65l3.53,4.85c1.43,2,2.7,4,4.05,6,2.14,3.2,4.31,6.39,6.31,9.69C128,87.06,133,95.54,138.11,104a6.25,6.25,0,1,0,10.79-6.31Q144,89.57,139.2,81.44c-2.6-4.37-5.23-8.73-8-13-2.93-4.49-5.8-9-9-13.36-2-2.81-4.14-5.57-6.31-8.29-1.64-2.05-3.36-4-5.06-6q-1.82-2.13-3.7-4.2a5.77,5.77,0,0,0-4.31-1.82,6.45,6.45,0,0,0-4.53,1.82h0Z"/><path class="cls-1" d="M337.29,51.82a6.58,6.58,0,0,0-2.87,3.73c-0.92,2.63-1.78,5.27-2.64,7.91s-1.76,5.46-2.42,8.25a54.87,54.87,0,0,0-1,6.17,42,42,0,0,0-.3,5.6,6.25,6.25,0,0,0,12.5,0,44.46,44.46,0,0,1,.32-5.67,80.08,80.08,0,0,1,3.27-12.06c0.75-2.3,1.51-4.59,2.3-6.88a6.11,6.11,0,0,0-.63-4.82,6.29,6.29,0,0,0-3.73-2.87,6.21,6.21,0,0,0-1.65-.22,6.28,6.28,0,0,0-3.16.85h0Z"/><path class="cls-1" d="M968.23,78.06c-5.07.13-10.15,0.56-15.2,1.05-4.3.42-8.58,1-12.86,1.59-5,.67-9.93,1.43-14.86,2.41a141.37,141.37,0,0,0-26.61,8.18c-3.9,1.63-7.72,3.4-11.45,5.39-2.4,1.28-4.77,2.62-7.14,4L868.92,107c-2,1.11-4,2.14-6,3.18-4.12,2.14-8.28,4.18-12.54,6q-9.15,3.7-18.6,6.52a151.16,151.16,0,0,1-21.59,4.61,224.69,224.69,0,0,1-24.38,1.82c-4.82.09-9.65,0.1-14.47,0.07l-20.59-.09c-6.11,0-12.23-.2-18.34-0.3-4-.07-8.07-0.2-12.11-0.35-8.79-.32-17.53-1-26.25-2.14-6.65-.94-13.26-2.08-19.83-3.49-3.77-.81-7.51-1.73-11.25-2.68-1.54-.39-3.07-0.77-4.59-1.22l-18.63-5.53c-3.66-1.09-7.27-2.32-10.88-3.56s-7.21-2.41-10.87-3.43-7.52-1.94-11.3-2.75c-14-3-28.46-2.86-42.66-2.16-6.65.32-13.29,0.68-19.89,1.55a129.16,129.16,0,0,0-22,4.77,114.88,114.88,0,0,0-17.93,7.84c-3.12,1.61-6.16,3.4-9.2,5.15s-6.23,3.54-9.33,5.34a141,141,0,0,0-16.35,11.11c-2.77,2.18-5.43,4.46-8,6.87a94.46,94.46,0,0,0-7.55,8.11,57.23,57.23,0,0,0-10,16.14,27.64,27.64,0,0,0-2,9.73,22.46,22.46,0,0,0,.48,5.59c0.35,1.85.77,3.67,1.23,5.5a6.25,6.25,0,0,0,12.05-3.32c-0.4-1.61-.78-3.22-1.1-4.85a28.48,28.48,0,0,1-.05-4.41q0.16-.9.4-1.79,0.33-1.17.76-2.31a56.05,56.05,0,0,1,2.81-5.36,55,55,0,0,1,3.39-4.9c2.27-2.79,4.65-5.45,7.18-8a96.55,96.55,0,0,1,8.78-7.72c3.17-2.39,6.44-4.63,9.78-6.79,3.52-2.28,7.19-4.32,10.84-6.38s7.13-4.11,10.74-6.09,7.09-3.65,10.72-5.27a111.55,111.55,0,0,1,25.48-6.59c8.1-1,16.26-1.34,24.41-1.67,4.34-.17,8.67-0.15,13-0.08,4.68,0.08,9.35.32,14,.86a159.64,159.64,0,0,1,21.71,5c5.76,1.72,11.35,3.94,17.11,5.64L655.05,131c5.21,1.55,10.55,2.72,15.84,3.9,7.93,1.76,16,3,24,4.05a322.39,322.39,0,0,0,36.73,2.36l18.89,0.31c6.2,0.1,12.41.05,18.62,0.08q4.31,0,8.62,0c4,0,8,0,12.06-.14,4.6-.12,9.18-0.52,13.75-1a191.91,191.91,0,0,0,22.55-3.49A171.18,171.18,0,0,0,849.19,130a208.88,208.88,0,0,0,29.5-14.21l8.54-4.83q3.16-1.79,6.35-3.52c3-1.65,6.13-3.09,9.28-4.47a152.91,152.91,0,0,1,20.42-6.61,189,189,0,0,1,21-3.73c6.06-.79,12.11-1.41,18.21-1.8,3.21-.2,6.42-0.35,9.64-0.36a72.31,72.31,0,0,1,8.71.62,96.43,96.43,0,0,1,10.06,2,75.83,75.83,0,0,1,9.68,3.45c5.88,2.5,11.73,5,17.52,7.74,6.14,2.86,12.36,5.44,18.71,7.75s12.88,4.31,19.4,6.23a154.3,154.3,0,0,0,21.93,4.94c3,0.42,6,.74,9,1,2.51,0.24,5,.5,7.56.59l7.44,0.27c5.05,0.18,10.11.47,15.16,0.52l18.32,0.18c9.55,0.09,19.1-.12,28.63-0.74,9.73-.64,19.41-2.13,29.07-3.45l15.36-2.1c16.33-1.55,32.88-3.73,49.27-2,1.41,0.22,2.81.48,4.21,0.8,1.72,0.39,3.41,1,5.08,1.52,3.26,1.08,6.45,2.39,9.64,3.67,2.4,1,4.78,2.14,7.18,3.21,3.4,1.52,6.89,2.83,10.39,4.11a111.31,111.31,0,0,0,19.45,5,166.39,166.39,0,0,0,20.89,2q5.33,0.23,10.66,0c3.49-.18,7-0.64,10.41-1.14,6.52-.92,12.67-3.12,18.86-5.28,3.42-1.2,6.83-2.41,10.22-3.69s6.8-2.51,10.26-3.59a212.5,212.5,0,0,1,21-5.21c7.44-1.51,15-2.35,22.51-3.4q13.57-1.81,27.14-3.6l1.66-.23a6.25,6.25,0,0,0,2.76-10.45,5.94,5.94,0,0,0-4.42-1.83q-17.1,2.23-34.2,4.57c-6.93.95-13.85,1.88-20.7,3.28a209.23,209.23,0,0,0-20.78,5.36c-2.88.9-5.71,2-8.53,3.05-3.39,1.27-6.79,2.51-10.21,3.69s-6.78,2.39-10.22,3.42a66.14,66.14,0,0,1-9.38,2,110.74,110.74,0,0,1-15.23.69c-5.46-.13-10.93-0.54-16.36-1.2-4.46-.66-8.86-1.5-13.23-2.59a121.52,121.52,0,0,1-15.85-5.39c-3-1.32-6-2.73-9.07-4-3.23-1.37-6.53-2.61-9.82-3.84a59,59,0,0,0-10.25-2.82,78.51,78.51,0,0,0-10.74-1c-10.35-.42-20.64.43-30.92,1.41-5.14.48-10.29,0.91-15.4,1.61l-17.22,2.35c-7.16.93-14.31,1.95-21.51,2.55-8.36.7-16.78,0.82-25.16,0.94-2.39,0-4.79,0-7.18-.07l-12.44-.12c-4.75,0-9.48-.22-14.22-0.39l-11.32-.4c-5-.18-10.1-0.7-15.11-1.32-4.05-.6-8.05-1.38-12-2.34-4.29-1-8.52-2.3-12.75-3.55a256,256,0,0,1-24.95-8.67c-3.92-1.72-7.79-3.55-11.67-5.34s-7.86-3.41-11.79-5.11-7.62-3.19-11.57-4.47a76.22,76.22,0,0,0-14.39-2.91q-2.79-.33-5.59-0.56c-1.37-.11-2.73-0.14-4.1-0.14-1.2,0-2.39,0-3.59.06h0Zm61.5,18,0.45,0.19-0.45-.19h0ZM454.26,177l-0.16,1.18q0.06-.59.16-1.18h0Z"/><path class="cls-1" d="M570.23,290.16a135.38,135.38,0,0,0-26,4.11c-12,2.89-23.51,7.42-35,11.81-3.36,1.29-6.72,2.6-10.11,3.82-4.39,1.59-8.78,3.17-13.27,4.45a111.71,111.71,0,0,1-14.34,2.81A6,6,0,0,0,467.7,320a6.25,6.25,0,0,0,2.24,8.55l1.49,0.63a6.32,6.32,0,0,0,3.32,0,135.54,135.54,0,0,0,14.34-2.81c5.08-1.31,10-3.26,14.93-5,4-1.45,8-3.05,12-4.57,5.39-2.05,10.79-4.09,16.23-6a172.72,172.72,0,0,1,30.44-7.53,79.22,79.22,0,0,1,17.17-.44c1.42,0.26,2.81.56,4.22,0.93a47.54,47.54,0,0,1,5.73,2c2.75,1.21,5.45,2.49,8.08,3.95,2.84,1.57,5.51,3.45,8.22,5.22,2.89,1.89,5.86,3.69,8.77,5.54s6,3.7,9.15,5.36a100.86,100.86,0,0,0,18.84,7.89,99.62,99.62,0,0,0,22.78,3.57,110.31,110.31,0,0,0,22-1.2c3.61-.53,7.19-1.17,10.75-2s6.75-1.88,10.08-2.95,6.79-2.19,10.15-3.39,6.89-2.65,10.38-3.88A101.85,101.85,0,0,1,739.3,321c3.75-.89,7.55-1.55,11.37-2.11a202.52,202.52,0,0,1,21.69-1.37,160.38,160.38,0,0,1,21,1c5.63,0.82,11.22,1.94,16.85,2.8,6.68,1,13.36,2.06,20.07,2.84,6.16,0.71,12.36,1,18.55,1.29q10.11,0.43,20.24.48a240.41,240.41,0,0,0,37.53-2.75c6-.92,11.84-2.27,17.75-3.41,6.31-1.22,12.6-2.55,19-3.5,4.64-.57,9.29-1,14-1.19a89.32,89.32,0,0,1,14.05.75A113.58,113.58,0,0,1,986.24,319c5,1.44,9.91,3.47,14.8,5.35s9.71,3.72,14.55,5.65,10,3.68,15.1,5.19A144.3,144.3,0,0,0,1047,339c5.3,0.91,10.67,1.37,16,1.79,5.13,0.4,10.27.52,15.4,0.72,7.79,0.3,15.56.38,23.35,0.48,10.57,0.14,21.14-.2,31.66.91a105.74,105.74,0,0,1,23.63,6.87c5,2.23,10,4.76,15.05,6.9,5.34,2.24,10.7,4.43,16.16,6.32a105.49,105.49,0,0,0,17,4.07c5.85,1,11.78,1.65,17.69,2.14a122.42,122.42,0,0,0,35.41-2.13c2.89-.62,5.71-1.57,8.52-2.47s5.62-1.79,8.45-2.63,5.51-1.79,8.29-2.61a54.61,54.61,0,0,1,7.46-1.53,49.65,49.65,0,0,1,10-.27c1.47,0.28,2.9.61,4.35,1a57.78,57.78,0,0,1,6.29,2.31c2.82,1.2,5.62,2.42,8.35,3.82,3,1.57,6,3.34,9,5a91.16,91.16,0,0,0,9.3,4.3c4,1.63,7.95,3.15,12,4.51a86.17,86.17,0,0,0,21,4,103.56,103.56,0,0,0,23-1.21,83.05,83.05,0,0,0,19.79-5.76,77.25,77.25,0,0,0,8.88-4.36,80.6,80.6,0,0,0,9.31-6.62,67.88,67.88,0,0,0,13.24-14.66c2.06-2.95,3.93-6.06,5.74-9.17a6.25,6.25,0,1,0-10.79-6.31,122.45,122.45,0,0,1-7.17,11.14c-1.6,2-3.23,3.92-5,5.78a48.31,48.31,0,0,1-5.44,4.8c-2,1.5-4.09,2.92-6.24,4.24a59.2,59.2,0,0,1-7,3.56c-2.83,1.15-5.7,2.16-8.64,3a80.16,80.16,0,0,1-11.17,2.42,100.85,100.85,0,0,1-23.17.16,86.69,86.69,0,0,1-13.05-3.13c-4.31-1.37-8.52-3.08-12.71-4.8-3.48-1.54-6.78-3.38-10.1-5.26a109.21,109.21,0,0,0-10.72-5.4c-3.76-1.62-7.5-3.23-11.4-4.48a39.09,39.09,0,0,0-11.71-1.66,71.56,71.56,0,0,0-11.71,1.28,78.23,78.23,0,0,0-11.67,3.24c-3.92,1.27-7.87,2.44-11.79,3.7-2.25.73-4.53,1.36-6.82,1.93-2,.5-4.14.82-6.22,1.13a135.72,135.72,0,0,1-16.66,1,156.7,156.7,0,0,1-19.3-1.48,134.06,134.06,0,0,1-18-3.65,159.72,159.72,0,0,1-18-6.76c-3.69-1.63-7.32-3.41-11-5.12A135.78,135.78,0,0,0,1153,335a102.61,102.61,0,0,0-13.78-3.76,97.42,97.42,0,0,0-14.53-1.45c-7.53-.34-15.06-0.18-22.59-0.29-6.25-.08-12.51-0.06-18.76-0.3l-13.21-.51q-8.66-.33-17.27-1.37a145.06,145.06,0,0,1-18.85-4.17,185.18,185.18,0,0,1-18.31-6.47c-5.93-2.38-11.91-4.61-17.88-6.87q-4.08-1.55-8.26-2.84a94.12,94.12,0,0,0-10.47-2.43,110.31,110.31,0,0,0-19.89-1.93,137.28,137.28,0,0,0-20.31,1.84c-3,.43-6,1-8.92,1.63-3.55.7-7.12,1.37-10.68,2.05-6.24,1.21-12.44,2.56-18.73,3.48a266.49,266.49,0,0,1-35.12,1.87c-6.14-.05-12.29-0.27-18.43-0.53-6.71-.28-13.4-0.78-20.06-1.61q-8.49-1.17-17-2.56c-5.92-1-11.79-2.09-17.75-2.83a153.47,153.47,0,0,0-18.07-.87c-6.22,0-12.45.29-18.64,0.84a151,151,0,0,0-17.83,2.71c-2.87.61-5.72,1.36-8.55,2.15s-5.84,1.93-8.71,3-5.75,2.2-8.67,3.18-5.55,1.82-8.33,2.71-5.59,1.68-8.41,2.41A98.09,98.09,0,0,1,684.94,324a129.19,129.19,0,0,1-13.81,1,99.44,99.44,0,0,1-13.5-.81,87.91,87.91,0,0,1-19-5c-3.34-1.48-6.58-3.13-9.81-4.85-4.19-2.23-8.15-4.89-12.16-7.43-3.25-2.05-6.46-4.15-9.7-6.22a82,82,0,0,0-11.74-6,59.28,59.28,0,0,0-11.05-3.67,45.07,45.07,0,0,0-9.58-.89c-1.46,0-2.93,0-4.38.1h0Z"/><path class="cls-1" d="M411.66,514a6.26,6.26,0,0,0,1.83,4.42,6.43,6.43,0,0,0,4.42,1.83c4.62,0.23,9.22.56,13.82,1.07,1.57,0.24,3.11.52,4.67,0.85a48.91,48.91,0,0,1,5.13,1.53c2.92,1,5.77,2.17,8.61,3.37,5.76,2.56,11.4,5.36,17.12,8l12.5,5.75a259.76,259.76,0,0,0,32.46,12.57,166.17,166.17,0,0,0,17.18,4.12,107,107,0,0,0,17.39,1.79,137.31,137.31,0,0,0,17.65-.84,130.45,130.45,0,0,0,16.82-2.9c5-1.19,10-2.59,15-3.84l4.61-1.15,16.94-4.23c7.38-1.84,14.85-3.36,22.38-4.46a122.23,122.23,0,0,1,27.95-.6,163.65,163.65,0,0,1,25.74,6.31c7,2.24,13.73,5.15,20.58,7.71,7.85,2.94,15.66,6,23.6,8.71,4.33,1.47,8.68,2.85,13.1,4a132.16,132.16,0,0,0,13.67,2.71A184.54,184.54,0,0,0,795.1,573a134.23,134.23,0,0,0,29.27-3.46c4.32-1,8.61-2.15,13-3,4.84-1,9.66-2,14.54-2.74,3.72-.42,7.45-0.73,11.19-0.91a70.21,70.21,0,0,1,10.91.38,115.21,115.21,0,0,1,25.69,7.44c2.54,1.09,5.07,2.19,7.62,3.27,2.89,1.22,5.81,2.35,8.73,3.5A181.3,181.3,0,0,0,934.67,584c13.19,3.59,27,4.69,40.64,4.68,8,0,16.08-.57,24.11-1,2.49-.14,5-0.28,7.46-0.36,3.32-.11,6.64-0.19,10-0.16a88.36,88.36,0,0,1,10.41.82c3.17,0.49,6.31,1.09,9.43,1.87,3.71,0.93,7.31,2.35,10.93,3.55s7.57,2.37,11.37,3.49a95.43,95.43,0,0,0,11.45,2.54,161.77,161.77,0,0,0,23.71,2.15,75.47,75.47,0,0,0,11.61-.66,88.12,88.12,0,0,0,11.32-2.38c4.12-1.14,8.14-2.7,12.16-4.14l9.3-3.35c3.62-1.3,7.21-2.64,10.86-3.85s7.49-2.23,11.27-3.2a207.66,207.66,0,0,1,22.69-4.24c5.71-.74,11.43-1.29,17.17-1.63q4.93-.3,9.86-0.22a83.88,83.88,0,0,1,9.13.74q5.1,0.73,10.17,1.65c4.58,0.82,9.1,2,13.66,2.95,4.73,1,9.54,1.67,14.32,2.33,4.49,0.61,9,1.05,13.5,1.36,8.41,0.57,16.85.7,25.27,0.93,5.88,0.16,11.77.14,17.64,0.16,4.53,0,9,0,13.57.11,4.79,0.09,9.57.3,14.34,0.75,3.9,0.36,7.79.88,11.67,1.4l17.62,2.66,9.9,1.51c4.35,0.66,8.69,1.22,13.06,1.75a109.8,109.8,0,0,1,11.93,2.5,122.56,122.56,0,0,1,12.89,4.51c4.14,1.6,8.23,3.31,12.34,5,4.72,1.92,9.6,3.45,14.48,4.89A95.93,95.93,0,0,0,1459.2,616c4.62,0.68,9.3,1.07,14,1.37,3.5,0.23,7,.48,10.49.63a6.25,6.25,0,0,0,4.42-10.67,6.43,6.43,0,0,0-4.42-1.83c-7.29-.31-14.62-0.82-21.86-1.67a121,121,0,0,1-18.1-4.53q-4.54-1.45-9-3.2c-2.93-1.15-5.83-2.41-8.75-3.59a154.53,154.53,0,0,0-18.32-6.39c-3-.8-6.14-1.39-9.24-1.9s-6.43-.82-9.65-1.21l-23-3.5c-5.39-.81-10.78-1.61-16.18-2.3-5.18-.66-10.36-1.18-15.57-1.43-4-.2-8.07-0.24-12.11-0.26q-12.68,0-25.36-.19c-4.36,0-8.71-.24-13.06-0.36-7.88-.21-15.76-0.68-23.59-1.64q-4.61-.65-9.21-1.44c-4-.68-7.89-1.55-11.81-2.44a196.53,196.53,0,0,0-22.71-3.72c-7.85-.83-15.82-0.23-23.66.45s-15.82,1.88-23.64,3.25a179.85,179.85,0,0,0-22.79,5.68c-5,1.57-9.84,3.48-14.75,5.25l-9.69,3.49a97.31,97.31,0,0,1-18,4.81c-9.1.86-18.22,0.17-27.27-.94q-3.22-.46-6.41-1a94.14,94.14,0,0,1-9.57-2.43c-3.16-.94-6.31-1.94-9.45-2.93s-6-2.07-9.1-3c-6.14-1.93-12.68-2.71-19.06-3.33a94.54,94.54,0,0,0-9.93-.33c-2.68,0-5.38.09-8.06,0.23l-15.68.86a205.75,205.75,0,0,1-35.39-.7,138.58,138.58,0,0,1-19.47-4.15c-3.81-1.12-7.52-2.59-11.21-4s-7.11-2.77-10.65-4.22c-3-1.29-6-2.62-9.05-3.88q-2.64-1.1-5.3-2.11c-2.46-.94-5-1.67-7.52-2.43a102,102,0,0,0-14-3.16,75.88,75.88,0,0,0-13.41-.7,145.09,145.09,0,0,0-25.15,3.29c-4.42.91-8.82,1.85-13.2,2.95-4.19,1.05-8.37,2-12.63,2.66A164.08,164.08,0,0,1,791,560.52a174,174,0,0,1-21.29-1.58,152.22,152.22,0,0,1-17.12-3.43c-2.52-.67-5-1.48-7.49-2.29s-5-1.61-7.48-2.53l-14.14-5.3c-6.37-2.39-12.72-4.84-19.07-7.27-5.45-2.09-11-3.79-16.61-5.35a124.54,124.54,0,0,0-19.3-3.95c-12.27-1.38-24.72-.24-36.85,1.84-6.88,1.18-13.66,2.76-20.43,4.45l-17,4.25c-8.88,2.21-17.68,4.85-26.74,6.24a131.59,131.59,0,0,1-30.14.59c-14.64-2.12-28.81-6.67-42.44-12.34C486,530.07,477.37,526,468.67,522c-3-1.36-5.86-2.8-8.8-4.19-4.35-2.07-8.84-3.87-13.34-5.59a58.1,58.1,0,0,0-14.31-3.37c-4.77-.54-9.53-0.89-14.32-1.12h-0.26a6.31,6.31,0,0,0-6,6.26h0Zm82.07,19.38,0.71,0.3-0.71-.3h0Zm173.05,7.71,0.43,0.06-0.43-.06h0Z"/><path class="cls-3" d="M936.76,76.23c-4.59.1-9.17,0.41-13.73,0.83a138,138,0,0,0-26.92,5.1c-8.54,2.56-16.57,6.61-24.3,11a126.73,126.73,0,0,0-11,6.95c-3.78,2.69-7.41,5.62-10.92,8.65-6.25,5.39-11,12.16-15.34,19.11-1.6,2.55-3.25,5.08-4.77,7.68-1.71,2.91-3.4,5.83-5,8.79-1.35,2.43-2.5,5-3.7,7.48a97.68,97.68,0,0,0-6.27,15.48,41.45,41.45,0,0,0-1.52,11.79,58.88,58.88,0,0,0,1.28,9.06q0.52,2.92,1.05,5.83a4.73,4.73,0,0,0,.84,1.88c-7.87,3.08-16,5.79-23,10.57a74.48,74.48,0,0,0-9.76,8.21,115,115,0,0,0-9.23,10.27A121.32,121.32,0,0,0,760,246.49a63.33,63.33,0,0,0-4.61,12,69.57,69.57,0,0,0-2.12,14.43,87.71,87.71,0,0,0,3.1,26.6,58.25,58.25,0,0,0,5.11,11.86,71.41,71.41,0,0,0,7.91,10.76,101.25,101.25,0,0,0,19.82,18.45A109.76,109.76,0,0,0,800.07,347a83.4,83.4,0,0,0,12.85,5.5A64,64,0,0,0,825.48,355a105.25,105.25,0,0,0,12.64.94c3.16,0,6.33.11,9.48,0s6.29-.1,9.41-0.31c3.45-.23,6.91-0.39,10.34-0.75A127.54,127.54,0,0,0,880.22,353a114.88,114.88,0,0,0,13.34-3.71c1.63-.55,3.22-1.22,4.82-1.85,1.93-.76,3.91-1.46,5.8-2.32,2.65-1.2,5.37-2.32,8-3.63,3.27-1.65,6.52-3.3,9.75-5l4.29-2.29c1.51-.82,3-1.66,4.52-2.45l0.2,0.56c0.68,1.84,1.54,3.64,2.38,5.42,1.3,2.78,2.7,5.5,4.13,8.21s3.23,5.54,4.91,8.27c0.61,1,1.35,1.91,2,2.86l3.15,4.41c0.91,1.26,1.93,2.46,2.9,3.67l4.05,5.07a109.33,109.33,0,0,0,15.16,15.64,84.34,84.34,0,0,0,10.7,7.6,71.72,71.72,0,0,0,12.86,5.91c8.48,3,17.54,3.8,26.48,4,5.15,0.12,10.31-.09,15.46-0.27,2.71-.09,5.42-0.16,8.13-0.36l10.34-.73c1.24-.09,2.48-0.32,3.71-0.48l6.83-.89c3.09-.41,6.14-0.93,9.21-1.46,4.83-.84,9.63-1.71,14.41-2.82a154.44,154.44,0,0,0,25.49-8.66c3.93-1.66,7.77-3.49,11.64-5.29,4.82-2.24,9.51-4.71,14.23-7.14s9.33-5,13.77-7.91c3-1.91,5.82-4,8.62-6.12,3.23-2.46,6.4-5,9.38-7.75a98.53,98.53,0,0,0,13.86-16.41,96.06,96.06,0,0,0,7.45-13.34c2.3-4.85,4.57-9.72,6.62-14.67q1.42,1.35,2.88,2.67c2.15,1.95,4.34,3.84,6.66,5.59a72,72,0,0,0,11.2,6.92,66.87,66.87,0,0,0,12.54,4.7,92.84,92.84,0,0,0,14.57,2.47,141.33,141.33,0,0,0,17.2.69c4.31-.07,8.61-0.11,12.92-0.38,4.47-.28,8.91-0.85,13.33-1.54a74.15,74.15,0,0,0,13.22-3.39c8-2.8,15.95-7.18,21.39-13.81a44.3,44.3,0,0,0,6.48-10.55,41.57,41.57,0,0,0,2.24-6.46,45.64,45.64,0,0,0,1-7.87,66.11,66.11,0,0,0-.56-12.49,91,91,0,0,0-2.81-14.35,101.44,101.44,0,0,0-4.56-12.05,83.27,83.27,0,0,0-6.47-12,131.47,131.47,0,0,0-16.59-20.27,153.54,153.54,0,0,0-12.18-11.14L1282,198.1c-2.23-1.84-4.57-3.55-6.87-5.28-3.71-2.79-7.52-5.45-11.39-8a144.33,144.33,0,0,0-22.61-12.55c-2.06-.89-4.13-1.71-6.27-2.41a43.82,43.82,0,0,0-6.2-1.44,110.92,110.92,0,0,0-14.37-1.47c-4.12-.16-8.24-0.19-12.36-0.38-3-.14-5.94-0.25-8.9-0.51a84.85,84.85,0,0,0,4-8.17c3.3-8,4.23-16.86,3.62-25.41a100.43,100.43,0,0,0-1.83-12.72,54.94,54.94,0,0,0-4.5-12.91,34.16,34.16,0,0,0-7.46-10.07,57.06,57.06,0,0,0-5.21-4.07A43,43,0,0,0,1175.3,89c-8.34-4.1-17.63-5.68-26.82-6.29a118.79,118.79,0,0,0-17.12.36c-2.88.22-5.76,0.39-8.62,0.77-3.61.48-7.23,0.87-10.82,1.43-6.68,1-13.33,2.13-20,3.31-3,.52-5.88,1.16-8.82,1.77a123.64,123.64,0,0,0-18.4,5.15,101.52,101.52,0,0,0-11.87,5.32,77.31,77.31,0,0,0-11.82,7.91,96.32,96.32,0,0,0-12.31,12.36c-2,2.24-3.82,4.56-5.68,6.89-2.29,2.87-4.34,5.94-6.5,8.91h0c-0.61-1-1.19-2-1.78-2.94-0.85-1.4-1.72-2.79-2.59-4.19-1.42-2.29-2.91-4.55-4.41-6.79-1.72-2.59-3.45-5.16-5.23-7.71-2.93-4.18-5.77-8.44-8.77-12.56a88.17,88.17,0,0,0-8-9.44,62.15,62.15,0,0,0-10.3-8.35,54,54,0,0,0-11.68-5.55,58.25,58.25,0,0,0-14-2.91c-2.16-.21-4.35-0.22-6.53-0.25l-2.43,0q-2,0-4.07,0h0ZM934.59,88.8c2.89-.12,5.78-0.13,8.67-0.1,2.61,0,5.2.11,7.79,0.39A58,58,0,0,1,962.8,92.3,50.65,50.65,0,0,1,972,97.68a69.3,69.3,0,0,1,10.67,10.91c2.3,3.09,4.42,6.31,6.63,9.46l4.54,6.49c2.56,3.66,4.93,7.45,7.35,11.2,1.14,1.77,2.23,3.59,3.32,5.39,0.89,1.47,1.78,2.94,2.75,4.36a14,14,0,0,0,2.55,2.92,7.52,7.52,0,0,0,2,1.4,8.75,8.75,0,0,0,4,1,11,11,0,0,0,4.93-1.16,15.59,15.59,0,0,0,4.05-3.21,50.27,50.27,0,0,0,3.74-4.94l4.05-5.61c5.32-6.65,10.89-13.2,17.54-18.56a78.54,78.54,0,0,1,15.41-8.82,114.38,114.38,0,0,1,19.93-5.94c3.13-.64,6.24-1.34,9.38-1.9q10.23-1.81,20.47-3.4c3.91-.53,7.81-1.11,11.75-1.41l8.63-.66c2.85-.22,5.74-0.2,8.6-0.18a86.65,86.65,0,0,1,9.55.65,65.2,65.2,0,0,1,14,3.59,47.61,47.61,0,0,1,8.51,5,31.28,31.28,0,0,1,4.06,3.87,38.48,38.48,0,0,1,3.67,6.31,62.86,62.86,0,0,1,2.16,6.64,66,66,0,0,1,1.63,22.76,47.12,47.12,0,0,1-2.66,9.94c-1.58,3.5-3.48,6.82-5.37,10.16a11.14,11.14,0,0,0-1.61,5.29,8.21,8.21,0,0,0,3.73,6.61,16.51,16.51,0,0,0,5.71,2,54.52,54.52,0,0,0,6.9.8c3.39,0.27,6.79.36,10.19,0.52,2.48,0.12,5,.15,7.44.2a116.43,116.43,0,0,1,11.91.89c1.82,0.27,3.62.61,5.41,1a43.48,43.48,0,0,1,6,2c13.31,5.84,25.39,14.18,36.88,23,4,3.1,7.81,6.4,11.7,9.61,3.16,2.6,6.13,5.43,9.05,8.29A138.09,138.09,0,0,1,1305,237.38c2.14,2.83,4.16,5.73,6,8.76a81.93,81.93,0,0,1,5.06,9.94c1.15,2.79,2.18,5.61,3.06,8.5a75,75,0,0,1,2.35,11c0.3,2.44.54,4.88,0.65,7.34a51.86,51.86,0,0,1-.28,7.61A34.47,34.47,0,0,1,1320,297a43,43,0,0,1-4.21,7.19,33.14,33.14,0,0,1-4.44,4.46,53.74,53.74,0,0,1-9.15,5.19,79.53,79.53,0,0,1-9.16,3,76.29,76.29,0,0,1-9.08,1.67,111.77,111.77,0,0,1-12,.92l-7.07.11c-1.94,0-3.87.09-5.81,0.06a148.6,148.6,0,0,1-15.13-1,71.29,71.29,0,0,1-15.86-4.12,69.85,69.85,0,0,1-12.87-7.53,112.84,112.84,0,0,1-9.18-8.23c-0.72-.72-1.45-1.44-2.15-2.18a8.31,8.31,0,0,0-7-2.77l-1.66.22a5.63,5.63,0,0,0-2.06,1,5.53,5.53,0,0,0-1.76,1.56,14.57,14.57,0,0,0-1.42,1.94,37.78,37.78,0,0,0-3,6.62c-1.37,3.11-2.72,6.22-4.18,9.29l-2.89,6.07a82.94,82.94,0,0,1-8.66,14,103.45,103.45,0,0,1-7,8,89.24,89.24,0,0,1-9,7.91c-3.12,2.37-6.3,4.64-9.6,6.77-3.56,2.3-7.29,4.33-11,6.35-3.27,1.78-6.62,3.43-9.93,5.14-2.2,1.13-4.42,2.18-6.67,3.21-3.7,1.72-7.38,3.44-11.13,5a145.06,145.06,0,0,1-30.71,9.15l-11.75,2-10.63,1.39c-1.27.16-2.58,0.2-3.86,0.29l-7.56.54c-3.66.26-7.33,0.3-11,.42a163.07,163.07,0,0,1-23.76-.63,65.38,65.38,0,0,1-14.4-4,71.94,71.94,0,0,1-13.7-8.15,104,104,0,0,1-16-16.14l-5.6-7-4.7-6.57c-0.64-.9-1.18-1.89-1.76-2.82l-2.24-3.62c-0.79-1.28-1.42-2.7-2.12-4-0.55-1-1.08-2.11-1.61-3.16-0.95-1.92-1.86-3.86-2.73-5.82-0.63-1.78-1.13-3.63-1.92-5.35a9.07,9.07,0,0,0-5.25-4.75,10.43,10.43,0,0,0-6.93.27,65.39,65.39,0,0,0-7.93,3.95c-1.45.79-2.91,1.58-4.37,2.35q-5,2.66-10.11,5.21c-2.55,1.29-5.19,2.42-7.8,3.59l-7.24,2.85A88.83,88.83,0,0,1,880.89,340a100.77,100.77,0,0,1-10.2,2c-6.76.84-13.55,1.13-20.35,1.36a168.2,168.2,0,0,1-25.2-.9,60.92,60.92,0,0,1-13.62-3.81c-3.35-1.5-6.57-3.23-9.76-5A85.82,85.82,0,0,1,793,328a114.14,114.14,0,0,1-17.37-17.84,52.6,52.6,0,0,1-5.72-9.75,63.91,63.91,0,0,1-3.6-14,79.79,79.79,0,0,1-.17-18.21,59.35,59.35,0,0,1,3.31-12.57,102.82,102.82,0,0,1,12.34-20.11A106.6,106.6,0,0,1,798.67,218a54.78,54.78,0,0,1,10.24-5.84c3.79-1.55,7.66-2.91,11.45-4.47,1.57-.64,3.13-1.29,4.69-2a29.35,29.35,0,0,0,7-4.49,42.88,42.88,0,0,0,4.86-5.14c0.78-.92,1.54-1.86,2.29-2.8l1-1.27a6.26,6.26,0,0,0-5.4-9.41,6,6,0,0,0-4.42,1.83c-1,1.3-2.08,2.61-3.18,3.87-0.47-2.56-.95-5.12-1.34-7.69a31.5,31.5,0,0,1,.07-5.94,50.91,50.91,0,0,1,3-10.35c1.3-3,2.73-5.87,4.12-8.8,0.59-1.25,1.14-2.51,1.82-3.71l2.71-4.89c1.39-2.49,2.86-4.95,4.38-7.37,2.9-4.62,5.69-9.34,9-13.71a65.2,65.2,0,0,1,6.36-7c2.25-2.11,4.68-4.06,7.11-6a128.81,128.81,0,0,1,13.72-9A144,144,0,0,1,892,96.87,114.06,114.06,0,0,1,918.74,90c5.26-.65,10.55-1,15.85-1.24h0Zm83.65,50.5,0.37,0.29-0.37-.29h0Zm253.59,66.6,0.32,0.25-0.32-.25h0ZM933,330.65l0.46,0.06-0.46-.06h0Z"/><path class="cls-2" d="M1089.33,183.55a60.31,60.31,0,0,0-9.7,3.11,132.72,132.72,0,0,0-12.22,5.5c-4.16,2.1-8.3,4.21-12.4,6.43a0,0,0,0,0,0,0c1.3-.13,2.6-0.25,3.89-0.43h0a167.06,167.06,0,0,0,16.48-3c2.39-.56,4.78-1.13,7.15-1.73,5.3-1.35,10.53-3.09,15.94-3.93a36.55,36.55,0,0,1,8.25,0,75.62,75.62,0,0,1,14.19,4.36l-0.07,0c0.83,0.36,1.64.71,2.45,1.11,0,0,0,0,0,0a38,38,0,0,0-4.7-4.12c-1.27-1-2.56-1.92-3.87-2.84a32.36,32.36,0,0,0-7.68-3.91,26.37,26.37,0,0,0-9-1.47,44.51,44.51,0,0,0-8.68.95h0ZM1058.9,198.2h0Zm0,0,0.13,0-0.13,0h0Z"/><path class="cls-2" d="M930.43,200.74a30.59,30.59,0,0,0-8.72,4.77,47.74,47.74,0,0,0-7.06,7.29s0,0,0,0c2.69-1.31,5.37-2.66,8.12-3.84a66.69,66.69,0,0,1,8.31-2.53c2.88-.7,5.83-1.1,8.73-1.7,3.44-.7,6.89-1.31,10.32-2.06,4.14-.91,8.31-1.68,12.45-2.58a0,0,0,0,0,0,0,97.73,97.73,0,0,0-15.34-1.65l-1.61,0a45.3,45.3,0,0,0-15.23,2.33h0Zm-7.29,8.08-0.12.05,0.12-.05h0Z"/><path class="cls-2" d="M1534.83,931.91a2.75,2.75,0,1,0,2.75-2.75,2.77,2.77,0,0,0-2.75,2.75h0Z"/><path class="cls-2" d="M1092,234.85a17.25,17.25,0,0,0-3.78,1.54c-2.77,1.08-5.56,2.11-8.37,3.11-1.35.48-2.72,0.89-4.08,1.33s-2.54.86-3.83,1.23L1061.64,245c-4.32,1.24-8.65,2.49-13,3.5s-8.66,1.7-13,2.3c-10.06,1.28-20.23,1.46-30.33,2.37-5.4.49-10.79,1.18-16.17,1.93q-6.84.8-13.66,1.79c-6.07.48-12.12,1.11-18.19,1.62a0,0,0,0,0,0,0c3.48,0.75,7,1.39,10.46,2q2.53,0.41,5.06.79c0.93,0.14,1.87.34,2.8,0.41q4.24,0.32,8.48.56c2,0.11,4,.25,6,0.27,6.59,0.07,13.19,0,19.78-.23a38.45,38.45,0,0,0,3.08,7.41c3.19,5.79,8.19,10.48,13.45,14.39a47.91,47.91,0,0,0,18.69,8.41,40.09,40.09,0,0,0,11,.61,50.76,50.76,0,0,0,10.86-1.94,39.59,39.59,0,0,0,8.53-3.64,35.74,35.74,0,0,0,4.27-3c1.3-1,2.55-2.12,3.76-3.27a50.81,50.81,0,0,0,6.71-8.16,55,55,0,0,0,4.77-9c1.43-3.25,2.73-6.55,3.86-9.92a38.92,38.92,0,0,0,2.22-10.55,15,15,0,0,0-.25-2.61,11.31,11.31,0,0,0-.38-1.8,6.33,6.33,0,0,0-3.09-3.81,7.17,7.17,0,0,0-3.34-.76,9.17,9.17,0,0,0-1.93.21h0Zm-61.19,25.88c4.77-.56,9.51-1.34,14.21-2.28a150.62,150.62,0,0,0,14.62-3.79q6.93-2.12,13.86-4.28c2.88-.89,5.72-1.89,8.56-2.88,3.25-1.14,6.56-2.21,9.77-3.5q0,0.23,0,.46a73,73,0,0,1-4.52,14.16c-0.89,2.08-1.81,4.15-2.86,6.16a46.46,46.46,0,0,1-3.84,6,47.8,47.8,0,0,1-7.07,7.09,33,33,0,0,1-5.85,3.46,45.09,45.09,0,0,1-9.54,2.56,52.41,52.41,0,0,1-11.48.12,55.16,55.16,0,0,1-12.1-3.3,65.09,65.09,0,0,1-13.57-7.85,42.34,42.34,0,0,1-6.85-6.8c-0.89-1.23-1.72-2.5-2.5-3.81,6.42-.28,12.82-0.76,19.2-1.5h0Zm-10.23,11.83,0.24,0.18-0.24-.18h0Z"/><path class="cls-4" d="M1201.72,252.39h-76.95a6.31,6.31,0,0,0-6.25,6.25V618a6.31,6.31,0,0,0,6.25,6.25h276.82a6.31,6.31,0,0,0,6.25-6.25V258.64a6.31,6.31,0,0,0-6.25-6.25H1201.72Zm122.92,12.5h70.7V611.74H1131V264.89h193.62Z"/><path class="cls-2" d="M1318.95,323a43.38,43.38,0,0,0-6.86,3.49,72.11,72.11,0,0,0-6.4,4.73,57.23,57.23,0,0,0-6.41,6,58.36,58.36,0,0,0-8.8,12.58,79.43,79.43,0,0,0-5.22,14.34,0,0,0,0,0,0,0c2.09-2.83,4.14-5.69,6.26-8.48A92.47,92.47,0,0,1,1306.91,341c2.71-2,5.51-3.93,8.33-5.8a62.39,62.39,0,0,1,8-4.57,15.42,15.42,0,0,1,2.24-.63,24.28,24.28,0,0,1,4.62,0,19.15,19.15,0,0,1,3.56,1,45,45,0,0,1,7.75,4.81A159.67,159.67,0,0,1,1354.83,348s0,0,0,0c-1-2-2.15-4-3.3-5.89-1-1.62-2-3.18-3.08-4.76-0.91-1.37-1.89-2.7-2.88-4a44.69,44.69,0,0,0-5-5.39,23.64,23.64,0,0,0-5.93-4.24,22.89,22.89,0,0,0-8.36-2q-0.5,0-1,0a17.09,17.09,0,0,0-6.39,1.32h0Z"/><path class="cls-2" d="M1195,331.5a16.81,16.81,0,0,0-4.16,1.21,11,11,0,0,0-1.48.71,14,14,0,0,0-2.07,1.52,14.19,14.19,0,0,0-2.64,3.19,21.79,21.79,0,0,0-2.93,7.07,46.37,46.37,0,0,0-1.14,8.9c-0.15,2.63-.06,5.27,0,7.9,0.11,2.84.3,5.67,0.53,8.5a0,0,0,0,0,0,0c1.23-3.8,2.37-7.62,3.46-11.47a114.15,114.15,0,0,1,4-12.12,26.84,26.84,0,0,1,2.55-4.5,18,18,0,0,1,1.55-1.66,15.75,15.75,0,0,1,2.22-1.25,20.93,20.93,0,0,1,2.63-.75,39.07,39.07,0,0,1,7.84.46c2.53,0.38,5,.91,7.56,1.24q2.61,0.34,5.23.63c2.81,0.31,5.64.48,8.47,0.63,0,0,0,0,0,0l-1.39-.58h0l-2.55-1.07,0.17,0.07-4.14-1.74q-2.87-1.24-5.76-2.42c-2.15-.93-4.28-1.92-6.49-2.71a38.16,38.16,0,0,0-7.95-1.91,8.3,8.3,0,0,0-1.08-.07,16.21,16.21,0,0,0-2.5.24h0Zm18.29,4.57,0.19,0.08-0.19-.08h0Zm11.94,5,0,0,0,0h0Z"/><path class="cls-2" d="M1211.93,387.6c-0.28,4.58-.21,9.2-0.16,13.78s0.11,8.89.26,13.33q0.29,8.8.8,17.59c0.18,3,.51,6.05.88,9.08a145.84,145.84,0,0,0,3.63,19.79c1,3.75,2.19,7.43,3.53,11.07l-2.31.36c-3.73.48-7.47,0.92-11.22,1.21-4,.31-8,0.5-12,0.78a0,0,0,0,0,0,0q4.55,1,9.14,2c3.37,0.69,6.77,1.12,10.18,1.48a83.47,83.47,0,0,0,8.69.52L1224,480a150,150,0,0,0,8.87,17.52,159.25,159.25,0,0,0,10.84,16.21,95.19,95.19,0,0,0,13.14,14.13,53.38,53.38,0,0,0,16.72,9.57,35.71,35.71,0,0,0,9.06,1.9,40.9,40.9,0,0,0,10.28-.65,37.38,37.38,0,0,0,8.73-2.71,28.66,28.66,0,0,0,7.91-5.31,31.08,31.08,0,0,0,5.48-6.8,30.1,30.1,0,0,0,2-4.22c0.65-1.59,1.22-3.2,1.75-4.83a66.81,66.81,0,0,0,2.16-9q0.94-5.29,1.6-10.62c0.45-3.66.81-7.34,1.16-11,0.43-4.61.93-9.21,1.28-13.83l0.71-9.54c0.13-1.72.29-3.44,0.38-5.16q0.4-7.46.79-14.93,0.34-6.52.7-13c0.13-2.45.22-4.92,0.19-7.37a32.72,32.72,0,0,0-.42-4.41c-0.16-1.08-.3-2.17-0.54-3.24a8,8,0,0,0-1.24-2.82,6.25,6.25,0,0,0-1.9-1.88,6.08,6.08,0,0,0-2.61-.75,6.8,6.8,0,0,0-2.12.14,6,6,0,0,0-1.94.69,9.69,9.69,0,0,0-1.61,1.29,10,10,0,0,0-1,1.28c-1.44,1.7-3.08,3.25-4.66,4.82-1.73,1.73-3.57,3.34-5.37,5-3,2.72-6.08,5.34-9.14,8-3.49,3-7,6.08-10.52,9l-7.65,6.29c-2.62,2.15-5.29,4.23-8,6.3l0.93-.72c-2.09,1.61-4.21,3.2-6.37,4.72-2.35,1.66-4.8,3.19-7.26,4.68a121.17,121.17,0,0,1-14.43,7.59,100.27,100.27,0,0,1-13.58,4.45,127.46,127.46,0,0,1-4.41-13.8c-1.64-6.45-2.57-13.05-3.68-19.61-1-5.64-1.7-11.32-2.61-17-1.43-8.93-3-17.84-4.67-26.74-0.31-1.71-.62-3.42-0.87-5.14h0l-0.11-.83h0Zm22.89,89.9a64.93,64.93,0,0,0,18.9-6.29c2.79-1.41,5.45-3.06,8.08-4.73,2.89-1.84,5.68-3.8,8.41-5.87s5.2-4.08,7.76-6.17c1.23-1,2.48-2,3.69-3.05l6.73-5.85,5.13-4.46c1.79-1.55,3.5-3.21,5.24-4.82,3.57-3.28,7.17-6.52,10.74-9.79,1.87-1.71,3.75-3.4,5.59-5.14l2.88-2.72,0.5-.47,0,0.52a38.66,38.66,0,0,1,0,4.85q-0.09,2.53-.21,5.07-0.21,4.65-.43,9.3c-0.21,4.68-.4,9.36-0.59,14-0.37,8.9-1,17.79-1.68,26.68-0.53,6.65-1,13.32-1.85,19.94-0.46,3.24-1,6.47-1.66,9.67a56.62,56.62,0,0,1-2.76,8.86,27.63,27.63,0,0,1-2.73,4.82,30.22,30.22,0,0,1-4.43,4.46,27.63,27.63,0,0,1-4.72,2.68,37.38,37.38,0,0,1-7.77,2,28.32,28.32,0,0,1-16.21-2.24,52.63,52.63,0,0,1-10.14-5.89,73.69,73.69,0,0,1-6.93-6.49c-2.39-2.5-4.67-5.09-6.81-7.8a172.49,172.49,0,0,1-10.51-15.68,142,142,0,0,1-7.77-14.9c1.16-.16,2.32-0.33,3.47-0.52h0Zm78.92,21.39,0,0.3,0-.3h0ZM1212.07,388.43h0Z"/><path class="cls-5" d="M567.83,457.51c1,5.08,1.82,10.18,2.76,15.27s2,10.26,2.93,15.41c1.21,6.88,2.72,13.69,4.13,20.53,0.76,3.71,1.54,7.41,2.5,11.07a94.5,94.5,0,0,0,5,13.85,81.38,81.38,0,0,0,7.11,13.12,182.77,182.77,0,0,0,20.41,25.09c7,7.12,14,14.17,21.24,21a0,0,0,0,0,0,0,185,185,0,0,0-4-22,117.54,117.54,0,0,0-4.82-14.64,394.64,394.64,0,0,0-20.29-43.78c-3.71-7-7.29-14-11.52-20.65-2.6-4.1-5.18-8.3-8.08-12.2-5.61-7.52-11.45-14.81-17.39-22.06h0v0h0Z"/><path class="cls-5" d="M649.52,393.88c-1.21,5.36-2.84,10.64-4.36,15.93-1.57,5.45-3.14,10.89-4.68,16.34-2.84,10.08-5.61,20.2-8.92,30.14-3.5,10.51-7.63,20.81-11,31.38A219,219,0,0,0,614,514.2c-1.2,6.53-2.28,13.06-3,19.66a88.83,88.83,0,0,0-.27,16.65,84.43,84.43,0,0,0,3,17.57c1.68,5.75,3.86,11.36,6.09,16.9,0,0,0,0,0,0,1.79-6.22,3.38-12.5,5.2-18.71a174.8,174.8,0,0,1,6.61-18c4.38-10.16,9.36-20.05,13.37-30.38,2.7-6.94,5.11-14,7.14-21.17,0.73-2.59,1.3-5.15,1.8-7.8A185.53,185.53,0,0,0,657,461.67c0.39-10.9-.92-21.85-2.36-32.64-1.57-11.73-3.12-23.5-5.14-35.16h0Z"/><path class="cls-5" d="M838.51,479.61c3,4,6,8.05,8.82,12.21,1.86,2.8,3.81,5.54,5.55,8.41a152.64,152.64,0,0,1,9.55,18.53c2.38,5.5,4.88,11,7.54,16.33,3.25,6.54,6.78,12.89,10.54,19.15,4,6.66,8.37,13.07,12.4,19.71a177.34,177.34,0,0,1,9,16.32c1.64,3.48,3.08,7.06,4.71,10.55q3.73,8,8.06,15.7a0,0,0,0,0,0,0c1.22-6.73,2.24-13.49,3-20.28a107.13,107.13,0,0,0,.81-11.41A76.44,76.44,0,0,0,917,570.88c-1.53-8.5-4.8-16.57-8.45-24.36-5.29-11.27-12.8-21.23-21-30.5a160.07,160.07,0,0,0-18.34-18.09,115.62,115.62,0,0,0-18.06-12.1,138.81,138.81,0,0,0-12.57-6.24h0s0,0,0,0h0Z"/><path class="cls-5" d="M984.08,464.77q-13.22,10.73-25.84,22.18a249.37,249.37,0,0,0-23,23.88,158.82,158.82,0,0,0-18.82,26.8,135.48,135.48,0,0,0-8.61,19.81,97.06,97.06,0,0,0-4.48,20.78,94.86,94.86,0,0,0,3.42,36.73s0,0,0,0a358.27,358.27,0,0,1,19.57-38.79c6.19-10.6,12.92-20.89,19.37-31.34,3-4.91,5.55-10.05,8.2-15.16,2.85-5.5,5.53-11.09,8.08-16.73,1.89-4.18,4.06-8.23,6-12.39,1.72-3.67,3.44-7.34,5.14-11,3.78-8.19,7.29-16.49,10.94-24.73a0,0,0,0,0,0,0h0Z"/><path class="cls-5" d="M543.46,104.1c0.65,5.44,1.82,10.82,3,16.18,1,4.72,2.3,9.39,3.74,14,1.62,5.19,3.37,10.27,5.43,15.3,1.64,4,3.35,8,5.16,11.93A139.66,139.66,0,0,0,569,176.26c3.51,5.68,7.06,11.36,10.3,17.19A191,191,0,0,1,588,211.29c1.06,2.55,2.1,5.11,3.19,7.66q2.34,5.66,4.94,11.2a0,0,0,0,0,0,0c2.53-9,4.67-18.31,4.81-27.7,0.24-16.71-5.68-33.16-15.38-46.66-7.71-10.73-16.23-20.95-25-30.88-5.65-6.42-11-13.12-16.35-19.82l-0.76-1h0Zm0.74,0.95,0,0,0,0h0Z"/><path class="cls-5" d="M661,80a313.82,313.82,0,0,0-25.3,19c-5.65,4.62-11.19,9.36-16.35,14.52a112.08,112.08,0,0,0-16.46,20.29,99.76,99.76,0,0,0-14.13,50c-0.06,8.14,1.18,16.36,2.57,24.36,0,0,0,0,0,0,3.8-6.5,7.25-13.19,10.89-19.79s7.66-13.12,11.52-19.67c8-13.65,16.27-27.16,23.91-41,6.06-11,11.81-22.16,17-33.61,2.12-4.66,4.1-9.39,6.33-14a0,0,0,0,0,0,0h0Z"/><path class="cls-5" d="M1316.94,26.31c-0.47,2.93-.83,5.87-1.14,8.82a93.49,93.49,0,0,0-.11,16.73c0.41,5.66.75,11.33,1.23,17,0.5,5.8,1,11.59,1.92,17.35a113.81,113.81,0,0,0,4.44,17.37c1.29,3.91,3,7.72,4.63,11.49q2.13,5,4.59,9.78c1.7,3.32,3.78,6.51,5.78,9.65,2.65,4.16,5.48,8.17,8.47,12.1a0,0,0,0,0,0,0A242,242,0,0,0,1345.4,99l0.2,1.5-0.22-1.64q-0.09-.69-0.19-1.39l0.17,1.28a127,127,0,0,0-3.72-18.72,136.64,136.64,0,0,0-6-16.27,159.7,159.7,0,0,0-7.5-15c-2.75-4.82-5.29-9.7-7.56-14.75-1.17-2.61-2.39-5.19-3.6-7.78h0Z"/><path class="cls-5" d="M1401.62,35c-8.82,7.15-17.79,14-26.18,21.7-10.48,9.59-20.33,19.63-27.7,31.87a70.2,70.2,0,0,0-7.28,16.55,56.21,56.21,0,0,0-2.27,18.13c0.27,5.31.95,10.65,1.65,15.92v-0.06q0.29,2.13.59,4.27a0,0,0,0,0,0,0q3.68-5.71,6.92-11.69c0.93-1.72,1.76-3.49,2.62-5.24,1.15-2.35,2.48-4.59,3.85-6.82q3.89-6.34,8.38-12.26c5.53-7.07,11.26-14,16.05-21.57a199.82,199.82,0,0,0,10-18.11,300.62,300.62,0,0,0,12.15-29.49c0.39-1.06.78-2.13,1.18-3.19a0,0,0,0,0,0,0h0Zm-40.32,73.56-0.3.38,0.3-.38h0Z"/></svg>
