<svg id="Background" xmlns="http://www.w3.org/2000/svg" xmlns:xlink="http://www.w3.org/1999/xlink" viewBox="0 0 1536 700"><defs><style>.cls-1{fill:#fff570;}.cls-2{fill:#1021aa;}</style></defs><title>Radiant-4</title><image id="Background-2" data-name="Background" width="1" height="1" transform="scale(1536 700)" /><path class="cls-1" d="M716.74,270.08a168.46,168.46,0,0,0-49.81,12.71,200.32,200.32,0,0,0-25.3,12.34c-4.25,2.51-8.34,5.25-12.33,8.13q-2.86,1.45-5.66,3c-5.2,2.92-10.27,6-15.36,9.07-2.31,1.41-4.51,3-6.75,4.52-1.81,1.21-3.6,2.41-5.33,3.73C590,328.3,583.9,333,578,338c-4.41,3.74-8.68,7.63-13,11.5-1.6,1.45-3.08,3-4.6,4.57-2,2-4,3.92-5.91,6l-6.3,7c-4.23,4.67-8.18,9.52-12,14.5-6.84,8.86-11.85,18.7-16.61,28.77A207.56,207.56,0,0,0,511,431.43c-4.61,13.41-6.52,27.4-7.4,41.51a114,114,0,0,0-.25,15.37,78.53,78.53,0,0,0,2.42,15.8,46.93,46.93,0,0,0,1.85,5.13c1.43,3.47,2.87,6.91,4.57,10.26a72.37,72.37,0,0,0,5.77,9.28,143.93,143.93,0,0,0,10.39,12.95A193.77,193.77,0,0,0,545,558.08c7.52,6.51,15.61,12.24,23.67,18a152.16,152.16,0,0,0,41,20.54,146,146,0,0,0,22.8,5.44c6,1,12,1.8,18,2.37L662,605.56c1.93,0.18,3.87.46,5.8,0.53l19.47,0.72c9.59,0.35,19.23.37,28.83,0.27l20.46-.21c5.2-.05,10.43-0.55,15.63-0.84,4.55-.25,9.11-0.39,13.64-0.83l21-2c4.84-.46,9.65-1.15,14.47-1.75,6.46-.81,12.92-1.55,19.34-2.61l19.59-3.2c1.56-.26,3.1-0.71,4.64-1.07l11.36-2.66c4.21-1,8.43-1.9,12.58-3.12l20.62-6.09c4.6-1.36,9.07-3.23,13.57-4.89,9.5-3.5,18.85-7.18,28.1-11.34,15.34-6.9,30.33-15.61,42.18-27.71,6.28-6.41,11-14.07,15-22,2.45-4.84,4.45-9.94,6.52-14.95,1.58-3.82,3-7.71,4.23-11.66,2.84-9.13,4.27-18.56,5.38-28a111.78,111.78,0,0,0,.74-11.82,113.63,113.63,0,0,0-1.5-17.55c-1.36-9.41-5.07-18.29-8.8-27a125.84,125.84,0,0,0-11.16-20c-5.55-8.27-12-15.85-18.41-23.48-3.2-3.82-6.57-7.59-10.11-11.1l-6.86-6.79c-2.49-2.46-5.22-4.73-7.93-6.95-4.38-3.58-8.93-7-13.62-10.15-8-5.43-16.62-9.94-25.13-14.56q-14.62-7.94-29.41-15.56c-12.73-6.6-25.87-12.68-39.66-16.73-12.56-3.69-25.54-5.41-38.51-7-11-1.34-22-2.59-33.06-3.09-5.39-.24-10.76-0.47-16.16-0.56-4.73-.08-9.48-0.21-14.22-0.21s-9.33.12-14,.53h0Zm215.1,166.76c0,2.69-.2,5.38-0.48,8.08a111.36,111.36,0,0,1-5.86,22.24A115.44,115.44,0,0,1,920,477.63l0.24-.52a123.45,123.45,0,0,0,9-26.06,134.14,134.14,0,0,0,2.28-13.5l0.26-.71h0ZM716.3,467.26q0.29,1.31.65,2.59-1,1.21-2.1,2.37l-0.32-.11c0.38-1.31.8-2.6,1.26-3.87l0.49-1h0Z"/><path class="cls-1" d="M373.75,525.2c-4.77.36-9.54,0.64-14.26,1.37a91,91,0,0,0-13.64,3.27c-1.69.53-3.35,1.18-5,1.8L335,533.78c-1.07.39-2.11,0.9-3.15,1.37l-6.4,2.88c-2.27,1-4.53,2-6.76,3.15-6,3-12,5.93-18.05,8.86l-12,5.79c-1.84.89-3.65,1.82-5.47,2.74-4.22,2.14-8.42,4.34-12.46,6.79s-7.72,5-11.51,7.54c-2.12,1.45-4.25,2.9-6.35,4.39a3.18,3.18,0,0,0-1.38,1.79,3,3,0,0,0,2.1,3.69,2.9,2.9,0,0,0,2.31-.3c2.94-2.08,5.92-4.1,8.89-6.12,3.71-2.53,7.5-5,11.39-7.24,4.11-2.37,8.35-4.51,12.59-6.64,6.23-3.15,12.55-6.11,18.83-9.16,5.31-2.58,10.6-5.22,15.9-7.82,1.8-.89,3.66-1.68,5.49-2.5l7.49-3.37,8.59-3.16a85.3,85.3,0,0,1,17.69-4.33c3.64-.44,7.32-0.63,11-0.91a3.15,3.15,0,0,0,2.12-.88,3,3,0,0,0,.88-2.12,3,3,0,0,0-2.82-3h-0.18Z"/><path class="cls-1" d="M298.63,418.13l-12.94.29c-2.91.07-5.81,0.45-8.71,0.73-2.37.23-4.74,0.44-7.11,0.73-3.28.41-6.56,0.81-9.84,1.27a2.87,2.87,0,0,0-1.79,1.38,3,3,0,0,0,1.08,4.11l0.71,0.3a3,3,0,0,0,1.6,0l1.11-.15-0.52.07,4-.52c1.77-.21,3.55-0.48,5.33-0.65l11.31-1.09c2.81-.27,5.66-0.23,8.48-0.29l6.74-.15c0.76,0,1.51,0,2.27,0l12.32,0.2c2.32,0,4.64.05,7,.16L333,425.08l4.72,0.22c0.9,0,1.8.14,2.7,0.21q3.8,0.33,7.61.75,2.15,0.24,4.29.53a185.79,185.79,0,0,1,20.47,4,106.71,106.71,0,0,1,10.33,3.2c3.29,1.2,6.52,2.56,9.75,3.87l9.43,4.08c2.53,1.09,5,2.25,7.52,3.41,6.95,3.22,13.87,6.49,20.8,9.72a3.18,3.18,0,0,0,2.31.3,3,3,0,0,0,2.09-3.69,2.89,2.89,0,0,0-1.38-1.79c-7.2-3.36-14.39-6.75-21.6-10.09q-10.11-4.69-20.44-8.88a141.65,141.65,0,0,0-13.38-4.85c-4.57-1.34-9.22-2.4-13.89-3.32-4.83-1-9.69-1.7-14.57-2.3-2.33-.29-4.68-0.52-7-0.75-1.6-.15-3.22-0.34-4.83-0.41l-11.32-.52-6.41-.3c-0.74,0-1.49-.09-2.23-0.1l-11.71-.19c-1.94,0-3.87-.09-5.81-0.09l-1.77,0h0Z"/><path class="cls-1" d="M430,262.4A3,3,0,0,0,429,266.5c1.8,3.12,3.8,6.13,5.77,9.15,0.83,1.29,1.69,2.56,2.53,3.83,0.73,1.1,1.44,2.22,2.21,3.29l3.84,5.32c0.75,1,1.46,2.1,2.29,3.07l7.62,9.09c1.25,1.49,2.58,2.92,3.88,4.38l5.94,6.68c3.19,3.58,6.32,7.21,9.49,10.81l8.39,11.12,5.72,7.59,2.3,3.06c1.8,2.39,3.7,4.7,5.53,7.06l-0.47-.61a125.93,125.93,0,0,1,8.07,12.2,3,3,0,0,0,5.18-3c-1.91-3.21-3.87-6.39-6-9.45s-4.45-5.81-6.7-8.7c-3.92-5.12-7.76-10.3-11.65-15.45l-4.19-5.55c-0.65-.87-1.28-1.78-2-2.6l-8.07-9.2c-3.34-3.81-6.73-7.58-10.1-11.37-1.23-1.38-2.4-2.82-3.59-4.23l-5.11-6.09-4.29-5.94c-1.29-1.79-2.5-3.62-3.72-5.46-2.62-3.95-5.27-7.89-7.65-12a3,3,0,0,0-2.61-1.48,3,3,0,0,0-1.49.4h0Z"/><path class="cls-1" d="M661.67,156.21a3,3,0,0,0-1.79,1.38,3.14,3.14,0,0,0-.3,2.31c1.48,6.91,2.6,13.91,3.8,20.88,1,5.79,1.68,11.63,2.64,17.43q1.06,6.39,2.13,12.78c0.38,2.27.72,4.55,1.2,6.81,1.43,6.72,3,13.43,4.22,20.18,1.53,8.18,3.05,16.38,4.8,24.52a3,3,0,0,0,5.79-1.59c-1.59-7.4-3-14.83-4.38-22.27-0.49-2.6-1-5.2-1.51-7.79l-2.8-13.08c-0.21-1-.47-2-0.64-3l-0.56-3.37L672,198c-0.41-2.46-.77-4.93-1.13-7.4-0.47-3.21-.88-6.43-1.43-9.62-1.3-7.55-2.5-15.15-4.11-22.64a3,3,0,0,0-2.94-2.2,2.85,2.85,0,0,0-.75.1h0Z"/><path class="cls-1" d="M936.51,136.66c-2.41,2.71-4.63,5.61-6.89,8.45-2,2.57-4,5.18-6.06,7.77-3,3.83-6.05,7.59-8.93,11.5s-5.54,7.73-8.08,11.74A89,89,0,0,0,900,188.68c-1.91,4.46-3.65,9-5.11,13.64a128.72,128.72,0,0,0-3.47,13.4,98.73,98.73,0,0,0-1.66,13.85c-0.1,1.69-.07,3.4-0.11,5.09,0,2.18-.07,4.35-0.07,6.52a3,3,0,0,0,6,0c0-2.87.05-5.73,0.11-8.6,0-1,0-2,.06-3,0-1.16.14-2.33,0.23-3.48q0.17-2.17.44-4.34a113.22,113.22,0,0,1,3.41-15.09A137.64,137.64,0,0,1,905,192.09c1-2.39,2.1-4.74,3.29-7,1.3-2.52,2.79-4.95,4.33-7.33,1.45-2.23,3-4.41,4.5-6.58s3.23-4.52,4.92-6.72c3.74-4.81,7.53-9.59,11.27-14.39,2.41-3.08,4.81-6.19,7.41-9.11a3.11,3.11,0,0,0,.88-2.12,3,3,0,0,0-.88-2.12,3.12,3.12,0,0,0-2.19-.87,2.71,2.71,0,0,0-2.05.87h0Zm-31.25,54.86-0.18.43,0.18-.43h0Z"/><path class="cls-1" d="M1118.07,272.34a101.79,101.79,0,0,1-9.33,8.05c-2.65,2.14-5.35,4.21-8,6.31l-9.08,6.51c-0.68.49-1.35,1-2.07,1.43l-4.83,2.95-5.95,3.64c-0.76.46-1.51,0.95-2.29,1.39l-10.32,5.87c-10.6,6-21.1,12.23-31.6,18.43a3,3,0,0,0,3,5.18q12.2-7.21,24.45-14.33c5.58-3.25,11.21-6.41,16.82-9.61,2.41-1.37,4.74-2.86,7.11-4.3l5.66-3.46c0.67-.41,1.33-0.8,2-1.26l9.82-7c1.09-.78,2.13-1.63,3.18-2.45l4.84-3.78c1.66-1.29,3.28-2.63,4.91-4a65.7,65.7,0,0,0,5.95-5.32,3,3,0,0,0-2.13-5.11,2.93,2.93,0,0,0-2.11.87h0ZM1100.37,287l-0.23.18,0.23-.18h0Z"/><path class="cls-1" d="M1067.78,463.54a3,3,0,0,0,.88,2.12,3.12,3.12,0,0,0,2.12.88c4.18,0.27,8.38.55,12.54,1.07a108.45,108.45,0,0,1,17.14,4.25l12.6,4c6.86,2.17,13.71,4.43,20.68,6.26,4.69,1.23,9.44,2.21,14.2,3.12,2.63,0.5,5.26,1,7.91,1.38,7.11,1,14.22,2,21.35,2.88,3.26,0.38,6.51.79,9.78,1.07,3.66,0.32,7.31.61,11,.85s7.29,0.48,10.93.6a3,3,0,0,0,0-6c-3.25-.11-6.5-0.32-9.75-0.52-2.64-.16-5.29-0.32-7.93-0.55-2.84-.25-5.7-0.46-8.54-0.8L1172.8,483l-10-1.4-5.66-.79c-2.94-.41-5.86-1-8.78-1.56-4.76-.91-9.49-1.95-14.18-3.2s-9.27-2.73-13.87-4.18L1108.23,468l-9.4-3c-2.21-.7-4.48-1.25-6.73-1.81s-4.5-1-6.78-1.37c-4.81-.73-9.69-1-14.54-1.34h-0.16a3,3,0,0,0-2.84,3h0Z"/><path class="cls-1" d="M1045.62,580.81a3,3,0,0,0-1.08,4.11,3.27,3.27,0,0,0,1.79,1.38c3.51,1.4,7,2.77,10.53,4.23l7.25,3,12.51,5.21,9.13,4.11c2.89,1.3,5.79,2.55,8.66,3.89l10.16,4.76c2.25,1.05,4.51,2.09,6.72,3.21,6.36,3.25,12.73,6.48,19,9.82q8.92,4.71,17.82,9.43,2.12,1.13,4.22,2.27a3,3,0,0,0,3-5.18c-5.69-3.09-11.42-6.09-17.14-9.11l-10.66-5.62c-2.73-1.44-5.49-2.8-8.23-4.21-2.45-1.25-4.87-2.55-7.35-3.72l-11.64-5.45c-6.13-2.87-12.33-5.6-18.5-8.37-4.25-1.91-8.58-3.65-12.88-5.44l-9.52-4c-3.84-1.6-7.7-3.11-11.56-4.66a2,2,0,0,0-.74-0.13,3.27,3.27,0,0,0-1.57.43h0Zm31.14,18,0.53,0.22-0.53-.22h0Z"/><path class="cls-1" d="M496.76,594.59c-4.66.32-9.32,0.73-13.95,1.38a123,123,0,0,0-14.08,3c-4.64,1.22-9.25,2.62-13.8,4.13a130.58,130.58,0,0,0-13.49,5.31c-4.25,2-8.37,4.19-12.43,6.5s-8.13,4.7-12.11,7.16c-6.07,3.77-11.95,7.85-17.93,11.77-3.64,2.39-7.3,4.76-10.94,7.17-3.87,2.57-7.84,5.07-11.57,7.85a3.24,3.24,0,0,0-1.37,1.79,3,3,0,0,0,2.09,3.69,2.88,2.88,0,0,0,2.31-.3c3-2.25,6.21-4.29,9.34-6.37q3.86-2.57,7.75-5.1c4-2.61,8-5.22,12-7.87s7.85-5.25,11.86-7.74,8-4.83,12.12-7.14a149.76,149.76,0,0,1,15.25-7.69,180,180,0,0,1,18.1-6.13,137.71,137.71,0,0,1,18.74-4.27c4-.53,8.09-0.86,12.15-1.14a3.13,3.13,0,0,0,2.12-.88,3,3,0,0,0,.88-2.12,3,3,0,0,0-2.83-3h-0.17Z"/><path class="cls-2" d="M647,357a54.31,54.31,0,0,0-9.28,3.8,44.11,44.11,0,0,0-8.2,5.36,31.84,31.84,0,0,0-6.28,7,55.93,55.93,0,0,0-5,10s0,0,0,0l1.49-1.16,3.61-2.8a51,51,0,0,1,10-5.93,128.78,128.78,0,0,1,21.79-6,41.59,41.59,0,0,1,8.89.35c3.8,0.6,7.49,1.74,11.31,2.22a88.68,88.68,0,0,0,10,.7c3.15,0,6.3,0,9.45-.08a0,0,0,0,0,0,0c-3-1.29-6.06-2.62-9.11-3.9l0.48,0.2c-3-1.3-6-2.55-8.91-3.89s-5.93-3.17-9.05-4.44a37,37,0,0,0-10.07-2.58,21.38,21.38,0,0,0-2.25-.12A33.76,33.76,0,0,0,647,357h0ZM623.5,379l-0.12.09,0.12-.09h0Z"/><path class="cls-2" d="M826.14,346.66a38.77,38.77,0,0,0-16.85,8A37.78,37.78,0,0,0,803.5,361c-2,2.56-3.77,5.25-5.54,8a0,0,0,0,0,0,0c4.94-2.56,9.73-5.41,14.81-7.69A51.07,51.07,0,0,1,824,358.32c3.07-.37,6.16-0.62,9.24-0.92q5.41-.53,10.79-1.24c11.43-1.43,22.8-3.62,34-6.14,0,0,0,0,0,0a208.07,208.07,0,0,0-26.21-4.27q-4-.36-8.05-0.55-1.5-.07-3-0.07a72.33,72.33,0,0,0-14.63,1.56h0Z"/><path class="cls-2" d="M833.13,10.06a37.58,37.58,0,0,0-10.71,3.87,22,22,0,0,0-3.94,2.7l-1.37,1.13a21.06,21.06,0,0,0-2.43,2.55,28.18,28.18,0,0,0-5.07,9.8,22.5,22.5,0,0,0-1,5,29.68,29.68,0,0,0,.14,7.58l0.37,2.22a17.16,17.16,0,0,0,1.34,3.87,28.36,28.36,0,0,0,2.41,4.41,36.38,36.38,0,0,0,3.11,3.9A28.72,28.72,0,0,0,820.38,61a59.42,59.42,0,0,0,15.85,8.46l-1.09.47a267,267,0,0,1-28.32,10c-4.58,1.32-9.25,2.34-13.91,3.32-5.49,1.16-11,2-16.58,2.83L777,86c-5,.66-9.94,1.16-14.93,1.54-5.88.45-11.78,0.66-17.68,0.88-3.66.13-7.32,0.1-11,.11l-25.59.07c-2.78,0-5.57-.14-8.35-0.21l-17.26-.44-9.48-.24c-2.53-.07-5.07-0.27-7.59-0.4Q660,87,655,86.65q-8.66-.59-17.26-1.7-15-2.1-29.73-5.58c-10.27-2.43-20.3-5.75-30.27-9.16-2.94-1-5.84-2.13-8.74-3.23l-15-5.67q-8.16-3.09-16.28-6.27l-13.82-5.39-4.57-1.78c-2.55-1-5.16-1.83-7.76-2.71a270,270,0,0,0-27.73-7.81,295.07,295.07,0,0,0-30.18-4.9C440,30.88,426.33,31,412.65,31c-7,0-14,0-21,.08l-12.27.13c-3.2,0-6.41.24-9.61,0.36l-10.49.4c-1.08,0-2.16.21-3.23,0.32l-8.21.81-6.18.61c-0.91.09-1.81,0.17-2.71,0.31l-12.71,2.07-5.08.82c-3.14.51-6.27,1.17-9.38,1.81a197.54,197.54,0,0,0-29.38,8.75,133.09,133.09,0,0,0-22.59,11.42c-0.59-.67-1.18-1.34-1.79-2a39.24,39.24,0,0,0-5.85-4.91,36.33,36.33,0,0,0-5.48-3.18A29.9,29.9,0,0,0,241.8,47l-2.17-.45-3.16-.43c-2.24-.2-4.45-0.34-6.7-0.39a63.72,63.72,0,0,0-6.8.41c-2.34.2-4.68,0.43-7,.66a132.36,132.36,0,0,0-15,2.49,67.12,67.12,0,0,0-12.26,3.77c-2.21,1-4.36,2-6.5,3.08S178,58.57,176,59.86a90.88,90.88,0,0,0-10,7.61A81.41,81.41,0,0,0,155.3,78.8a140.09,140.09,0,0,0-13.6,21c-2.18,4.05-4.1,8.27-6,12.48a110.56,110.56,0,0,0-5.07,13.95,101.5,101.5,0,0,0-2.82,14.54c-0.6,4.39-.94,8.82-1.14,13.25a144.48,144.48,0,0,0,.51,15.33c0.12,1.88.26,3.75,0.42,5.63q0.91,10.44,1.8,20.87c0.63,7.41,1.16,14.83,1.88,22.23q1.15,11.88,2.29,23.77c0.11,1.16.3,2.34,0.46,3.5q0.5,3.69,1.05,7.38c0.73,4.91,1.64,9.79,2.69,14.64,1,4.54,2.23,9,3.52,13.46,0.94,3.25,1.89,6.52,3,9.7l4.47,12.38c0.91,2.53,1.78,5.07,2.8,7.56q6.45,15.7,12.94,31.39c3.5,8.44,6.84,16.94,10.4,25.35l3.82,9c1.93,4.57,4.16,9,6.41,13.46a184.07,184.07,0,0,0,10.53,17.83c1.58,2.39,3.29,4.69,5,7,1.89,2.57,3.8,5.14,5.77,7.66a125.75,125.75,0,0,0,12.16,13.47l0.16,0.15a95.81,95.81,0,0,0-9.57,8.21,123,123,0,0,0-13.09,14.9c-2.37,3.12-4.62,6.3-6.78,9.57a85.42,85.42,0,0,0-5.77,10.38,47.73,47.73,0,0,0-3.08,9.45,82.8,82.8,0,0,0-1.69,9.83c-0.43,3.69-.76,7.39-1.06,11.09a44.84,44.84,0,0,0,.23,9.52,16.47,16.47,0,0,0,.75,3.84l0.79,1.93a16.7,16.7,0,0,0,1.44,2.88,25.69,25.69,0,0,0,1.86,2.63l1.33,1.61a21.43,21.43,0,0,0,3.25,2.88,23.42,23.42,0,0,0,2.69,1.89l1.89,1.05q1.54,0.7,3.11,1.36a33,33,0,0,0,4.42,1.34,35.57,35.57,0,0,0,5.77,1A41.75,41.75,0,0,0,216.5,541q1.56-.19,3.11-0.49a30.73,30.73,0,0,0,5.63-1.71,37.12,37.12,0,0,0,7.89-4.29,40.41,40.41,0,0,0,7-6.58,86.58,86.58,0,0,0,11.39-16.36,66.87,66.87,0,0,0,3.74-8.56,58.07,58.07,0,0,0,2.44-9.49A89.5,89.5,0,0,0,259,482.86a36.91,36.91,0,0,0-.79-9.63q-0.42-1.87-1-3.7l-0.77-2.14-1.33-3.16q-0.94-2.08-2.05-4.07a53.55,53.55,0,0,0-4-6.13c-4.78-6.64-10.92-12.11-16.84-17.7l-0.4-.38,1.77-1.05,8.54-5c1.67-1,3.46-1.74,5.19-2.58l7.89-3.85,13-5.4c0.37-.15.75-0.27,1.13-0.41L274,416l8.79-3.13c1.32-.47,2.72-0.78,4.07-1.15l10.5-2.87a261.33,261.33,0,0,1,31.62-6.62q3.28-.42,6.58-0.74c3.1-.3,6.21-0.42,9.32-0.53s6.23-.12,9.35-0.14c1.08,0,2.09,0,3.16,0l16.42,0.43,4.93,0.13c1.36,0,2.73.16,4.09,0.25l17,1c3.49,0.21,7,.53,10.47.8,4,0.32,8,.6,12,1l15.28,1.36,6.66,0.59c4.93,0.44,9.86,1.07,14.76,1.72,6.56,0.93,13,2.15,19.5,3.59,3.93,0.88,7.84,1.82,11.69,3l18.06,5.39c0.93,0.28,1.84.57,2.76,0.9l9.36,3.3c4.18,1.47,8.38,2.9,12.5,4.53q28,11,55.94,22.18L606,458.43c5.54,2.4,11.12,4.7,16.67,7,5.38,2.27,10.8,4.44,16.2,6.66,5,2.06,10,4.2,15,6.32l1.74,0.76-2.81,0c-5.7.1-11.4,0.18-17.09,0.39-2.4.09-4.8,0.06-7.21,0.06a109.72,109.72,0,0,1-11.82-.79c-3.18-.35-6.36-0.8-9.54-1.18a0,0,0,0,0,0,0c3.82,1.68,7.66,3.3,11.56,4.77a84.41,84.41,0,0,0,19.56,4.3c2.41,0.29,4.82.56,7.23,0.81,1.09,0.11,2.18.25,3.28,0.32q6.25,0.42,12.52.63c3.07,0.11,6.16.08,9.23,0.07,2.22,0,4.44,0,6.65,0l5.36,2.33c3.84,1.67,7.79,3.16,11.67,4.73,1.65,0.66,3.28,1.3,5,1.89,4.27,1.5,8.61,2.78,13,3.94,5.72,1.52,11.53,2.56,17.34,3.57,3,0.53,6,1.1,9,1.46l6.89,0.82c1.54,0.18,3.08.45,4.62,0.54l11.36,0.74c1.18,0.07,2.38,0,3.57.07l7.61,0.13c3.34,0.06,6.69,0,10,0,3.52,0,7,0,10.55-.07,3.26,0,6.51-.1,9.77-0.16,3.62-.07,7.23-0.24,10.85-0.39,3.27-.13,6.53-0.46,9.79-0.75,1.31-.12,2.62-0.21,3.92-0.41L834.4,506c1.54-.23,3.06-0.48,4.59-0.77a81,81,0,0,0,10.16-2.6,90.09,90.09,0,0,0,9-3.61,83.62,83.62,0,0,0,9.95-5.43,67.12,67.12,0,0,0,16.5-15.07c3.3-4,6.2-8.26,9.15-12.49,1.41-2,2.82-4.06,4.24-6.07,1.8-2.56,3.55-5.16,5.43-7.66q5.25-7,10.56-13.94l5.15-6.35c0.92-1.13,1.92-2.21,2.88-3.32,1.28-1.48,2.51-3,3.84-4.45a5.32,5.32,0,0,0,1.38-.81,4.45,4.45,0,0,0,1.57-1.57,17.51,17.51,0,0,0,.66-1.64,4.47,4.47,0,0,0-1.16-4.4,4.55,4.55,0,0,0-5.49-.71,17.41,17.41,0,0,0-2.87,1.94,20.32,20.32,0,0,0-1.82,1.88l-1.48.82c-1.34.73-2.71,1.4-4.07,2.09-2.89,1.45-5.77,2.91-8.68,4.3-3.12,1.49-6.23,3-9.39,4.45l-11,4.92-13.79,5.69-9.45,3.92-4.86,2c-0.54.23-1.09,0.48-1.64,0.68l-18.38,6.36c-1.63.56-3.28,1-4.93,1.55l-12.72,3.9c-5.17,1.59-10.38,3-15.58,4.47l-7.52,2.12c-0.68.19-1.37,0.32-2.05,0.49l-5,1.17-11.36,2.68c-1.44.34-2.86,0.68-4.32,0.92l-19.16,3.18-17.79,2c-5.45.61-10.93,0.95-16.39,1.38-2.2.17-4.41,0.43-6.62,0.52l-9.43.4-8.28.35c-0.54,0-1.09,0-1.63,0h-0.86l-5.6,0-8.9,0h-0.89c-9.41-4-18.82-8.08-28.28-12-6.59-2.73-13.21-5.39-19.83-8.06-6-2.42-12-4.95-18-7.43l-8.85-3.79-6.44-2.75c-1.28-.54-2.54-1.13-3.84-1.63l-20.4-8c-12.94-5.07-25.92-10-38.89-15-1-.37-2-0.68-2.95-1l-6.61-2.28-10.78-3.72c-0.95-.33-1.95-0.57-2.91-0.85l-6.62-1.94L490,407.38c-1.52-.45-3.35-0.84-4.89-1.21-2.41-.59-4.82-1.11-7.24-1.64-4.88-1.06-9.8-1.91-14.74-2.65-4.49-.67-9-1.16-13.53-1.65-2.36-.26-4.73-0.5-7.1-0.71-7.16-.61-14.33-1.28-21.5-1.82s-14.12-1.16-21.2-1.58l-13.59-.81c-2.74-.16-5.48-0.39-8.22-0.46-8.7-.21-17.41-0.57-26.12-0.51-4.68,0-9.34.19-14,.48-4.18.27-8.34,0.83-12.49,1.42-4.61.65-9.19,1.52-13.75,2.45-2.25.46-4.48,1-6.72,1.52s-4.56,1.06-6.81,1.66l-11.9,3.2-4.6,1.23c-1.24.34-2.46,0.85-3.67,1.27l-11.36,4c-0.93.32-1.82,0.73-2.73,1.11l-7.65,3.11-3.59,1.46c-1.18.48-2.32,1.06-3.47,1.6l-6.42,3c-1.25.59-2.57,1.12-3.77,1.8l-10.4,5.88q-1.11.63-2.19,1.3l-1.43-1.35c-2.3-2.17-4.49-4.48-6.66-6.78-2.46-2.61-4.67-5.45-6.87-8.29l0.68,0.88q-3.24-4.25-6.41-8.54c-2.19-3-4.21-6.08-6.18-9.21a205.81,205.81,0,0,1-11.08-20.33c-2.86-5.93-5.38-12-8-18.07q-7.15-17.23-14.43-34.41L160.17,311c-0.57-1.36-1.2-2.7-1.71-4.08l-2.65-7.16-3.34-9-1-2.64c-0.85-2.3-1.53-4.67-2.26-7q-2.81-8.93-4.84-18.07c-1.56-7-2.6-14.12-3.61-21.22q-1.16-11-2.31-22c-0.7-6.62-1.25-13.26-1.86-19.89q-0.83-9-1.69-18-0.47-5-.95-10c-0.24-2.54-.34-5.11-0.5-7.66s-0.23-5.11-.28-7.67a112.11,112.11,0,0,1,1-14.9c0.3-2.18.65-4.35,1-6.52,0.43-2.43,1-4.82,1.64-7.2a91.83,91.83,0,0,1,4.45-12.57c2.44-5.55,5.07-11,8-16.29A135.44,135.44,0,0,1,159.9,83.17c1.75-2.19,3.56-4.3,5.48-6.34a79.27,79.27,0,0,1,8.42-7.55c2.42-1.81,4.9-3.49,7.46-5.1a76.61,76.61,0,0,1,8.52-4.49L189,60q2.18-1,4.43-1.75a67.2,67.2,0,0,1,6.92-2,114.17,114.17,0,0,1,11.37-2.18c3.75-.44,7.5-0.76,11.26-1,2.27-.17,4.52-0.27,6.8-0.3a50.6,50.6,0,0,1,6.19.45l1.76,0.27A25.77,25.77,0,0,1,242,54.62l-0.87-.37A26.51,26.51,0,0,1,244.89,56a30.41,30.41,0,0,1,7.8,6.16L253.4,63c-2,1.36-3.86,2.78-5.7,4.27s-3.59,3-5.33,4.57a81.41,81.41,0,0,0-6,6.18c-1.18,1.32-2.29,2.76-3.34,4.2-1.23,1.69-2.41,3.39-3.54,5.16a25.3,25.3,0,0,0-2.34,4.79L226.46,94a20.79,20.79,0,0,0-.93,4c-0.05.41-.11,0.83-0.17,1.25a9.07,9.07,0,0,0,.08,3.21c0.08,0.55.15,1.11,0.23,1.66a14.66,14.66,0,0,0,1,2.76l0.73,1.52,2,2.52q1.19,1.07,2.47,2a17.4,17.4,0,0,0,2.93,1.45l2,0.61a25.62,25.62,0,0,0,3.28.3l2.1-.16q1.76-.22,3.52-0.53l2.29-.53q1.84-.45,3.65-1a37.92,37.92,0,0,0,4.84-1.87l2-.89a31.35,31.35,0,0,0,3.66-2.14,30.63,30.63,0,0,0,4.12-3.32l1.28-1.48a30.37,30.37,0,0,0,1.8-2.49,15.82,15.82,0,0,0,1.36-2.74,18.55,18.55,0,0,0,1.31-4l0.31-2.08a14.29,14.29,0,0,0,.19-3.37l-0.22-2.28c-0.14-1.12-.31-2.23-0.5-3.35a44.64,44.64,0,0,0-1.87-6.91,45.54,45.54,0,0,0-1.83-4.62c-0.84-1.83-1.73-3.58-2.73-5.33L265.1,66q1.87-1.17,3.77-2.32A119.55,119.55,0,0,1,283,56.39a225.07,225.07,0,0,1,21.89-7.5c3.73-1.07,7.51-1.92,11.3-2.73,2.36-.51,4.74-1,7.13-1.42l17.4-3,12.07-1.3,6.1-.65c0.93-.1,1.86-0.11,2.8-0.16l15.74-.73c3.07-.14,6.15-0.16,9.22-0.21q12.37-.23,24.73-0.32c4.4,0,8.8-.09,13.2-0.07,5.63,0,11.25.05,16.88,0.29,6.38,0.27,12.76,1,19.09,1.77,9.64,1.33,19.22,3,28.69,5.31,4.62,1.11,9.18,2.45,13.72,3.83,2.27,0.69,4.54,1.43,6.79,2.16s4.59,1.44,6.82,2.29l23.53,9c5.56,2.13,11.15,4.18,16.73,6.24L570.1,74.1c5,1.85,10.09,3.5,15.18,5.13,4.62,1.48,9.27,2.84,13.95,4.11,4.84,1.32,9.75,2.39,14.66,3.41a290.08,290.08,0,0,0,31,4.68c5,0.5,10.11.8,15.16,1.08,2.53,0.14,5.06.25,7.59,0.37,1.58,0.07,3.54.2,5.12,0.23l9.42,0.16,25.36,0.45c1.85,0,3.71,0,5.56,0l15.5-.15,11.75-.11c1.34,0,2.64-.06,4-0.12,5.89-.24,11.79-0.55,17.68-1a255,255,0,0,0,27.41-3.66c4.73-.87,9.41-1.94,14.07-3.09,5.26-1.3,10.43-2.94,15.55-4.69,8-2.75,15.95-5.87,23.73-9.28l0.32,0.1a100.08,100.08,0,0,0,14.66,2.87c4.49,0.63,9,.9,13.54,1.18,1.27,0.08,2.56.08,3.83,0.12l8.55,0.26c6.92,0.21,13.84.2,20.76,0.25,3.35,0,6.71-.09,10.06-0.14,3,0,6,0,9-.22l13.27-.94c1.18-.08,2.36-0.14,3.53-0.31L945,74,957,72.28c0.85-.12,1.69-0.37,2.52-0.55l8-1.77c2.75-.61,5.54-1.13,8.27-1.85l12.74-3.37,5.73-1.52c0.59-.15,1.18-0.3,1.76-0.48l12.87-4.12c4-1.28,8-2.54,12-3.75,4.81-1.45,9.63-2.84,14.5-4.09,5.52-1.43,11.14-2.49,16.74-3.51,9.91-1.81,19.9-3.18,29.87-4.65l4.25-.63,19.18-2.31c1.91-.23,3.82-0.52,5.74-0.68l9.68-.8,13.37-1.1c1.65-.14,3.3-0.29,5-0.4l23.11-1.49c4.84-.31,9.69-0.54,14.54-0.77l13.6-.64c2.05-.09,4.13-0.27,6.18-0.29l21.79-.14,7.14,0,4.93,0.18c2.46,0.09,4.93.23,7.4,0.36,4.9,0.28,9.78.75,14.64,1.35,15.32,2.17,30.55,5.67,44.93,11.47,3.58,1.58,7.06,3.32,10.49,5.21a94.94,94.94,0,0,1,11,7.25c2.91,2.29,5.71,4.66,8.43,7.17a77.23,77.23,0,0,1,7.21,7.84,56.21,56.21,0,0,1,3.18,4.78,42.75,42.75,0,0,1,2.38,4.9c0.83,2.1,1.56,4.21,2.22,6.37a61.86,61.86,0,0,1,1.81,8.61c0.23,2,.38,3.92.46,5.91a55.74,55.74,0,0,1-.36,8.51,29,29,0,0,1-.94,3.86,37.75,37.75,0,0,1-1.44,3.83l0.4-.95q-0.83,1.88-1.81,3.68a45.52,45.52,0,0,1-3.29,5.19,100.58,100.58,0,0,1-6.68,7.56,92.91,92.91,0,0,1-9.8,8.47,156.92,156.92,0,0,1-13.76,9.12c-2.5,1.47-5.07,2.82-7.64,4.17-1,.52-1.94,1-2.95,1.48-3.16,1.49-6.3,3-9.47,4.51q-4.6-3.6-9.36-7a114,114,0,0,0-11.33-6.88,112.29,112.29,0,0,0-11.87-5.45,75.78,75.78,0,0,0-16-4.22,80.49,80.49,0,0,0-13-1c-2.09,0-4.19.2-6.27,0.38-2.37.2-4.74,0.5-7.1,0.82-2.08.27-4.12,0.66-6.18,1.09a49,49,0,0,0-6,1.8,48,48,0,0,0-4.64,2,26.16,26.16,0,0,0-3.15,1.8c-0.79.6-1.57,1.2-2.35,1.8l-1.52,1.46q-1.08,1.25-2.07,2.57l-1.06,1.78A28.31,28.31,0,0,0,1184,158l-0.36,1.82a16.83,16.83,0,0,0-.24,3c0.05,0.39.11,0.79,0.16,1.19a11.65,11.65,0,0,0,1.09,3.82l0.45,1a17.25,17.25,0,0,0,2,3.39l0.67,0.87a19.76,19.76,0,0,0,3.06,3.4l1.42,1.11a18.24,18.24,0,0,0,2.36,1.64,37.28,37.28,0,0,0,6.58,3.08,45.41,45.41,0,0,0,11.24,2.4,61.58,61.58,0,0,0,7.5.29c1.09,0,2.11,0,3.17,0,4.5-.14,9-0.24,13.5-0.46a148.08,148.08,0,0,0,26.62-3.33,126.68,126.68,0,0,0,12.65-3.88c2.22-.77,4.41-1.66,6.59-2.53,1-.38,2-0.78,2.93-1.18l5.52,4.27c3.12,2.41,6.07,5.06,9.09,7.61,2.66,2.25,5.25,4.58,7.85,6.89l2,1.81c1.25,1.12,2.43,2.33,3.61,3.52a127.21,127.21,0,0,1,9.55,10.85c2.16,2.85,4.14,5.83,6.18,8.77,1.32,1.91,2.51,3.91,3.71,5.9a117.68,117.68,0,0,1,6,11.47c0.78,1.93,1.49,3.87,2.16,5.85,0.77,2.29,1.36,4.65,2,7s1.13,4.84,1.63,7.28c0.37,1.81.71,3.63,1,5.46l1.88,12q0.8,7.29,1.61,14.57c0.19,1.75.21,3.54,0.3,5.3q0.28,4.83.55,9.67c0.09,1.55.09,3.11,0.13,4.66q0.13,4.89.25,9.79c0.13,5,.11,10.07.16,15.11,0,4.58.06,9.15,0.08,13.73q0,2.85,0,5.7c0,2.29-.11,4.59-0.17,6.88q-0.11,4.46-.23,8.93c0,1.4-.15,2.75-0.3,4.15q-0.82,8-1.64,16.08l-1.42,9.46-1,7c-0.16,1.09-.29,2.18-0.5,3.26l-2.15,11.18c-0.65,3.37-1.25,6.75-1.95,10.1-1.47,7.05-2.87,14.13-4.42,21.16q-1.2,5.43-2.39,10.86c-0.72,3.27-1.5,6.53-2.16,9.81l-4.55,22.63c-0.3,1.5-.54,3.18-0.78,4.7-0.37,2.3-.71,4.61-1,6.92-0.6,4.19-1.07,8.39-1.47,12.61-0.63,6.73-.89,13.5-1,20.25-0.15,7.21-.33,14.41-0.38,21.61q0,6.72-.09,13.44c0,2.86,0,5.71,0,8.56,0,5.84.26,11.65,0.66,17.47a105.41,105.41,0,0,0,10.21,38.07A57.62,57.62,0,0,0,1344,650.33a53.58,53.58,0,0,0,7.75,6.42,44.32,44.32,0,0,0,9.38,4.94A68.48,68.48,0,0,0,1379,666.3a79,79,0,0,0,8.75.56,54.73,54.73,0,0,0,10.05-1.14,46.12,46.12,0,0,0,8.77-2.81q1.53-.63,3-1.35a39.4,39.4,0,0,0,5.71-3.38,37.91,37.91,0,0,0,6.75-6.29,54.24,54.24,0,0,0,5.3-7.51,79.18,79.18,0,0,0,4.54-8.67c1-2.07,1.82-4.21,2.58-6.37l1.49-4.22a59,59,0,0,0,2.27-9.15,64.94,64.94,0,0,0,.79-7,21.44,21.44,0,0,0-.07-3.17,18.66,18.66,0,0,0-.82-4.11c-0.34-.83-0.7-1.65-1.07-2.47l-0.9-1.41q-0.87-1.16-1.82-2.26a16.09,16.09,0,0,0-2.37-2.07l-1.54-1.15a16.42,16.42,0,0,0-3.57-1.87,18,18,0,0,0-5.71-1.49,13.79,13.79,0,0,0-3.68-.08l-1.29.17a24.44,24.44,0,0,0-7.37,2l-2.18.95a35.24,35.24,0,0,0-3.81,2.12q-1.69,1.09-3.27,2.33c-1.52,1.13-2.93,2.36-4.35,3.61a45.16,45.16,0,0,0-4,4.07c0.19-1.4.36-2.81,0.54-4.21,0.3-2.41.67-4.82,0.83-7.25q0.34-5,.68-10.07c0.17-2.51.16-5,.24-7.54a80.94,80.94,0,0,0-.35-13.62q-0.23-2.07-.67-4.12a34.77,34.77,0,0,0-1.48-5.1c-0.45-1.08-.92-2.16-1.39-3.24a20.4,20.4,0,0,0-3-4.69,28.88,28.88,0,0,0-2.46-2.84l-0.92-.71a6.28,6.28,0,0,0-2.44-1.43,7.59,7.59,0,0,0-2.76-.64l-1.23-.16c-0.86.09-1.71,0.2-2.56,0.32a28.33,28.33,0,0,0-2.73,1.26c-0.83.63-1.65,1.28-2.46,1.94a27.84,27.84,0,0,0-2.64,2.95,37.47,37.47,0,0,0-2.93,4.2,38.17,38.17,0,0,0-1.82,3.56c-0.74,1.55-1.33,3.18-1.93,4.79a56.11,56.11,0,0,0-2.57,11.91c-0.51,3.64-.84,7.3-1.07,11a87.18,87.18,0,0,0,.23,12.08,99.61,99.61,0,0,0,1.4,10.2,53.43,53.43,0,0,0,3.43,10.91,81.54,81.54,0,0,0,9.75,16.7c2.36,3.21,4.89,6.3,7.42,9.38q5.13,6.25,10.48,12.31s0,0,0,0c-1.89-3.48-3.8-6.95-5.68-10.43q-2-3.73-4.07-7.44c-0.83-1.51-1.63-3-2.45-4.54q-1.07-2-2.09-4c-1-1.91-1.84-3.87-2.69-5.84-1.43-3.43-2.75-6.88-3.86-10.43a73.66,73.66,0,0,1-2.25-10.85,110.19,110.19,0,0,1-.86-13.14,100.55,100.55,0,0,1,1.06-13.47c0.37-2.43.8-4.82,1.32-7.22a45.58,45.58,0,0,1,2.09-6.5l-0.47,1.11q0.74-1.86,1.66-3.64a29.18,29.18,0,0,1,2.79-4.46l0.9-1.09a15.22,15.22,0,0,1,2.9-2.68l-0.94.73,0.7-.35,0.29,0,0.43,0.13,0.43,0.29a25.33,25.33,0,0,1,1.76,1.89l0.92,1.31a26.38,26.38,0,0,1,1.72,3.22,30.86,30.86,0,0,1,1.07,3.32,35.61,35.61,0,0,1,.79,3.78c-0.05-.39-0.11-0.78-0.16-1.18q0.32,2.07.45,4.15c0.07,1.3.1,2.59,0.07,3.89,0,1.54-.06,3.09-0.14,4.63q-0.2,4.24-.4,8.48c-0.08,1.77-.26,3.54-0.4,5.31q-0.29,3.52-.57,7c-0.43,3.18-.81,6.36-1.33,9.53l-1.08,6.71c-0.26,1.59-.49,3.18-0.73,4.77a52.09,52.09,0,0,0-.53,6.14,4.75,4.75,0,0,0,6,4.58,4.93,4.93,0,0,0,2.84-2.18c0.59-.89,1.13-1.77,1.68-2.68s1.31-2,2-2.94c0.81-1.17,1.68-2.29,2.55-3.42,1.24-1.49,2.5-2.94,3.82-4.37a56.64,56.64,0,0,1,6.39-5.82q1.4-1,2.87-2a31.39,31.39,0,0,1,4.93-2.53l2.2-.72a23.63,23.63,0,0,1,4-.75l-1.29.18a14.58,14.58,0,0,1,2.75,0,18,18,0,0,1,2.66.69l0.93,0.41a21.1,21.1,0,0,1,2.46,1.54,15.86,15.86,0,0,1,2,2,11.07,11.07,0,0,1,.88,1.5,11.87,11.87,0,0,1,.52,1.94,20.12,20.12,0,0,1,.1,2.37,36.67,36.67,0,0,1-.36,5,57.65,57.65,0,0,1-2.26,9.52l-1.16,3.43c-0.52,1.52-1.11,3-1.72,4.47-1,2.16-2,4.27-3.14,6.37a67.71,67.71,0,0,1-4.58,7.26l0.67-.87a38.76,38.76,0,0,1-2.59,3.12,34.22,34.22,0,0,1-4.09,3.82,32.87,32.87,0,0,1-3.25,2.07q-1.82,1-3.71,1.87c-1.89.78-3.79,1.45-5.75,2.06a40.79,40.79,0,0,1-5.93,1.25c-2.12.21-4.2,0.34-6.33,0.39a59,59,0,0,1-8.1-.58c-2-.31-3.89-0.67-5.84-1.09a60.74,60.74,0,0,1-8.44-2.62l-1.38-.59q-2.21-1-4.32-2.19a37.79,37.79,0,0,1-5.07-3.47q-1.74-1.41-3.35-3a39.47,39.47,0,0,1-3.82-4.28c-1.15-1.58-2.23-3.17-3.27-4.83a61.27,61.27,0,0,1-4-7.73c-1.38-3.41-2.61-6.87-3.73-10.38a98.86,98.86,0,0,1-3.18-13.72c-0.8-6.27-1.18-12.58-1.36-18.91-0.13-4.77-.07-9.55,0-14.32q0.06-8.64.13-17.28c0-5.36.24-10.72,0.36-16.08,0.07-3,.18-6,0.32-9,0.33-7,.91-13.88,1.8-20.79,0.78-5.55,1.64-11.08,2.78-16.57q1.56-7.55,3.13-15.09c1.42-6.84,3-13.64,4.55-20.46,1.59-7,3.08-14,4.6-21s2.91-14.13,4.32-21.21c0.44-2.21.91-4.4,1.26-6.63l2.28-14.56c0.36-2.27.72-4.54,1-6.83q0.8-7.39,1.6-14.79c0.09-.86.25-1.74,0.27-2.6l0.14-4.41q0.2-6.42.4-12.83c0-.87,0-1.75,0-2.63V341.4c0-3.09,0-6.17,0-9.25,0-7.74-.07-15.47-0.22-23.21-0.06-2.85-.08-5.7-0.23-8.54q-0.34-6.64-.68-13.28c-0.05-1-.21-2-0.31-3l-0.77-7.25q-0.26-2.5-.53-5c-0.15-1.44-.41-2.86-0.64-4.29-0.65-4.18-1.25-8.37-2-12.52-0.89-4.86-2-9.64-3.37-14.4a81.67,81.67,0,0,0-5.59-14c-1.9-3.82-4.09-7.5-6.37-11.11-1-1.66-2.18-3.24-3.3-4.84l-3.49-5c-0.63-.9-1.33-1.77-2-2.63q-2.57-3.24-5.3-6.34c-1.45-1.66-3-3.24-4.51-4.82-1-1.06-2.16-2.23-3.25-3.2l-4.18-3.74q-3.84-3.44-7.75-6.8c-2.42-2.07-4.8-4.21-7.31-6.19l-2.9-2.28,5-2.33a160.39,160.39,0,0,0,18-9.91c3.75-2.38,7.3-5,10.8-7.75a95.42,95.42,0,0,0,10.18-9.2,74.77,74.77,0,0,0,7.43-9.21,43.92,43.92,0,0,0,3-5.43,49.82,49.82,0,0,0,2.63-6.66,24.85,24.85,0,0,0,1.05-5.23l0.23-2.29q0.15-2.31.09-4.63a66.12,66.12,0,0,0-1.3-11.82,56.18,56.18,0,0,0-3.86-12.36,49.46,49.46,0,0,0-6.49-11.29,89.43,89.43,0,0,0-9-9.5c-3-2.75-6.22-5.21-9.44-7.66A104.94,104.94,0,0,0,1310.75,47,113.48,113.48,0,0,0,1297,40.51a141.61,141.61,0,0,0-13.93-4.65c-4.83-1.41-9.73-2.57-14.64-3.65A213.75,213.75,0,0,0,1237.84,28c-5.16-.37-10.34-0.61-15.51-0.62h-25.54c-2.5,0-5,.19-7.5.29l-14.85.59c-2.5.1-5,.16-7.5,0.3l-25.29,1.46c-6.53.38-13.05,0.93-19.58,1.43l-10.95.83c-2.66.2-5.32,0.59-8,.89-6.79.77-13.59,1.43-20.35,2.38l-18.34,2.58c-8.79,1.23-17.54,2.71-26.22,4.54-6.52,1.38-12.94,3.23-19.34,5.11q-4.38,1.28-8.73,2.64l-16.45,5.16c-1.3.41-2.65,0.69-4,1l-10.4,2.7-5.89,1.53c-1.84.48-3.73,0.81-5.59,1.21l-9.46,2.05c-1.45.32-2.89,0.66-4.36,0.87l-14.84,2.11-17.34,1.1c-0.61,0-1.22,0-1.83,0h-0.87l-5.94,0c-2.92,0-5.85.11-8.77,0.05l-9.68-.16c-2.58,0-5.17,0-7.75-.14l-11.88-.48c-5.18-.2-10.34-0.59-15.49-1.21q-2-.31-4.08-0.68l0.21-.11a85,85,0,0,0,12.54-7.88c1.34-1,2.64-2,4-3a53.33,53.33,0,0,0,4.55-4.16,30.37,30.37,0,0,0,3-3.48L881,45.46a28.38,28.38,0,0,0,2.3-3.95l0.35-.82A18.57,18.57,0,0,0,885,36.41l0.13-1a12.46,12.46,0,0,0,.2-4.45,10.89,10.89,0,0,0-1-3.7,16,16,0,0,0-1.73-3.45q-0.85-1.17-1.73-2.3a24.38,24.38,0,0,0-3.57-3.14l-1.58-1.09q-1.61-1-3.31-1.88a41,41,0,0,0-5-2.11A58.16,58.16,0,0,0,861,11.49,84.2,84.2,0,0,0,848.81,9.6c-2.54-.26-5.06-0.37-7.6-0.42h-0.4a46.79,46.79,0,0,0-7.68.88h0Zm5.55,7.66a40.42,40.42,0,0,1,5.05-.08q2.54,0.12,5.07.36,1.86,0.16,3.72.39A75.42,75.42,0,0,1,867.18,22q1.4,0.62,2.75,1.34a30.16,30.16,0,0,1,3.29,2l-0.81-.63,1.5,1.16a16.25,16.25,0,0,1,2,2,16.08,16.08,0,0,1,1.52,2.56L877.91,32l-0.14-1a12.45,12.45,0,0,1,.18,4l0.07-.55q0,0.28-.07.55t-0.06.41L878,35a20,20,0,0,1-1,3.83l0.34-.82a29.06,29.06,0,0,1-3.77,6.83c-1.2,1.48-2.43,2.88-3.74,4.26a63.1,63.1,0,0,1-6.26,5.46c-1.52,1.16-3,2.28-4.61,3.37a70,70,0,0,1-7.61,4.39q-1.67.87-3.37,1.7l-0.17,0a80.07,80.07,0,0,1-10.53-3.47c-1.64-.71-3.24-1.46-4.83-2.27a55.31,55.31,0,0,1-6.77-4.22l0.89,0.68a32.49,32.49,0,0,1-3-2.5,27.58,27.58,0,0,1-2.35-2.5l-0.75-1a24.34,24.34,0,0,1-2-3.35l-0.3-.72a19.62,19.62,0,0,1-.85-3.29c-0.06-.72-0.12-1.43-0.17-2.14a26,26,0,0,1,.12-3.83,26.21,26.21,0,0,1,.68-3,26.85,26.85,0,0,1,1.49-4l-0.43,1a21.08,21.08,0,0,1,1.93-3.33L821.87,25a23.7,23.7,0,0,1,2.34-2.16,23.38,23.38,0,0,1,2.49-1.61,29,29,0,0,1,3.54-1.68l-1,.43a33.53,33.53,0,0,1,4-1.3q1.84-.48,3.71-0.78l1.78-.2h0Zm27.56,3.88,0.49,0.2-0.49-.2h0ZM824,23l-0.39.3L824,23h0ZM876,28l0.48,0.62L876,28h0Zm-58.78,8,0,0.27,0-.27h0Zm0,4.38,0.1,0.73q-0.05-.36-0.1-0.73h0Zm1.35,5.17,0.39,0.92-0.39-.92h0ZM258.57,70.33a42,42,0,0,1,2.15,4.43q0.7,1.75,1.27,3.54a48.49,48.49,0,0,1,1.67,6.86l0.17,1.26a20.43,20.43,0,0,1,.11,4l-0.25,1.44a18.68,18.68,0,0,1-1.41,4l0.43-1a17.13,17.13,0,0,1-1.46,2.41,17.43,17.43,0,0,1-2.46,2.48,32.24,32.24,0,0,1-6.9,3.8l1.06-.45c-1.86.72-3.7,1.35-5.62,1.89a45.11,45.11,0,0,1-5.61,1.16,14.53,14.53,0,0,1-2.65,0l-1.22-.4-1.07-.6-0.88-.77,0.73,0.94a9.1,9.1,0,0,1-1.47-2.09l-0.47-1.57,0.1,0.71,0.29,0.69q-0.16-.32-0.29-0.66l0.07,0.5q-0.06-.3-0.11-0.61l0-.1,0,0.08a10.54,10.54,0,0,1-.09-2.27l0.27-1.49a28.59,28.59,0,0,1,1-3.3l0.6-1.33a35.4,35.4,0,0,1,2.1-3.59c1-1.52,2.05-3,3.14-4.41,1.71-2.08,3.48-4,5.36-6a86.23,86.23,0,0,1,8.27-7.32q1.56-1.16,3.15-2.26h0Zm2.68,26.91q-0.32.45-.67,0.87l0.67-.87h0ZM237.92,106l0.76,0.1-0.76-.1h0ZM134.17,142l-0.07.48,0.07-.48h0Zm1186.13,3.18-0.36.28,0.36-.28h0Zm-94.93,3.51a66.88,66.88,0,0,1,10.94.64c3,0.48,5.95,1.09,8.9,1.83a74.33,74.33,0,0,1,8.8,3c2,0.85,3.9,1.74,5.83,2.67,2.65,1.28,5.21,2.75,7.75,4.23a117.93,117.93,0,0,1,10.36,7c-3.5,1.36-7,2.63-10.61,3.78-2.07.67-4.18,1.23-6.28,1.79a86.16,86.16,0,0,1-9.3,1.77c-2.13.27-4.27,0.52-6.41,0.73s-4.4.32-6.6,0.44c-2.63.14-5.26,0.23-7.89,0.31l-7.06.2a98.52,98.52,0,0,1-11.41-.3l1.06,0.14q-2-.25-4.07-0.65a39.44,39.44,0,0,1-6.07-1.74l1,0.41a32.24,32.24,0,0,1-4-1.87,26.21,26.21,0,0,1-2.85-1.84,16.27,16.27,0,0,1-2-2l-1-1.31a17.44,17.44,0,0,1-1.8-3.48l0.45,1a11.6,11.6,0,0,1-.91-3.87c0.05,0.39.11,0.79,0.16,1.19l0.1-1.36a11.86,11.86,0,0,1,.48-1.66l1-1.63a18.31,18.31,0,0,1,2.28-2.27l-0.93.72a18.25,18.25,0,0,1,3-2q1.41-.78,2.88-1.45c1.69-.68,3.38-1.26,5.13-1.79a56.47,56.47,0,0,1,8.46-1.69c3.55-.42,7.08-0.78,10.65-0.93h0Zm-31.87,9.94-0.22.28,0.22-.28h0Zm-0.12,0-0.45,1.07q0.2-.54.45-1.07h0Zm4.24,12.67,0.47,0.37-0.47-.37h0ZM701.18,487.81l10.81-.66c1.07-.06,2.14-0.2,3.21-0.3l8.36-.79,6.7-.63c0.8-.08,1.61-0.13,2.41-0.23l12.81-1.63,6.26-.79c0.89-.11,1.81-0.2,2.69-0.36l12.28-2.2,6.44-1.16c0.75-.14,1.53-0.23,2.27-0.41l11.71-2.92,9-2.24c2.24-.56,4.45-1.29,6.66-1.94,5.91-1.73,11.84-3.43,17.71-5.29l11.71-3.7c1.84-.58,3.69-1.15,5.52-1.8l11.75-4.14,4.67-1.64c0.62-.22,1.24-0.43,1.84-0.68,5.44-2.28,10.87-4.59,16.32-6.84,5.82-2.41,11.67-4.76,17.43-7.29s11.33-5,17-7.59q-3.18,4.09-6.23,8.26l-5.38,7.33c-1.73,2.36-3.33,4.82-5,7.22-3.6,5.23-7.11,10.51-10.86,15.63-1.83,2.33-3.74,4.59-5.74,6.78a57,57,0,0,1-6.74,6.07q-1.53,1.15-3.14,2.19-1.93,1.25-3.94,2.37a83,83,0,0,1-7.7,3.84,92.53,92.53,0,0,1-9.08,3.16q-2.06.56-4.15,1c-1.42.31-2.95,0.61-4.39,0.82l-8.57,1.28-4.66.41c-1.7.15-3.42,0.37-5.13,0.44-3.62.15-7.24,0.38-10.86,0.46-7.27.15-14.53,0.29-21.8,0.33-3.6,0-7.21.09-10.81,0l-7.61-.11c-1.35,0-2.7,0-4-.09l-6.45-.39c-1.58-.1-3.19-0.12-4.77-0.3l-11.76-1.36-9.7-1.65q-8.07-1.38-16-3.45A134,134,0,0,1,697.35,488l3.82-.24h0ZM224.25,441l1.12,1.07,4.81,4.59,3.6,3.44a86.55,86.55,0,0,1,6.66,7.29c1.29,1.7,2.51,3.42,3.69,5.2A47.71,47.71,0,0,1,248,470q0.72,1.84,1.26,3.73a23.9,23.9,0,0,1,1,9.16,57,57,0,0,1-.54,6.06c-0.45,2.7-1,5.36-1.6,8a46.72,46.72,0,0,1-2.31,6.72,82,82,0,0,1-3.89,7.39c-1.38,2.33-3,4.54-4.55,6.72-1.09,1.38-2.22,2.72-3.38,4.06q-1.41,1.62-2.92,3.13a29,29,0,0,1-2.36,2.12,33.26,33.26,0,0,1-3.27,2.1q-1.4.78-2.87,1.43a28.94,28.94,0,0,1-3.36,1.12,34.51,34.51,0,0,1-3.8.77q-1.43.17-2.87,0.25a42.75,42.75,0,0,1-7.2-.21q-1.77-.26-3.51-0.66a32.42,32.42,0,0,1-4.18-1.23l-1.31-.57a27.82,27.82,0,0,1-3.56-2.13l-1-.81a20.73,20.73,0,0,1-2.34-2.4l-1.1-1.59a19.66,19.66,0,0,1-1.84-3.78l0.43,1a16.27,16.27,0,0,1-.79-3.83c0.05,0.37.1,0.75,0.15,1.12-0.11-1.32-.19-2.65-0.23-4a58.12,58.12,0,0,1,.24-6.65c0.25-3.39.56-6.78,1-10.15,0.34-2.14.73-4.26,1.15-6.39,0.3-1.44.66-2.87,1.07-4.29q0.51-1.75,1.18-3.44a100.4,100.4,0,0,1,5.55-10.29,128.75,128.75,0,0,1,7.56-10.82c3-3.75,6-7.37,9.34-10.83a100.93,100.93,0,0,1,9.14-8.39q1-.75,2-1.48h0Zm643.17,42.43-0.23.17,0.23-.17h0Zm465,23.71,0,0.35,0-.35h0ZM238,517l-0.24.31L238,517h0Zm-49.08,7,0.27,0.34-0.27-.34h0Zm39.8,3.08-0.78.6,0.78-.6h0Zm-6.39,3.62-0.38.16,0.38-.16h0Zm-5.79,1.62-1,.13,1-.13h0Zm-11,.2,1,0.14-1-.14h0Zm1177,22.19q0.2,0.46.39,0.92l-0.39-.92h0Zm-16.38,15.94c0,0.39-.1.77-0.15,1.16l0.15-1.16h0Zm54.57,27.94,0.47,0.06-0.47-.06h0Zm5.78,2.72,0.64,0.5-0.64-.5h0Zm-95.32,3.26,0.07,0.53-0.07-.53h0Zm98.21,0.54,0.1,0.24-0.1-.24h0Zm0.22,0.69,0,0.25,0-.25h0ZM234.74,102.29l0,0.11v0l0-.1v0h0ZM878,35h0Z"/></svg>
