<svg id="Background" xmlns="http://www.w3.org/2000/svg" xmlns:xlink="http://www.w3.org/1999/xlink" viewBox="0 0 1536 700"><defs><style>.cls-1{fill:#fff570;}.cls-2{fill:#1021aa;}</style></defs><title>Radiant 1</title><image id="Background-2" data-name="Background" width="1" height="1" transform="scale(1536 700)" /><path class="cls-1" d="M1222.73,164a69.27,69.27,0,0,0-15,2.12c-3.91.93-7.8,2-11.61,3.25a109.24,109.24,0,0,0-20.1,9,74.1,74.1,0,0,0-10.62,1c-4.91.73-9.26,2.57-13.79,4.59a29.18,29.18,0,0,0-4.41,2.53,63,63,0,0,0-7.54,6,55.89,55.89,0,0,0-5.81,7c-1.09,1.41-2.08,2.87-3,4.39-2.71,4.38-4.57,9.36-6.39,14.15a106.82,106.82,0,0,0-5.38,22.79,142.92,142.92,0,0,0-1.55,15,84.44,84.44,0,0,0,1.13,15.78c1.32,8.87,4.7,17.27,8.88,25.17a70.3,70.3,0,0,0,5.63,8.84,99.68,99.68,0,0,0,9.85,11.71,103.11,103.11,0,0,0,11.15,9.16,74.84,74.84,0,0,0,9.85,6.09q4.37,2.29,8.92,4.15,0.67,0.37,1.36.71a65.5,65.5,0,0,0,9.92,5.53,90.21,90.21,0,0,0,13.93,5.12,120.83,120.83,0,0,0,15.77,2.73,74.21,74.21,0,0,0,27.29-1.56,72.93,72.93,0,0,0,13.58-5.26c4.68-2.25,8.84-5.59,12.89-8.77a105.26,105.26,0,0,0,10.69-10.14c1.89-2,3.86-3.88,5.68-5.91,7.18-8,14.43-16,20-25.23a92.39,92.39,0,0,0,5.1-9.79,141.36,141.36,0,0,0,5.82-14.77,86,86,0,0,0,2.67-10.5,102.3,102.3,0,0,0,1.94-16,77.08,77.08,0,0,0-1.39-14.71c-0.83-5-3-9.86-5.34-14.33a77.22,77.22,0,0,0-16.7-20.34,129.09,129.09,0,0,0-21.79-15.42,107.09,107.09,0,0,0-10-4.89,133.87,133.87,0,0,0-14.65-5.55A74.31,74.31,0,0,0,1239,165.4a111.06,111.06,0,0,0-15.48-1.39h-0.81Z"/><path class="cls-1" d="M1188.85,158.75a106.72,106.72,0,0,0-13.9,5.18c-3.65,1.54-7.25,3.19-10.79,5a131.14,131.14,0,0,0-19.24,11.54,99.6,99.6,0,0,0-11,9,105.2,105.2,0,0,0-9.57,11.67A50.19,50.19,0,0,0,1119,210a99.14,99.14,0,0,0-5.43,14.36,85.75,85.75,0,0,0-2.07,9.06c-1.3,4-2.44,8-3.41,12.09-1,4.35-1.85,8.77-2.5,13.22a135.61,135.61,0,0,0-3,19.23,63.41,63.41,0,0,0-.23,11.55,101.65,101.65,0,0,0,2.35,15.68,75.58,75.58,0,0,0,5.16,13.73,58.28,58.28,0,0,0,5.1,8.86A106.43,106.43,0,0,0,1128.77,348a96.73,96.73,0,0,0,19.3,17.37,67.51,67.51,0,0,0,9.31,5.29,106.92,106.92,0,0,0,14.54,5.82c1.36,0.42,2.74.79,4.13,1.13q2.47,0.92,5,1.73a154.21,154.21,0,0,0,27.22,5.59,138.8,138.8,0,0,0,23.61,1.4c8.85-.36,17.86-1.53,26.22-4.54a100.41,100.41,0,0,0,13.48-6,92,92,0,0,0,12.91-9,70.11,70.11,0,0,0,11.71-11.94,73.9,73.9,0,0,0,8-7,97.84,97.84,0,0,0,9.55-12,66.67,66.67,0,0,0,5.43-9.39c1.23-2.55,2.38-5.17,3.42-7.83q2.71-3.88,5.24-7.86a150.91,150.91,0,0,0,11.81-23.58,108.54,108.54,0,0,0,6.54-22.45c1.64-9.18,2.64-18.45,1.41-27.72a87,87,0,0,0-3-15.07,78.59,78.59,0,0,0-6.38-14.6,82.22,82.22,0,0,0-8.66-11.92,58.53,58.53,0,0,0-8.15-8,100.82,100.82,0,0,0-22-13.65c-4.54-2.08-9.15-3.91-13.79-5.76-2.21-.88-4.41-1.86-6.67-2.61l-9.55-3.19c-2.56-.86-5.23-1.44-7.84-2.15a141.11,141.11,0,0,0-21.58-3.73,227.58,227.58,0,0,0-23.59-1.2h-0.5a104.5,104.5,0,0,0-27,3.51h0Zm101.46,52c2,1.17,4,2.43,6,3.79a61.75,61.75,0,0,1,7.16,7.23,57.06,57.06,0,0,1,4.71,8q0.58,1.59,1.06,3.2l-0.56-.64a119.45,119.45,0,0,0-14.93-14.5,18.78,18.78,0,0,0-3.4-7.11h0Zm-89,33.28q1-.87,2-1.72l1.77,0.19a112.1,112.1,0,0,1,23.44,6.15,68.27,68.27,0,0,1,10.71,5.95,52.38,52.38,0,0,1,5.45,5.4,52.74,52.74,0,0,1,4.11,7,57.33,57.33,0,0,1,2.5,8.92,72.69,72.69,0,0,1-.43,13,84.5,84.5,0,0,1-4.43,16.43,79.83,79.83,0,0,1-7.29,12.7,54.69,54.69,0,0,1-5.83,5.83,45.46,45.46,0,0,1-5.64,3.3,46.44,46.44,0,0,1-6.78,1.88,143.55,143.55,0,0,1-18.15.28c-4.13-.15-8.24-0.35-12.34-0.67l-0.76-.3a91.3,91.3,0,0,1-15.56-8.92,79.31,79.31,0,0,1-10.37-10.18,100.86,100.86,0,0,1-9.86-16.9,110.7,110.7,0,0,1-3.71-11.5,113.58,113.58,0,0,1,3.93-11.57,95.37,95.37,0,0,1,9-16,51.66,51.66,0,0,1,5.44-5.44,45.73,45.73,0,0,1,5.75-3.33l1.17-.41a18.57,18.57,0,0,0,12.9,5.24c5.11,0,9.35-2.08,13.08-5.42h0Z"/><path class="cls-1" d="M1346.7,139l-8.36,5.57a3.39,3.39,0,0,0-1.49,1.94,3.25,3.25,0,0,0,4.77,3.67l8.36-5.57a3.39,3.39,0,0,0,1.49-1.94,3.26,3.26,0,0,0-.33-2.5,3.42,3.42,0,0,0-2.89-1.63,2.79,2.79,0,0,0-1.56.46h0Z"/><path class="cls-1" d="M1416.65,85.38a28.51,28.51,0,0,1-3.67,3.94c-1.31,1.16-2.64,2.27-4,3.38-2.61,2.16-5.3,4.23-8,6.32-2.46,1.88-4.9,3.78-7.43,5.56-2.81,2-5.61,4-8.48,5.88q-10,6.65-20.14,13.24-5.54,3.63-11.2,7.07A158.39,158.39,0,0,1,1333.7,141l-2.77,1.17a3.12,3.12,0,0,0-1.5,1.95,3.25,3.25,0,0,0,2.27,4l0.86,0.12a3.27,3.27,0,0,0,1.64-.45l0.49-.21c4.48-1.9,8.91-3.92,13.26-6.11,4.57-2.3,8.94-5,13.27-7.67,4.14-2.59,8.21-5.27,12.3-7.94,2.57-1.68,5.14-3.36,7.7-5.05l6.19-4.1c1.16-.77,2.35-1.51,3.48-2.31l8-5.62c1.39-1,2.7-2.07,4.05-3.09,1.14-.87,2.28-1.75,3.41-2.63,2.52-2,5-3.93,7.5-6,1.34-1.11,2.65-2.21,3.95-3.36a27.6,27.6,0,0,0,3.48-3.77l0.51-.66a3.25,3.25,0,0,0-2.8-4.89,3.11,3.11,0,0,0-2.3,1h0Z"/><path class="cls-1" d="M1375.16,281.33a3.28,3.28,0,0,0,2.27,4q7.6,1.9,15.18,3.85c3.07,0.79,6.15,1.54,9.21,2.39q11,3,21.89,6c3.16,0.88,6.34,1.73,9.48,2.66l7.23,2.14c1.14,0.34,2.3.65,3.43,1,3.43,1.17,6.89,2.29,10.29,3.52,3.73,1.36,7.45,2.73,11.14,4.17l0.17,0.06a75.63,75.63,0,0,1,7.47,3.54,3.25,3.25,0,1,0,3.28-5.61,78.91,78.91,0,0,0-10.33-4.71c-3.49-1.36-7-2.63-10.53-3.92-3.36-1.22-6.77-2.31-10.16-3.46-1.47-.5-3-0.89-4.48-1.33l-6.77-2c-3.33-1-6.69-1.87-10-2.8l-8.32-2.3L1403,285.14c-3.39-.93-6.81-1.76-10.21-2.63q-6.81-1.75-13.64-3.45a3.41,3.41,0,0,0-.83-0.1,3.26,3.26,0,0,0-3.17,2.37h0Z"/><path class="cls-1" d="M1317.51,400.48a3.26,3.26,0,0,0-2.27,4,3.45,3.45,0,0,0,1.49,1.94q4.82,3.43,9.54,7l7,5.23,8.67,7.34,4.49,3.8c0.62,0.52,1.21,1.08,1.8,1.63q3,2.73,5.82,5.56a144.57,144.57,0,0,1,10.41,11.46c1.57,1.93,3.09,3.89,4.61,5.86l0.13,0.16,0.12,0.17c0.32,0.41.61,0.83,0.91,1.25l4.37,6c2.65,3.64,5.26,7.32,8,10.91,1.58,2.1,3.13,4.22,4.77,6.27a75.54,75.54,0,0,0,5.51,6.41,3.25,3.25,0,1,0,4.6-4.6,77.9,77.9,0,0,1-5.84-6.83c-4.17-5.53-8.23-11.13-12.31-16.72l-4-5.47-0.82-1.11a3.16,3.16,0,0,0-.29-0.39c-1.91-2.54-3.91-5-5.92-7.46a144.53,144.53,0,0,0-10.51-11.36c-2.26-2.21-4.53-4.45-6.95-6.49l-7.93-6.71L1339,415c-0.67-.57-1.32-1.14-2-1.66l-7.7-5.77q-4.61-3.45-9.29-6.79a2.79,2.79,0,0,0-1.6-.45,3.45,3.45,0,0,0-.91.12h0Z"/><path class="cls-1" d="M1202.53,420.24a3.4,3.4,0,0,0-.95,2.3c-0.35,4.85-.61,9.71-0.89,14.56-0.2,3.41-.17,6.84-0.12,10.25,0.07,5.29.46,10.55,1,15.82,0.82,8.11,1.79,16.2,2.77,24.3,1.31,10.82,2.71,21.62,3.76,32.46a3.45,3.45,0,0,0,1,2.3,3.24,3.24,0,0,0,4.59,0,3.13,3.13,0,0,0,1-2.3c-1.35-14-3.27-27.9-4.87-41.85-1.15-10-2.44-20-2.64-30.09,0-1.93,0-3.86,0-5.79,0-1.34,0-2.7.07-4l0.25-4.34c0.21-3.77.43-7.53,0.71-11.29a3.25,3.25,0,0,0-5.55-2.3h0Z"/><path class="cls-1" d="M1103.18,399.74q-2.53,2.51-5,5.07a71.8,71.8,0,0,0-5.15,6,84.09,84.09,0,0,0-7.91,12.59c-1.71,3.33-3.23,6.75-4.92,10.09l-2.93,5.79-2.84,5.61c-0.57,1.13-1.25,2.2-1.89,3.3-1.86,3.22-3.73,6.43-5.65,9.61-2.1,3.48-4.12,7-6.23,10.47-1.07,1.75-2.1,3.54-3.24,5.25s-2.32,3.41-3.53,5.09a38.1,38.1,0,0,1-3,3.37,3.25,3.25,0,1,0,4.6,4.59,57.86,57.86,0,0,0,7.4-9.57c1.93-2.89,3.65-5.92,5.42-8.91,1.94-3.28,3.91-6.54,5.87-9.8,1.86-3.08,3.62-6.22,5.42-9.33,0.68-1.18,1.26-2.42,1.88-3.63l3.86-7.65c1.57-3.11,3-6.27,4.58-9.41a87.66,87.66,0,0,1,8.73-14.22,110.29,110.29,0,0,1,9.09-9.74,3.28,3.28,0,0,0,0-4.6,3.28,3.28,0,0,0-4.59,0h0Z"/><path class="cls-1" d="M1060.46,335.83c-5.22,1-10.45,2-15.68,3-1.75.33-3.55,0.52-5.32,0.77l-5.66.81q-11.06,1-22.12,2c-7.19.65-14.37,1.41-21.55,2.06-4,.36-7.93.91-11.87,1.48-4.29.63-8.58,1.25-12.85,2a3.15,3.15,0,0,0-1.94,1.5,3.25,3.25,0,0,0,1.17,4.45,3.45,3.45,0,0,0,2.5.33c5-.93,10-1.63,15.06-2.36,3.28-.4,6.55-0.8,9.84-1.1q5.7-.52,11.39-1.09c6.73-.68,13.47-1.28,20.21-1.86l10.11-.88c1.07-.09,2.14-0.29,3.2-0.44l6.09-.87c1.09-.16,2.21-0.26,3.3-0.47l3.83-.73c4-.76,8-1.52,12-2.32a3.25,3.25,0,0,0,.78-5.94,3.1,3.1,0,0,0-1.6-.42,4.64,4.64,0,0,0-.91.1h0Z"/><path class="cls-1" d="M974.08,177a3.29,3.29,0,0,0,1.16,4.45,91.88,91.88,0,0,0,10.3,5.16c3.22,1.43,6.5,2.73,9.78,4l3.46,1.37c0.57,0.22,1.13.48,1.71,0.68l5,1.65c3,1,6,2.05,9,2.91L1028,201c2.57,0.72,5.18,1.31,7.77,1.93l12.81,3.11c3.12,0.76,6.27,1.42,9.4,2.13q8.13,1.83,16.23,3.77c5.9,1.4,11.82,2.71,17.75,4a3.39,3.39,0,0,0,2.5-.33,3.25,3.25,0,0,0-.78-5.94c-8.33-1.78-16.62-3.71-24.91-5.68-6.14-1.46-12.34-2.71-18.48-4.2l-12.8-3.1c-2.59-.63-5.2-1.21-7.77-1.93l-13.57-3.82c-3-.86-6-1.91-9-2.91l-4.87-1.63c-1.48-.49-2.91-1.14-4.36-1.72-3-1.17-5.92-2.39-8.87-3.61a94.52,94.52,0,0,1-10.55-5.27,3.08,3.08,0,0,0-1.6-.44,3.31,3.31,0,0,0-2.84,1.61h0Z"/><path class="cls-1" d="M1127.75,45.6a3.27,3.27,0,0,0-1.17,4.45c2.09,3.21,4.15,6.43,6.22,9.65,1,1.53,2,3,3,4.54,0.91,1.36,1.92,2.65,2.89,4,2.27,3.07,4.59,6.09,6.91,9.13s4.84,5.95,7.28,8.9c0.61,0.73,1.18,1.51,1.83,2.21l2.31,2.5,7.23,7.8c0.43,0.47.91,0.89,1.37,1.33l4.2,4q4.49,4.29,9.06,8.51a3.25,3.25,0,0,0,4.6-4.59c-3.75-3.45-7.44-7-11.12-10.48l-3.35-3.2c-0.3-.29-0.57-0.61-0.84-0.91L1165.88,91l-5-5.38c-0.68-.73-1.37-1.46-2-2.23q-3.73-4.51-7.46-9l-5.06-6.63c-0.7-.92-1.37-1.85-2.06-2.78-0.83-1.12-1.73-2.22-2.5-3.39-3.25-4.89-6.41-9.84-9.61-14.77a3.43,3.43,0,0,0-2.85-1.61,3.14,3.14,0,0,0-1.6.44h0Z"/><path class="cls-2" d="M1276.93,220.93a16,16,0,0,0-5,3.66,44.76,44.76,0,0,0-4,4.39c-0.76,1-1.53,1.92-2.24,2.91s-1.46,2.14-2.23,3.19a4.31,4.31,0,0,0-.79,1.19,1.33,1.33,0,0,0-.07,1.12,0.42,0.42,0,0,0,.62.25c0.52-.38,1-0.77,1.53-1.18,0,0,0,0,0,0l-0.67.16c0.51-.34,1-0.66,1.54-1,0.73-.52,1.45-1.06,2.17-1.61,1-.76,2-1.51,3-2.29l-0.25.2c1.13-.82,2.25-1.67,3.36-2.5a30,30,0,0,1,4.68-3.13,15.13,15.13,0,0,1,1.55-.41,10.53,10.53,0,0,1,1.47,0,27.83,27.83,0,0,1,4.94,1.41,33.79,33.79,0,0,1,6.27,3.72c0.74,0.63,1.45,1.28,2.24,1.86a9.33,9.33,0,0,0,3.48,1.36s0,0,0,0l-0.61-.45,0,0a12.38,12.38,0,0,1-1.93-2c-0.65-1-1.18-2.07-1.85-3a24,24,0,0,0-2.59-3.07,20.4,20.4,0,0,0-7.34-4.68,10.43,10.43,0,0,0-3.82-.75,9.49,9.49,0,0,0-3.52.67h0Z"/><path class="cls-2" d="M1202.52,210.62a7,7,0,0,0-2.62,1.19,14.65,14.65,0,0,0-2.26,2,17.76,17.76,0,0,0-1.37,1.73,25.37,25.37,0,0,0-1.71,2.64c-0.53.9-1,1.84-1.4,2.78q-1.37,3-2.54,6.06s0,0,0,0c1.54-1.48,3.07-3,4.57-4.49a64.64,64.64,0,0,1,5.47-5.13A20.42,20.42,0,0,1,1203,216a5,5,0,0,1,.54-0.14,12.46,12.46,0,0,1,1.62,0,11.54,11.54,0,0,1,1.49.4,19.36,19.36,0,0,1,3.46,2.06c1.1,0.88,2.12,1.84,3.21,2.73a18.86,18.86,0,0,0,4,2.45,15.34,15.34,0,0,0,6.77,1.32,0,0,0,0,0,0,0l-0.54-.22h0a20,20,0,0,1-4.08-2.46,24.88,24.88,0,0,1-3.35-3.5,54.67,54.67,0,0,0-3.41-4.4,14.36,14.36,0,0,0-2.44-2,9.39,9.39,0,0,0-2.68-1.36,9.24,9.24,0,0,0-2.13-.41h-0.47a14.67,14.67,0,0,0-2.38.23h0Zm1.42,5.16-0.18,0,0.18,0h0Z"/><path class="cls-2" d="M1280,261.81a4.69,4.69,0,0,0-2.39.65,9.14,9.14,0,0,0-1.91,1.3,65.84,65.84,0,0,1-7.52,4.78c-1.44.78-2.86,1.6-4.33,2.31l-4.94,2.4-5.53,2.27c-2,.82-4.09,1.44-6.13,2.14a120.27,120.27,0,0,1-11.83,3.39c-5.9,1.38-11.89,2.45-17.89,3.29-3,.39-6,0.72-9,1-0.66-3-1.34-5.92-2-8.89a0,0,0,0,0,0,0c-0.11,2.82-.16,5.63-0.2,8.45q0,0.3,0,.6a89.58,89.58,0,0,1-16.1-.33,73.84,73.84,0,0,1-15.25-4.52s0,0,0,0a83.82,83.82,0,0,0,8.53,5.95,41.11,41.11,0,0,0,9.93,4.07,70.18,70.18,0,0,0,10.21,1.89q1.36,0.17,2.72.29a88.5,88.5,0,0,0,.79,9.71,51.6,51.6,0,0,0,2.28,10.07,47.87,47.87,0,0,0,4.84,9.84,47,47,0,0,0,6.61,8.08,26.91,26.91,0,0,0,4.17,3.29,23.21,23.21,0,0,0,5.62,2.44,23.52,23.52,0,0,0,10.64.56,37.22,37.22,0,0,0,10.69-3.48,44.19,44.19,0,0,0,8.61-5.87,60.09,60.09,0,0,0,7.91-7.82,57.94,57.94,0,0,0,6.16-9,94.25,94.25,0,0,0,4.95-10.64c1.19-2.93,2.14-6,3.15-9,0.52-1.54.86-3.16,1.29-4.72,0.7-2.56,1.39-5.12,2-7.71a61.72,61.72,0,0,0,1-6.37,13.49,13.49,0,0,0-.46-5.84,7.34,7.34,0,0,0-1.52-2.68,5.57,5.57,0,0,0-1.35-1.16,7.51,7.51,0,0,0-1.76-.66,4.48,4.48,0,0,0-1.93-.12h0Zm-64.81,31.29a100.82,100.82,0,0,0,22.69-3.07,88.9,88.9,0,0,0,9.13-2.64l4.39-1.61,4-1.44c1.26-.46,2.49-1,3.72-1.57l4.07-1.73c1.14-.48,2.25-1.09,3.37-1.64,3.57-1.75,7.11-3.59,10.54-5.6-0.85,4.85-2.22,9.62-3.45,14.39-0.36,1.38-.86,2.73-1.3,4.08-0.78,2.4-1.61,4.76-2.56,7.09a66.54,66.54,0,0,1-7.55,13.44,60,60,0,0,1-9.13,9,37.74,37.74,0,0,1-6.78,4.12,33.56,33.56,0,0,1-6.67,1.91,26.37,26.37,0,0,1-4.13.09,15.56,15.56,0,0,1-7.4-3.13,52.3,52.3,0,0,1-7.45-7.67,53,53,0,0,1-6-10.05,98.73,98.73,0,0,1-4.37-14q1.7,0.06,3.39.06h1.54Z"/></svg>
