<svg id="Background" xmlns="http://www.w3.org/2000/svg" xmlns:xlink="http://www.w3.org/1999/xlink" viewBox="0 0 1536 700"><defs><style>.cls-1{fill:#fff570;}.cls-2{fill:#1021aa;}.cls-3{fill:#c12f8a;}.cls-4{fill:#046380;}.cls-5{fill:#db5120;}.cls-6{fill:#79bd8f;}.cls-7{fill:#ea2e49;}.cls-8{fill:#e6b098;}</style></defs><title>Radiant-3</title><image id="Background-2" data-name="Background" width="1" height="1" transform="scale(1536 700)" /><path class="cls-1" d="M400.52,174.19a182.93,182.93,0,0,0-22,1.84A159,159,0,0,0,362,179.49h0c-2.24.22-4.8,0.74-5.47,0.84-3.45.48-6.5,2-9.68,3.41a28.74,28.74,0,0,0-6,3.93,42.35,42.35,0,0,0-5.39,3.5A106.36,106.36,0,0,0,324,200.77c-2.09,2.13-4,4.27-6,6.54-3.49,4.08-6.88,8.23-10.3,12.36s-6.7,8.36-9.84,12.65-5,9-7,13.8c-2.21,5.42-3,10.71-3.72,16.53a53.17,53.17,0,0,0-.37,9.16c0,0.41,0,.82.08,1.22-0.67,2.31-1.28,4.65-1.76,7a162,162,0,0,0-2.43,19.55c-0.4,5.2-.52,10.41-0.58,15.62-0.05,4.38-.18,8.77-0.09,13.14A86.66,86.66,0,0,0,284,344.75a37.8,37.8,0,0,0,1.66,5.28c1.35,3.63,2.89,7.2,4.57,10.7,4.12,8.61,9.95,16.29,15.52,24,5.18,7.15,10.56,14,17.33,19.67a101.85,101.85,0,0,0,23.25,15c8.8,4,17.68,7.52,27.16,9.49,3.68,0.76,7.36,1.27,11.08,1.8,4.4,0.63,8.89,1.45,13.3,1.83l9.7,0.85c5.53,0.48,11,.67,16.57.86,3.15,0.11,6.29.22,9.44,0.23,3.8,0,7.59,0,11.39-.23a169.43,169.43,0,0,0,17.58-2.16c9.48-1.53,18.14-4.91,26.92-8.7a100.51,100.51,0,0,0,9.77-4.91,110.53,110.53,0,0,0,13.8-9.8c7.25-5.75,13.11-13.06,18.46-20.55,5.54-7.77,9.26-16.54,13-25.29,4.12-9.75,6.79-20,9.51-30.16a151.86,151.86,0,0,0,3.67-20.18l1.29-10.3a143.75,143.75,0,0,0,.94-17.35c0.07-19.11-5.25-38.12-16.56-53.64a152.72,152.72,0,0,0-10.1-12.55c-2.74-3-5.7-5.84-8.68-8.62a136.15,136.15,0,0,0-22.09-17.18A107.33,107.33,0,0,0,487.79,186a106.19,106.19,0,0,0-11.5-4,93.43,93.43,0,0,0-10.95-2.34c-5.76-.93-11.58-1.68-17.4-2.14a178.45,178.45,0,0,0-21.31-.54q-0.95-.26-1.91-0.48a92,92,0,0,0-21.11-2.29q-1.55,0-3.09,0h0Z"/><path class="cls-1" d="M377.25,66.9v80.6a4.5,4.5,0,1,0,9,0V66.9a4.5,4.5,0,0,0-9,0h0Z"/><path class="cls-1" d="M602.83,100.16c-4,3-8,5.82-12.05,8.64-1.5,1-3,2.1-4.54,3.05l-8.54,5.21c-4.09,2.49-8.25,4.86-12.38,7.27-3.53,2.07-7,4.32-10.31,6.66a210,210,0,0,0-16.45,13.33,4.37,4.37,0,0,0-1.32,3.18,4.49,4.49,0,0,0,4.5,4.5,4.72,4.72,0,0,0,3.18-1.32c3.69-3.18,7.37-6.39,11.19-9.41,2-1.54,4.11-3,6.23-4.42,1.9-1.28,3.82-2.59,5.8-3.74l6.24-3.65c3.64-2.12,7.25-4.26,10.85-6.45l6.61-4c0.44-.27.85-0.58,1.27-0.87l3.64-2.53q5.37-3.73,10.62-7.64a4.87,4.87,0,0,0,2.07-2.69,4.5,4.5,0,0,0-3.14-5.54,4.91,4.91,0,0,0-1.28-.16,3.72,3.72,0,0,0-2.19.62h0Z"/><path class="cls-1" d="M645.27,244.57c-7.43.15-14.85,0.51-22.27,0.93a4.67,4.67,0,0,0-3.18,1.32A4.5,4.5,0,0,0,623,254.5c10.46-.59,20.93-1,31.42-1.1q15.07-.1,30.14-0.14h20.75a4.5,4.5,0,0,0,0-9H688.71c-14.48,0-29,0-43.44.33h0Z"/><path class="cls-1" d="M595.36,405.23a4.54,4.54,0,0,0,1.61,6.16c10,5.86,19.84,11.89,29.71,17.92,8.42,5.14,17,10.05,25.5,15a136.55,136.55,0,0,1,13.18,8.34c4.35,3.44,8.44,7.23,12.47,11a4.5,4.5,0,0,0,6.36-6.36c-4.17-4-8.41-7.88-12.95-11.42a83.87,83.87,0,0,0-8.49-5.82q-2.3-1.38-4.62-2.73l-8.46-5-13.12-7.7c-4.24-2.48-8.4-5.09-12.6-7.65-7.44-4.55-14.91-9.06-22.43-13.47a4.39,4.39,0,0,0-2.24-.61,4.54,4.54,0,0,0-3.92,2.22h0Z"/><path class="cls-1" d="M480.55,488.16a4.3,4.3,0,0,0-2.69,2.07,74.38,74.38,0,0,0-3.7,10.14,41.2,41.2,0,0,0-.89,5.39,51,51,0,0,0-.32,6,89.31,89.31,0,0,0,.84,10.85c0.45,3.79,1.13,7.55,1.8,11.3,1,5.78,1.95,11.58,2.9,17.37,0.85,6.56,1.72,13.11,2.47,19.68,0.05,0.4.11,0.8,0.16,1.2a4.5,4.5,0,0,0,7.52,2A4.3,4.3,0,0,0,490,571c-0.79-6.86-1.69-13.71-2.58-20.56-0.46-3.55-1.12-7.09-1.71-10.63l-0.8-4.82c-0.65-4-1.46-7.9-2-11.88-0.36-2.93-.67-5.86-0.83-8.81a52.21,52.21,0,0,1,.28-8.64,45.32,45.32,0,0,1,2.94-9.92l0.39-.92,0.45-1.07a4.51,4.51,0,0,0-5.54-5.54h0Z"/><path class="cls-1" d="M352,458.61c-4.27,2-8.54,3.94-12.78,6l-6.48,3.13a122.78,122.78,0,0,0-15.18,8.64,66.33,66.33,0,0,0-12.91,11.44,51.74,51.74,0,0,0-5.23,7.25c-1.48,2.46-2.75,5-4,7.61-3.72,7.47-6.93,15.19-10.16,22.89a4.32,4.32,0,0,0,.45,3.47,4.5,4.5,0,0,0,6.16,1.61l0.91-.7a4.54,4.54,0,0,0,1.16-2l0.59-1.42c1.58-3.69,3.15-7.38,4.75-11.06,1.53-3.52,3.24-6.94,5-10.36a65.52,65.52,0,0,1,5.69-9.59,62,62,0,0,1,9.79-9.66c7.08-5.26,15-9.12,22.92-12.95,4.62-2.23,9.27-4.39,13.93-6.54a4.34,4.34,0,0,0,2.07-2.69,4.5,4.5,0,0,0-3.14-5.54,4.16,4.16,0,0,0-1.11-.15,5.61,5.61,0,0,0-2.36.61h0Zm-57.61,68.21-0.17.4,0.17-.4h0Z"/><path class="cls-1" d="M223.75,124.95a4.51,4.51,0,0,0-3.14,5.54l0.45,1.07a4.5,4.5,0,0,0,1.61,1.61c7.76,5.93,15.6,11.77,23.58,17.41l7.44,5.27c1.75,1.24,3.58,2.39,5.36,3.59q6.42,4.28,12.83,8.6c3.5,2.35,7,4.61,10.6,6.86a134.76,134.76,0,0,0,12,6.5,4.71,4.71,0,0,0,3.47.46,4.5,4.5,0,0,0,1.07-8.23c-3-1.48-5.9-3.06-8.83-4.62-1.95-1-3.77-2.27-5.64-3.45-4.46-2.82-8.82-5.76-13.2-8.7q-6.12-4.12-12.28-8.2c-1.6-1.07-3.15-2.21-4.72-3.32-2.08-1.47-4.18-2.92-6.24-4.41q-10.54-7.63-20.9-15.51a3.67,3.67,0,0,0-2.19-.62,4.93,4.93,0,0,0-1.28.16h0Z"/><path class="cls-1" d="M196.27,286.76l-8.26.13c-1.39,0-2.8,0-4.19.09-4.35.24-8.71,0.41-13.06,0.71-8.7.6-17.41,1.14-26.11,1.85a4.75,4.75,0,0,0-3.18,1.32,4.5,4.5,0,0,0,0,6.36,4.35,4.35,0,0,0,3.18,1.32c5.06-.41,10.13-0.74,15.2-1.1,4.46-.31,8.92-0.64,13.38-0.89l9.87-.54c1.77-.1,3.55-0.11,5.32-0.14,5.31-.08,10.62-0.14,15.93-0.14h52.41a4.5,4.5,0,0,0,0-9h-47l-8.21,0c-1.76,0-3.52,0-5.28,0h0Z"/><path class="cls-1" d="M265.5,386.75c-2.19.18-4.37,0.41-6.55,0.74a40.17,40.17,0,0,0-6.51,1.62A101.94,101.94,0,0,0,240,394.37c-4.08,2-8.05,4.14-12,6.39-4.16,2.39-8.3,4.84-12.33,7.46a105.36,105.36,0,0,0-10.91,8.27c-3.35,2.86-6.57,5.88-9.63,9-3.74,3.86-7.36,7.86-11,11.86a4.66,4.66,0,0,0-1.32,3.18,4.5,4.5,0,0,0,7.68,3.18c2.68-3,5.42-5.94,8.16-8.89a143.28,143.28,0,0,1,16.39-15.25A166.72,166.72,0,0,1,231.8,409a171.81,171.81,0,0,1,18.09-9.3,50.21,50.21,0,0,1,11.23-3.46q2.18-.27,4.38-0.46a4.77,4.77,0,0,0,3.18-1.32,4.52,4.52,0,0,0-2.95-7.69H265.5Z"/><path class="cls-2" d="M465.41,224a14.72,14.72,0,0,0-5,1.14c-6.4,2.47-10.39,8.45-13.37,14.33a37.43,37.43,0,0,0-3.29,9.72,58.22,58.22,0,0,0-.8,9.57,0,0,0,0,0,0,0c2.34-3.7,4.57-7.46,7.21-11,1.86-2.36,3.83-4.61,5.84-6.85a57.07,57.07,0,0,1,5.79-5.89,23,23,0,0,1,3.53-2.09,14.52,14.52,0,0,1,1.45-.43,15.51,15.51,0,0,1,2.18,0,22.36,22.36,0,0,1,4.13,1.34,31.65,31.65,0,0,1,6.06,3.37,43.3,43.3,0,0,1,5.57,6s0,0,0,0a39,39,0,0,0-1.32-5.15,20.8,20.8,0,0,0-4.84-7.71,29.66,29.66,0,0,0-3.64-3.14,15.69,15.69,0,0,0-4.32-2.41,14.89,14.89,0,0,0-5-.9h-0.26Z"/><path class="cls-2" d="M363.44,243.62a26.57,26.57,0,0,0-6.82,2.27,25.31,25.31,0,0,0-5.26,3.56,27.39,27.39,0,0,0-4.19,4.82c-2.67,3.55-4.34,8-5.64,12.18-2.52,8.16-2,16.65.2,24.8,0,0,0,0,0,0a117,117,0,0,1,4.69-14.37,82.25,82.25,0,0,1,4.45-8.45,83.87,83.87,0,0,1,4.71-7.29,39,39,0,0,1,5.41-5.63,28,28,0,0,1,4.51-2.67,38.34,38.34,0,0,1,7.26-1.85,108.33,108.33,0,0,1,13.56-.18c2.26,0.06,4.52.1,6.79,0.16,0,0,0,0,0,0-3.62-1.78-7.32-3.41-11.09-4.83a42.69,42.69,0,0,0-12.16-2.86q-0.85-.06-1.7-0.06a28.18,28.18,0,0,0-4.75.42h0Z"/><path class="cls-2" d="M518.14,222.64c0.88,2.22,2,4.34,3,6.49,1.06,2.57,2,5.18,2.91,7.79a51.35,51.35,0,0,1,2.69,9.55c0.09,0.73.18,1.46,0.24,2.2a28.44,28.44,0,0,1-.18,5.19c-0.19,1.81-.39,3.62-0.6,5.43q-0.59,5.16-1.23,10.32a119.58,119.58,0,0,1-2.27,12.32,118.36,118.36,0,0,1-4.37,13.71c-3.42,7.5-8.08,14.28-13,20.84-1.69,2-3.39,3.95-5.19,5.85-1.57,1.67-3.27,3.22-4.93,4.8-2.07,2-4.17,3.9-6.34,5.78-1.28,1.11-2.62,2.15-4,3.19l-4.57,3.38c-1.54,1.14-3.24,2.11-4.84,3.15s-3.46,2-5.18,3c-0.87.5-1.83,0.88-2.73,1.32s-1.93.93-2.9,1.37a92.18,92.18,0,0,1-19.85,4.83c-1.34.13-2.7,0.3-4,.31-1.69,0-3.38,0-5.07,0-3.52,0-7-.06-10.55-0.12s-7.18-.18-10.77-0.38c-2.7-.15-5.37-0.44-8-0.77-5.54-.89-11.08-1.73-16.64-2.44-2.52-.36-5.06-0.65-7.58-1.08-3-.5-6-0.88-8.95-1.61-3.58-.89-7.18-1.73-10.71-2.83-2.37-.74-4.66-1.77-7-2.65-1-.37-1.93-0.76-2.88-1.15-4-1.76-7.92-3.62-11.8-5.62a74.7,74.7,0,0,1-10-5.86c-1.09-1-2.13-1.95-3.16-3a54.18,54.18,0,0,1-4.13-4.12,57.73,57.73,0,0,1-5.44-9.36,0,0,0,0,0,0,0,46.77,46.77,0,0,0,1.1,7.48c0.32,1.19.67,2.37,1.08,3.53a31.32,31.32,0,0,0,2.53,5,45.08,45.08,0,0,0,4.24,6.63,53.86,53.86,0,0,0,4.74,5,113.7,113.7,0,0,0,12.77,10.32c2.24,1.54,4.52,3,6.85,4.42,2,1.2,4,2.42,6.08,3.43,2.37,1.14,4.82,2.08,7.27,3,9.85,3.86,20.34,5.73,30.76,7.34,5.9,0.91,11.82,2,17.79,2.3,5.59,0.3,11.17.42,16.76,0.46a113.81,113.81,0,0,0,17.87-.77,112.46,112.46,0,0,0,18-3.88A103.35,103.35,0,0,0,479.19,361c1.19-.59,2.32-1.35,3.47-2s2-1.19,3-1.84c2.51-1.67,4.91-3.39,7.32-5.21s4.91-3.63,7.18-5.62c2.06-1.81,4.11-3.6,6.08-5.5s3.85-3.57,5.66-5.46c2-2.12,4-4.26,5.89-6.48,2.11-2.45,4-5.09,5.93-7.67A79.46,79.46,0,0,0,532,307.34a55.55,55.55,0,0,0,4.35-12.95c0.63-3.3,1.2-6.59,1.59-9.92a84.88,84.88,0,0,0,.15-15.08c-0.32-5.19-.76-10.38-1.42-15.54a30.45,30.45,0,0,0-1.5-7.18,48.83,48.83,0,0,0-2.73-6.19,54.6,54.6,0,0,0-4.16-6.08c-1.51-2-3-4.07-4.65-6s-3.7-3.79-5.43-5.79h0a0,0,0,0,0,0,0h0Z"/><path class="cls-3" d="M823.19,395.91a90,90,0,0,0-25.41,8.19,148.23,148.23,0,0,0-13.12,7.34q-0.73-3.28-1.54-6.55a6.47,6.47,0,0,0-6.26,1.5l-5.22,3.48a129.23,129.23,0,0,0-23.76,23.76l-3.48,5.23a6.47,6.47,0,0,0-1.5,6.25c1.92,7.65,3.76,15.31,5.48,23,0.66,3,1.38,6,1.93,9s0.92,5.73,1.26,8.61c0,2.45.11,4.88,0,7.32a40.55,40.55,0,0,0-.39,5.91c0.17,1.91.06,3.41,1.84,4.36s4.45,0.82,6.31,1l-1.28-.14c9,0.91,18.12-.36,27.06-1.09,5.55-.45,11.09-0.93,16.64-1.4,11.55-1,23.13-1.71,34.71-2.36,8.11-.45,16.19-0.67,24.3-0.39a46.16,46.16,0,0,1,5.56.85l1.63,0.38a10.3,10.3,0,0,1,1.48.71,8.31,8.31,0,0,0,3,.42c1.25,0.1,3.85-1.41,4.13-1.55,2.81-1.49,7.25-5.14,9.48-7.07a93.47,93.47,0,0,0,14.27-15.19,31.53,31.53,0,0,0,4.59-8c1.25-3,.88-6.7.5-9.86a81,81,0,0,0-1.92-9.78q-1-4.15-2.07-8.3c-1.21-4.86-2.35-9.75-3.5-14.62a111.65,111.65,0,0,1-2-13,38.4,38.4,0,0,1,.14-7.93,10.67,10.67,0,0,0-.78-5.79c-0.58-1.27-2.43-1.74-3.64-2.13-4.05-1.31-8.46-1.44-12.66-1.85-3-.29-6-0.43-9-0.62-2.68-.18-5.39-0.46-8.07-0.53l-18.43-.45q-1.62,0-3.26,0a105.68,105.68,0,0,0-16.92,1.27h0Zm-28.63,32.72a104.27,104.27,0,0,1,18.73.43l17.1,1.54c7,0.76,14.12,1.3,21.17,2,1.87,0.24,3.73.56,5.59,0.85a8.35,8.35,0,0,1,4.55,2.1c1.15,1.08,1.26,3.3,1.51,4.86,0.72,7.74,1,15.48,2.25,23.17,0.27,1.63.54,3.26,0.83,4.88h-0.07c-10.41-.45-20.86-1.07-31.29-1-5.59.06-11.18,0.06-16.77,0.21L806.9,468a129.36,129.36,0,0,1-13.58.09l-2.16-.22a8.89,8.89,0,0,1-2.81-.82,2.41,2.41,0,0,1-1.17-1.66c0.13-2.4.73-4.83,0.93-7.22s0.41-4.87.47-7.34a139.59,139.59,0,0,0-.3-14.12c-0.19-2.41-.37-4.81-0.64-7.21,2.29-.39,4.61-0.68,6.93-0.89h0Z"/><path class="cls-3" d="M867.91,433.15A309,309,0,0,0,837,435.26c-10,1.36-20,2.88-30,4.45a30.88,30.88,0,0,0-9.15,5.21,115.49,115.49,0,0,0-18.75,17.61,74.67,74.67,0,0,0-8.41,11.28L769,477.76q-0.77,3.32,2.54,2.54c12.2-1.92,24.34-4.08,36.5-6.21,11.41-2,22.86-4.06,34.35-5.54,9.1-1.17,18.25-1.8,27.41-2.23a24.91,24.91,0,0,0,7.4-4.21,93.53,93.53,0,0,0,15.15-14.23,60.61,60.61,0,0,0,6.79-9.12l1.41-3.19q0.63-2.68-2-2.05c-7.43-.2-14.9-0.48-22.35-0.48-2.74,0-5.47,0-8.19.13h0Z"/><path class="cls-3" d="M843.54,412.33a79.47,79.47,0,0,0-10.24,1.3c-3.95.64-7.89,1.22-11.85,1.77-6.76.94-13.46,2.25-20.29,2.61a27.45,27.45,0,0,0-8.12,4.63,114.13,114.13,0,0,0-21,21,27.43,27.43,0,0,0-4.63,8.13,3.41,3.41,0,0,0,0,1.05c0.11,1.94-.17,2,1.18,2.61a6.59,6.59,0,0,0,1.85.33l2.34,0.24a114.35,114.35,0,0,0,13,.66c-2.89,3.11-5.64,6.35-8.24,9.66-2.39,3-5.2,6.86-6.07,10.76a3.1,3.1,0,0,0,.91,3.06l0.71,0.15a13.66,13.66,0,0,0,2.88.22c1.71,0,3.42-.25,5.13-0.17,2.2,0.11,4.37.29,6.55,0.5,7.38,0.92,14.82,1.66,22.1,3.21q6.46,1.38,12.88,2.88a59.08,59.08,0,0,0,13.83,1.76c3.75,0,7.39-2.09,10.67-3.57a69.46,69.46,0,0,0,7.15-4.07,74.61,74.61,0,0,0,11.29-8.42,115.6,115.6,0,0,0,17.63-18.77,30.88,30.88,0,0,0,5.22-9.16l-0.25-2.29a6.46,6.46,0,0,0-6.24,1.5c-2.09,1.26-4.17,2.53-6.32,3.67a22.47,22.47,0,0,1-6.07,1.22,54.39,54.39,0,0,1-8.07-.28l-3-.37a101,101,0,0,0,11.6-11.48,60.52,60.52,0,0,0,6.84-9.18l1.42-3.21q0.63-2.7-2.06-2.06c-7.6-.31-15.22-0.43-22.83-0.58q0.5-.78,1-1.57a5.64,5.64,0,0,0,1.31-5.44,1.7,1.7,0,0,0-.92-1.57c-1.13-.62-2.81-0.47-4-0.57-1.65-.14-3.3-0.21-5-0.21q-1.07,0-2.14,0h0Z"/><path class="cls-4" d="M1245.45,403.8a26,26,0,0,0-5.12,3.32,104,104,0,0,0-11,9.66c-4.87,5-10.07,10.29-13.4,16.53-0.52,1-1.12,1.93-1.7,2.88-0.89,1.46-1.83,2.89-2.76,4.32-3.82,5.9-7.63,11.82-11.49,17.7l-6.48,9.29c-3.24,4.64-6.15,9.48-9.13,14.29-4.44,7.18-8.4,14.66-12.47,22.06a6.48,6.48,0,0,0-1.5,6.26l2.3,0.25a31,31,0,0,0,9.19-5.24A118.76,118.76,0,0,0,1194.52,494c5.3-5.3,10.94-11.25,14.59-17.89q5.21-9.5,10.5-19c2.28-4.1,4.68-8.21,7.22-12.14l0.33-.5c0.84,0.83,1.66,1.68,2.5,2.51,1.89,1.88,3.82,3.73,5.68,5.65q6.19,6.39,12.32,12.84c1.74,1.84,3.45,3.71,5.15,5.59l-2.62.48a137.62,137.62,0,0,0-16.32,4.32c-2.52.81-5,1.68-7.56,2.49q0.33-.76.61-1.55l-0.22-2.08a5.86,5.86,0,0,0-5.66,1.36c-4.41,2.92-8.92,5.74-13.17,8.9a112.62,112.62,0,0,0-20.73,20.73,27.08,27.08,0,0,0-4.57,8c0.07,0.67.14,1.34,0.21,2a5.64,5.64,0,0,0,5.36-1.23l0.78-.34c5-2,10.17-3.76,15.37-5.27a106.53,106.53,0,0,1,14.62-3.36c4.07-.58,8.16-0.92,12.25-1.29,5.07-.45,10.16-1,15.24-1.31,3.11-.17,6.21-0.37,9.32-0.56,5.25-.31,10.79-0.57,15.82-2.18a24.12,24.12,0,0,0,4.9-2.24,71.29,71.29,0,0,0,10.62-7.89c7.28-6.72,14.14-13.62,19.41-22.07,1.52-2.44,2.29-5,.48-7.38-0.88-1.14-2.27-1.95-3.26-3-1.88-2-3.73-4.05-5.56-6.11-3.54-4-6.81-8.24-10.05-12.43-6.78-8.77-13.47-17.59-20.85-25.86-1.73-1.94-3.46-3.84-5.3-5.68a29.48,29.48,0,0,0-6.09-4.65,7.7,7.7,0,0,0-3.92-1.06,14.58,14.58,0,0,0-6.44,1.92h0Z"/><path class="cls-4" d="M1259.15,425.49c-4.79,1.21-8.66,4-12.66,6.79a88,88,0,0,0-8.28,6.64c-3,2.44-5.89,5.05-8.71,7.83a116.27,116.27,0,0,0-8.13,8.79,37.73,37.73,0,0,0-3.43,2.31,120.36,120.36,0,0,0-18,16.77c-3,3.49-6.55,7.52-8.51,11.8l-1.62,3.66a3,3,0,0,0,0,1.77,101,101,0,0,0-10.27,12.08A27.22,27.22,0,0,0,1175,512q-0.69,2.92,2.23,2.24a16.25,16.25,0,0,0,2.3.09c1.21-.07,5-2.08,5-2.07a46.69,46.69,0,0,0,4.27-2.34,143.55,143.55,0,0,0,17.37-12.74c4.32-3.54,8.36-7.4,12.43-11.23l1.11-1c-1.34,2.34-2.69,5.74-1.09,8.16,1.1,1.67,4.34,1.56,6,1.5s4.4-1.66,5.19-2a35.87,35.87,0,0,0,6.24-3.93,117.11,117.11,0,0,0,19.46-18.27,72.61,72.61,0,0,0,9.84-13.7c1.09-2.1,2-4.29,2.92-6.47s2.11-4.45,3.3-6.61a34.76,34.76,0,0,0,3-4.69c1.1-2.15,2.36-4.46,1.46-6.95-0.32-.87-1-0.91-1.89-1a23.55,23.55,0,0,0-5.42-.13c-2.56.29-5.12,0.93-7.65,1.42l-1.76.34,0.67-1.08c0.53-1,3.34-6.16.31-6.16a4.3,4.3,0,0,0-1,.15h0Z"/><path class="cls-4" d="M1248.19,424.3l-3.84,1.7a72.55,72.55,0,0,0-11,8.18c-6.77,5.5-12.6,12.23-18,19.07a66,66,0,0,0-4.17,6.38l-1.48,2.39-0.92,1.47a69.06,69.06,0,0,0-5.35,7.6l-1.62,3.65q-0.72,3.07,2.35,2.35c2,0.14,4.48-1.3,6.06-2.11q0.93-.48,1.88-0.93c1.13-.54,2.26-1.08,3.38-1.64s2.13-1.33,3.16-2h1.47a31,31,0,0,0,9.19-5.24,115.81,115.81,0,0,0,18.81-17.67,74.51,74.51,0,0,0,8.44-11.32l1.75-4q0.78-3.32-2.55-2.54c-1.31,0-2.63,0-3.94,0a2.32,2.32,0,0,1-1.51-1.21,10.71,10.71,0,0,1,.29-1.66q0.61-2.61-1.39-2.61a4.8,4.8,0,0,0-1.08.14h0Z"/><path class="cls-5" d="M1028.7,384.61c-9.75,3.93-17.78,11.19-25.14,18.51a126.86,126.86,0,0,0-18.11,22.6,130.58,130.58,0,0,0-11,22.27c-2.09,5.42-2.75,11.23-3.26,17a60.35,60.35,0,0,0,.92,19A30.78,30.78,0,0,0,983,501.19c6.38,5.06,14.28,6.71,22.18,7.52a74.34,74.34,0,0,0,24.26-1.36c11.33-2.61,21-9.71,29.5-17.33,11.24-10.08,22-21.55,28.86-35.18,3.63-7.24,6.82-15.3,6.41-23.54a21.8,21.8,0,0,0-3.05-10.64,45.59,45.59,0,0,0-7-8.41,20.26,20.26,0,0,0-3.71-2.83q0.7-.89,1.39-1.79l3.48-5.22a6.47,6.47,0,0,0,1.5-6.25c-2.79-1.27-5.59-2.61-8.47-3.65s-5.82-2-8.75-3c-2.56-.84-5.1-1.71-7.65-2.56a70.46,70.46,0,0,0-17.72-3.53c-2.19-.14-4.38-0.31-6.55-0.31a23.72,23.72,0,0,0-9,1.51h0Zm30.73,82.66a34.84,34.84,0,0,1-1.18,6.05,54.89,54.89,0,0,1-6.57.92q4-3.3,7.75-7h0Z"/><path class="cls-5" d="M1069.53,438.3c-4,2-9.09,6.22-12.33,9a132.22,132.22,0,0,0-26.56,31.52,8.46,8.46,0,0,0-.83,1.15q-1.93,2.27-3.74,4.65l-3.14,4.7a5.83,5.83,0,0,0-1.35,5.63,24.08,24.08,0,0,0,8.2,1.3,5.7,5.7,0,0,0,1.5-.33,29.43,29.43,0,0,0,5-2.23c4.35-2.25,8.39-5.91,12.13-9,4.46-3.64,8.77-8.45,12.63-12.66a88.83,88.83,0,0,0,6.47-8,91.24,91.24,0,0,0,7.46-11.74c1.63-3.22,3.48-6.91,3.62-10.62a7.24,7.24,0,0,0-1.27-4.74,2.19,2.19,0,0,0-1.82-.74c-2.18,0-5.22,1.72-5.95,2.08h0Z"/><path class="cls-6" d="M785.63,531.37l-5.23,3.49a129.25,129.25,0,0,0-23.79,23.79l-3.49,5.23a6.48,6.48,0,0,0-1.5,6.27c0.64,2.6,1.09,5.36,3.34,7.06a4.27,4.27,0,0,0,.87.5,55.93,55.93,0,0,0-9,5.42,113.67,113.67,0,0,0-19,17.88q-2.65,3.15-5.18,6.39c-1.39,1.79-4.72,6.7-5.32,9.37-0.67,3,.75,3.57,2.71,4.88a23.52,23.52,0,0,1,2.34,1.89,62.71,62.71,0,0,1,8.18,9.2,148.83,148.83,0,0,0,11.38,13.57A26.75,26.75,0,0,0,748,651.2a14.16,14.16,0,0,0,9.23,1.07,21.86,21.86,0,0,0,4.52-1.61l4.12-1.82c10-4.35,20.42-8,31.27-9.43,5.29-.7,10.58-0.93,15.91-1.13,2.33-.08,4.67,0,7,0,2.63,0.05,5.27.11,7.89,0s5.05-.14,7.54-0.45l4.72-.58c0.94-.12,1.87-0.27,2.8-0.41a32,32,0,0,0,8.57-3,18,18,0,0,0,2.26-1.26,78.27,78.27,0,0,0,11.37-8.5c6.46-6,13-12.14,18.13-19.36a43,43,0,0,0,5.8-10.42c0.25-.64.51-1.29,0.75-1.93,0.77-2,1.54-4.09,2.33-6.12a101.38,101.38,0,0,1,5.58-10.3c1.11-1.64,2.21-3.29,3.27-5a26.65,26.65,0,0,0,3.37-7.67,10.49,10.49,0,0,0-.17-3.75,4.9,4.9,0,0,0-1-2.31c-0.8-1-2.41-1.16-3.54-1.61-0.61-.24-1.25-0.46-1.84-0.75-1.36-.67-2.65-1.37-4-2.15-4.41-2.63-8.83-5.33-13.11-8.16-4.69-3.1-9.36-6.18-14.29-8.87a32.94,32.94,0,0,0-7-3,23.25,23.25,0,0,0-9.79-.3c-2.56.42-5.13,1.18-7.65,1.83-13.8,3.57-28,5.93-42.29,4.94a8.82,8.82,0,0,1-5.34-2.39c-1.67-1.76-2-4.73-2.59-7a6.89,6.89,0,0,0-1.85-.26,6.7,6.7,0,0,0-4.42,1.77h0Zm78.58,62.05a6,6,0,0,1,1.62,2.7,9,9,0,0,1-.22,1.49c-0.5.83-1,1.66-1.53,2.48-1,.11-2,0.22-3,0.34-2.85.36-5.73,0.54-8.6,0.73,4.42-1.72,8.16-4.64,11.75-7.74h0Z"/><path class="cls-6" d="M874,575.79a30.32,30.32,0,0,0-9,5.13,113.5,113.5,0,0,0-18.42,17.3,73.24,73.24,0,0,0-8.26,11.09c-0.83,1.57-4,7.25.78,6.37a15.7,15.7,0,0,1,3.77-.19,32.7,32.7,0,0,1,3.78.9,6.48,6.48,0,0,0,6.26-1.51l5.23-3.48a129.2,129.2,0,0,0,23.79-23.79l3.49-5.23a6.48,6.48,0,0,0,1.5-6.27,26,26,0,0,0-7.31-1.13,19.33,19.33,0,0,0-5.6.81h0Z"/><path class="cls-7" d="M1287.66,526.67c-2.84.32-5.7,0.57-8.53,1q-8.94,1.23-17.86,2.5c-5.35.77-10.71,1.72-16.08,2.23-11,1-22.05,1.67-33.1,2.28-0.84,0-1.66,0-2.49.11a13.1,13.1,0,0,0-4.25,1.82l-4.6,3.07a104.86,104.86,0,0,0-11.15,9.78c-1.19,1.21-2.4,2.44-3.58,3.7q-0.67-4.14-1.63-8.24a6.47,6.47,0,0,0-6.26,1.5l-5.23,3.48a129,129,0,0,0-23.77,23.77l-3.48,5.23a6.48,6.48,0,0,0-1.5,6.26,209,209,0,0,1,3.89,23.73c0.19,2.32.44,4.65,0.49,7a46.35,46.35,0,0,1-.54,10.58,44.76,44.76,0,0,0-3,4.8,6.2,6.2,0,0,0-1.44,6c1.87,1.29,3.79,1.28,6,1.5,1.77,0.16,3.57.18,5.34,0.2,1.25,0,2.51,0,3.77,0h3.17l9.8,0.07c5.24,0,10.5.64,15.74,0.86,12.16,0.51,24.28.43,36.45,0.18,10.77-.21,21.48-1.28,32.25-1.55a135.5,135.5,0,0,0,14.63-1,130.55,130.55,0,0,0,15.26-2.61c2.2-.57,4.37-1.2,6.53-1.9q1.54-.49,3.07-0.95a34,34,0,0,0,10.61-5.61,107.3,107.3,0,0,0,17.32-16.27,71.06,71.06,0,0,0,8.36-11.11,23.59,23.59,0,0,0,2.3-5.26,10.58,10.58,0,0,0-.09-3.8,26.3,26.3,0,0,0-1.35-5.48c-0.6-1.79-1.29-3.54-2-5.3q-1.33-3.5-2.66-7c-3.6-9.47-7.83-18.92-9.47-29a38.7,38.7,0,0,1,.19-7.55c0.06-.46.14-0.89,0.23-1.36a11.21,11.21,0,0,0-.17-3.52c-0.22-1.55-1.09-2.3-2.37-3.12s-3.29-1-4.82-1.31a53.12,53.12,0,0,0-7.88-.66l-1.72,0a130.41,130.41,0,0,0-14.48,1.05h0Zm1.48,75.93h0q0.51,1.86,1,3.72l-0.37,0q-2.57.31-5.15,0.54l3-3.25q0.73-.51,1.43-1.05h0Z"/><path class="cls-7" d="M1337,585.92c-8.07,0-16.12.13-24.18,0.6-7.62.44-15.23,1-22.85,1.16a28.35,28.35,0,0,0-8.38,4.77,105.81,105.81,0,0,0-17.15,16.11,68.31,68.31,0,0,0-7.69,10.32l-1.6,3.61q-0.71,3,2.32,2.32c7,0.2,13.89.71,20.82,1.16,7.71,0.5,15.41.6,23.13,0.6a30.89,30.89,0,0,0,9.17-5.23,115.84,115.84,0,0,0,18.77-17.64,74.87,74.87,0,0,0,8.42-11.3l1.75-4q0.63-2.69-1.43-2.69a4.94,4.94,0,0,0-1.11.15h0Z"/><path class="cls-8" d="M1084,525.68c-2.29.29-7.71,4.13-9,5.1a115.55,115.55,0,0,0-12,10.55,100.07,100.07,0,0,0-13.63,16.75c-0.42.66-.81,1.33-1.18,2-0.48-5.08-1.09-10.12-2-15.15-0.51-2.89-1.23-5.73-2-8.55-0.55-2.05-1-5.61-3.41-6.14-2.61-.59-3.95.16-6.44,1.56-6.34,3.55-12.05,8.66-17.11,13.81-3.62,3.7-7.73,7.84-10.71,12.15q-1,1.37-1.88,2.76c-3.39,5-6.94,9.87-10.42,14.8-0.32-2-.6-4.07-0.85-6.12q-0.39-3.9-.78-7.8c-0.3-3-.6-6.12-0.6-9.11a178.07,178.07,0,0,1,1.42-20.14q0.78-3.33-2.55-2.55l-4,1.75a74.55,74.55,0,0,0-11.32,8.44,140.22,140.22,0,0,0-12.73,12.72l-5,6.1a31,31,0,0,0-5.24,9.19,74,74,0,0,0-.73,11.53,86.2,86.2,0,0,0,1.66,13.24c1.32,6.54,2.79,13.1,3.65,19.72,0.08,1.35.12,2.7,0.18,4.06a30.8,30.8,0,0,0,.56,5.08c0.48,2.25,3,2.12,4.91,1.95s3.56-1.46,5.25-2.24a45.63,45.63,0,0,0,6.95-4.55,109.13,109.13,0,0,0,15-13.23c6.73-7.07,13.16-14.4,18.14-22.84l0.13-.23,0.07,0.21a70.84,70.84,0,0,1,2.16,9.65q0.67,4.14,1.24,8.3a2.06,2.06,0,0,0,.28,2q0.72,5.29,1.34,10.59c0.14,1.39.29,2.78,0.42,4.18,0.18,2.07,0,4.51,1,6.36a1.06,1.06,0,0,0,1,.53c2.71,0.67,4-.09,6.61-1.5a38,38,0,0,0,5.66-3.69,117.89,117.89,0,0,0,12.73-11.16,141.77,141.77,0,0,0,12.39-14.37c0.41,3.07.84,6.14,1.22,9.22,0.28,3.66.48,7.3,0.47,11,0,4.3-.51,8.62-0.94,12.9q-0.73,3.11,2.38,2.38l3.7-1.64a69.87,69.87,0,0,0,10.58-7.89,108.36,108.36,0,0,0,16.52-17.59l3.26-4.89a6,6,0,0,0,1.41-5.85c-0.2-1.53-.41-3.05-0.59-4.58-0.47-5-.75-10-1-15.09-0.25-5.25-.72-10.5-1-15.75-0.28-5.55-.28-11.11-0.35-16.66a55.92,55.92,0,0,0-.54-6.81,8.44,8.44,0,0,0-1.22-4.05,1.78,1.78,0,0,0-1.53-.59,12.8,12.8,0,0,0-1.6.16h0Zm-35.5,38.8,0,0.37,0-.36h0Z"/></svg>
